<?xml version="1.0" encoding="UTF-8"?><svg id="_レイヤー_2" xmlns="http://www.w3.org/2000/svg" viewBox="0 0 109.2 109.4"><defs><style>.cls-1{fill:#f2a6ba;}.cls-2{fill:#728d96;}.cls-3{fill:#fff;}.cls-4{fill:#f9cfb3;}.cls-5{fill:#edbf88;}.cls-6{fill:#5d388e;}.cls-7{fill:#2b0d04;}.cls-8{fill:#deb09d;}.cls-9{fill:#2b2924;}.cls-10{fill:#3d5872;}.cls-11{fill:#6a3d9b;}.cls-12{fill:#e6e7e8;}.cls-13{fill:#e2bba1;}.cls-14{fill:#d2a965;}.cls-15{fill:#647c82;}.cls-16{fill:#e2b477;}.cls-17{fill:#414042;}</style></defs><g id="_レイヤー_1-2"><g><g><g id="_12"><g><path class="cls-17" d="M74.8,45.1c1.7,5.1,3,17,.2,21.8,7.5-13.3,6.5-28.6,5.9-43.2-.5-11.7-10.3-21.7-22.1-22.3-4.2-.2-9.2,1-11,4.8-3.9-1.1-8,.7-10.8,3.6-14.4,14.6-.3,39.7,7.7,53.8-2.2-3.9-1.3-9.7-2.4-14-.9-4-1.6-6.6,.8-10.5,.2-.3,.5-.7,.8-.8,.6-.2,1.2,.1,1.6,.6,.3,.5,.5,1.1,.6,1.7,1,5.1,2.1,12.9,5.6,17,3.2,3.7,9.4,4.4,11.6-.5,2.5-5.6,6.4-10.5,8.7-16.4,.5-.4,1.2,.3,1.4,.9,.6,1.1,1,2.3,1.4,3.5Z"/><g><path class="cls-16" d="M40.7,36c-.3-.8-.3-1.6-.8-2.4-.5-.7-1.4-1.2-2.2-1.2-2.8-.1-3.1,3.3-2.1,5.2,.5,.9,1.3,1.7,1.8,2.6,.8,1.6,1.1,3.9,3.3,4.2,1.3,.1,2-.3,2.3-1.1,.6-1.4-.2-3.8-.9-5.1-.4-.6-1.1-1.4-1.4-2.2Z"/><g><path class="cls-14" d="M46.1,45.9c.9,5.4,2,12.1,.2,16.8-2.1,5.4-4.8,6.5-9.6,8.3,2.2,3.1,4.4,6.3,7,9s5.9,5,9.6,5.8c1.1,.2,2.3,.3,3.5,.2V45.7c-4.2-.1-10.6-.2-10.7,.2Z"/><path class="cls-16" d="M42,17.8c-4.7,6.5-4.5,15.6-1.7,22.8,2.3,5.8,9.5,15.8,16.5,15.6V10.6c-5.6-.3-11.6,2.7-14.8,7.2Z"/><path class="cls-11" d="M56.8,83.7v11H17.4c-.4-.4-.9-.8-1.3-1.3,.9-5.3,2-8.5,2.5-10,.2-.5,.5-1,.8-1.5,3.8-5.8,5.9-6.7,17.3-11,.1,.2,.2,.3,.4,.5,3.9,5.4,9,11.5,19.7,12.3Z"/></g></g><g><path class="cls-5" d="M76,32.5c-.9,0-1.7,.5-2.2,1.2-.6,.8-.5,1.6-.8,2.4s-1,1.5-1.4,2.3c-.7,1.2-1.5,3.7-.9,5.1,.3,.7,1,1.2,2.3,1.1,2.2-.2,2.5-2.6,3.3-4.2,.5-.9,1.3-1.7,1.8-2.6,1-2,.7-5.4-2.1-5.3Z"/><g><path class="cls-16" d="M67.3,62.7c-1.8-4.7-.7-11.3,.2-16.8-.1-.4-6.5-.3-10.7-.1v40.3c1.2,.1,2.3,0,3.5-.2,3.7-.8,7-3.1,9.6-5.8,2.6-2.7,4.8-5.9,7-9-4.8-2-7.5-3-9.6-8.4Z"/><path class="cls-5" d="M56.8,10.5l-.1,45.6c7.1,.2,14.4-9.8,16.7-15.6,2.8-7.2,3-16.3-1.7-22.8-3.3-4.4-9.3-7.4-14.9-7.2Z"/><path class="cls-6" d="M96.7,89.5c-1.5,1.8-3.2,3.6-4.9,5.2H56.8v-11c10.7-.9,15.9-7,19.7-12.2,.1-.2,.2-.3,.4-.5,11.5,4.3,13.5,5.2,17.3,11,.3,.5,.6,1,.8,1.5,.4,1,1.1,3,1.7,6Z"/></g></g><path class="cls-17" d="M74.9,15c-.5-.4-9.2-5.9-9.9-6-.6-.1-15.7,.2-16.1,.6-.4,.4-10.3,7.4-11.1,7.5v14.8l1.3,3.4s-.7-5.8,1.1-9.8c1.8-4.1,6.1-7,8.6-10.7-2.3,3.4,10.3,6.9,11.4,7.3,5.2,1.8,8.1,7.7,8.8,12.8,1.4,8.9,1.3,18-.3,26.8,3.5-5.5,6-11.8,6.9-18.2,.7-4.9,1.6-11.6,1.1-16.5-.2-2.1,0-10.5-1.8-12Z"/></g></g><path class="cls-11" d="M56.8,94.7v14.6h-2.2c-14.4,0-27.4-5.6-37.2-14.6H56.8Z"/><path class="cls-6" d="M91.8,94.7c-9.2,8.6-21.5,14.1-35,14.6v-14.6h35Z"/></g><path class="cls-1" d="M109.2,54.8c0,12.3-4.1,23.6-10.9,32.7-.5,.7-1,1.4-1.6,2-.1,.2-.3,.3-.4,.5-1.4,1.7-2.9,3.2-4.5,4.7-5.6,5.2-12.3,9.3-19.7,11.8-1.1,.4-2.2,.7-3.3,1-2.3,.6-4.8,1.1-7.2,1.4-.5,.1-1,.1-1.5,.2-.8,.1-1.5,.1-2.3,.2h-4c-.6,0-1.3,0-1.9-.1h0c-.5,0-1-.1-1.5-.1-2.4-.2-4.7-.5-7-1-3.3-.7-6.4-1.7-9.5-2.9-2.2-.9-4.3-2-6.4-3.1-.2-.1-.3-.2-.5-.3-3.5-2-6.7-4.4-9.6-7.2-.2-.2-.4-.3-.5-.5-.3-.2-.5-.5-.8-.8-1.1-1-2.1-2.1-3-3.3C5,80.5,0,68.1,0,54.6,0,24.5,24.4,0,54.6,0c30.2,.2,54.6,24.7,54.6,54.8Z"/><g id="_5"><g><g><path class="cls-9" d="M74.2,15.5c-.3-.4-.7-.7-1-1,.3,.3,.7,.7,1,1Z"/><path class="cls-7" d="M96.3,90c-1.4,1.7-2.9,3.2-4.5,4.7-5.6,5.2-12.3,9.3-19.7,11.8-.8,0-1.7-.1-2.5-.1-2.7-.1-5.4-.3-8.1-.4h-.1c-.9,0-1.7-.1-2.6-.1h-.2c-1.8-.1-3.6-.2-5.4-.3h-.6c-.7,0-1.4-.1-2.1-.1h-.3c-3-.1-6-.3-8.9-.4-.7,0-1.5-.1-2.2-.1-1.6-.1-3.3,.1-5.1,.3-2.2-.9-4.3-2-6.4-3.1-.2-.1-.3-.2-.5-.3-3.5-2-6.7-4.4-9.6-7.2-.2-.2-.4-.3-.5-.5,.1-4.2,1.9-8.9,3.9-13.4,2.2-4.8,4.7-9.3,5.9-12.4,2.3-6.4,4-13,5.1-19.7,.8-4.7,.4-9.2,.5-13.7,0-1.6,.1-3.3,.4-5,1.9-13.5,13.6-25.2,27.8-23,15.2,2.4,22.8,13.6,24.3,28.6,.5,5.2-.4,9.4,1.1,14.4,1.6,5.3,3.4,10.6,4.9,16,1.6,5.7,3.1,11.5,4.4,17.3,.2,2.3,.7,4.5,1,6.7Z"/></g><g><path class="cls-8" d="M42.7,70.4s3.1-6.7,1.9-14.5c-.9-6,24,2.2,24,2.2,0,0-1,5.7,0,10.7s-11.9,14.5-11.9,14.5l-8.5-4.3-1.2,1.2-4.3-9.8Z"/><path class="cls-4" d="M64.3,27.6c1.5-1,7.1-3.7,6.9-5.6,.3,2.3,1.4,4.3,2,6.5,.7,2.5,1.7,4.8,2.2,7.3,.9,4.7,1,10.1-.6,14.7-1.5,4.3-4.4,7.6-7.7,10.5-.2,.2-.5,.4-.7,.6-2.6,2.3-5.2,3.4-7.8,3.4l-.1-34.4c2-1,4-1.7,5.8-3Z"/><path class="cls-13" d="M49.1,36.5c3.1-1.7,9.2-6.1,9.4-6v34.5c-2.6,.1-5.2-1-7.8-3.4-.2-.2-.5-.4-.7-.6-3.6-3.2-6.8-6.5-7.6-11.2-.1-.6-.4-1.4-1.1-1.4-2.1-.1-3-3.7-3.4-5.9,3.3-2.6,7.7-4,11.2-6Z"/></g></g><g><path class="cls-12" d="M67.5,91.1c0,.3,0,.5-.1,.8l-.5,1.1-1.4,3.3-4,9.5v.1l-1.3,3.2c-.8,.1-1.5,.1-2.3,.2h-4c-.6,0-1.3,0-1.9-.1h0l-1.5-3.4-.2-.4-3.8-9.1-1.4-3.3-.5-1.1c-.1-.3-.2-.5-.1-.8,0-.3,.1-.6,.3-.9,.7-.9,1.5-1.8,2.3-2.7,.1-.1,.2-.2,.3-.3,2.1-2.1,4.6-4,7.3-5,.2-.1,.4-.2,.6-.2h0c.2-.1,.4-.1,.7-.2,.2,0,.4,.1,.5,.2,.5,.1,1,.3,1.4,.5,2.5,1.1,4.7,2.8,6.6,4.7h0c1,1,1.8,2,2.6,3,.2,.3,.3,.6,.4,.9Z"/><path class="cls-2" d="M98.3,87.5c-.5,.7-1,1.4-1.6,2-.1,.2-.3,.3-.4,.5-1.4,1.7-2.9,3.2-4.5,4.7-5.6,5.2-12.3,9.3-19.7,11.8-1.1,.4-2.2,.7-3.3,1-2.3,.6-4.8,1.1-7.2,1.4-.5,.1-1,.1-1.5,.2-.8,.1-1.5,.1-2.3,.2,.4-1.1,.7-2.3,1.1-3.5,0-.1,.1-.3,.1-.4l1.4-4.5c.9-3.1,1.9-6.2,2.8-9.3h0c.4-1.5,.9-2.9,1.3-4.4,.2-.5,.3-1.1,.5-1.6,1.4-4.6,2.8-9.1,4.2-13.6-.1,.3,0,.6,.1,.9,.2,.4,.6,.8,1.1,1.2,.9,.7,2.3,1.3,3.8,1.9,4.5,1.7,10.6,3.1,11.3,3.3,4,1.2,7.2,2.4,9.5,4.3,1.4,.9,2.5,2.2,3.3,3.9Z"/><path class="cls-15" d="M53.7,109.4c-.6,0-1.3,0-1.9-.1h0c-.5,0-1-.1-1.5-.1-2.4-.2-4.7-.5-7-1-3.3-.7-6.4-1.7-9.5-2.9-2.2-.9-4.3-2-6.4-3.1-.2-.1-.3-.2-.5-.3,.3-7.5,.4-14.9-.7-22-.1-.3-.1-.7-.2-1,2.8-.6,5.4-.6,8.5-1.8,.4-.2,2.4-1.3,4.2-2.5,1.3-.8,2.5-1.7,3-2.2,.1-.1,.2-.2,.3-.3v-.1c.1,.5,.3,.9,.4,1.4,1.5,4.7,2.9,9.4,4.4,14.2,.5,1.5,.9,3,1.4,4.5,1,3.2,2,6.4,2.9,9.5h0c.4,1.3,.8,2.6,1.2,3.9v.1c.6,1.2,1,2.5,1.4,3.8Z"/><g><path class="cls-10" d="M61.9,108.2l-.3,.8c-.5,.1-1,.1-1.5,.2-.8,.1-1.5,.1-2.3,.2h-4c-.6,0-1.3,0-1.9-.1h0c-.5,0-1-.1-1.5-.1l-.4-1v-.3l.5-2.1,.1-.4,.9-3.9h0l.3-1.2h0l2.2-10.1c.1-.6,0-1.1-.2-1.7l-1.2-2.3-.2-.5c-.1-.2,0-.4,.1-.5,.6-.6,1.1-1.1,1.7-1.7,.4-.4,.9-.7,1.1-1.2h0c.1-.1,.1-.3,.2-.4h0c.2-.3,.5-.6,.9-.4,.1,.1,.3,.2,.3,.3,.2,.3,.3,.6,.5,.8q.1,.1,.2,.2c.3,.3,.6,.6,.9,.9l1.5,1.5c.1,.1,.2,.3,.1,.5l-.2,.5-1.2,2.3c-.3,.5-.3,1.1-.2,1.7l2.2,10.1h0l.1,.5,1.1,5v.1l.4,2c-.2,.1-.2,.2-.2,.3Z"/><path class="cls-3" d="M40.2,77.3l2.9-8.3,2.3,4.2c2.6,3.7,8.4,7.5,10.5,7.5,2-.1,7.6-3.6,10.5-7.5l2.3-4.2,2.9,8.3v.4l-5.3,17.2c-.1,.5-.8,3.1-1.1,.2l-3-5.2c-.3-.6-.8-1.2-1.2-1.7l-5.1-6.4-5.1,6.4c-.5,.5-.9,1.1-1.2,1.7l-3,5.2c-.3,2.9-.9,.3-1.1-.2l-5.3-17.2c-.1-.1-.1-.3,0-.4Z"/><g><path class="cls-15" d="M70.9,87.8l4.9,8.8c.2,.3-2.7,4.5-6.3,9.8-.3,.4-.5,.8-.8,1.1-2.3,.6-4.8,1.1-7.2,1.4-.5,.1-1,.1-1.5,.2-.8,.1-1.5,.1-2.3,.2h-.2l1.1-3.5h0l1.6-5.4h0l1.4-4.6,1.5-4.4,1.4-4.2,.5-1.6,4.3-12.8,.3-1,.1,.1,3.7,3c.3,.1,.5,.5,.8,.9,1.6,2.9,2.8,10.8,3.4,12.7l-6.7-.7Z"/><path class="cls-2" d="M54.3,109.4h-.6c-.6,0-1.3,0-1.9-.1h0c-.5,0-1-.1-1.5-.1-2.4-.2-4.7-.5-7-1-.7-1.1-1.4-2.2-2.1-3.2-3.1-4.7-5.4-8.2-5.3-8.5l4.9-8.8-6.7,.7c.7-2.1,2.2-12.6,4.2-13.6l.5-.4,3.2-2.5,.1-.1v.1l.4,1.3,4.7,13.9,1.4,4.2,1.5,4.4,1.4,4.6h0l1.6,5.2,1.2,3.9Z"/></g></g><path class="cls-15" d="M27.5,102.2c-.2-.1-.3-.2-.5-.3-3.5-2-6.7-4.4-9.6-7.2-.2-.2-.4-.3-.5-.5-.3-.2-.5-.5-.8-.8-1.1-1-2.1-2.1-3-3.3,2-3.8,4.6-7.4,7.7-9.4,.4-.2,.7-.4,1.1-.6,1.5-.7,2.9-1.1,4.2-1.4,.1,.3,.1,.7,.2,1,1,6.1,1.3,12.3,1.1,18.4,0,1.5,0,2.8,.1,4.1Z"/></g></g></g></g></svg>