<?xml version="1.0" encoding="UTF-8"?><svg id="_レイヤー_2" xmlns="http://www.w3.org/2000/svg" viewBox="0 0 109.1 109.8"><defs><style>.cls-1{fill:#f2a6ba;}.cls-2{fill:#393b42;}.cls-3{fill:#de9f7a;}.cls-4{fill:#414244;}.cls-5{fill:#eca982;}.cls-6{fill:#ebb39a;}.cls-7{fill:#706451;}.cls-8{fill:#c0876c;}.cls-9{fill:#877960;}.cls-10{fill:#cad9e0;}.cls-11{fill:#ce9174;}.cls-12{fill:#f9bda3;}.cls-13{fill:#231f20;}</style></defs><g id="_レイヤー_1-2"><g><path class="cls-1" d="M109.1,54.6c0,11.1-3.3,21.5-9.1,30.1-2,3.1-4.4,6-7,8.6-.4,.4-.9,.9-1.3,1.3-8.4,7.8-19.3,13-31.3,14.3h0c-.7,.1-1.5,.1-2.2,.2-.3,0-.7,0-1,.1h-5.2c-.5,0-1,0-1.5-.1-12.8-.9-24.3-6.3-33.1-14.5-1.8-1.6-3.4-3.4-4.9-5.2-.9-1.1-1.7-2.2-2.5-3.3C3.7,77.2,0,66.4,0,54.6,0,24.5,24.4,0,54.6,0c30.1,.1,54.5,24.5,54.5,54.6Z"/><g id="_10"><g><g><path class="cls-7" d="M52.6,109.7h-1.4c-.3-.2-.5-.4-.8-.7-12.8-.9-24.3-6.3-33.1-14.5-1.8-1.6-3.4-3.4-4.9-5.2-.9-1.1-1.7-2.2-2.5-3.3,2.1-1.7,4.8-2.6,7.4-3.4,7.1-2.2,20.2-7.5,22.4-8.3h0c.2-.1,.3-.1,.3-.1-2.5,2.1-5.6,5.8-7,12.1-.4,8.3,.3,8.7,.3,8.7l11.3-1.9c.6,0-4.8,7.8-4.8,7.8,3,1.6,6.4,3.7,10,6.5,.8,.6,1.5,1.2,2.2,1.8,.2,.2,.4,.3,.6,.5Z"/><path class="cls-9" d="M58.2,109.1l-.3,.6h-6.7c-.3-.2-.5-.4-.8-.7-.3-.2-.5-.5-.8-.7-3.6-2.9-7.8-5.1-10.8-6.7,0,0,4.5-6,5.6-8l-11.5,2s-.7-.4-.3-8.9c1.4-6.5,4.6-10.3,7.1-12.4h0c1-.9,1.9-1.4,2.6-1.8,.7-.4,1.2-.6,1.2-.6h0c0,.1-.1,2.8-1.3,6.1,0,.1-.1,.2-.1,.4v.1c-1.7,7.5,10.5,23.5,14.8,28.8,.3,.4,.6,.8,.9,1.1,.1,.1,.2,.2,.3,.3,.2,.2,.3,.3,.3,.3l-.2,.1Z"/><path class="cls-9" d="M100,84.8c-2,3.1-4.4,6-7,8.6-.4,.4-.9,.9-1.3,1.3-8.4,7.8-19.3,13-31.3,14.3h0c-.3,.3-.6,.6-.9,.8h-2.5c.1-.2,.1-.4,.2-.6,0-.1,.1-.2,.1-.2,.1-.2,.3-.4,.4-.7h0c.4-.6,1-1.1,1.7-1.5,3-1.8,7.6-2.3,9.9-4.7,.2-.2,4.4-3.2,4.6-3,0,0-2.6-2.4-4.5-4.1-.1,0-.1-.1-.2-.2-.4-.4-.8-.7-1.1-1,1.6,.7,7.2,.3,10.5-.4-.1-9.5-2.2-14.9-4.5-17.8-.1-.2-.3-.4-.4-.5-.1-.1-.2-.3-.3-.4s-.2-.2-.3-.4c-.1-.1-.2-.2-.3-.3,5.1,1.5,10.1,3.1,15.2,4.6,4.3,1.3,9.2,2.1,12.1,5.8-.2,.2-.1,.3-.1,.4Z"/><g><path class="cls-5" d="M43.1,63.1q0,.1,0,0,0,.1,0,0c-.1,0,.1,.8,.2,2,.3,3.1,.6,9.1-1.4,12.9,2.1,4.6,3.3,9,12.9,9.3v-26.1c-5.5,.6-11,1.8-11.7,1.9Z"/><path class="cls-3" d="M66.3,64v-.8c-.1-2.5-5.7-2.6-11.4-2v26.1c1.4,0,3,0,4.7-.1,6.1-1.4,9.4-4.4,11.4-10.3-2.5-2.8-4.4-8-4.7-12.9Z"/><path class="cls-11" d="M43.1,63.1q0,.1,0,0,0,.1,0,0c-.1,0,5.9,8.7,11.6,9v-10.9c-5.4,.6-10.9,1.8-11.6,1.9Z"/><path class="cls-8" d="M66.2,63.2c-.1-2.5-5.7-2.6-11.4-2v10.9h.7c3.9-.4,8.3-4.9,10.8-8.8-.1,0-.1-.1-.1-.1Z"/></g><path class="cls-10" d="M61.8,86c-2.9,1.1-5.4,1-7.1,.8-.5-.1-.9-.2-1.2-.2-7.2-1.4-10.9-7.3-11.6-8.6-2,6.3,7.5,19.8,12.9,26.7,2,2.6,3.5,4.3,3.5,4.3l8.1-15c.2-.3,.3-.6,.5-.9,2.5-4.9,3.9-10.4,3.9-15.9-.5,1-2.9,6.6-9,8.8Z"/><path class="cls-7" d="M69.4,95c1.9,1.7,6.1,4.4,6.1,4.4-.1,.1-9.9,4.8-15.2,9.5h0c-.3,.3-.6,.6-.9,.8h-4.1c.1-.2,.2-.4,.2-.5,.1-.4,.3-.7,.5-1l.7-1h0l9.5-13.3c.2-.3,.3-.6,.5-.9,2.5-4.9,3.8-10.2,3.9-15.7v-.3l-.3-.1c-1.7-3-2.3-5.1-2.3-5.1h0c.1,0,2.3,.2,4.6,2.2,.1,.1,.2,.2,.3,.3,.1,.1,.2,.2,.3,.4,.1,.1,.2,.2,.3,.4,.1,.1,.2,.3,.3,.4l.1,.1c2.5,3,4.9,8.4,4.9,18.6-2.9,.6-7.5,.9-9.8,.6,.3,.1,.4,.1,.4,.2Z"/></g><g><path class="cls-2" d="M69.7,11.1c-1.3-.8-2.7-1.4-4.2-1.9-3.5-1.1-7.1-2.5-10.7-2.5V25.9h.3c2.1,0,3.9,.5,5.7,1.3,.8,.4,1.6,1,2.5,1-.2-.4-.5-.7-.9-1,1.3,.9,3,1.5,4.3,2.3,2,1.4,4.3,3.8,4.9,6.3,.8,3.1-.8,6.4-.1,9.5,.2-.8,1.3-2.4,2.1-3.1-.5,.5,1.4,.4,1.5,.4,.4-.1,.7-.3,.9-.6,.3-.4,.5-1,.7-1.7,.8-2.4,1.4-5,1.3-7.5,.1,.1,.3,.4,.6,.7,.4,.5,.9,1.2,.8,1.5,2.8-9.2-1.8-19.2-9.7-23.9Z"/><path class="cls-4" d="M51.4,7.1c1-.7,2.2-1.2,3.4-1.7h0c-2.3,.1-4.6,.5-6.8,1.2-1.2,.4-2.4,.9-3.5,1.7-1.3,1-2.1,2.6-2.6,4.1-1.1-.5-3.6,.1-4.7,.6-2.8,1.2-4.1,3.5-6,5.7-.7,.8-1.3,1.6-1.8,2.4-.7,1.2-1.1,2.5-1.3,4.2-.2,2.1-.1,4.2,0,6.3,.3-1.1,.8-2.1,1.6-3,.1,1-.5,1.7-.7,2.6-.2,1.1-.1,2.4,.2,3.6,.5,2.3,1.5,4.7,3,6.6,.2,.3,.5,.5,.7,.8,.2,.2,.5,.4,.7,.7,1.4,1.3,3,2.7,3.2,4.2-.4-3.3-1.4-6.1-1.2-9.2,0-.4,.1-.9,.2-1.3,.1-.7,.3-1.4,.6-2.1,.1,.4,.4,.8,.5,1.2,.2-4.1,2.4-5.3,4.7-8.2,1-1.3,2.5-2.3,2.8-4,1.2,1.5,2.4,1,4,1.3,2.2,.5,4,1.1,6.3,1.2V6.8c-1-.1-2.2,0-3.3,.3Z"/><path class="cls-6" d="M74,41.9c-1,.6-2.1,2.2-2.5,3.4-.7-3.1,.8-6.4,.1-9.5-.6-2.5-2.8-4.9-4.9-6.3-1.3-.9-3-1.4-4.3-2.3,.3,.3,.6,.7,.9,1-.9,0-1.7-.7-2.5-1-1.9-.9-3.7-1.3-5.7-1.3h-.3v43.6c2.9,0,3.1-.6,4.4-1.5,1.5-1.1,3.2-1.9,4.8-2.8,.7-.4,1.2-.8,1.7-1.3,.6-.6,1.1-1.4,1.5-2.4,.5-1,2.4-5,3.1-6-.1,.1,.9,.3,1,.4,.4,0,.8,0,1.2-.2,.6-.3,1.1-1.1,1.4-1.7,.8-1.4,1.1-3.1,1.7-4.6,.6-1.6,1.8-3.3,1.7-5.1,.1-2-1.5-3.5-3.3-2.4Z"/><path class="cls-12" d="M48.5,24.7c-1.6-.4-2.8,.2-4-1.3-.3,1.7-1.8,2.7-2.8,4-2.3,2.9-4.6,4.1-4.7,8.2-.1-.4-.4-.8-.5-1.2-.3,.7-.5,1.4-.6,2.1,0,.5-.1,.9-.2,1.3-.2,3.1,.8,5.9,1.2,9.2-.2-1.8-2.4-3.5-3.9-4.9-.1,.1-.2,.2-.4,.3-.1,.1-.2,.2-.3,.3-1.3,1.8,.6,4.9,1.3,6.6,.5,1.3,.8,2.8,1.4,4.1,.3,.6,.6,1.2,1,1.7,.3,.5,1.2,.6,1.8,.6,.3,0,.6-.2,.7-.4,1,2.3,2.5,4,3.6,6.2,.8,1.6,1.6,2.7,3.1,3.6,.1,0,.1,.1,.2,.1,1.7,.9,3.3,1.7,4.8,2.8,1.3,.9,1.2,1.5,4.5,1.5h.1V25.9c-2.3-.1-4.1-.8-6.3-1.2Z"/><g><path class="cls-8" d="M37.1,50.3c.1,.7,.1,1.6-.7,1.8-.2,.1-.5,0-.7-.2-.7-.7-.6-1.7-.4-2.5,.1-.6,.3-1.3,.3-2-.2-1.3-1.6-2.5-2.7-2,.3-.1,.4-.4,.8-.5,.5-.1,.7,0,1.3,.3,.2,.1,.4,.3,.5,.4,1,1.2,1.3,3,1.6,4.7Z"/><path class="cls-8" d="M71.8,50.6c-.1,.7-.1,1.6,.7,1.8,.2,.1,.5,0,.7-.2,.7-.7,.6-1.7,.4-2.5-.1-.6-.3-1.3-.3-2,.2-1.3,1.6-2.5,2.7-2-.3-.1-.4-.4-.8-.5-.5-.1-.7,0-1.3,.3-.2,.1-.4,.3-.5,.4-1.1,1.2-1.3,3-1.6,4.7Z"/></g></g></g><path class="cls-13" d="M73.4,40.8s-.7-.3-1.8-.6c-2.7-.7-8.4-1.4-15.1,1-.7,.1-1.3,.1-1.8,.2h-.4c-.5,0-1.3-.1-2.1-.2-7.9-2.7-14.6-1.2-16.4-.7-.3,.1-.5,.2-.5,.2-.5,.6,0,1.5,0,1.5,0,0,.4,.1,.5,.2,.1,0,.2,.1,.4,.2,.3,.2,.7,.4,.8,.6,.2,.4,.1,1,.2,1.4,.1,.8,.3,1.6,.5,2.3,.3,1,1,2.1,2,2.7,2,1.2,6.2,1,8.4,.4,2.3-.7,4.4-5,4.7-6.3,.2-.8,1.1-1,1.7-1h.4c.5,.1,1.2,.3,1.3,1,.2,1.3,2.3,5.6,4.7,6.3,2.1,.5,6.3,.8,8.4-.4,1-.6,1.6-1.7,2-2.7,.2-.6,.4-1.3,.5-1.9h0c0-.1,0-.3,.1-.4,.1-.4,0-1.1,.2-1.4,.2-.4,.8-.7,1.1-.8,0,0,.3-.1,.4-.1h0c-.1-.1,.3-.9-.2-1.5Zm-29.2,8.5c-1.4-.1-3.1-.4-4-1.5-.4-.4-.6-1-.8-1.5-.3-.9-.5-2.3-.1-3.4,.1-.3,.3-.6,.6-.8,1.1-.9,2.9-1,4.3-1,3.1,.1,6.1,.5,6.4,2.7-.2,1.4-1.4,6.1-6.4,5.5Zm25.1-2.9c-.2,.5-.4,1.1-.8,1.5-.9,1-2.7,1.3-4,1.5-5.1,.5-6.2-4.2-6.3-5.5,.2-2.2,3.3-2.6,6.4-2.7,1.4,0,3.2,0,4.3,1,.3,.2,.5,.5,.6,.8,.3,1,.1,2.4-.2,3.4Z"/></g></g></g></svg>