<?xml version="1.0" encoding="UTF-8"?><svg id="_レイヤー_2" xmlns="http://www.w3.org/2000/svg" viewBox="0 0 288.5 293.07"><defs><style>.cls-1,.cls-2{fill:#fff;}.cls-3{fill:none;stroke:#fff;stroke-linecap:round;stroke-linejoin:round;stroke-width:3px;}.cls-3,.cls-4,.cls-2{font-family:HGPSoeiKakugothicUB, HGPSoeiKakugothicUB;font-size:14.45px;}.cls-2{stroke:#000;stroke-miterlimit:10;}.cls-5{letter-spacing:.05em;}</style></defs><g id="_使い方"><g><polygon class="cls-1" points="17.58 75.9 0 93.03 32.03 93.03 17.58 75.9"/><rect class="cls-1" x="14.82" y="19.07" width="237.11" height="73.96" rx="18.03" ry="18.03"/><g><text class="cls-2" transform="translate(28.16 61.37)"><tspan x="0" y="0">貴方ならしっかり飼ってくれそうです</tspan></text><text class="cls-3" transform="translate(28.16 61.37)"><tspan x="0" y="0">貴方ならしっかり飼ってくれそうです</tspan></text><text class="cls-4" transform="translate(28.16 61.37)"><tspan x="0" y="0">貴方ならしっかり飼ってくれそうです</tspan></text></g><g><text class="cls-2" transform="translate(25.85 13.92)"><tspan x="0" y="0">飼い主</tspan></text><text class="cls-3" transform="translate(25.85 13.92)"><tspan x="0" y="0">飼い主</tspan></text><text class="cls-4" transform="translate(25.85 13.92)"><tspan x="0" y="0">飼い主</tspan></text></g><g><polygon class="cls-1" points="23.25 275.94 5.67 293.07 37.7 293.07 23.25 275.94"/><rect class="cls-1" x="20.49" y="219.11" width="218.1" height="73.96" rx="17.29" ry="17.29"/><g><text class="cls-2" transform="translate(51.47 261.31)"><tspan x="0" y="0">早速引き渡しの件です</tspan><tspan class="cls-5" x="133.93" y="0">が</tspan><tspan x="148.26" y="0">.....</tspan></text><text class="cls-3" transform="translate(51.47 261.31)"><tspan x="0" y="0">早速引き渡しの件です</tspan><tspan class="cls-5" x="133.93" y="0">が</tspan><tspan x="148.26" y="0">.....</tspan></text><text class="cls-4" transform="translate(51.47 261.31)"><tspan x="0" y="0">早速引き渡しの件です</tspan><tspan class="cls-5" x="133.93" y="0">が</tspan><tspan x="148.26" y="0">.....</tspan></text></g><g><text class="cls-2" transform="translate(31.52 213.96)"><tspan x="0" y="0">飼い主</tspan></text><text class="cls-3" transform="translate(31.52 213.96)"><tspan x="0" y="0">飼い主</tspan></text><text class="cls-4" transform="translate(31.52 213.96)"><tspan x="0" y="0">飼い主</tspan></text></g></g><g><text class="cls-2" transform="translate(218.56 116.12)"><tspan x="0" y="0">応募者</tspan></text><text class="cls-3" transform="translate(218.56 116.12)"><tspan x="0" y="0">応募者</tspan></text><text class="cls-4" transform="translate(218.56 116.12)"><tspan x="0" y="0">応募者</tspan></text></g><polygon class="cls-1" points="270.92 179.41 288.5 196.54 256.47 196.54 270.92 179.41"/><rect class="cls-1" x="67.7" y="122.58" width="205.98" height="73.96" rx="16.8" ry="16.8" transform="translate(341.37 319.12) rotate(-180)"/><g><text class="cls-2" transform="translate(95.63 164.53)"><tspan x="0" y="0">ありがとうございます！！</tspan></text><text class="cls-3" transform="translate(95.63 164.53)"><tspan x="0" y="0">ありがとうございます！！</tspan></text><text class="cls-4" transform="translate(95.63 164.53)"><tspan x="0" y="0">ありがとうございます！！</tspan></text></g></g></g></svg>