<?xml version="1.0" encoding="UTF-8"?><svg id="_レイヤー_2" xmlns="http://www.w3.org/2000/svg" viewBox="0 0 945.84 200.75"><defs><style>.cls-1{fill:#0cc;}.cls-2{fill:none;stroke:#fff;stroke-linecap:round;stroke-linejoin:round;stroke-width:7px;}</style></defs><g id="_レイヤー_1-2"><g><g><path class="cls-2" d="M59.41,75.52c2-3.5,4.8-6,8.2-7.1,5.4-1.8,10.8-.5,15.5,3.2,23.4,18.2,47.2,35.9,72.4,51.6-5,7.7-7.5,11.6-12.4,19.4-12.2-9.3-24.4-18.8-36.4-28.1-9.7-7.5-19.5-15-29.2-22.6-2.5-2-4.3-1.7-5.4,.9-7,15.1-14.1,30.2-23,44.3-7.1-5.7-10.6-8.5-17.8-14.1,5.9-7.6,11.4-16,15.9-24.4,4.5-8.2,8.6-15.9,12.2-23.1Zm65.4,1.3c-4.1,.8-7.9,.3-10.8-2.1-2.5-2-4-4.6-4.4-7.7-.6-3.7-.1-6.8,1.4-9.1,2.1-3.4,5.5-5.7,9.7-6.1,3.8-.4,7.7,.7,10.4,2.7,2.5,1.9,4,4.7,4.4,7.7,.4,3.1-.1,6-1.6,8.6-2.1,3.5-5.4,5.3-9.1,6Zm2.5-9.2c.9-1.2,1.3-2.4,1.1-3.8-.2-1.4-.9-2.5-2.1-3.4s-2.6-1.2-4-1-2.6,.9-3.6,2.1c-.9,1.2-1.3,2.5-1.1,3.8,.2,1.4,.9,2.5,2.1,3.3,1.2,.9,2.6,1.2,4,1,1.5-.1,2.7-.8,3.6-2Z"/><path class="cls-2" d="M154.11,70.72c5.8-3,8.6-4.5,14.4-7.6,5.4,7.8,10.5,16.2,14.5,24.8-5.7,3.2-8.6,4.8-14.2,8-4.3-8.6-9.2-17.2-14.7-25.2Zm22.2,63.9c15.6-7.8,31.6-18.8,40.6-33.8,8.4-14,11.2-30.5,13.7-46.6,7.8,1.7,11.8,2.6,19.6,4.4-3,18.2-8.3,37.7-18.7,53.1-10.4,15.5-25.9,28-42.3,36.8-5.1-5.5-7.7-8.3-12.9-13.9Zm5.9-72c6-3,9-4.5,15.1-7.4,4.9,7.8,9.6,15.7,14.1,23.9-6.2,2.7-9.3,4.1-15.5,6.9-4.7-8.9-9.2-16.7-13.7-23.4Z"/><path class="cls-2" d="M261.91,29.12c8.3-.7,12.5-1,20.8-1.7,1.1,14.6,2.2,29.2,3.3,43.8,3.5-4.8,5.3-7.2,8.9-12,16.5,7.7,31.8,17.3,47.1,27-4.8,6.5-7.2,9.7-11.9,16.2-14.1-9.3-28.2-19-43.7-26,1.6,20.9,3.2,41.9,4.8,62.8-8,.6-11.9,.9-19.9,1.6-3.1-37.3-6.2-74.5-9.4-111.7Z"/><path class="cls-2" d="M345.11,40.02c32-1.6,64-2.6,96.1-3.1,.9-.6,1.3-.9,2.2-1.6,5.5,5.9,8.3,8.9,13.8,14.9-14.2,16.5-28.4,33.3-44.4,48.2,5,5.5,7.5,8.2,12.5,13.7-6.3,5.1-9.4,7.6-15.6,12.8-13.3-14.5-27.4-27.6-42.9-39.8,5.8-5.8,8.7-8.7,14.5-14.5,5.6,5,11.1,9.8,16.6,14.4,10.2-9.2,19.3-19.4,28.4-29.6-26.7,.6-53.5,1.5-80.2,2.8-.5-7.4-.7-11-1-18.2Z"/><path class="cls-2" d="M465.21,50.22c6.1-2.3,9.1-3.4,15.2-5.7,4.3,8.4,8.3,17.4,11.2,26.4-6,2.4-9.1,3.7-15.1,6.1-3.1-9.1-6.9-18.2-11.3-26.8Zm13.9,66.1c16.4-5.7,33.7-14.7,44.5-28.4,10.1-12.8,14.9-28.8,19.5-44.5,7.6,2.7,11.3,4.1,18.8,6.8-5.3,17.7-13,36.3-25.3,50.4-12.3,14-29.2,24.5-46.5,31.2-4.4-6.2-6.6-9.3-11-15.5Zm14.9-70.7c6.3-2.2,9.5-3.3,15.9-5.5,3.9,8.3,7.5,16.8,11,25.5-6.5,1.9-9.8,2.9-16.3,4.9-3.5-9.3-7-17.6-10.6-24.9Z"/><path class="cls-2" d="M570.81,84.22c.3-7.2,.4-10.8,.7-18.1,16.4,.7,32.7,1.5,49.1,2.5,.3-5.8,.5-8.7,.9-14.4-10.7,1.8-21.5,2.7-32.3,3.4-2.9-7.2-4.4-10.8-7.4-17.9,25.5-1.5,50.7-4.5,75.3-11.6,5.3,5.8,7.9,8.7,13.2,14.5-8.7,3.5-18.2,6-27.4,7.8-.5,7.8-.8,11.7-1.4,19.6,13.3,.9,26.6,1.9,39.9,3.1-.6,7.2-.9,10.8-1.5,18-13.7-1.2-27.4-2.2-41.2-3.2-4.5,24.4-22.6,41.2-45.4,49-4.9-6.7-7.4-10-12.4-16.6,15.7-5.2,33.6-16.1,36.4-33.8-15.4-.9-30.9-1.7-46.5-2.3Z"/><path class="cls-2" d="M691.61,51.12c6-5.9,9-8.8,15.1-14.7,9.5,7.7,18.4,15.6,27.3,24-6.3,5.8-9.4,8.7-15.7,14.5-8.6-8.4-17.3-16.2-26.7-23.8Zm-5.6,69.5c19-3.7,38.1-8.6,55.3-17.3,17.7-8.9,34.1-22,47.4-37,4.8,7.3,7.1,10.9,11.8,18.2-14.6,14.1-31.3,26.7-49.4,36-18.4,9.4-38.1,15.5-58,20.9-2.8-8.3-4.2-12.5-7.1-20.8Z"/><path class="cls-2" d="M805.91,97.22c19.8-11.6,36.4-27.9,48.7-47.2,7.4,4.1,11.1,6.1,18.4,10.2-2.7,4-4,5.9-6.6,9.9,10.8,1.8,21.6,3.6,32.4,5.4,.8-.7,1.2-1.1,2-1.8,5.6,4.8,8.4,7.1,14,11.9-18.8,34.4-48.8,62.1-86.3,74.6-4.9-7-7.4-10.5-12.4-17.5,28-10.2,55.6-25.2,70.7-52.1-11.3-1.9-22.5-3.7-33.8-5.5-9.8,10.3-21,19.2-33,26.9-5.6-5.8-8.4-8.8-14.1-14.8Zm80.2-41.5c4.1-1.8,6.2-2.7,10.3-4.5,4.1,6.2,6.1,9.2,10.2,15.4-4.3,1.8-6.5,2.6-10.8,4.4-3.8-6.2-5.8-9.2-9.7-15.3Zm19.7,2.8c3.9-1.8,5.9-2.7,9.8-4.6,4.1,6,6.1,9,10.2,15-4.4,1.9-6.6,2.9-10.9,4.8-3.7-6-5.5-9.1-9.1-15.2Z"/></g><g><path class="cls-1" d="M59.41,75.52c2-3.5,4.8-6,8.2-7.1,5.4-1.8,10.8-.5,15.5,3.2,23.4,18.2,47.2,35.9,72.4,51.6-5,7.7-7.5,11.6-12.4,19.4-12.2-9.3-24.4-18.8-36.4-28.1-9.7-7.5-19.5-15-29.2-22.6-2.5-2-4.3-1.7-5.4,.9-7,15.1-14.1,30.2-23,44.3-7.1-5.7-10.6-8.5-17.8-14.1,5.9-7.6,11.4-16,15.9-24.4,4.5-8.2,8.6-15.9,12.2-23.1Zm65.4,1.3c-4.1,.8-7.9,.3-10.8-2.1-2.5-2-4-4.6-4.4-7.7-.6-3.7-.1-6.8,1.4-9.1,2.1-3.4,5.5-5.7,9.7-6.1,3.8-.4,7.7,.7,10.4,2.7,2.5,1.9,4,4.7,4.4,7.7,.4,3.1-.1,6-1.6,8.6-2.1,3.5-5.4,5.3-9.1,6Zm2.5-9.2c.9-1.2,1.3-2.4,1.1-3.8-.2-1.4-.9-2.5-2.1-3.4s-2.6-1.2-4-1-2.6,.9-3.6,2.1c-.9,1.2-1.3,2.5-1.1,3.8,.2,1.4,.9,2.5,2.1,3.3,1.2,.9,2.6,1.2,4,1,1.5-.1,2.7-.8,3.6-2Z"/><path class="cls-1" d="M154.11,70.72c5.8-3,8.6-4.5,14.4-7.6,5.4,7.8,10.5,16.2,14.5,24.8-5.7,3.2-8.6,4.8-14.2,8-4.3-8.6-9.2-17.2-14.7-25.2Zm22.2,63.9c15.6-7.8,31.6-18.8,40.6-33.8,8.4-14,11.2-30.5,13.7-46.6,7.8,1.7,11.8,2.6,19.6,4.4-3,18.2-8.3,37.7-18.7,53.1-10.4,15.5-25.9,28-42.3,36.8-5.1-5.5-7.7-8.3-12.9-13.9Zm5.9-72c6-3,9-4.5,15.1-7.4,4.9,7.8,9.6,15.7,14.1,23.9-6.2,2.7-9.3,4.1-15.5,6.9-4.7-8.9-9.2-16.7-13.7-23.4Z"/><path class="cls-1" d="M261.91,29.12c8.3-.7,12.5-1,20.8-1.7,1.1,14.6,2.2,29.2,3.3,43.8,3.5-4.8,5.3-7.2,8.9-12,16.5,7.7,31.8,17.3,47.1,27-4.8,6.5-7.2,9.7-11.9,16.2-14.1-9.3-28.2-19-43.7-26,1.6,20.9,3.2,41.9,4.8,62.8-8,.6-11.9,.9-19.9,1.6-3.1-37.3-6.2-74.5-9.4-111.7Z"/><path class="cls-1" d="M345.11,40.02c32-1.6,64-2.6,96.1-3.1,.9-.6,1.3-.9,2.2-1.6,5.5,5.9,8.3,8.9,13.8,14.9-14.2,16.5-28.4,33.3-44.4,48.2,5,5.5,7.5,8.2,12.5,13.7-6.3,5.1-9.4,7.6-15.6,12.8-13.3-14.5-27.4-27.6-42.9-39.8,5.8-5.8,8.7-8.7,14.5-14.5,5.6,5,11.1,9.8,16.6,14.4,10.2-9.2,19.3-19.4,28.4-29.6-26.7,.6-53.5,1.5-80.2,2.8-.5-7.4-.7-11-1-18.2Z"/><path class="cls-1" d="M465.21,50.22c6.1-2.3,9.1-3.4,15.2-5.7,4.3,8.4,8.3,17.4,11.2,26.4-6,2.4-9.1,3.7-15.1,6.1-3.1-9.1-6.9-18.2-11.3-26.8Zm13.9,66.1c16.4-5.7,33.7-14.7,44.5-28.4,10.1-12.8,14.9-28.8,19.5-44.5,7.6,2.7,11.3,4.1,18.8,6.8-5.3,17.7-13,36.3-25.3,50.4-12.3,14-29.2,24.5-46.5,31.2-4.4-6.2-6.6-9.3-11-15.5Zm14.9-70.7c6.3-2.2,9.5-3.3,15.9-5.5,3.9,8.3,7.5,16.8,11,25.5-6.5,1.9-9.8,2.9-16.3,4.9-3.5-9.3-7-17.6-10.6-24.9Z"/><path class="cls-1" d="M570.81,84.22c.3-7.2,.4-10.8,.7-18.1,16.4,.7,32.7,1.5,49.1,2.5,.3-5.8,.5-8.7,.9-14.4-10.7,1.8-21.5,2.7-32.3,3.4-2.9-7.2-4.4-10.8-7.4-17.9,25.5-1.5,50.7-4.5,75.3-11.6,5.3,5.8,7.9,8.7,13.2,14.5-8.7,3.5-18.2,6-27.4,7.8-.5,7.8-.8,11.7-1.4,19.6,13.3,.9,26.6,1.9,39.9,3.1-.6,7.2-.9,10.8-1.5,18-13.7-1.2-27.4-2.2-41.2-3.2-4.5,24.4-22.6,41.2-45.4,49-4.9-6.7-7.4-10-12.4-16.6,15.7-5.2,33.6-16.1,36.4-33.8-15.4-.9-30.9-1.7-46.5-2.3Z"/><path class="cls-1" d="M691.61,51.12c6-5.9,9-8.8,15.1-14.7,9.5,7.7,18.4,15.6,27.3,24-6.3,5.8-9.4,8.7-15.7,14.5-8.6-8.4-17.3-16.2-26.7-23.8Zm-5.6,69.5c19-3.7,38.1-8.6,55.3-17.3,17.7-8.9,34.1-22,47.4-37,4.8,7.3,7.1,10.9,11.8,18.2-14.6,14.1-31.3,26.7-49.4,36-18.4,9.4-38.1,15.5-58,20.9-2.8-8.3-4.2-12.5-7.1-20.8Z"/><path class="cls-1" d="M805.91,97.22c19.8-11.6,36.4-27.9,48.7-47.2,7.4,4.1,11.1,6.1,18.4,10.2-2.7,4-4,5.9-6.6,9.9,10.8,1.8,21.6,3.6,32.4,5.4,.8-.7,1.2-1.1,2-1.8,5.6,4.8,8.4,7.1,14,11.9-18.8,34.4-48.8,62.1-86.3,74.6-4.9-7-7.4-10.5-12.4-17.5,28-10.2,55.6-25.2,70.7-52.1-11.3-1.9-22.5-3.7-33.8-5.5-9.8,10.3-21,19.2-33,26.9-5.6-5.8-8.4-8.8-14.1-14.8Zm80.2-41.5c4.1-1.8,6.2-2.7,10.3-4.5,4.1,6.2,6.1,9.2,10.2,15.4-4.3,1.8-6.5,2.6-10.8,4.4-3.8-6.2-5.8-9.2-9.7-15.3Zm19.7,2.8c3.9-1.8,5.9-2.7,9.8-4.6,4.1,6,6.1,9,10.2,15-4.4,1.9-6.6,2.9-10.9,4.8-3.7-6-5.5-9.1-9.1-15.2Z"/></g></g></g></svg>