<?xml version="1.0" encoding="UTF-8"?><svg id="_レイヤー_2" xmlns="http://www.w3.org/2000/svg" viewBox="0 0 250 197.63"><defs><style>.cls-1{fill:#cb2265;}</style></defs><g id="_レイヤー_1-2"><g><path class="cls-1" d="M124.65,42.55c-3.6,1.8-7.2,4.2-10.5,7.5-16.7,16.7-31.8,31.8-31.8,31.8h0c-.1,.1-.2,.2-.3,.3-4.3,4.3-4.5,11.2-.5,15.7,.2,.2,.3,.4,.5,.5,4.5,4.5,11.7,4.5,16.2,0l17.5-17.5c3,1.1,6,1.8,8.8,2.1,3.9,.4,7.5,.3,10.8-.2,7.9-1.1,7.1-.8,11.6-2.3,4.6-1.5,9.7-4.6,9.7-4.6l3.1,3.1c.3,.3,8.3,8.3,12.3,12.3,.7,.7,1.3,1.3,1.7,1.7,.5,.5,1,.8,1.3,1.3l20.2,20.2c5.8-6.5,12.5-16.2,11.6-27.4l-50.4-50.4c.2,.1-17.3-1.2-31.8,5.9Z"/><path class="cls-1" d="M127.45,166.25c-4.5-4.5-11.7-4.5-16.2,0l-3.3,3.3c4.5-4.5,4.5-11.7,0-16.2s-11.7-4.5-16.2,0c4.5-4.5,4.5-11.7,0-16.2s-11.7-4.5-16.2,0c4.5-4.5,4.5-11.7,0-16.2s-11.7-4.5-16.2,0l-10,10c-4.5,4.5-4.5,11.7,0,16.2s11.7,4.5,16.2,0c-4.5,4.5-4.5,11.7,0,16.2s11.7,4.5,16.2,0c-4.5,4.5-4.5,11.7,0,16.2s11.7,4.5,16.2,0l3.3-3.3c-4.5,4.5-4.5,11.7,0,16.2,4.5,4.5,11.7,4.5,16.2,0l10-10c4.5-4.5,4.5-11.7,0-16.2Z"/><path class="cls-1" d="M248.05,60.75L189.25,1.95c-2.6-2.6-6.8-2.6-9.4,0l-18.9,18.9c-2.6,2.6-2.6,6.8,0,9.4l58.8,58.8c2.6,2.6,6.8,2.6,9.4,0l18.9-18.9c2.6-2.6,2.6-6.8,0-9.4Zm-16.7,13c-2.8,2.8-7.4,2.8-10.1,0-2.8-2.8-2.8-7.3,0-10.1,2.8-2.8,7.3-2.8,10.1,0,2.8,2.8,2.8,7.3,0,10.1Z"/><path class="cls-1" d="M89.05,22.45L70.15,3.55c-2.6-2.6-6.8-2.6-9.4,0L1.95,62.35c-2.6,2.6-2.6,6.8,0,9.4l18.9,18.9c2.6,2.6,6.8,2.6,9.4,0L89.05,31.85c2.6-2.6,2.6-6.8,0-9.4ZM28.85,75.45c-2.8,2.8-7.3,2.8-10.1,0s-2.8-7.3,0-10.1c2.8-2.8,7.3-2.8,10.1,0,2.8,2.7,2.8,7.3,0,10.1Z"/><path class="cls-1" d="M194.15,126.45l-3.6-3.7-35.4-35.4-2.4,1.1-2.6,.9-.2,.1c-.5,.1-4.7,1.5-13.2,2.6-4.5,.6-8.9,.7-13.1,.2-1.7-.2-3.4-.5-5-.8l-13.6,13.6c-8.1,8.1-21.4,8.1-29.6,0-.3-.3-.6-.6-.8-.9l-.1-.1c-5.1-5.8-6.5-13.8-4-20.7l5.2-8.1h0l31.8-31.8c1.3-1.3,2.7-2.5,4.1-3.6-9.9-1.9-18.2-1.4-18.2-1.4l-50.4,50.4c-.7,9.3,5.7,19.4,10.2,25.4,8.2-7.8,21.1-7.7,29.1,.3,3,3,4.9,6.7,5.7,10.5,3.9,.8,7.5,2.7,10.5,5.7s4.9,6.7,5.7,10.5c3.9,.8,7.5,2.7,10.5,5.7,2,2,3.5,4.3,4.5,6.7,5.4-.1,10.9,2,15,6.1,8.1,8.1,8.1,21.4,0,29.5l-3.3,3.3,1.7,1.7c4.5,4.5,11.7,4.5,16.2,0s4.5-11.7,0-16.2l3.3,3.3c4.5,4.5,11.7,4.5,16.2,0s4.5-11.7,0-16.2c4.5,4.5,11.7,4.5,16.2,0s4.5-11.7,0-16.2c4.5,4.5,11.7,4.5,16.2,0s4.5-11.7,0-16.2l-6.6-6.3Z"/></g></g></svg>