<?xml version="1.0" encoding="UTF-8"?><svg id="_レイヤー_2" xmlns="http://www.w3.org/2000/svg" viewBox="0 0 329.17 329.17"><defs><style>.cls-1,.cls-2{fill:#fff;}.cls-3{fill:none;stroke:#fff;stroke-linecap:round;stroke-linejoin:round;stroke-width:3px;}.cls-3,.cls-4,.cls-2{font-family:HGPSoeiKakugothicUB, HGPSoeiKakugothicUB;font-size:14.45px;}.cls-2{stroke:#000;stroke-miterlimit:10;}.cls-5{fill:#ff52ad;}.cls-6{letter-spacing:.05em;}</style></defs><g id="_使い方"><g><rect class="cls-5" width="329.17" height="329.17" rx="46.32" ry="46.32"/><polygon class="cls-1" points="31.01 91.55 13.43 108.68 45.46 108.68 31.01 91.55"/><rect class="cls-1" x="28.25" y="34.72" width="237.11" height="73.96" rx="18.03" ry="18.03"/><g><text class="cls-2" transform="translate(41.59 77.02)"><tspan x="0" y="0">貴方ならしっかり飼ってくれそうです</tspan></text><text class="cls-3" transform="translate(41.59 77.02)"><tspan x="0" y="0">貴方ならしっかり飼ってくれそうです</tspan></text><text class="cls-4" transform="translate(41.59 77.02)"><tspan x="0" y="0">貴方ならしっかり飼ってくれそうです</tspan></text></g><g><text class="cls-2" transform="translate(39.28 29.58)"><tspan x="0" y="0">飼い主</tspan></text><text class="cls-3" transform="translate(39.28 29.58)"><tspan x="0" y="0">飼い主</tspan></text><text class="cls-4" transform="translate(39.28 29.58)"><tspan x="0" y="0">飼い主</tspan></text></g><g><polygon class="cls-1" points="36.68 291.59 19.1 308.72 51.13 308.72 36.68 291.59"/><rect class="cls-1" x="33.92" y="234.76" width="218.1" height="73.96" rx="17.29" ry="17.29"/><g><text class="cls-2" transform="translate(64.9 276.97)"><tspan x="0" y="0">早速引き渡しの件です</tspan><tspan class="cls-6" x="133.93" y="0">が</tspan><tspan x="148.26" y="0">.....</tspan></text><text class="cls-3" transform="translate(64.9 276.97)"><tspan x="0" y="0">早速引き渡しの件です</tspan><tspan class="cls-6" x="133.93" y="0">が</tspan><tspan x="148.26" y="0">.....</tspan></text><text class="cls-4" transform="translate(64.9 276.97)"><tspan x="0" y="0">早速引き渡しの件です</tspan><tspan class="cls-6" x="133.93" y="0">が</tspan><tspan x="148.26" y="0">.....</tspan></text></g><g><text class="cls-2" transform="translate(44.95 229.62)"><tspan x="0" y="0">飼い主</tspan></text><text class="cls-3" transform="translate(44.95 229.62)"><tspan x="0" y="0">飼い主</tspan></text><text class="cls-4" transform="translate(44.95 229.62)"><tspan x="0" y="0">飼い主</tspan></text></g></g><g><text class="cls-2" transform="translate(231.99 131.78)"><tspan x="0" y="0">応募者</tspan></text><text class="cls-3" transform="translate(231.99 131.78)"><tspan x="0" y="0">応募者</tspan></text><text class="cls-4" transform="translate(231.99 131.78)"><tspan x="0" y="0">応募者</tspan></text></g><polygon class="cls-1" points="284.35 195.06 301.93 212.19 269.9 212.19 284.35 195.06"/><rect class="cls-1" x="81.13" y="138.23" width="205.98" height="73.96" rx="16.8" ry="16.8" transform="translate(368.23 350.43) rotate(-180)"/><g><text class="cls-2" transform="translate(109.06 180.18)"><tspan x="0" y="0">ありがとうございます！！</tspan></text><text class="cls-3" transform="translate(109.06 180.18)"><tspan x="0" y="0">ありがとうございます！！</tspan></text><text class="cls-4" transform="translate(109.06 180.18)"><tspan x="0" y="0">ありがとうございます！！</tspan></text></g></g></g></svg>