<?xml version="1.0" encoding="UTF-8"?><svg id="_レイヤー_2" xmlns="http://www.w3.org/2000/svg" viewBox="0 0 109.1 109.1"><defs><style>.cls-1{fill:#f2a6ba;}.cls-2{fill:#f9cfb3;}.cls-3{fill:#edbf88;}.cls-4{fill:#5d388e;}.cls-5{fill:#594a42;}.cls-6{fill:#cca692;}.cls-7{fill:#cad9e0;}.cls-8{fill:#6a3d9b;}.cls-9{fill:#e2bba1;}.cls-10{fill:#d2a965;}.cls-11{fill:#e2b477;}.cls-12{fill:#414042;}</style></defs><g id="_レイヤー_1-2"><g><g><g id="_12"><g><path class="cls-12" d="M34.3,44.8c-1.7,5.1-3,17-.2,21.8-7.5-13.3-6.5-28.6-5.9-43.2C28.7,11.7,38.5,1.7,50.3,1.1c4.2-.2,9.2,1,11,4.8,3.9-1.1,8,.7,10.8,3.6,14.4,14.6,.3,39.7-7.7,53.8,2.2-3.9,1.3-9.7,2.4-14,.9-4,1.6-6.6-.8-10.5-.2-.3-.5-.7-.8-.8-.6-.2-1.2,.1-1.6,.6-.3,.5-.5,1.1-.6,1.7-1,5.1-2.1,12.9-5.6,17-3.2,3.7-9.4,4.4-11.6-.5-2.5-5.6-6.4-10.5-8.7-16.4-.5-.4-1.2,.3-1.4,.9-.5,1.1-1,2.3-1.4,3.5Z"/><g><path class="cls-11" d="M68.5,35.7c.3-.8,.3-1.6,.8-2.4,.5-.7,1.4-1.2,2.2-1.2,2.8-.1,3.1,3.3,2.1,5.2-.5,.9-1.3,1.7-1.8,2.6-.8,1.6-1.1,3.9-3.3,4.2-1.3,.1-2-.3-2.3-1.1-.6-1.4,.2-3.8,.9-5.1,.4-.6,1.1-1.4,1.4-2.2Z"/><g><path class="cls-10" d="M63,45.6c-.9,5.4-2,12.1-.2,16.8,2.1,5.4,4.8,6.5,9.6,8.3-2.2,3.1-4.4,6.3-7,9s-5.9,5-9.6,5.8c-1.1,.2-2.3,.3-3.5,.2V45.4c4.2-.1,10.6-.2,10.7,.2Z"/><path class="cls-11" d="M67.1,17.5c4.7,6.5,4.5,15.6,1.7,22.8-2.3,5.8-9.5,15.8-16.5,15.6V10.3c5.6-.3,11.6,2.7,14.8,7.2Z"/><path class="cls-8" d="M52.3,83.4v11h39.4c.4-.4,.9-.8,1.3-1.3-.9-5.3-2-8.5-2.5-10-.2-.5-.5-1-.8-1.5-3.8-5.8-5.9-6.7-17.3-11-.1,.2-.2,.3-.4,.5-3.8,5.4-8.9,11.5-19.7,12.3Z"/></g></g><g><path class="cls-3" d="M33.1,32.2c.9,0,1.7,.5,2.2,1.2,.6,.8,.5,1.6,.8,2.4s1,1.5,1.4,2.3c.7,1.2,1.5,3.7,.9,5.1-.3,.7-1,1.2-2.3,1.1-2.2-.2-2.5-2.6-3.3-4.2-.5-.9-1.3-1.7-1.8-2.6-1-2-.6-5.4,2.1-5.3Z"/><g><path class="cls-11" d="M41.8,62.4c1.8-4.7,.7-11.3-.2-16.8,.1-.4,6.5-.3,10.7-.1v40.3c-1.2,.1-2.3,0-3.5-.2-3.7-.8-7-3.1-9.6-5.8-2.6-2.7-4.8-5.9-7-9,4.8-2,7.5-3,9.6-8.4Z"/><path class="cls-3" d="M52.3,10.2l.1,45.6c-7.1,.2-14.4-9.8-16.7-15.6-2.8-7.2-3-16.3,1.7-22.8,3.3-4.4,9.3-7.4,14.9-7.2Z"/><path class="cls-4" d="M12.4,89.2c1.5,1.8,3.2,3.6,4.9,5.2H52.3v-11c-10.7-.9-15.9-7-19.7-12.2-.1-.2-.2-.3-.4-.5-11.5,4.3-13.5,5.2-17.3,11-.3,.5-.6,1-.8,1.5-.4,1.1-1,3-1.7,6Z"/></g></g><path class="cls-12" d="M34.3,14.7c.5-.4,9.2-5.9,9.9-6,.6-.1,15.7,.2,16.1,.6,.4,.4,10.3,7.4,11.1,7.5v14.8l-1.3,3.4s.7-5.8-1.1-9.8c-1.8-4.1-6.1-7-8.6-10.7,2.3,3.4-10.3,6.9-11.4,7.3-5.2,1.8-8.1,7.7-8.8,12.8-1.4,8.9-1.3,18,.3,26.8-3.5-5.5-6-11.8-6.9-18.2-.7-4.9-1.6-11.6-1.1-16.5,.1-2.1,0-10.5,1.8-12Z"/></g></g><path class="cls-8" d="M52.3,94.5v14.6h2.2c14.4,0,27.4-5.6,37.2-14.6H52.3Z"/><path class="cls-4" d="M17.3,94.5c9.2,8.6,21.5,14.1,35,14.6v-14.6H17.3Z"/></g><path class="cls-1" d="M109.1,54.5c0,12.3-4.1,23.6-10.9,32.8-1.6,2.1-3.3,4.1-5.1,5.9-.4,.4-.9,.9-1.3,1.3-.8,.7-1.6,1.4-2.4,2.1-.4,.4-.9,.7-1.3,1.1-7,5.4-15.3,9.2-24.4,10.7-1.3,.2-2.6,.4-3.9,.5-1.7,.2-3.4,.2-5.2,.2h-2.2c-.7,0-1.4-.1-2.2-.1-1-.1-2-.2-2.9-.3-8-1.1-15.5-3.9-22-8.1-1.8-1.2-3.6-2.4-5.3-3.8-.9-.7-1.8-1.5-2.6-2.3-1.8-1.6-3.4-3.4-4.9-5.2-.4-.5-.9-1.1-1.3-1.6C4.2,78.5,0,67,0,54.6,0,24.5,24.4,0,54.6,0c30.1-.1,54.5,24.4,54.5,54.5Z"/><g id="_2"><g><g><g><path class="cls-6" d="M70,62.6l.1,1.2c.3,6.3-.7,10.1,4.3,14.8,2,1.9,4.1,4.3,3.7,7.1-.4,2.6-3,4.3-5.6,4.8-2.5,.6-5.2,.4-7.8,.8-3,.6-5.8,2.1-8.9,2-3.7-.1-6.9-2.7-9.5-5.3-2.6-2.6-5.2-5.5-8.7-6.8-.6-.2-1.4-.7-1.3-1.3,.1-.3,.3-.5,.5-.7,6.2-5.4,7.2-8.8,6.8-16.6h26.4Z"/><path class="cls-2" d="M54.8,25.9c1.6,.4,3.7-1.6,4.7-2.4,1.8-1.5,3.9-2.7,6.1-3.5,1.6-.6,3.4-1,5-.5,2.4,.7,4,3.1,4.5,5.6,.9,5.1-1.6,10.3-.8,15.4,.1,.7,.3,2.3,1.4,1.5,.5-.3,.2-1.2,.7-1.6,1.1-.9,1.6,.5,1.7,1.3,.3,2.9,0,6.1-1.2,8.9-.7,1.6-1.8,2.1-2.9,3.2-1.2,1.3-.9,3.7-1.2,5.3-.3,1.1-.7,2-1.3,2.9-1.3,1.8-3.7,2.8-5.2,4.5-1.4,1.6-2.7,3.2-4.7,4.2-1.2,.7-2.9,.7-4.5,.8-.2,0-.4,0-.6,.1l-2.3-45.9c.2,.1,.4,.1,.6,.2Z"/><path class="cls-9" d="M33.2,44.1c0-.8,.4-2.2,1.6-1.5,.5,.3,.3,1.2,.8,1.5,1.2,.7,1.2-1,1.3-1.7,.2-2.7-1.3-5.3-1.1-8,.2-2.5-.1-5,.7-7.4,.7-2.1,2-4,3.9-5.1,1.7-1,3.9-1.3,5.9-.8,1.7,.5,2.9,1.5,4.1,2.8,1.3,1.4,1.9,1.4,3.8,1.8l2.3,45.9c-1.4,.1-2.8,.1-3.9-.4-2.1-.9-3.5-2.3-5.1-3.8-1.7-1.5-4.1-2.2-5.6-4-.7-.8-1.2-1.7-1.6-2.8-.5-1.5-.5-3.9-1.8-5.1-1.2-1.1-2.3-1.4-3.2-2.9-1.5-2.4-2.1-5.6-2.1-8.5Z"/><path class="cls-5" d="M76.8,38.4c-.4,2.1-.9,4-1.4,5.7-.2,.8-.4,1.7-.6,2.4-.1,.3-.1,.6-.4,.9-.1,.1-.9,.7-.9,.5,.3-2.9,.6-5.7,.3-8.7-.5-5.1,.4-13.3-6.8-13.1-2.2,.1-4.2,.9-6.3,1.6-2,.7-4.2,1.3-6.4,.9-3.4-.6-6-3.6-9.4-4-5.2-.6-7.2,3.9-7.5,8.2-.2,2.9-.5,5.6-.2,8.6,.1,1.1,.5,2.1,.6,3.2,.1,.5,.8,3.8,.6,4s-.4-.1-.6-.3c-4-7.6-6.6-18-1.8-26.2,.9-1.6,2.3-3,3.7-4.3,3.9-3.7,7.7-7.4,11.6-11.1,.1-.1,.3-.2,.4-.3,.7-.4,1.6,.2,2.2,.8,6.7,5.6,16.3,6.1,21.7,13.8,3.2,4.6,2.5,11.5,1.2,17.4Z"/></g><g><path class="cls-7" d="M77.4,82.3c-.2,1.3-.7,2.5-1.3,3.7-.6,1.4-1.4,2.7-2.2,4-1.7,2.7-3.7,5.3-5.2,8.1-1.9,3.4-3.4,6.9-5.1,10.3-1.3,.2-2.6,.4-3.9,.5-1.7,.2-3.4,.2-5.2,.2h-2.2c-.7,0-1.4-.1-2.2-.1-1-.1-2-.2-2.9-.3-.1-.3-.2-.7-.2-1-1.6-7.4-3-14.9-6-22-.4-1-.7-2.1-.9-3.1-.4-2.1-.4-4.2-.2-6.3,0-.3,0-.6,.1-.9h0c.1,.1,.2,.2,.3,.3,1.8,1.7,8.7,7.6,18.5,6.7,6-.5,10.4-3.4,12.6-5.2,.3-.3,.6-.5,.9-.8,.1-.1,.3-.3,.4-.4,0,0,4.2,1.1,4.7,4,.2,.7,.1,1.5,0,2.3Z"/><path class="cls-8" d="M50.2,108.9c-1-.1-2-.2-2.9-.3-8-1.1-15.5-3.9-22-8.1-1.8-1.2-3.6-2.4-5.3-3.8-.1-1.7-.1-3.4-.2-5.2,0-1.9-5.1-3.9-4.5-5.6,.2-.7,1.2-1.4,2.5-2.1,2.8-1.4,6.9-2.7,8.1-2.9,3-.6,6-1.5,8.7-2.9,2.3-1.2,2.6-1.8,5.2-2.8h0c0,.1,.1,.2,.2,.5h0c.5,1.3,1.5,5.1,2.5,8.7h0c1.2,4.4,2.4,8.7,2.4,8.7l5.3,15.8Z"/><path class="cls-8" d="M90.9,83.8v.2c-.4,4.2-1,8.4-1.6,12.6-.4,.4-.9,.7-1.3,1.1-7,5.4-15.3,9.2-24.4,10.7-1.3,.2-2.6,.4-3.9,.5,1.7-4.1,3.2-7.4,3.7-8.7,.7-1.7,2-5.2,3.3-9.2,1.8-5.3,3.8-11.2,4.7-13.9,.2-.7,.4-1.2,.5-1.4v-.1s8.3,3.3,10.2,3.8c3.2,.9,6,3.2,8.8,4.4Z"/></g></g><g><path class="cls-5" d="M59.4,41.6v3.6s6.2-3.5,12-3.6c.1-2.2-12,0-12,0Z"/><path class="cls-5" d="M52.5,41.6v3.6s-6.2-3.5-12-3.6c0-2.2,12,0,12,0Z"/></g><path class="cls-5" d="M72.2,58.7c0,.3-.1,.5-.2,.7-.3,.6-.6,1.1-1,1.6-.4,.4-.6,1-.9,1.6-.6,1-1.4,2.1-2.4,2.8-2.4,1.8-5,3.5-7.6,4.8-.4,.2-.8,.4-1.3,.4-1.3-.1-2.1-3.3-3.2-1.2-.2,.4-.4,1-.8,1.3-2.2,1.6-6.8-2.8-8.4-4-.7-.5-1.5-1.1-2.1-1.8-.6-.6-1.1-1.3-1.6-2-1-1.4-2-2.8-2.1-4.5-.1,1.1-.2,2.3,.2,3.3,.1,.3,.3,.6,.4,.8,1.2,2,2.3,4.1,4.1,5.6,1.7,1.4,3.7,2.4,5.5,3.7,1.4,1,3.2,1.7,5.1,2,1.9-.3,3.7-1,5.2-2.1,1.9-1.4,4-2.5,5.9-4,.7-.6,1.3-1.2,1.8-1.9,.5-.6,1.2-1.3,1.6-2.1l.9-1.8c.6-.9,1.1-2,.9-3.2Z"/></g><g id="_3"><path class="cls-8" d="M25.2,100.5c-1.8-1.2-3.6-2.4-5.3-3.8-.9-.7-1.8-1.5-2.6-2.3-1.8-1.6-3.4-3.4-4.9-5.2-.4-.5-.9-1.1-1.3-1.6,1.7-1.8,4.3-2.8,6.8-3.7,1.1-.4,2.2-.7,3.1-1.1,.8-.3,1.5-.6,2.3-.9,.2-.1,.4-.1,.6,0,.1,.1,.2,.3,.2,.4,.2,1.8-.9,3.6-1.1,5.3-.2,2,.2,4,.7,6,.5,2.4,1.1,4.6,1.5,6.9Z"/><path class="cls-8" d="M98.2,87.3c-1.6,2.1-3.3,4.1-5.1,5.9-.4,.4-.9,.9-1.3,1.3-.8,.7-1.6,1.4-2.4,2.1-.4,.4-.9,.7-1.3,1.1,.2-1.9,.3-3.9,.4-5.8,.2-2.9-1.9-7.8,2.4-7.8h0c2.9-.2,5.4,1.2,7.3,3.2Z"/></g></g></g></g></svg>