<?xml version="1.0" encoding="UTF-8"?><svg id="_レイヤー_2" xmlns="http://www.w3.org/2000/svg" xmlns:xlink="http://www.w3.org/1999/xlink" viewBox="0 0 203.2 290.6"><defs><style>.cls-1{fill:url(#_名称未設定グラデーション_754-2);}.cls-2{fill:url(#_名称未設定グラデーション_756-2);}.cls-3{fill:url(#_名称未設定グラデーション_759);}.cls-4{fill:url(#_名称未設定グラデーション_756-3);}.cls-5{fill:url(#_名称未設定グラデーション_759-2);}.cls-6{fill:url(#_名称未設定グラデーション_758);}.cls-7{fill:url(#_名称未設定グラデーション_749);}.cls-8{fill:#7ecef4;}.cls-9{fill:url(#_名称未設定グラデーション_756-4);}.cls-10{fill:#000004;}.cls-11{fill:url(#_名称未設定グラデーション_750-2);}.cls-12{fill:url(#_名称未設定グラデーション_753);}.cls-13{fill:url(#_名称未設定グラデーション_752);}.cls-14{fill:url(#_名称未設定グラデーション_751-2);}.cls-15{fill:url(#_名称未設定グラデーション_752-2);}.cls-16{fill:url(#_名称未設定グラデーション_753-2);}.cls-17{fill:url(#_名称未設定グラデーション_757-2);}.cls-18{fill:url(#_名称未設定グラデーション_757);}.cls-19{fill:url(#_名称未設定グラデーション_754);}.cls-20{fill:url(#_名称未設定グラデーション_758-2);}.cls-21{fill:url(#_名称未設定グラデーション_751);}.cls-22{fill:url(#_名称未設定グラデーション_750);}.cls-23{fill:url(#_名称未設定グラデーション_756);}</style><linearGradient id="_名称未設定グラデーション_750" x1="67.59" y1="1889.97" x2="69.59" y2="1889.97" gradientTransform="translate(0 2027.32) scale(1 -1)" gradientUnits="userSpaceOnUse"><stop offset="0" stop-color="#666"/><stop offset="1" stop-color="#000"/></linearGradient><linearGradient id="_名称未設定グラデーション_751" x1="201" y1="1890.02" x2="202.97" y2="1890.02" gradientTransform="translate(0 2027.32) scale(1 -1)" gradientUnits="userSpaceOnUse"><stop offset="0" stop-color="#000"/><stop offset="1" stop-color="#666"/></linearGradient><linearGradient id="_名称未設定グラデーション_752" x1="135.15" y1="1753.12" x2="135.15" y2="1768.91" gradientTransform="translate(0 2027.32) scale(1 -1)" gradientUnits="userSpaceOnUse"><stop offset="0" stop-color="#959595"/><stop offset="1" stop-color="#000"/></linearGradient><linearGradient id="_名称未設定グラデーション_753" x1="135.2" y1="2011.67" x2="135.2" y2="2031.38" gradientTransform="translate(0 2027.32) scale(1 -1)" gradientUnits="userSpaceOnUse"><stop offset="0" stop-color="#000"/><stop offset="1" stop-color="gray"/></linearGradient><linearGradient id="_名称未設定グラデーション_754" x1="194.77" y1="1889.77" x2="199.58" y2="1889.77" gradientTransform="translate(0 2027.32) scale(1 -1)" gradientUnits="userSpaceOnUse"><stop offset="0" stop-color="#f0f0f0"/><stop offset="0" stop-color="#ededed"/><stop offset=".14" stop-color="#b4b4b4"/><stop offset=".27" stop-color="#858585"/><stop offset=".4" stop-color="#606060"/><stop offset=".51" stop-color="#464646"/><stop offset=".62" stop-color="#363636"/><stop offset=".7" stop-color="#303030"/></linearGradient><linearGradient id="_名称未設定グラデーション_756" x1="73.4" y1="1763.67" x2="196.8" y2="1763.67" gradientTransform="translate(0 2027.32) scale(1 -1)" gradientUnits="userSpaceOnUse"><stop offset="0" stop-color="#131313"/><stop offset=".02" stop-color="#1a1a1a"/><stop offset=".13" stop-color="#454545"/><stop offset=".24" stop-color="#666"/><stop offset=".35" stop-color="#7e7e7e"/><stop offset=".44" stop-color="#8d8d8d"/><stop offset=".52" stop-color="#929292"/><stop offset=".59" stop-color="#8b8b8b"/><stop offset=".69" stop-color="#767676"/><stop offset=".81" stop-color="#545454"/><stop offset=".95" stop-color="#252525"/><stop offset="1" stop-color="#131313"/></linearGradient><linearGradient id="_名称未設定グラデーション_756-2" x1="73.4" y1="2016.07" x2="199.6" y2="2016.07" xlink:href="#_名称未設定グラデーション_756"/><linearGradient id="_名称未設定グラデーション_757" x1="70.69" y1="1889.97" x2="73.54" y2="1889.97" gradientTransform="translate(0 2027.32) scale(1 -1)" gradientUnits="userSpaceOnUse"><stop offset="0" stop-color="#c8c8c8"/><stop offset=".23" stop-color="#9b9b9b"/><stop offset=".6" stop-color="#585858"/><stop offset=".86" stop-color="#2f2f2f"/><stop offset="1" stop-color="#1f1f1f"/></linearGradient><linearGradient id="_名称未設定グラデーション_758" x1="194.76" y1="1889.82" x2="199.58" y2="1889.82" gradientTransform="translate(0 2027.32) scale(1 -1)" gradientUnits="userSpaceOnUse"><stop offset="0" stop-color="#1f1f1f"/><stop offset=".14" stop-color="#2f2f2f"/><stop offset=".4" stop-color="#585858"/><stop offset=".77" stop-color="#9b9b9b"/><stop offset="1" stop-color="#c8c8c8"/></linearGradient><linearGradient id="_名称未設定グラデーション_759" x1="126.8" y1="2016.77" x2="142.61" y2="2016.77" gradientTransform="translate(0 2027.32) scale(1 -1)" gradientUnits="userSpaceOnUse"><stop offset="0" stop-color="#303030"/><stop offset=".12" stop-color="#242424"/><stop offset=".3" stop-color="#171717"/><stop offset=".48" stop-color="#131313"/><stop offset=".78" stop-color="#151515"/><stop offset=".89" stop-color="#1c1c1c"/><stop offset=".96" stop-color="#272727"/><stop offset="1" stop-color="#303030"/></linearGradient><linearGradient id="_名称未設定グラデーション_749" x1="43.86" y1="1981.18" x2="226.21" y2="1798.83" gradientTransform="translate(0 2027.32) scale(1 -1)" gradientUnits="userSpaceOnUse"><stop offset="0" stop-color="#f1f2f3"/><stop offset=".49" stop-color="#ededee"/><stop offset="1" stop-color="#e2e2e2"/></linearGradient><linearGradient id="_名称未設定グラデーション_750-2" x1=".44" y1="1852.07" x2="2.11" y2="1852.07" xlink:href="#_名称未設定グラデーション_750"/><linearGradient id="_名称未設定グラデーション_751-2" x1="112.41" y1="1851.87" x2="114.07" y2="1851.87" xlink:href="#_名称未設定グラデーション_751"/><linearGradient id="_名称未設定グラデーション_752-2" x1="57.1" y1="1737.07" x2="57.1" y2="1750.33" xlink:href="#_名称未設定グラデーション_752"/><linearGradient id="_名称未設定グラデーション_753-2" x1="57.05" y1="1954.11" x2="57.05" y2="1970.66" xlink:href="#_名称未設定グラデーション_753"/><linearGradient id="_名称未設定グラデーション_754-2" x1="107.19" y1="1851.87" x2="111.22" y2="1851.87" xlink:href="#_名称未設定グラデーション_754"/><linearGradient id="_名称未設定グラデーション_756-3" x1="5.3" y1="1745.82" x2="108.9" y2="1745.82" xlink:href="#_名称未設定グラデーション_756"/><linearGradient id="_名称未設定グラデーション_756-4" x1="5.35" y1="1957.87" x2="111.23" y2="1957.87" xlink:href="#_名称未設定グラデーション_756"/><linearGradient id="_名称未設定グラデーション_757-2" x1="3.03" y1="1851.97" x2="5.42" y2="1851.97" xlink:href="#_名称未設定グラデーション_757"/><linearGradient id="_名称未設定グラデーション_758-2" x1="107.18" y1="1851.87" x2="111.22" y2="1851.87" xlink:href="#_名称未設定グラデーション_758"/><linearGradient id="_名称未設定グラデーション_759-2" x1="50.14" y1="1958.47" x2="63.41" y2="1958.47" xlink:href="#_名称未設定グラデーション_759"/></defs><g id="_レイヤー_1-2"><g id="_オファー"><g><g><g><g><g><path class="cls-10" d="M184.7,0H85.6c-10.2,0-18.5,8.3-18.5,18.5v237.6c0,10.2,8.3,18.5,18.5,18.5h99.1c10.2,0,18.5-8.3,18.5-18.5V18.5c0-10.2-8.3-18.5-18.5-18.5Zm18,254.5c0,1.9-.3,3.8-.9,5.5,0,.1-.1,.3-.1,.4s-.1,.3-.1,.4-.1,.2-.1,.3c-.1,.3-.2,.6-.4,.9-.1,.1-.1,.3-.2,.4-.1,.2-.2,.3-.3,.5-.1,.1-.1,.2-.2,.3s-.1,.2-.2,.4c-.2,.3-.4,.7-.6,1-.1,.1-.1,.2-.2,.3s-.2,.2-.2,.3c-.1,.1-.2,.2-.2,.3-.1,.1-.2,.2-.3,.3-.1,.1-.2,.2-.3,.3-.2,.2-.4,.4-.5,.6-.3,.3-.6,.6-.9,.9-.1,.1-.2,.2-.3,.3-.2,.2-.4,.4-.7,.6-.1,.1-.2,.2-.3,.2-.3,.3-.7,.5-1,.7-.1,.1-.2,.2-.3,.2-.2,.2-.5,.3-.7,.4-.1,.1-.2,.1-.4,.2-.4,.2-.8,.4-1.2,.6-.1,.1-.2,.1-.3,.1-.1,.1-.3,.1-.4,.2-.1,.1-.3,.1-.4,.2-.3,.1-.6,.2-.9,.3-.1,0-.2,.1-.3,.1-.4,.1-.8,.2-1.2,.3-.1,0-.3,.1-.4,.1s-.3,.1-.5,.1c-.3,0-.6,.1-.8,.1h-.3c.3,0,.5-.1,.8-.1,.1,0,.2,0,.4-.1,.1,0,.2,0,.4-.1,.4-.1,.7-.2,1.1-.3,.1,0,.2-.1,.4-.1,.2-.1,.5-.2,.7-.2,.4-.1,.7-.3,1-.4,.1,0,.2-.1,.3-.2,.1-.1,.2-.1,.3-.2,.2-.1,.4-.2,.7-.3,.2-.1,.4-.2,.6-.4,.2-.1,.4-.2,.6-.4h.1c.3-.2,.6-.4,.9-.6,.1-.1,.2-.1,.3-.2,.3-.2,.5-.4,.8-.7,.6-.6,1.2-1.2,1.7-1.9,.1-.1,.2-.2,.2-.3,.8-1,1.4-2.1,1.9-3.3,.1-.2,.2-.4,.2-.6,.4-.9,.6-1.9,.8-2.9,0-.2,.1-.4,.1-.6,.1-.8,.2-1.6,.2-2.5V18.3c0-8.4-6.4-15.3-14.6-16.2H85c-8.6,.4-15.4,7.6-15.4,16.3v237.6c0,8.4,6.3,15.3,14.5,16.2h-.3c-.3,0-.6-.1-.8-.1-1.7-.3-3.3-.8-4.8-1.5-.1-.1-.2-.1-.3-.2-.3-.1-.5-.3-.8-.4-.1-.1-.2-.1-.4-.2-.6-.4-1.2-.7-1.7-1.2-.1-.1-.2-.2-.3-.2-.3-.2-.6-.5-.8-.7-.1-.1-.2-.2-.3-.3s-.2-.2-.3-.3-.2-.2-.3-.3-.1-.1-.2-.2c-.1-.1-.2-.2-.2-.3-.5-.5-.9-1.1-1.3-1.6-.1-.1-.1-.2-.2-.3-.2-.3-.4-.6-.6-1-.1-.1-.1-.2-.2-.4-.5-.9-.9-1.8-1.3-2.8,0-.1-.1-.3-.1-.4-.2-.7-.4-1.4-.5-2.1,0-.1-.1-.3-.1-.4-.2-1-.3-2-.3-3V17.5c0-.3,0-.6,.1-.9v-.9c0-.1,0-.3,.1-.4,0-.3,.1-.5,.2-.8,0-.1,.1-.3,.1-.4,.1-.4,.2-.7,.3-1.1,0-.1,.1-.2,.1-.3s.1-.3,.1-.4,.1-.2,.1-.3,.1-.2,.1-.3,.1-.2,.1-.3,.1-.2,.1-.3c.1-.1,.1-.2,.2-.4,.1-.2,.2-.4,.3-.6,.1-.1,.1-.2,.2-.3,.1-.1,.1-.2,.2-.4,.5-.8,1.1-1.7,1.7-2.4,.1-.1,.2-.2,.3-.3s.2-.2,.3-.4c.2-.2,.4-.4,.5-.6,.2-.2,.4-.4,.6-.6,.2-.2,.4-.4,.6-.6,.1-.1,.2-.2,.3-.3,.2-.2,.4-.3,.7-.5,.2-.2,.5-.3,.7-.5s.5-.3,.7-.4c.1-.1,.2-.1,.4-.2,.1-.1,.2-.1,.4-.2,.1-.1,.3-.1,.4-.2,.1-.1,.3-.1,.4-.2,.3-.1,.5-.2,.8-.3,.1-.1,.3-.1,.4-.2h0c.1,0,.3-.1,.4-.1s.3-.1,.4-.1,.3-.1,.4-.1,.3-.1,.4-.1,.3-.1,.4-.1,.3-.1,.4-.1c.3-.1,.6-.1,.9-.2,.1,0,.3,0,.4-.1,.3,0,.6-.1,.9-.1,.2,0,.5,0,.7-.1h101c.3,0,.6,0,.9,.1h.4c.1,0,.3,0,.4,.1,.1,0,.3,0,.4,.1,.1,0,.3,.1,.4,.1h0c.1,0,.3,.1,.4,.1s.3,.1,.4,.1h.1c.1,0,.2,.1,.4,.1s.3,.1,.5,.1c.1,0,.2,.1,.3,.1,.3,.1,.5,.2,.7,.3s.3,.1,.5,.2c.1,0,.2,.1,.4,.2,.1,.1,.3,.1,.4,.2,.1,.1,.3,.1,.4,.2,.9,.4,1.8,1,2.6,1.6,.1,.1,.2,.1,.3,.2,.4,.3,.7,.5,1,.8,.1,.1,.3,.3,.4,.4,.6,.5,1.1,1.1,1.6,1.7,.1,.1,.2,.2,.3,.3,.2,.2,.4,.5,.5,.7,.1,.1,.2,.2,.2,.4,.1,.2,.3,.4,.4,.6,.1,.1,.1,.2,.2,.3l.3,.6c.1,.1,.1,.2,.2,.3,.2,.3,.3,.7,.5,1.1,0,.1,.1,.2,.1,.3,.1,.4,.3,.7,.4,1.1,0,.1,.1,.3,.1,.4,.2,.8,.4,1.6,.6,2.4v.3c0,.1,0,.3,.1,.4V254.5h.1Z"/><g><path class="cls-22" d="M83.9,272.4h-.4c-.3,0-.6-.1-.8-.1-1.7-.3-3.3-.8-4.8-1.5-.1-.1-.2-.1-.3-.2-.3-.1-.5-.3-.8-.4-.1-.1-.2-.1-.4-.2-.6-.4-1.2-.7-1.7-1.2-.1-.1-.2-.2-.3-.2-.3-.2-.6-.5-.8-.7-.1-.1-.2-.2-.3-.3s-.2-.2-.3-.3-.2-.2-.3-.3-.1-.1-.2-.2c-.1-.1-.2-.2-.2-.3-.5-.5-.9-1.1-1.3-1.6-.1-.1-.1-.2-.2-.3-.2-.3-.4-.6-.6-1-.1-.1-.1-.2-.2-.4-.5-.9-.9-1.8-1.3-2.8,0-.1-.1-.3-.1-.4-.2-.7-.4-1.4-.5-2.1,0-.1-.1-.3-.1-.4-.2-1-.3-2-.3-3V20.3c0-9.6,7.6-17.5,17.2-18-8.6,.4-15.4,7.6-15.4,16.3v237.6c-.2,8.4,6.2,15.3,14.4,16.2Z"/><path class="cls-21" d="M202.7,20.3V254.5c0,1.9-.3,3.8-.9,5.5,0,.1-.1,.3-.1,.4s-.1,.3-.1,.4-.1,.2-.1,.3c-.1,.3-.2,.6-.4,.9-.1,.1-.1,.3-.2,.4-.1,.2-.2,.3-.3,.5-.1,.1-.1,.2-.2,.3s-.1,.2-.2,.4c-.2,.3-.4,.7-.6,1-.1,.1-.1,.2-.2,.3s-.2,.2-.2,.3c-.1,.1-.2,.2-.2,.3-.1,.1-.2,.2-.3,.3l-.3,.3c-.2,.2-.4,.4-.5,.6-.3,.3-.6,.6-.9,.9-.1,.1-.2,.2-.3,.3-.2,.2-.4,.4-.7,.6-.1,.1-.2,.2-.3,.2-.3,.3-.7,.5-1,.7-.1,.1-.2,.2-.3,.2-.2,.2-.5,.3-.7,.4-.1,.1-.2,.1-.4,.2-.4,.2-.8,.4-1.2,.6-.1,.1-.2,.1-.3,.1-.1,.1-.3,.1-.4,.2-.1,.1-.3,.1-.4,.2-.3,.1-.6,.2-.9,.3-.1,0-.2,.1-.3,.1-.4,.1-.8,.2-1.2,.3-.1,0-.3,.1-.4,.1s-.3,.1-.5,.1c-.3,0-.6,.1-.8,.1h-.4c8.2-.9,14.6-7.8,14.6-16.2V18.5c0-8.5-6.6-15.6-15-16.2,9.2,.7,16.6,8.5,16.6,18Z"/><path class="cls-13" d="M202.7,254.5v1.7c0,9.9-8.1,18-18,18H85.6c-9.9,0-18-8.1-18-18v-1.7c0,1,.1,2.1,.3,3,0,.1,.1,.3,.1,.4,.1,.7,.3,1.4,.5,2.1,0,.1,.1,.3,.1,.4,.3,1,.8,1.9,1.3,2.8,.1,.1,.1,.2,.2,.4,.2,.3,.4,.7,.6,1,.1,.1,.1,.2,.2,.3,.4,.6,.8,1.1,1.3,1.6,.1,.1,.2,.2,.2,.3q.1,.1,.2,.2c.1,.1,.2,.2,.3,.3s.2,.2,.3,.3,.2,.2,.3,.3c.3,.2,.6,.5,.8,.7,.1,.1,.2,.2,.3,.2,.5,.4,1.1,.8,1.7,1.2,.1,.1,.2,.1,.4,.2,.3,.2,.5,.3,.8,.4,.1,.1,.2,.1,.3,.2,1.5,.7,3.1,1.3,4.8,1.5,.3,0,.6,.1,.8,.1h0c.3,0,.6,.1,.9,.1h101.5c.2,0,.5,0,.7-.1h.2c.3,0,.6-.1,.8-.1s.3-.1,.5-.1c.1,0,.3-.1,.4-.1,.4-.1,.8-.2,1.2-.3,.1,0,.2-.1,.3-.1,.3-.1,.6-.2,.9-.3,.1,0,.3-.1,.4-.2,.1-.1,.3-.1,.4-.2,.1,0,.2-.1,.3-.1,.4-.2,.8-.4,1.2-.6,.1-.1,.2-.1,.4-.2,.2-.1,.5-.3,.7-.4,.1-.1,.2-.1,.3-.2,.3-.2,.7-.5,1-.7,.1-.1,.2-.2,.3-.2,.2-.2,.4-.4,.7-.6,.1-.1,.2-.2,.3-.3,.3-.3,.6-.6,.9-.9,.2-.2,.4-.4,.5-.6,.1-.1,.2-.2,.3-.3,.1-.1,.2-.2,.3-.3,.1-.1,.2-.2,.2-.3,.1-.1,.2-.2,.2-.3,.1-.1,.1-.2,.2-.3,.2-.3,.4-.6,.6-1,.1-.1,.1-.2,.2-.4,.1-.1,.1-.2,.2-.3,.1-.2,.2-.3,.3-.5,.1-.1,.1-.3,.2-.4,.1-.3,.3-.6,.4-.9,0-.1,.1-.2,.1-.3,.1-.1,.1-.3,.1-.4s.1-.3,.1-.4c.8-1.8,1.1-3.7,1.1-5.6Z"/></g><path class="cls-12" d="M202.7,18.6v1.7c0-9.3-7.2-17-16.3-17.9H84.9c-9.5,.4-17.2,8.3-17.2,18v-2.6c0-.3,0-.6,.1-.9v-.9c0-.1,0-.3,.1-.4,0-.3,.1-.5,.2-.8,0-.1,.1-.3,.1-.4,.1-.4,.2-.7,.3-1.1,0-.1,.1-.2,.1-.3s.1-.3,.1-.4,.1-.2,.1-.3,.1-.2,.1-.3,.1-.2,.1-.3,.1-.2,.1-.3c.1-.1,.1-.2,.2-.4,.1-.2,.2-.4,.3-.6,.1-.1,.1-.2,.2-.3,.1-.1,.1-.2,.2-.4,.5-.8,1.1-1.7,1.7-2.4,.1-.1,.2-.2,.3-.3s.2-.2,.3-.4c.2-.2,.4-.4,.5-.6,.2-.2,.4-.4,.6-.6,.2-.2,.4-.4,.6-.6,.1-.1,.2-.2,.3-.3,.2-.2,.4-.3,.7-.5,.2-.2,.5-.3,.7-.5s.5-.3,.7-.4c.1-.1,.2-.1,.4-.2,.1-.1,.2-.1,.4-.2,.1-.1,.3-.1,.4-.2,.1-.1,.3-.1,.4-.2,.3-.1,.5-.2,.8-.3,.1-.1,.3-.1,.4-.2h0c.1,0,.3-.1,.4-.1s.3-.1,.4-.1,.3-.1,.4-.1,.3-.1,.4-.1,.3-.1,.4-.1,.3-.1,.4-.1c.3-.1,.6-.1,.9-.2,.1,0,.3,0,.4-.1,.3,0,.6-.1,.9-.1,.2,0,.5,0,.7-.1h101c.3,0,.6,0,.9,.1h.4c.1,0,.3,0,.4,.1,.1,0,.3,0,.4,.1,.1,0,.3,.1,.4,.1h0c.1,0,.3,.1,.4,.1s.3,.1,.4,.1h.1c.1,0,.2,.1,.4,.1s.3,.1,.5,.1c.1,0,.2,.1,.3,.1,.3,.1,.5,.2,.7,.3s.3,.1,.5,.2c.1,0,.2,.1,.4,.2,.1,.1,.3,.1,.4,.2,.1,.1,.3,.1,.4,.2,.9,.4,1.8,1,2.6,1.6,.1,.1,.2,.1,.3,.2,.4,.3,.7,.5,1,.8,.1,.1,.3,.3,.4,.4,.6,.5,1.1,1.1,1.6,1.7,.1,.1,.2,.2,.3,.3,.2,.2,.4,.5,.5,.7,.1,.1,.2,.2,.2,.4,.1,.2,.3,.4,.4,.6,.1,.1,.1,.2,.2,.3l.3,.6c.1,.1,.1,.2,.2,.3,.2,.3,.3,.7,.5,1.1,0,.1,.1,.2,.1,.3,.1,.4,.3,.7,.4,1.1,0,.1,.1,.3,.1,.4,.2,.8,.4,1.6,.6,2.4v.3c0,.1,0,.3,.1,.4v1.6c.4,0,.4,.2,.4,.4Z"/></g><path d="M185.5,2.3H84.8c-8.6,.4-15.4,7.6-15.4,16.3v237.6c0,8.5,6.6,15.6,15,16.2h101.5c8.4-.7,15-7.7,15-16.2V18.6c.1-8.7-6.8-15.9-15.4-16.3Zm14.1,253.9c0,7.7-6,14.3-13.7,14.9H84.4c-7.7-.6-13.7-7.1-13.7-14.9V18.6c0-7.9,6.2-14.5,14.1-14.9h100.7c7.9,.4,14.1,7,14.1,14.9v237.6h0Z"/><path class="cls-19" d="M199.6,18.7v237.6c0,1.5-.2,2.9-.6,4.3-.3,1.1-.8,2.1-1.3,3.1-.1,.2-.2,.4-.4,.6-.2,.3-.4,.6-.6,.8-.6,.8-1.2,1.5-1.9,2.2,1.3-2.3,2-4.9,2-7.7V15.6c0-2.8-.7-5.5-2.1-7.8,3,2.6,4.9,6.5,4.9,10.9Z"/><g><path d="M185.4,5.1H84.8c-7.2,.4-12.8,6.3-12.8,13.5v237.6c0,7,5.5,12.9,12.5,13.5h101.1c7-.5,12.5-6.5,12.5-13.5V18.6c.1-7.2-5.5-13.2-12.7-13.5Zm9.2,251.1c0,5.1-4,9.5-9.1,9.9H85.2c-5.1-.4-9.1-4.7-9.1-9.9V18.6c0-5.2,4.1-9.6,9.3-9.9h100.1c5.3,.3,9.4,4.6,9.4,9.9v237.6h-.3Z"/><path d="M168.8,8.6v1.3c0,4.4-3.5,7.9-7.9,7.9h-51.6c-4.4,0-7.9-3.5-7.9-7.9v-1.3h67.4Z"/></g><path d="M168.8,8.6v1.3c0,4.4-3.5,7.9-7.9,7.9h-51.6c-4.4,0-7.9-3.5-7.9-7.9v-1.3h67.4Z"/><g><path class="cls-23" d="M196.8,256.8v2.7c0,2.8-.7,5.4-2,7.7-2.4,2.2-5.5,3.7-8.9,3.9H84.4c-.2,0-.4,0-.6-.1-3.2-.4-6.1-1.8-8.3-3.9-1.3-2.3-2.1-4.9-2.1-7.7v-3.2c0,3.7,1.7,7,4.3,9.2,1.9,1.6,4.3,2.7,6.9,2.9h100.9c6.3-.4,11.1-5.4,11.3-11.5Z"/><path class="cls-2" d="M199.6,18.7h0c0-8-6.2-14.5-14.1-14.9H84.8c-.3,0-.6,0-1,.1-3.2,.4-6.1,1.8-8.3,3.8-1.3,2.3-2.1,4.9-2.1,7.8v3.2c0-3.7,1.6-7,4.3-9.3,1.9-1.7,4.4-2.7,7.2-2.9h100.5c6.3,.3,11.2,5.4,11.5,11.6v-2.7c0-2.8-.7-5.5-2.1-7.8,2.9,2.8,4.8,6.7,4.8,11.1Z"/><path class="cls-18" d="M75.5,267.1c-3-2.7-4.8-6.7-4.8-10.9V18.6c0-4.3,1.8-8.2,4.8-11-1.3,2.3-2.1,4.9-2.1,7.8v244c0,2.8,.8,5.5,2.1,7.7Z"/><path class="cls-6" d="M199.6,18.7v237.6c0,1.5-.2,2.9-.6,4.3-.3,1.1-.8,2.1-1.3,3.1-.1,.2-.2,.4-.4,.6-.2,.3-.4,.6-.6,.8-.6,.8-1.2,1.5-1.9,2.2h0c1.3-2.3,2-4.9,2-7.7V15.5c0-2.8-.7-5.5-2.1-7.8,3,2.7,4.9,6.6,4.9,11Z"/></g></g><path class="cls-3" d="M142,11.4h-14.5c-.4,0-.7-.3-.7-.7v-.3c0-.4,.3-.7,.7-.7h14.5c.4,0,.7,.3,.7,.7v.3c-.1,.4-.4,.7-.7,.7Z"/></g><path id="SVGID" class="cls-7" d="M185.3,8.6h-14.9c-.8,0-1.5,.7-1.6,1.5v.2h0c-.2,4.2-3.7,7.5-7.9,7.5h-51.6c-4.2,0-7.7-3.3-7.9-7.5h0v-.2c-.1-.8-.7-1.4-1.6-1.5h-14.9c-5.2,.3-9.3,4.7-9.3,9.9v237.7c0,5.1,4,9.5,9.1,9.9h100.6c5.1-.4,9.1-4.8,9.1-9.9V18.5c.2-5.2-3.9-9.5-9.1-9.9Z"/></g><g><g><g><path class="cls-10" d="M98.7,60.1H15.5c-8.6,0-15.5,7-15.5,15.5v199.5c0,8.6,7,15.5,15.5,15.5H98.7c8.6,0,15.5-7,15.5-15.5V75.6c.1-8.5-6.9-15.5-15.5-15.5Zm15.1,213.6c0,1.6-.3,3.2-.7,4.6,0,.1-.1,.2-.1,.3s-.1,.2-.1,.3-.1,.2-.1,.2c-.1,.2-.2,.5-.3,.7,0,.1-.1,.2-.2,.3-.1,.1-.1,.3-.2,.4,0,.1-.1,.2-.2,.3-.1,.1-.1,.2-.2,.3-.2,.3-.3,.6-.5,.8-.1,.1-.1,.2-.2,.3-.1,.1-.1,.2-.2,.3-.1,.1-.1,.2-.2,.3-.1,.1-.1,.2-.2,.3-.1,.1-.1,.2-.2,.3-.1,.2-.3,.3-.5,.5-.2,.3-.5,.5-.8,.8-.1,.1-.2,.1-.2,.2-.2,.2-.4,.3-.6,.5-.1,.1-.2,.1-.2,.2-.3,.2-.6,.4-.8,.6-.1,.1-.2,.1-.3,.2-.2,.1-.4,.2-.6,.4-.1,.1-.2,.1-.3,.2-.3,.2-.7,.3-1,.5-.1,0-.2,.1-.3,.1s-.2,.1-.3,.1-.2,.1-.3,.1c-.2,.1-.5,.2-.7,.3-.1,0-.2,.1-.3,.1-.3,.1-.7,.2-1,.3-.1,0-.2,.1-.4,.1-.1,0-.3,0-.4,.1-.2,0-.5,.1-.7,.1h-.2c.2,0,.4-.1,.6-.1,.1,0,.2,0,.3-.1,.1,0,.2,0,.3-.1,.3-.1,.6-.1,.9-.2,.1,0,.2-.1,.3-.1,.2-.1,.4-.1,.6-.2,.3-.1,.6-.2,.9-.3,.1,0,.2-.1,.3-.1s.2-.1,.3-.1c.2-.1,.4-.2,.5-.3,.2-.1,.4-.2,.5-.3,.2-.1,.3-.2,.5-.3h0c.3-.2,.5-.4,.7-.5,.1-.1,.2-.1,.2-.2,.2-.2,.4-.4,.7-.6,.5-.5,1-1,1.5-1.6,.1-.1,.1-.2,.2-.2,.6-.8,1.2-1.8,1.6-2.8,.1-.2,.1-.3,.2-.5,.3-.8,.5-1.6,.7-2.4,0-.2,.1-.3,.1-.5,.1-.7,.2-1.4,.2-2.1V75.7c0-7-5.4-12.9-12.2-13.6H14.8c-7.2,.4-13,6.4-13,13.6v199.5c0,7,5.3,12.8,12.1,13.6h-.3c-.2,0-.5-.1-.7-.1-1.4-.2-2.8-.7-4-1.3-.1,0-.2-.1-.3-.1-.2-.1-.4-.2-.7-.4-.1-.1-.2-.1-.3-.2-.5-.3-1-.6-1.4-1-.1-.1-.2-.1-.2-.2-.2-.2-.5-.4-.7-.6-.1-.1-.2-.1-.2-.2-.1-.1-.2-.2-.3-.2-.1-.1-.2-.2-.2-.3q-.1-.1-.2-.2t-.2-.2c-.4-.4-.7-.9-1.1-1.4-.1-.1-.1-.2-.2-.3-.2-.3-.4-.5-.5-.8-.1-.1-.1-.2-.2-.3-.4-.8-.8-1.5-1.1-2.4,0-.1-.1-.2-.1-.3-.2-.6-.3-1.1-.4-1.7,0-.1,0-.2-.1-.4-.1-.8-.2-1.7-.2-2.6V74.9c0-.2,0-.5,.1-.7v-.8c0-.1,0-.2,.1-.4,0-.2,.1-.4,.1-.6,0-.1,0-.2,.1-.3,.1-.3,.2-.6,.3-.9,0-.1,.1-.2,.1-.3s.1-.2,.1-.4c0-.1,.1-.2,.1-.3s.1-.2,.1-.2c0-.1,.1-.2,.1-.3s.1-.1,.1-.2,.1-.2,.1-.3c.1-.2,.2-.4,.3-.5,0-.1,.1-.2,.1-.3,.1-.1,.1-.2,.2-.3,.4-.7,.9-1.4,1.4-2,.1-.1,.2-.2,.2-.3,.1-.1,.2-.2,.3-.3,.2-.2,.3-.3,.5-.5s.3-.3,.5-.5,.4-.3,.5-.5c.1-.1,.2-.1,.3-.2,.2-.1,.4-.3,.6-.4,.2-.1,.4-.3,.6-.4,.2-.1,.4-.3,.6-.4,.1-.1,.2-.1,.3-.2,.1-.1,.2-.1,.3-.2,.1-.1,.2-.1,.3-.2,.1-.1,.2-.1,.3-.2,.2-.1,.4-.2,.7-.3,.1,0,.2-.1,.3-.1h0c.1,0,.2-.1,.3-.1s.2-.1,.3-.1,.2-.1,.4-.1c.1,0,.2-.1,.3-.1s.2-.1,.4-.1c.1,0,.2-.1,.4-.1,.2-.1,.5-.1,.7-.1,.1,0,.2,0,.4-.1,.3,0,.5-.1,.8-.1H99.3c.2,0,.5,0,.7,.1h.8c.1,0,.2,0,.4,.1s.2,0,.4,.1h0c.1,0,.2,0,.4,.1,.1,0,.2,0,.3,.1h.1c.1,0,.2,.1,.3,.1s.3,.1,.4,.1,.2,.1,.3,.1c.2,.1,.4,.1,.6,.2,.1,0,.3,.1,.4,.2,.1,0,.2,.1,.3,.1s.2,.1,.3,.1,.2,.1,.3,.2c.8,.4,1.5,.8,2.2,1.3,.1,.1,.2,.1,.2,.2,.3,.2,.6,.5,.9,.7,.1,.1,.2,.2,.4,.3,.5,.5,.9,.9,1.4,1.4,.1,.1,.2,.2,.2,.3,.2,.2,.3,.4,.4,.6,.1,.1,.1,.2,.2,.3,.1,.2,.2,.3,.3,.5,.1,.1,.1,.2,.2,.3,.1,.2,.2,.3,.3,.5,0,.1,.1,.2,.1,.3,.2,.3,.3,.6,.4,.9,0,.1,.1,.2,.1,.2,.1,.3,.2,.6,.3,.9,0,.1,.1,.2,.1,.3,.2,.7,.4,1.3,.5,2v200.6h.3Z"/><g><path class="cls-11" d="M14.1,288.7h-.4c-.2,0-.5-.1-.7-.1-1.4-.2-2.8-.7-4-1.3-.1,0-.2-.1-.3-.1-.2-.1-.4-.2-.7-.4-.1-.1-.2-.1-.3-.2-.5-.3-1-.6-1.4-1-.1-.1-.2-.1-.2-.2-.2-.2-.5-.4-.7-.6-.1-.1-.2-.1-.2-.2-.1-.1-.2-.2-.3-.2-.1-.1-.2-.2-.2-.3q-.1-.1-.2-.2t-.2-.2c-.4-.4-.7-.9-1.1-1.4-.1-.1-.1-.2-.2-.3-.2-.3-.4-.5-.5-.8-.1-.1-.1-.2-.2-.3-.4-.8-.8-1.5-1.1-2.4,0-.1-.1-.2-.1-.3-.2-.6-.3-1.1-.4-1.7,0-.1,0-.2-.1-.4-.1-.8-.2-1.7-.2-2.6V76.9c0-8.1,6.4-14.7,14.4-15.1-7.2,.4-13,6.4-13,13.6v199.5c.1,7.3,5.4,13.1,12.3,13.8Z"/><path class="cls-14" d="M113.8,77.1v196.6c0,1.6-.3,3.2-.7,4.6,0,.1-.1,.2-.1,.3s-.1,.2-.1,.3-.1,.2-.1,.2c-.1,.2-.2,.5-.3,.7,0,.1-.1,.2-.2,.3-.1,.1-.1,.3-.2,.4,0,.1-.1,.2-.2,.3-.1,.1-.1,.2-.2,.3-.2,.3-.3,.6-.5,.8-.1,.1-.1,.2-.2,.3-.1,.1-.1,.2-.2,.3-.1,.1-.1,.2-.2,.3-.1,.1-.1,.2-.2,.3s-.1,.2-.2,.3c-.2,.2-.3,.3-.5,.5-.2,.3-.5,.5-.8,.8-.1,.1-.2,.1-.2,.2-.2,.2-.4,.3-.6,.5-.1,.1-.2,.1-.2,.2-.3,.2-.6,.4-.8,.6-.1,.1-.2,.1-.3,.2-.2,.1-.4,.2-.6,.4-.1,.1-.2,.1-.3,.2-.3,.2-.7,.3-1,.5-.1,0-.2,.1-.3,.1s-.2,.1-.3,.1-.2,.1-.3,.1c-.2,.1-.5,.2-.7,.3-.1,0-.2,.1-.3,.1-.3,.1-.7,.2-1,.3-.1,0-.2,.1-.4,.1-.1,0-.3,0-.4,.1-.2,0-.5,.1-.7,.1h-.4c6.9-.7,12.2-6.5,12.2-13.6V75.7c0-7.2-5.6-13.1-12.6-13.6,7.9,.5,14.1,7,14.1,15Z"/><path class="cls-15" d="M113.8,273.7v1.4c0,8.3-6.8,15.1-15.1,15.1H15.5c-8.3,0-15.1-6.8-15.1-15.1v-1.4c0,.9,.1,1.7,.2,2.6,0,.1,0,.2,.1,.4,.1,.6,.3,1.2,.4,1.7,0,.1,.1,.2,.1,.3,.3,.8,.6,1.6,1.1,2.4,.1,.1,.1,.2,.2,.3,.2,.3,.3,.5,.5,.8,.1,.1,.1,.2,.2,.3,.3,.5,.7,.9,1.1,1.4q.1,.1,.2,.2t.2,.2c.1,.1,.2,.2,.2,.3,.1,.1,.2,.2,.3,.2q.1,.1,.2,.2c.2,.2,.5,.4,.7,.6,.1,.1,.2,.1,.2,.2,.5,.4,.9,.7,1.4,1,.1,.1,.2,.1,.3,.2,.2,.1,.4,.2,.7,.4,.1,0,.2,.1,.3,.1,1.3,.6,2.6,1.1,4,1.3,.2,0,.5,.1,.7,.1h0c.2,0,.5,.1,.7,.1H99.8c.2,0,.4,0,.6-.1h.1c.2,0,.5-.1,.7-.1,.1,0,.3,0,.4-.1,.1,0,.2,0,.4-.1,.3-.1,.7-.2,1-.3,.1,0,.2-.1,.3-.1,.3-.1,.5-.2,.7-.3,.1,0,.2-.1,.3-.1s.2-.1,.3-.1,.2-.1,.3-.1c.3-.1,.7-.3,1-.5,.1-.1,.2-.1,.3-.2,.2-.1,.4-.2,.6-.4,.1-.1,.2-.1,.3-.2,.3-.2,.6-.4,.8-.6,.1-.1,.2-.1,.2-.2,.2-.2,.4-.3,.6-.5,.1-.1,.2-.1,.2-.2,.3-.2,.5-.5,.8-.8,.2-.2,.3-.3,.5-.5,.1-.1,.2-.2,.2-.3,.1-.1,.1-.2,.2-.3,.1-.1,.1-.2,.2-.3,.1-.1,.1-.2,.2-.3,.1-.1,.1-.2,.2-.3,.2-.3,.4-.5,.5-.8,.1-.1,.1-.2,.2-.3,.1-.1,.1-.2,.2-.3,.1-.1,.2-.3,.2-.4,.1-.1,.1-.2,.2-.3,.1-.2,.2-.5,.3-.7,0-.1,.1-.2,.1-.2,0-.1,.1-.2,.1-.3s.1-.2,.1-.3c.5-1.5,.7-3.1,.7-4.7Z"/></g><path class="cls-16" d="M113.8,75.7v1.4c0-7.8-6-14.3-13.7-15H14.7c-8,.4-14.4,7-14.4,15.1v-2.1c0-.2,0-.5,.1-.7v-.8c0-.1,0-.2,.1-.4,0-.2,.1-.4,.1-.6,0-.1,0-.2,.1-.3,.1-.3,.2-.6,.3-.9,0-.1,.1-.2,.1-.3s.1-.2,.1-.4c0-.1,.1-.2,.1-.3s.1-.2,.1-.2c0-.1,.1-.2,.1-.3s.1-.1,.1-.2,.1-.2,.1-.3c.1-.2,.2-.4,.3-.5,0-.1,.1-.2,.1-.3,.1-.1,.1-.2,.2-.3,.4-.7,.9-1.4,1.4-2,.1-.1,.2-.2,.2-.3,.1-.1,.2-.2,.3-.3,.2-.2,.3-.3,.5-.5s.3-.3,.5-.5,.4-.3,.5-.5c.1-.1,.2-.1,.3-.2,.2-.1,.4-.3,.6-.4,.2-.1,.4-.3,.6-.4,.2-.1,.4-.3,.6-.4,.1-.1,.2-.1,.3-.2,.1-.1,.2-.1,.3-.2,.1-.1,.2-.1,.3-.2,.1-.1,.2-.1,.3-.2,.2-.1,.4-.2,.7-.3,.1,0,.2-.1,.3-.1h0c.1,0,.2-.1,.3-.1s.2-.1,.3-.1,.2-.1,.4-.1c.1,0,.2-.1,.3-.1s.2-.1,.4-.1c.1,0,.2-.1,.4-.1,.2-.1,.5-.1,.7-.1,.1,0,.2,0,.4-.1,.3,0,.5-.1,.8-.1H99.3c.2,0,.5,0,.7,.1h.8c.1,0,.2,0,.4,.1s.2,0,.4,.1h0c.1,0,.2,0,.4,.1,.1,0,.2,0,.3,.1h.1c.1,0,.2,.1,.3,.1s.3,.1,.4,.1,.2,.1,.3,.1c.2,.1,.4,.1,.6,.2,.1,0,.3,.1,.4,.2,.1,0,.2,.1,.3,.1s.2,.1,.3,.1,.2,.1,.3,.2c.8,.4,1.5,.8,2.2,1.3,.1,.1,.2,.1,.2,.2,.3,.2,.6,.5,.9,.7,.1,.1,.2,.2,.4,.3,.5,.5,.9,.9,1.4,1.4,.1,.1,.2,.2,.2,.3,.2,.2,.3,.4,.4,.6,.1,.1,.1,.2,.2,.3,.1,.2,.2,.3,.3,.5,.1,.1,.1,.2,.2,.3,.1,.2,.2,.3,.3,.5,0,.1,.1,.2,.1,.3,.2,.3,.3,.6,.4,.9,0,.1,.1,.2,.1,.2,.1,.3,.2,.6,.3,.9,0,.1,.1,.2,.1,.3,.2,.7,.4,1.3,.5,2v2.1c.3,0,.3,.1,.3,.3Z"/></g><path d="M99.4,62H14.8c-7.2,.4-13,6.4-13,13.6v199.5c0,7.2,5.6,13.1,12.6,13.6H99.8c7-.6,12.6-6.5,12.6-13.6V75.6c0-7.2-5.8-13.2-13-13.6Zm11.8,213.1c0,6.5-5.1,12-11.5,12.5H14.5c-6.5-.5-11.5-6-11.5-12.5V75.6c0-6.7,5.2-12.1,11.8-12.5H99.2c6.6,.3,11.8,5.8,11.8,12.5v199.5h.2Z"/><path class="cls-1" d="M111.2,75.7v199.5c0,1.2-.2,2.4-.5,3.6-.3,.9-.6,1.8-1.1,2.6-.1,.2-.2,.3-.3,.5-.2,.2-.3,.5-.5,.7-.5,.7-1,1.3-1.6,1.8,1.1-1.9,1.7-4.1,1.7-6.5V73c0-2.4-.6-4.6-1.7-6.5,2.5,2.3,4,5.6,4,9.2Z"/><g><path d="M99.3,64.3H14.8c-6,.3-10.7,5.3-10.7,11.3v199.5c0,5.9,4.6,10.9,10.5,11.3H99.6c5.9-.5,10.5-5.4,10.5-11.3V75.6c0-6-4.8-11-10.8-11.3Zm7.7,210.8c0,4.3-3.4,8-7.7,8.3H15.1c-4.3-.3-7.7-4-7.7-8.3V75.6c0-4.4,3.4-8,7.8-8.3H99.4c4.4,.2,7.9,3.9,7.9,8.3v199.5h-.3Z"/><path d="M85.4,67.3v1.1c0,3.7-3,6.6-6.6,6.6H35.5c-3.7,0-6.6-3-6.6-6.6v-1.1h56.5Z"/></g><path d="M85.4,67.3v1.1c0,3.7-3,6.6-6.6,6.6H35.5c-3.7,0-6.6-3-6.6-6.6v-1.1h56.5Z"/><g><path class="cls-4" d="M108.9,275.6v2.3c0,2.3-.6,4.6-1.7,6.5-2,1.9-4.6,3.1-7.5,3.3H14c-2.7-.3-5.1-1.5-7-3.2-1.1-1.9-1.7-4.1-1.7-6.5v-2.7c0,3.1,1.4,5.9,3.6,7.8,1.6,1.4,3.6,2.2,5.8,2.4H99.3c5.4-.5,9.4-4.8,9.6-9.9Z"/><path class="cls-9" d="M111.2,75.7h0c0-6.7-5.2-12.2-11.8-12.5H15c-.3,0-.5,0-.8,.1-2.7,.3-5.1,1.5-7,3.2-1.1,1.9-1.7,4.1-1.7,6.5v2.7c0-3.1,1.4-5.9,3.6-7.8,1.6-1.4,3.7-2.3,6-2.4H99.5c5.3,.3,9.4,4.5,9.7,9.8v-2.3c0-2.4-.6-4.6-1.7-6.5,2.2,2.3,3.7,5.6,3.7,9.2Z"/><path class="cls-17" d="M7.1,284.3c-2.5-2.3-4-5.6-4-9.2V75.6c0-3.6,1.5-6.9,4-9.2-1.1,1.9-1.7,4.1-1.7,6.5v204.9c-.1,2.4,.6,4.6,1.7,6.5Z"/><path class="cls-20" d="M111.2,75.7v199.5c0,1.2-.2,2.4-.5,3.6-.3,.9-.6,1.8-1.1,2.6-.1,.2-.2,.3-.3,.5-.2,.2-.3,.5-.5,.7-.5,.7-1,1.3-1.6,1.8h0c1.1-1.9,1.7-4.1,1.7-6.5V73c0-2.4-.6-4.6-1.7-6.5,2.5,2.3,4,5.6,4,9.2Z"/></g></g><path class="cls-5" d="M62.9,69.6h-12.2c-.3,0-.6-.2-.6-.6v-.3c0-.3,.2-.6,.6-.6h12.2c.3,0,.6,.2,.6,.6v.3c-.1,.4-.3,.6-.6,.6Z"/></g><path class="cls-8" d="M107.2,274.7V75h0c0-1.3-.6-2.7-2.1-4.9-1.7-2.5-5.8-2.8-6-2.9h-12.4c-.3,0-.6,.1-.9,.4-.4,.3-.5,1-.5,1-.2,2-.3,2.3-1.9,4.3-1.5,2-4.6,2-4.6,2H34.7v-.1h-.1c-5.1-.7-5.5-6.2-5.5-6.2,0-.1,0-.3-.3-.8s-1.1-.6-1.1-.6H15.2c-6.8,.3-7.8,6.8-8,7.7h0v.2h0v199.5c0,.1-.5,8,8,8.9H99.5c.1,0,7.1-.7,7.8-7.4l-.1-1.4Z"/></g></g></g></svg>