<?xml version="1.0" encoding="UTF-8"?><svg id="_レイヤー_2" xmlns="http://www.w3.org/2000/svg" xmlns:xlink="http://www.w3.org/1999/xlink" viewBox="0 0 1062.08 45.84"><defs><style>.cls-1{fill:url(#_名称未設定グラデーション_738-6);}.cls-2{fill:url(#_名称未設定グラデーション_738-13);}.cls-3{fill:url(#_名称未設定グラデーション_738-21);}.cls-4{fill:url(#_名称未設定グラデーション_738-5);}.cls-5{fill:url(#_名称未設定グラデーション_738-2);}.cls-6{fill:url(#_名称未設定グラデーション_738-14);}.cls-7{fill:url(#_名称未設定グラデーション_738-24);}.cls-8{fill:url(#_名称未設定グラデーション_738-7);}.cls-9{fill:url(#_名称未設定グラデーション_738-16);}.cls-10{fill:#ff52ad;font-family:HGPSoeiKakugothicUB, HGPSoeiKakugothicUB;font-size:46.02px;isolation:isolate;}.cls-11{fill:url(#_名称未設定グラデーション_738-12);}.cls-12{fill:url(#_名称未設定グラデーション_738-26);}.cls-13{fill:url(#_名称未設定グラデーション_738-17);}.cls-14{fill:url(#_名称未設定グラデーション_738-15);}.cls-15{fill:url(#_名称未設定グラデーション_738-22);}.cls-16{fill:url(#_名称未設定グラデーション_738-18);}.cls-17{fill:url(#_名称未設定グラデーション_738-8);}.cls-18{fill:url(#_名称未設定グラデーション_738);}.cls-19{fill:url(#_名称未設定グラデーション_738-11);}.cls-20{fill:url(#_名称未設定グラデーション_738-9);}.cls-21{fill:url(#_名称未設定グラデーション_738-19);}.cls-22{fill:url(#_名称未設定グラデーション_738-3);}.cls-23{fill:url(#_名称未設定グラデーション_738-4);}.cls-24{fill:url(#_名称未設定グラデーション_738-23);}.cls-25{fill:url(#_名称未設定グラデーション_738-20);}.cls-26{fill:url(#_名称未設定グラデーション_738-10);}.cls-27{fill:url(#_名称未設定グラデーション_738-25);}</style><linearGradient id="_名称未設定グラデーション_738" x1="21.84" y1="2228.4" x2="21.84" y2="2271.18" gradientTransform="translate(0 2272.8) scale(1 -1)" gradientUnits="userSpaceOnUse"><stop offset="0" stop-color="#e2328c"/><stop offset=".09" stop-color="#e3348d"/><stop offset=".14" stop-color="#e43c92"/><stop offset=".17" stop-color="#e8499a"/><stop offset=".2" stop-color="#ec5ba6"/><stop offset=".23" stop-color="#f273b5"/><stop offset=".25" stop-color="#f990c7"/><stop offset=".27" stop-color="#ffa8d6"/><stop offset=".31" stop-color="#ff9bd0"/><stop offset=".4" stop-color="#ff80c3"/><stop offset=".51" stop-color="#ff6cb9"/><stop offset=".63" stop-color="#ff5db2"/><stop offset=".77" stop-color="#ff55ae"/><stop offset="1" stop-color="#ff52ad"/></linearGradient><linearGradient id="_名称未設定グラデーション_738-2" x1="60.04" x2="60.04" xlink:href="#_名称未設定グラデーション_738"/><linearGradient id="_名称未設定グラデーション_738-3" x1="93.24" x2="93.24" xlink:href="#_名称未設定グラデーション_738"/><linearGradient id="_名称未設定グラデーション_738-4" x1="125.19" x2="125.19" xlink:href="#_名称未設定グラデーション_738"/><linearGradient id="_名称未設定グラデーション_738-5" x1="165.89" x2="165.89" xlink:href="#_名称未設定グラデーション_738"/><linearGradient id="_名称未設定グラデーション_738-6" x1="211.7" x2="211.7" xlink:href="#_名称未設定グラデーション_738"/><linearGradient id="_名称未設定グラデーション_738-7" x1="253.54" x2="253.54" xlink:href="#_名称未設定グラデーション_738"/><linearGradient id="_名称未設定グラデーション_738-8" x1="296" x2="296" xlink:href="#_名称未設定グラデーション_738"/><linearGradient id="_名称未設定グラデーション_738-9" x1="335.84" x2="335.84" xlink:href="#_名称未設定グラデーション_738"/><linearGradient id="_名称未設定グラデーション_738-10" x1="376.89" x2="376.89" xlink:href="#_名称未設定グラデーション_738"/><linearGradient id="_名称未設定グラデーション_738-11" x1="423.19" x2="423.19" xlink:href="#_名称未設定グラデーション_738"/><linearGradient id="_名称未設定グラデーション_738-12" x1="468.99" x2="468.99" xlink:href="#_名称未設定グラデーション_738"/><linearGradient id="_名称未設定グラデーション_738-13" x1="510.49" x2="510.49" y2="2271.18" xlink:href="#_名称未設定グラデーション_738"/><linearGradient id="_名称未設定グラデーション_738-14" x1="548.54" x2="548.54" xlink:href="#_名称未設定グラデーション_738"/><linearGradient id="_名称未設定グラデーション_738-15" x1="591" x2="591" xlink:href="#_名称未設定グラデーション_738"/><linearGradient id="_名称未設定グラデーション_738-16" x1="635.19" x2="635.19" xlink:href="#_名称未設定グラデーション_738"/><linearGradient id="_名称未設定グラデーション_738-17" x1="676.94" x2="676.94" xlink:href="#_名称未設定グラデーション_738"/><linearGradient id="_名称未設定グラデーション_738-18" x1="718.99" y1="2228.4" x2="718.99" y2="2271.18" xlink:href="#_名称未設定グラデーション_738"/><linearGradient id="_名称未設定グラデーション_738-19" x1="764.97" x2="764.97" xlink:href="#_名称未設定グラデーション_738"/><linearGradient id="_名称未設定グラデーション_738-20" x1="804.66" y1="2228.4" x2="804.66" y2="2271.18" xlink:href="#_名称未設定グラデーション_738"/><linearGradient id="_名称未設定グラデーション_738-21" x1="844.44" x2="844.44" xlink:href="#_名称未設定グラデーション_738"/><linearGradient id="_名称未設定グラデーション_738-22" x1="883.74" x2="883.74" xlink:href="#_名称未設定グラデーション_738"/><linearGradient id="_名称未設定グラデーション_738-23" x1="923.59" x2="923.59" xlink:href="#_名称未設定グラデーション_738"/><linearGradient id="_名称未設定グラデーション_738-24" x1="961.14" x2="961.14" xlink:href="#_名称未設定グラデーション_738"/><linearGradient id="_名称未設定グラデーション_738-25" x1="1002.04" x2="1002.04" xlink:href="#_名称未設定グラデーション_738"/><linearGradient id="_名称未設定グラデーション_738-26" x1="1041.94" x2="1041.94" xlink:href="#_名称未設定グラデーション_738"/></defs><g id="_レイヤー_1-2"><g><text class="cls-10" transform="translate(0 39.55)"><tspan x="0" y="0">ペットを飼いたいと人手放したい人を繋げるサービスです</tspan></text><g><path class="cls-18" d="M12.99,10.59c.8-1.1,1.9-1.7,3.1-2,1.9-.2,3.5,.4,4.9,2,7.4,8.5,14.6,15.6,21.4,21.4l-5,6.1c-4-4.1-7.5-7.9-10.8-11.5-3-3.2-5.8-6.4-8.4-9.3-.7-.8-1.3-.8-1.8,0-3.7,5.9-7.1,10.5-10.1,13.8L1.29,25.19c2.6-2.5,4.9-5,6.7-7.4,1.7-2.5,3.4-4.9,5-7.2Zm21.2,4c-1.4,.1-2.6-.3-3.4-1.3-.7-.8-1.1-1.8-1.1-2.9,0-1.3,.3-2.3,.9-3.1,.8-1.1,2-1.6,3.4-1.6,1.3,.1,2.4,.6,3.2,1.4,.7,.8,1.1,1.8,1.1,2.9s-.3,2-.9,2.9c-.8,1.1-1.9,1.7-3.2,1.7Zm1.2-3.1c.4-.4,.5-.8,.5-1.3s-.2-.9-.5-1.3c-.4-.4-.8-.5-1.3-.5s-.9,.2-1.3,.5c-.4,.4-.5,.8-.5,1.3s.2,.9,.5,1.3c.4,.4,.8,.5,1.3,.5,.5,.1,1-.1,1.3-.5Z"/><path class="cls-5" d="M44.09,13.89l5-2c1.7,3.5,2.9,6.5,3.8,9.2l-5,2.2c-1.3-3.6-2.5-6.7-3.8-9.4Zm4.6,23c7-2.6,11.9-6,14.9-10.1,2.5-3.4,4.6-8.6,6.1-15.6l6.3,2.2c-1.9,7.7-4.6,13.6-7.9,17.8-3.6,4.6-8.8,8.3-15.6,11.1l-3.8-5.4Zm4.9-24.7l5.2-2c1.3,2.9,2.6,5.8,3.8,8.8l-5.4,1.8c-1.2-3.2-2.4-6-3.6-8.6Z"/><path class="cls-22" d="M80.69,3.39h6.8v15.3l3.2-4c4,2.3,9,5.8,15.1,10.4l-4.3,5.4c-6.7-5.3-11.4-8.6-14-10.1v21.9h-6.8V3.39Z"/><path class="cls-23" d="M108.19,25.69c2.5-3.6,4.9-7.2,7.2-11h-4.7v-5.8h8.1l2.9-5.2,6.7,1.1-2.5,4.1c3.1-.2,6.4-.5,9.7-.9v5.8c-4.1,.4-8.4,.7-12.9,.9l-1.8,2.5c5-2.3,8.8-1.6,11.3,2.2,2.6-1.1,5.2-2,7.7-2.9l2.3,5.6c-3.2,1.2-6.3,2.4-9.2,3.6l-.2,6.5-6.5-.2,.2-3.1c-1.4,.7-2.4,1.3-2.9,1.8-1,.8-1.5,1.8-1.6,2.9,0,1,.8,1.6,2.3,2,1.3,.2,3.2,.4,5.6,.4,2.8,0,6.2-.3,10.2-.9l-.7,6.3c-4.1,.7-8.7,.9-13.8,.5-2.6-.2-4.7-.8-6.3-1.6-2.5-1.3-3.8-3.4-3.8-6.1,0-2.2,.9-4.2,2.7-6.1,1.7-1.8,4.1-3.6,7.4-5.4-.4-.7-1.1-1.1-2.2-1.1-1,.1-2.2,.5-3.6,1.3-2,1.1-4.4,3.2-7,6.3l-4.6-3.5Z"/><path class="cls-4" d="M155.29,1.79l5.6,.9-.2,.5c1.2,1.8,3.1,3.3,5.6,4.5V3.69h20.1V39.79c0,2.8-1.5,4.1-4.5,4.1h-5.6l-1.6-6.3h3.8c1.2,0,1.8-.7,1.8-2V9.39h-13.5l-2.5,4.3c-1.4-.7-2.8-1.7-4-2.9v3.2h4.5V31.39h-9.9v4.3l3.1-.7-.7-1.6,5-1.8c1.8,3.1,3.2,6.2,4.3,9.3l-5.8,1.8-.7-2.2c-4.1,1.2-8.4,2.1-13.1,2.7l-1.3-6.1,3.4-.4V15.79l-1.4,1.3-2.3-5.9c3.8-1.8,7.1-5.1,9.9-9.4Zm-3.6,12.4h2.7v-2.5c-1.2,1.2-2.1,2-2.7,2.5Zm3.3,6.7h4v-1.4h-4v1.4Zm0,5.5h4v-1.4h-4v1.4Zm.5-15.8h4.5c-1-1-1.7-1.8-2.3-2.5-.3,.5-1,1.3-2.2,2.5Zm10.8,6.7v-5h13.1v5h-13.1Zm.5,18.1v-15.6h11.9v13.7h-7.2v2h-4.7v-.1Zm4.7-6.6h2.5v-4.5h-2.5v4.5Z"/><path class="cls-1" d="M201.19,7.59c-.8,2.3-1.4,4.7-1.8,7.4-.4,2.3-.6,4.4-.7,6.3-.1,1.3,0,3.2,.4,5.6,.2,1.4,.5,2.6,.9,3.4,.5,1.1,1,1.6,1.6,1.6,.8,0,1.7-1,2.5-2.9l1.8-4,5,3.8c-.7,2.3-1.8,4.6-3.2,6.8-1.7,2.6-3.3,4.3-4.9,4.9s-3.2,.1-4.9-1.4c-1.7-1.4-2.9-3.1-3.6-5-2.8-6.9-2.6-16.4,.4-28.4l6.5,1.9Zm16.2,3.9l5.6-2.9c3.7,6.6,6.4,13.6,8.1,21l-6.3,2.3c-1.8-7.3-4.2-14.2-7.4-20.4Z"/><path class="cls-8" d="M234.79,39.39c4-6.7,7.1-13.8,9.3-21.2-2.6,.4-5.3,.5-7.9,.5v-5.9c3.2-.1,6.4-.4,9.3-.7,.7-2.6,1.3-5.4,1.6-8.3l6.7,1.1c-.4,2.2-.8,4.3-1.3,6.3,3.4-.5,5.9-.9,7.6-1.3l.7,6.1c-3,.7-6.4,1.3-10.1,1.6-2.4,9-5.8,17.3-10.1,25l-5.8-3.2Zm22.8-9c-1.2,1.8-1.4,3.1-.5,3.8,1,.8,3.3,1.1,7,.9,3.1-.2,5.7-.5,7.7-.9l.5,5.9c-6.8,1.2-12.2,1.4-16.2,.7-3.1-.6-5-2.1-5.8-4.5-.7-2.4-.2-5,1.4-7.7l5.9,1.8Zm-1.6-11.2c5,0,10.1-.1,15.1-.4l.2,5.9c-5.2,.1-10.2,.2-15.3,.2v-5.7h0Z"/><path class="cls-17" d="M285.49,7.59c-.8,2.3-1.4,4.7-1.8,7.4-.4,2.3-.6,4.4-.7,6.3-.1,1.3,0,3.2,.4,5.6,.2,1.4,.5,2.6,.9,3.4,.5,1.1,1,1.6,1.6,1.6,.8,0,1.7-1,2.5-2.9l1.8-4,5,3.8c-.7,2.3-1.8,4.6-3.2,6.8-1.7,2.6-3.3,4.3-4.9,4.9s-3.2,.1-4.9-1.4c-1.7-1.4-2.9-3.1-3.6-5-2.8-6.9-2.6-16.4,.4-28.4l6.5,1.9Zm16.2,3.9l5.6-2.9c3.7,6.6,6.4,13.6,8.1,21l-6.3,2.3c-1.7-7.3-4.2-14.2-7.4-20.4Z"/><path class="cls-20" d="M328.49,20.09c-2.3-4.2-3.7-9.2-4.3-15.1l6.7-1.6c.5,5.8,1.5,10.4,3.1,13.8,4.6-2.2,9.3-4.1,14.2-5.8l2.2,5.8c-4.4,1.2-8.9,2.9-13.3,5-5.3,2.5-8.5,4.7-9.7,6.7-1.3,2-1.3,3.8,.2,5.4,.7,.8,2,1.4,4,1.6,1.7,.2,3.7,.2,5.9,0,4.9-.4,9.5-1.2,13.7-2.5l1.1,6.5c-4.3,1.1-8.3,1.7-12,2-5.4,.5-9.6,.4-12.6-.4-5.4-1.2-8.2-4.1-8.3-8.6-.1-2.6,.8-5.2,2.7-7.6,1.4-2,3.6-3.7,6.4-5.2Z"/><path class="cls-26" d="M373.19,10.79l.4-8.6h6.5v7.2c0,2,.4,4.4,1.1,7.2,1.2,4.8,3.5,9.3,6.8,13.5,2.3,2.9,5.7,5.8,10.2,8.8l-4.7,5.6c-4.2-2.2-8-5.6-11.3-10.2-1.8-2.4-3.5-5.7-5.2-9.9-1.1,3.6-2.9,7.1-5.6,10.4-3.1,3.8-6.8,6.9-11.1,9.3l-4.7-5.6c4.6-2.5,8.1-5.3,10.8-8.4,4.2-5.1,6.5-11.5,6.8-19.3Z"/><path class="cls-19" d="M443.89,30.89h-16.9v8.8c0,2.8-1.3,4.1-4,4.1h-8.1l-1.6-6.5h5.6c1.3,0,1.9-.6,1.8-1.8v-4.7h-18.3v-5.8h18.3v-4.9h-15.8v-5.8h15.8v-3.6c-2,.4-6.8,.7-14.4,1.1l-2.3-6.5c4.6,0,10-.3,16.4-.9,6.5-.6,12-1.5,16.5-2.7l4,5.6c-2.2,.7-6.8,1.6-13.8,2.5v4.5h14.2v5.8h-14.2v4.9h16.9v5.9h-.1Z"/><path class="cls-11" d="M451.39,22.09V13.79h-3.4V7.89h7.5V2.09h6.1V7.89h6.1v5.9h-9.9v4.7h6.8c4-4,6.7-9.6,8.1-16.9l6.1,1.8c-.5,2.6-1,4.3-1.6,5h12.4v5.8h-2.9c0,2-.2,4.4-.7,7-.7,4.1-2,7.6-3.8,10.6,1.6,2.2,4.4,4.3,8.4,6.5l-3.8,5.9c-1.3-.5-2.9-1.5-4.7-3.1-1.7-1.4-3-2.8-4-4-.6,1-1.8,2.2-3.6,3.8-2,1.7-3.8,2.8-5.2,3.4l-4-5.2c-.1,3.1-1.7,4.7-4.7,4.7h-3.1l-2-6.7h2.2c1.2,0,1.9-.7,2-2.2l.5-10.8h-2.3c-.4,5.2-1.3,9.4-2.7,12.8-1.4,3.5-2.7,5.8-3.8,6.8l-4-6.7c1.9-2.6,3.1-5.6,3.6-8.8,.3-1.6,.4-3.7,.4-6.1Zm23.2,9.9c-1.8-2.2-3.3-5.3-4.5-9.5l-1.8,2.3-2-2.5-.5,16.2c3.6-1.5,6.5-3.6,8.8-6.5Zm5.9-17.8h-5.6l-.5,1.3c1.1,5.3,2.3,8.8,3.8,10.6,1.6-2.9,2.3-6.9,2.3-11.9Z"/><path class="cls-2" d="M495.49,3.19l6.8,.5c-.4,3.7-.6,7.4-.7,11.1-.1,3.8-.2,7.6-.4,11.3v3.6c0,1.7,.2,2.9,.7,3.8,.6,1.3,2,2,4.1,2,1.8,0,3.5-.4,5-1.3,4.1-2,7.4-6,10.1-11.9l5.2,4.5c-2.9,5.3-6.7,9.3-11.3,12.2-5.2,3.2-10.2,4.1-15.1,2.5-2-.6-3.4-1.7-4.1-3.4-.7-1.6-1.1-3.8-1.1-6.7,.2-9.1,.4-18.6,.8-28.2Z"/><path class="cls-6" d="M529.79,39.39c4-6.7,7.1-13.8,9.3-21.2-2.6,.4-5.3,.5-7.9,.5v-5.9c3.2-.1,6.4-.4,9.3-.7,.7-2.6,1.3-5.4,1.6-8.3l6.7,1.1c-.4,2.2-.8,4.3-1.3,6.3,3.4-.5,5.9-.9,7.6-1.3l.7,6.1c-3,.7-6.4,1.3-10.1,1.6-2.4,9-5.8,17.3-10.1,25l-5.8-3.2Zm22.8-9c-1.2,1.8-1.4,3.1-.5,3.8,1,.8,3.3,1.1,7,.9,3.1-.2,5.7-.5,7.7-.9l.5,5.9c-6.8,1.2-12.2,1.4-16.2,.7-3.1-.6-5-2.1-5.8-4.5-.7-2.4-.2-5,1.4-7.7l5.9,1.8Zm-1.6-11.2c5,0,10.1-.1,15.1-.4l.2,5.9c-5.2,.1-10.2,.2-15.3,.2v-5.7Z"/><path class="cls-14" d="M580.49,7.59c-.8,2.3-1.4,4.7-1.8,7.4-.4,2.3-.6,4.4-.7,6.3-.1,1.3,0,3.2,.4,5.6,.2,1.4,.5,2.6,.9,3.4,.5,1.1,1,1.6,1.6,1.6,.8,0,1.7-1,2.5-2.9l1.8-4,5,3.8c-.7,2.3-1.8,4.6-3.2,6.8-1.7,2.6-3.3,4.3-4.9,4.9-1.6,.6-3.2,.1-4.9-1.4-1.7-1.4-2.9-3.1-3.6-5-2.8-6.9-2.6-16.4,.4-28.4l6.5,1.9Zm16.2,3.9l5.6-2.9c3.7,6.6,6.4,13.6,8.1,21l-6.3,2.3c-1.7-7.3-4.2-14.2-7.4-20.4Z"/><path class="cls-9" d="M631.49,10.79l.4-8.6h6.5v7.2c0,2,.4,4.4,1.1,7.2,1.2,4.8,3.5,9.3,6.8,13.5,2.3,2.9,5.7,5.8,10.2,8.8l-4.7,5.6c-4.2-2.2-8-5.6-11.3-10.2-1.8-2.4-3.5-5.7-5.2-9.9-1.1,3.6-2.9,7.1-5.6,10.4-3.1,3.8-6.8,6.9-11.1,9.3l-4.7-5.6c4.6-2.5,8.1-5.3,10.8-8.4,4.2-5.1,6.5-11.5,6.8-19.3Z"/><path class="cls-13" d="M659.89,25.69c2.5-3.6,4.9-7.2,7.2-11h-4.6v-5.8h8.1l2.9-5.2,6.7,1.1-2.5,4.1c3.1-.2,6.4-.5,9.7-.9v5.8c-4.1,.4-8.4,.7-12.9,.9l-1.8,2.5c5-2.3,8.8-1.6,11.3,2.2,2.6-1.1,5.2-2,7.7-2.9l2.3,5.6c-3.2,1.2-6.3,2.4-9.2,3.6l-.2,6.5-6.5-.2,.2-3.1c-1.4,.7-2.4,1.3-2.9,1.8-1,.8-1.5,1.8-1.6,2.9,0,1,.8,1.6,2.3,2,1.3,.2,3.2,.4,5.6,.4,2.8,0,6.2-.3,10.2-.9l-.7,6.3c-4.1,.7-8.7,.9-13.8,.5-2.6-.2-4.7-.8-6.3-1.6-2.5-1.3-3.8-3.4-3.8-6.1,0-2.2,.9-4.2,2.7-6.1,1.7-1.8,4.1-3.6,7.4-5.4-.4-.7-1.1-1.1-2.2-1.1-1,.1-2.2,.5-3.6,1.3-2,1.1-4.4,3.2-7,6.3l-4.7-3.5Z"/><path class="cls-16" d="M711.69,1.99V3.99h7.6v3.6h-7.6v.7h6.8v9.2h-6.8v.7h7.4v2.7c1.8,0,3.2-.1,4.1-.4-1.2-1-2.1-2-2.7-3.2h-1.3v-4h2.2l-2.7-4.1c1.2-1,1.9-1.9,2.2-2.9,.1-.6,.2-1.7,.2-3.2h12.6v3.8c-.1,.4-.1,.6,.2,.7,.1,.1,.3,.1,.5,0h.5c.2,0,.4-.8,.4-2.3l4.7,.9v1.1l-.2,1.6c-.2,2.5-1.4,3.8-3.6,3.8h-5c-1.4,0-2.4-.5-2.9-1.4-.4-.6-.5-1.7-.5-3.2h-1.4c-.4,2.3-1.5,4.1-3.4,5.4h11.1l.4-.4,4.3,2.7c-1.1,2.3-2.7,4.1-4.9,5.6,2.2,.8,4.1,1.3,5.9,1.3l-2.3,5.2c-3-.5-5.9-1.6-8.6-3.2-.6,.4-1.5,.7-2.7,.9l2.5,1.4-3.8,4.1,3.2-.2-.9-.7,4-3.6c4.2,3.1,6.9,5.4,8.3,6.8l-4.3,3.8-2.3-2.2-4.1,.5c2.5,1.4,5.8,2.4,9.7,2.9l-2.3,6.1c-1.8-.2-3.9-.8-6.3-1.8-2.4-1-4.2-2-5.4-3.1l3.4-4.1-5.8,.4v8.3h-6.6v-7.9l-4.5,.2,2.5,2.9c-3,2.5-7.1,4.2-12.2,5l-3.2-5.8c3.6-.2,6.5-1,8.6-2.2l-6.3,.2-.9-5.4h9.3l-5.2-2.7,4-3.6h-1.3v-2.7h-8.3v-4h8.3v-.7h-7V8.29h7v-.7h-7.9V3.99h7.9V1.99h5.4Zm-7,10.1h1.6v-.9h-1.6v.9Zm0,2.7h1.6v-.9h-1.6v.9Zm3.2,10l3.6,2,4.3-4.1,4,1.6-.9-2.2h-7.2v2.7h-3.8Zm3.8-12.7h1.4v-.9h-1.4v.9Zm0,2.7h1.4v-.9h-1.4v.9Zm4.7,14.7l1.8,.7,3.4-3.8h-.9l-.4-1.1-3.9,4.2Zm10.2-12.2c.5,.7,1.1,1.3,1.8,1.6,.8-.4,1.5-.9,2-1.6h-3.8Z"/><path class="cls-21" d="M746.79,3.79l6.1,1.3c-1.9,7.9-2.4,16.4-1.4,25.5l2.2-5.4,4.3,2.9c-1.7,4.1-2.9,8.2-3.8,12.2l-6.1,1.1c-4-12.4-4.4-24.9-1.3-37.6Zm10.2,9.7c6.1,.2,10.2,.3,12.2,.2l-.2-10.2,6.1,.4,.2,9.3c1.8-.1,3.9-.3,6.3-.5v5.9c-2.2,.4-4.3,.5-6.3,.5,.6,10.1-2.1,18-8.1,23.7l-4.7-4.5c2.8-2.6,4.6-5.6,5.6-8.8,.8-2.5,1.2-5.9,1.1-10.1-4.2,.2-8.3,.2-12.2,0v-5.9h0Zm18.9-6.7l2.7-2.2,3.6,4.3-2.7,2.2-3.6-4.3Zm3.2-2.8l2.7-2.2,3.4,4.1-2.7,2.2-3.4-4.1Z"/><path class="cls-25" d="M786.89,28.79c6.4-5.6,12.5-11.4,18.5-17.3-4.4,.7-8.8,1.3-13.1,1.6l-1.3-6.3c9.2-.7,16.4-1.7,21.4-2.9l3.6,5c-3.5,3.5-6.4,6.4-8.8,8.8,2.9-.5,5.5-.3,7.9,.5,2.6,.8,4.6,2.5,5.9,4.9,1.7,3.1,1.9,6.4,.5,9.7-1.2,3.2-3.3,5.7-6.3,7.4-2.5,1.4-5.5,2.2-8.8,2.3-3.4,.1-6.2-.5-8.6-2-2.4-1.3-3.4-3.3-3.1-5.9,.4-2.6,1.8-4.4,4.3-5.4,2.9-1.1,5.6-1.3,8.3-.5,2.9,.7,4.9,2.4,5.9,5,1.6-1.1,2.5-2.5,2.7-4.3s-.3-3.4-1.6-4.7c-1.3-1.3-3.7-1.9-7.2-1.6-2.3,.2-4.3,.8-6.1,1.8-3.8,2.2-7.2,5-10.1,8.6l-4-4.7Zm21.2,7.7c-.4-1.7-1.3-2.7-2.7-3.1-1.1-.2-2.1-.2-3.1,.2-1,.4-1.3,1-1.1,1.8,.2,.7,1.1,1.2,2.5,1.4,2,.4,3.4,.3,4.4-.3Z"/><path class="cls-3" d="M825.69,18.89v-6.1h7.7V4.49h6.7V12.79h8.8V4.19h6.7V12.79h7.6v6.1h-7.7c0,5.8-1.1,10.5-3.2,14.2-2.3,3.8-5.9,6.9-10.8,9.3l-4.9-5c4.4-2.2,7.5-4.6,9.3-7.4,1.9-2.8,2.9-6.5,2.9-11.1h-8.8v9.9h-6.7v-9.9h-7.6Z"/><path class="cls-15" d="M866.29,20.09h34.9v6.1h-34.9v-6.1Z"/><path class="cls-24" d="M912.49,4.29v14c7.1-1.7,13.4-4.2,18.9-7.6l4.9,4.7c-6.7,4.2-14.6,7.4-23.7,9.5v6.7c0,1.8,1,2.7,3.1,2.7,5.6,0,12.6-.1,20.9-.2l-.9,6.5h-22.8c-2.4,0-4.1-.5-5.2-1.6-1-1.1-1.4-2.8-1.4-5.2V4.29h6.2Zm18.4,4.3l2.7-2.3,4,4.1-2.7,2.5-4-4.3Zm3.7-3l2.7-2.3,3.6,4-2.5,2.3-3.8-4Z"/><path class="cls-7" d="M941.79,33.99c6.4-2.6,11.4-5.8,15.1-9.3,4-3.7,6.8-8.2,8.6-13.5h-19.6V4.89h23.7l.9-.5,4.1,3.6c-3.2,7.2-5.6,12-7.2,14.6,4.7,3.8,9,7.9,13.1,12l-5.4,5.6c-3.7-4.8-7.7-8.7-11.9-11.9-4.6,5.3-10.3,9.4-17.3,12.4l-4.1-6.7Z"/><path class="cls-27" d="M982.49,8.49c14.3-.7,26.5-2.1,36.7-4.1l1.1,6.3c-3,.5-4.9,.8-5.8,1.1-1.7,.5-3.5,1.4-5.4,2.7-2.6,1.8-4.9,4.3-6.7,7.4-2.2,3.7-2.5,6.8-1.1,9.3,1.1,1.8,2.9,3.1,5.4,3.8,1.1,.4,3.3,.8,6.7,1.3l-2,6.3c-3.4-.6-6-1.3-7.9-2-2.9-1-5.2-2.4-6.8-4.3-3.2-3.5-4-7.6-2.2-12.4,1.6-4.1,4.3-7.7,8.3-10.8-3.8,.6-10.3,1.3-19.4,2l-.9-6.6Zm28.2,8.9l3.6-1.6,2.5,4.9-3.6,1.8-2.5-5.1Zm4.8-2.1l3.8-1.6,2.3,4.9-3.4,1.6-2.7-4.9Z"/><path class="cls-12" d="M1023.09,8.99c5.5-.1,11.1-.2,16.9-.4l-.2-5.4h7l-.2,5.4h14.2v5.9l-14.4-.2,.2,4.1c2.3,2.8,3,6.4,2.2,10.8-.5,2.5-1.6,5-3.2,7.4-1.9,2.6-4.3,4.8-7,6.5l-4.5-4.7c3.5-2,5.6-4,6.5-5.8-1.7,1-3.4,1.1-5.2,.5-2.4-.8-3.9-2.8-4.5-5.9-.5-2.8-.2-5.3,.9-7.5,1.7-3.2,4.6-4.5,8.6-3.8l-.2-1.4c-6,.2-11.7,.5-17.1,.7v-6.2h0Zm15.6,12.8c-1.6,.2-2.3,1.3-2.2,3.2,.1,1.9,.8,2.9,2.2,3.1,1,.1,1.7-.2,2.2-.9,.4-.6,.5-1.4,.5-2.3,0-1-.2-1.7-.7-2.3-.5-.7-1.1-1-2-.8Z"/></g></g></g></svg>