<?xml version="1.0" encoding="UTF-8"?><svg id="_レイヤー_2" xmlns="http://www.w3.org/2000/svg" viewBox="0 0 109.2 109.2"><defs><style>.cls-1{fill:#f2a6ba;}.cls-2{fill:#edbf88;}.cls-3{fill:#5d388e;}.cls-4{fill:#6a3d9b;}.cls-5{fill:#d2a965;}.cls-6{fill:#e2b477;}.cls-7{fill:#414042;}</style></defs><g id="_レイヤー_1-2"><g><path class="cls-1" d="M109.2,54.7c0,13.2-4.7,25.3-12.5,34.7-1.5,1.8-3.2,3.6-4.9,5.2-9.2,8.6-21.5,14.1-35,14.6h-2.2c-14.4,0-27.4-5.6-37.2-14.6-.4-.4-.9-.8-1.3-1.3C6.2,83.4,0,69.7,0,54.6,0,24.5,24.4,0,54.6,0c30.2,.1,54.6,24.5,54.6,54.7Z"/><g><g id="_12"><g><path class="cls-7" d="M74.8,45c1.7,5.1,3,17,.2,21.8,7.5-13.3,6.5-28.6,5.9-43.2-.5-11.7-10.3-21.7-22.1-22.3-4.2-.2-9.2,1-11,4.8-3.9-1.1-8,.7-10.8,3.6-14.4,14.6-.3,39.7,7.7,53.8-2.2-3.9-1.3-9.7-2.4-14-.9-4-1.6-6.6,.8-10.5,.2-.3,.5-.7,.8-.8,.6-.2,1.2,.1,1.6,.6,.3,.5,.5,1.1,.6,1.7,1,5.1,2.1,12.9,5.6,17,3.2,3.7,9.4,4.4,11.6-.5,2.5-5.6,6.4-10.5,8.7-16.4,.5-.4,1.2,.3,1.4,.9,.6,1.1,1,2.3,1.4,3.5Z"/><g><path class="cls-6" d="M40.7,35.9c-.3-.8-.3-1.6-.8-2.4-.5-.7-1.4-1.2-2.2-1.2-2.8-.1-3.1,3.3-2.1,5.2,.5,.9,1.3,1.7,1.8,2.6,.8,1.6,1.1,3.9,3.3,4.2,1.3,.1,2-.3,2.3-1.1,.6-1.4-.2-3.8-.9-5.1-.4-.7-1.1-1.4-1.4-2.2Z"/><g><path class="cls-5" d="M46.1,45.8c.9,5.4,2,12.1,.2,16.8-2.1,5.4-4.8,6.5-9.6,8.3,2.2,3.1,4.4,6.3,7,9s5.9,5,9.6,5.8c1.1,.2,2.3,.3,3.5,.2V45.6c-4.2-.1-10.6-.2-10.7,.2Z"/><path class="cls-6" d="M42,17.7c-4.7,6.5-4.5,15.6-1.7,22.8,2.3,5.8,9.5,15.8,16.5,15.6V10.5c-5.6-.4-11.6,2.7-14.8,7.2Z"/><path class="cls-4" d="M56.8,83.6v11H17.4c-.4-.4-.9-.8-1.3-1.3,.9-5.3,2-8.5,2.5-10,.2-.5,.5-1,.8-1.5,3.8-5.8,5.9-6.7,17.3-11,.1,.2,.2,.3,.4,.5,3.8,5.3,9,11.4,19.7,12.3Z"/></g></g><g><path class="cls-2" d="M76,32.3c-.9,0-1.7,.5-2.2,1.2-.6,.8-.5,1.6-.8,2.4s-1,1.5-1.4,2.3c-.7,1.2-1.5,3.7-.9,5.1,.3,.7,1,1.2,2.3,1.1,2.2-.2,2.5-2.6,3.3-4.2,.5-.9,1.3-1.7,1.8-2.6,1-1.9,.7-5.3-2.1-5.3Z"/><g><path class="cls-6" d="M67.3,62.5c-1.8-4.7-.7-11.3,.2-16.8-.1-.4-6.5-.3-10.7-.1v40.3c1.2,.1,2.3,0,3.5-.2,3.7-.8,7-3.1,9.6-5.8,2.6-2.7,4.8-5.9,7-9-4.8-1.9-7.5-3-9.6-8.4Z"/><path class="cls-2" d="M56.8,10.4l-.1,45.6c7.1,.2,14.4-9.8,16.7-15.6,2.8-7.2,3-16.3-1.7-22.8-3.3-4.4-9.3-7.5-14.9-7.2Z"/><path class="cls-3" d="M96.7,89.4c-1.5,1.8-3.2,3.6-4.9,5.2H56.8v-11c10.7-.9,15.9-7,19.7-12.2,.1-.2,.2-.3,.4-.5,11.5,4.3,13.5,5.2,17.3,11,.3,.5,.6,1,.8,1.5,.4,1,1,3,1.7,6Z"/></g></g><path class="cls-7" d="M74.8,14.9c-.5-.4-9.2-5.9-9.9-6-.6-.1-15.7,.2-16.1,.6-.4,.4-10.3,7.4-11.1,7.5v14.8l1.3,3.4s-.7-5.8,1.1-9.8c1.8-4.1,6.1-7,8.6-10.7-2.3,3.4,10.3,6.9,11.4,7.3,5.2,1.8,8.1,7.7,8.8,12.8,1.4,8.9,1.3,18-.3,26.8,3.5-5.5,6-11.8,6.9-18.2,.7-4.9,1.6-11.6,1.1-16.5-.1-2.2,0-10.6-1.8-12Z"/></g></g><path class="cls-4" d="M56.8,94.6v14.6h-2.2c-14.4,0-27.4-5.6-37.2-14.6H56.8Z"/><path class="cls-3" d="M91.8,94.6c-9.2,8.6-21.5,14.1-35,14.6v-14.6h35Z"/></g></g></g></svg>