<?xml version="1.0" encoding="UTF-8"?><svg id="_レイヤー_2" xmlns="http://www.w3.org/2000/svg" viewBox="0 0 329.17 329.17"><defs><style>.cls-1{fill:#f2a6ba;}.cls-2{fill:#728d96;}.cls-3{fill:#fff;}.cls-4{fill:#f9cfb3;}.cls-5{fill:#edbf88;}.cls-6{fill:#393b42;}.cls-7{fill:#5d388e;}.cls-8{fill:#de9f7a;}.cls-9{fill:#2b0d04;}.cls-10{fill:#754c29;}.cls-11{fill:#414244;}.cls-12{fill:#594a42;}.cls-13{fill:#eca982;}.cls-14{fill:#ebb39a;}.cls-15{fill:#cca692;}.cls-16{fill:#deb09d;}.cls-17{fill:#706451;}.cls-18{fill:#c0876c;}.cls-19{fill:#877960;}.cls-20{fill:#2b2924;}.cls-21{fill:#3d5872;}.cls-22{fill:#cad9e0;}.cls-23{fill:#ff52ad;}.cls-24{fill:#6a3d9b;}.cls-25{fill:#e6e7e8;}.cls-26{fill:#ce9174;}.cls-27{fill:#e2bba1;}.cls-28{fill:#d2a965;}.cls-29{fill:#647c82;}.cls-30{fill:#e2b477;}.cls-31{fill:#f9bda3;}.cls-32{fill:#231f20;}.cls-33{fill:#414042;}</style></defs><g id="_使い方"><g><rect class="cls-23" width="329.17" height="329.17" rx="46.32" ry="46.32"/><g><path class="cls-1" d="m209.99,92.4c0,11.14-3.34,21.49-9.06,30.12-2.04,3.09-4.39,5.95-7.01,8.56-.43.43-.87.86-1.32,1.27-8.4,7.82-19.26,13.03-31.3,14.32h0c-.75.08-1.49.15-2.24.2-.33.02-.66.04-.99.06-.5.02-.99.04-1.49.04-.39.01-.77.02-1.16.02-.73,0-1.46-.01-2.18-.04-.12,0-.23-.01-.35-.02-.51-.02-1.01-.05-1.51-.09-12.78-.93-24.33-6.26-33.15-14.49-1.75-1.63-3.4-3.37-4.92-5.22-.88-1.06-1.71-2.15-2.5-3.27-6.28-8.89-9.97-19.74-9.97-31.45,0-30.14,24.44-54.57,54.58-54.57s54.58,24.43,54.58,54.57Z"/><g id="_10"><g><g><path class="cls-17" d="m153.54,147.51h-1.39c-.26-.22-.52-.45-.78-.67-12.78-.93-24.33-6.26-33.15-14.49-1.75-1.63-3.4-3.37-4.92-5.22-.88-1.06-1.71-2.15-2.5-3.27,2.06-1.73,4.79-2.63,7.41-3.45,7.15-2.22,20.22-7.51,22.36-8.35,0,0,.01,0,.01,0,.16-.07.25-.1.28-.11-2.47,2.06-5.58,5.79-6.98,12.07-.42,8.32.29,8.69.29,8.69l11.31-1.9c.61,0-4.8,7.77-4.8,7.77,3,1.59,6.43,3.71,9.98,6.52.78.61,1.51,1.22,2.21,1.83.22.2.45.39.66.58Z"/><path class="cls-19" d="m159.05,146.87l-.26.59s.03.04.04.05h-6.69c-.26-.22-.52-.45-.78-.67-.27-.23-.55-.46-.83-.69-3.62-2.89-7.78-5.09-10.83-6.72,0,0,4.54-6.03,5.56-7.96l-11.49,1.95s-.71-.39-.29-8.94c1.42-6.46,4.59-10.3,7.09-12.42,0,0,.01,0,.01,0,1.01-.85,1.91-1.42,2.55-1.78.74-.43,1.22-.62,1.22-.62h0c0,.16-.1,2.76-1.27,6.1-.04.11-.07.23-.1.35,0,.02-.01.06-.02.09-1.69,7.48,10.54,23.52,14.77,28.78.34.42.63.78.85,1.05.1.12.19.23.26.32.19.22.29.34.29.34l-.07.18Z"/><path class="cls-19" d="m200.93,122.52c-2.04,3.09-4.39,5.95-7.01,8.56-.43.43-.87.86-1.32,1.27-8.4,7.82-19.26,13.03-31.3,14.32h0c-.31.28-.61.56-.88.84h-2.54c.07-.23.13-.43.18-.58.04-.11.07-.19.09-.24.12-.23.26-.45.42-.65h0c.44-.58,1.03-1.06,1.69-1.47,2.95-1.83,7.61-2.35,9.91-4.72.21-.22,4.42-3.19,4.62-3.01,0,0-2.65-2.44-4.47-4.07-.06-.05-.12-.11-.18-.16-.44-.39-.82-.72-1.09-.95,1.61.65,7.18.26,10.46-.37-.06-9.52-2.2-14.85-4.54-17.84-.15-.19-.3-.37-.45-.54-.11-.13-.23-.26-.35-.38-.11-.12-.23-.24-.34-.35-.11-.11-.23-.22-.34-.32,5.06,1.55,10.13,3.09,15.19,4.64,4.25,1.29,9.2,2.11,12.09,5.82.05.07.11.14.15.21Z"/><g><path class="cls-13" d="m144.02,100.92s-.03,0-.04.01c-.02,0-.03,0-.03,0,0,0,.13.75.26,1.93.34,3.07.65,9.09-1.45,12.89,2.06,4.61,3.27,9,12.9,9.29v-26.07c-5.47.59-10.98,1.79-11.64,1.93Z"/><path class="cls-8" d="m167.15,101.76c-.02-.2-.03-.39-.03-.59-.01-.08-.01-.16-.02-.24-.1-2.54-5.75-2.57-11.44-1.95v26.07c1.39.04,2.95,0,4.72-.14,6.1-1.39,9.43-4.44,11.37-10.26-2.36-2.76-4.23-7.97-4.6-12.89Z"/><path class="cls-26" d="m144.02,100.92s-.03,0-.04.01c-.02,0-.03,0-.03,0,0,0,6.01,8.64,11.71,9v-10.95c-5.47.59-10.98,1.79-11.64,1.93Z"/><path class="cls-18" d="m167.1,100.93c-.1-2.54-5.75-2.57-11.44-1.95v10.95c.23.01.46.02.69,0,3.86-.43,8.3-4.88,10.76-8.76-.01-.08-.01-.16-.02-.24Z"/></g><path class="cls-22" d="m162.73,123.8c-2.87,1.07-5.45.98-7.07.77-.52-.07-.95-.15-1.25-.21-7.16-1.44-10.89-7.34-11.65-8.6-2.01,6.34,7.52,19.77,12.9,26.66,2.03,2.6,3.47,4.27,3.47,4.27l8.08-14.99c.15-.29.3-.58.45-.87,2.5-4.95,3.88-10.4,3.92-15.95-.43,1.08-2.8,6.66-8.85,8.92Z"/><path class="cls-17" d="m170.32,132.77c1.92,1.65,6.13,4.36,6.13,4.36-.09.07-9.89,4.82-15.15,9.55h0c-.31.28-.61.56-.88.84h-4.08c.07-.18.16-.36.24-.54.15-.35.31-.69.47-1.02l.68-.96h.01s9.47-13.29,9.47-13.29c.16-.29.3-.58.46-.87,2.46-4.87,3.83-10.24,3.92-15.7,0-.09,0-.17,0-.25,0-.04-.32-.08-.32-.12-1.73-3.03-2.33-5.1-2.33-5.1h0c.13,0,2.26.16,4.56,2.21.11.1.23.21.34.32.11.11.23.23.34.35.12.12.23.25.35.38.11.14.23.27.34.42.04.04.07.08.11.12,2.5,2.96,4.87,8.43,4.93,18.57-2.88.56-7.53.93-9.77.58.06.05.12.11.18.16Z"/></g><g><path class="cls-10" d="m155.72,43.14s-.04,0-.06,0v.02s.04-.02.06-.02Z"/><path class="cls-6" d="m170.56,48.87c-1.31-.78-2.71-1.42-4.19-1.88-3.48-1.08-7.06-2.5-10.71-2.54v19.16c.1,0,.2.01.31.01,2.08,0,3.86.45,5.74,1.31.79.37,1.64,1.03,2.5,1.02-.24-.36-.53-.73-.86-1.02,1.28.89,2.99,1.45,4.28,2.34,2.04,1.41,4.26,3.79,4.88,6.26.78,3.09-.8,6.37-.06,9.52.23-.84,1.3-2.39,2.11-3.13-.49.54,1.4.4,1.48.38.44-.13.73-.33.94-.6.33-.43.47-1.03.71-1.73.84-2.4,1.41-4.96,1.33-7.52.1.12.33.37.56.67.41.52.86,1.18.78,1.47,2.7-9.03-1.89-19.02-9.79-23.72Z"/><path class="cls-11" d="m152.31,44.85c1.05-.69,2.17-1.25,3.35-1.68v-.02c-2.3.09-4.59.5-6.78,1.21-1.23.4-2.43.9-3.46,1.69-1.29.99-2.11,2.56-2.61,4.08-1.06-.47-3.61.13-4.71.61-2.76,1.19-4.09,3.54-5.95,5.71-.72.84-1.32,1.61-1.78,2.42-.7,1.2-1.12,2.49-1.3,4.23-.22,2.09-.09,4.19.03,6.28.33-1.08.84-2.13,1.57-3,.05.95-.52,1.68-.72,2.58-.25,1.15-.06,2.43.18,3.56.48,2.34,1.53,4.67,3.01,6.55.21.27.46.53.73.8.23.22.47.44.71.67,1.39,1.28,3.01,2.67,3.18,4.24-.36-3.26-1.38-6.13-1.18-9.21.03-.44.09-.89.17-1.35.13-.7.33-1.41.63-2.14.13.4.38.83.49,1.24.16-4.07,2.43-5.31,4.73-8.2,1.04-1.3,2.47-2.3,2.8-4.04,1.19,1.52,2.37.97,3.99,1.33,2.19.49,3.99,1.12,6.26,1.18v-19.16c-1.11-.01-2.23.1-3.35.4Z"/><path class="cls-14" d="m174.91,79.65c-1.05.61-2.13,2.15-2.47,3.4-.73-3.15.84-6.42.06-9.52-.62-2.47-2.84-4.86-4.87-6.26-1.29-.89-3-1.45-4.28-2.34.33.3.62.66.86,1.02-.86.01-1.71-.66-2.5-1.02-1.88-.86-3.66-1.31-5.74-1.32-.11,0-.21,0-.31,0v43.56c2.87-.02,3.12-.6,4.39-1.53,1.52-1.12,3.16-1.88,4.82-2.78.71-.39,1.25-.81,1.71-1.3.6-.64,1.06-1.4,1.54-2.36.49-.98,2.37-5.04,3.13-5.99-.05.07.93.35,1.02.36.39.04.84-.01,1.19-.2.62-.32,1.1-1.08,1.44-1.67.83-1.42,1.12-3.06,1.7-4.58.63-1.65,1.78-3.3,1.73-5.13-.05-1.9-1.63-3.39-3.42-2.34Z"/><path class="cls-31" d="m149.4,62.43c-1.62-.36-2.81.19-4-1.33-.32,1.74-1.76,2.74-2.79,4.04-2.3,2.89-4.57,4.12-4.73,8.2-.11-.41-.35-.83-.49-1.24-.3.73-.5,1.45-.63,2.15-.01.46-.07.91-.17,1.35-.2,3.07.82,5.95,1.18,9.21-.21-1.85-2.42-3.46-3.9-4.91-.12.1-.25.21-.38.31-.13.1-.25.22-.34.35-1.3,1.84.65,4.92,1.29,6.59.52,1.34.8,2.77,1.43,4.07.27.56.61,1.15.96,1.66.34.49,1.21.63,1.76.55.29-.04.58-.19.73-.44,1.01,2.27,2.49,4.02,3.6,6.25.81,1.62,1.56,2.68,3.09,3.56.05.03.1.06.15.09,1.66.9,3.3,1.66,4.82,2.78,1.29.95,1.24,1.53,4.53,1.53.05,0,.09,0,.14,0v-43.56c-2.26-.06-4.07-.69-6.26-1.18Z"/><g><path class="cls-18" d="m137.97,88.06c.11.71.11,1.6-.7,1.8-.23.06-.47-.02-.65-.2-.71-.67-.6-1.66-.4-2.53.15-.65.34-1.31.26-1.98-.16-1.27-1.6-2.53-2.71-2,.29-.14.41-.42.81-.5.5-.11.74-.04,1.26.27.19.11.37.25.52.42,1.08,1.25,1.38,3.05,1.62,4.7Z"/><path class="cls-18" d="m172.7,88.34c-.11.71-.11,1.6.7,1.8.23.06.48-.02.66-.19.71-.68.6-1.66.4-2.53-.15-.65-.34-1.31-.26-1.97.16-1.27,1.59-2.53,2.71-2-.29-.14-.41-.42-.81-.5-.5-.11-.74-.04-1.26.27-.19.11-.38.25-.53.43-1.08,1.25-1.37,3.05-1.62,4.7Z"/></g></g></g><path class="cls-32" d="m174.28,78.59s-.65-.29-1.76-.56c-2.74-.68-8.42-1.43-15.11,1.04-.66.09-1.29.14-1.75.16-.16.01-.3.01-.42.02h-.04c-.47-.02-1.27-.06-2.13-.18-7.87-2.72-14.55-1.22-16.37-.66-.31.1-.48.16-.49.18-.52.63,0,1.54,0,1.54.01.03.4.13.45.16.11.05.24.11.37.18.32.16.65.39.78.65.19.38.12,1.01.19,1.43.12.8.27,1.58.53,2.35.34.99.98,2.08,1.96,2.67,2.04,1.21,6.24.96,8.36.43,2.35-.73,4.44-4.97,4.66-6.31.16-.82,1.11-1.01,1.68-1.04h.04c.12,0,.27.02.42.05.54.09,1.19.34,1.31.99.22,1.34,2.31,5.57,4.65,6.31,2.13.52,6.33.78,8.37-.43.98-.58,1.62-1.68,1.96-2.67.22-.63.35-1.27.47-1.93v-.02c.02-.13.04-.26.06-.39.07-.42,0-1.05.2-1.43.17-.37.78-.66,1.15-.83.04-.02.34-.1.43-.14h0s.02,0,.02-.01c0,0,0,0,.01-.02.06-.13.45-.94-.02-1.52Zm-29.19,8.52c-1.36-.15-3.14-.43-4.05-1.47-.38-.44-.59-.97-.75-1.5-.27-.92-.53-2.32-.14-3.36.12-.32.31-.62.58-.85,1.07-.92,2.9-.99,4.28-.95,3.13.08,6.14.45,6.38,2.67-.08,1.31-1.26,6.01-6.3,5.46Zm25.11-2.98c-.16.53-.37,1.06-.75,1.5-.9,1.04-2.68,1.32-4.04,1.47-5.05.55-6.23-4.15-6.3-5.46.24-2.22,3.25-2.59,6.38-2.67,1.37-.04,3.2.03,4.27.95.27.23.45.52.58.85.4,1.04.14,2.44-.14,3.36Z"/></g></g><g><path class="cls-1" d="m136.32,224.33c0,12.27-4.05,23.6-10.89,32.71-.51.68-1.04,1.35-1.58,2.01-.14.17-.28.34-.44.51-1.39,1.66-2.9,3.23-4.49,4.71-5.6,5.22-12.29,9.27-19.71,11.77-1.09.37-2.2.71-3.32,1.01-2.35.63-4.76,1.11-7.22,1.42-.5.06-1.01.12-1.52.17-.76.07-1.53.14-2.31.18-.07,0-.15,0-.22,0-.23.02-.47.03-.7.04-.72.03-1.45.04-2.18.04-.11,0-.21,0-.32,0-.19,0-.39,0-.58,0-.64,0-1.27-.02-1.9-.06h0c-.5-.02-1-.06-1.5-.1-2.37-.18-4.71-.52-6.99-1-3.28-.69-6.44-1.67-9.48-2.92-2.2-.91-4.33-1.95-6.36-3.12-.16-.09-.31-.18-.47-.27-3.46-2.03-6.68-4.44-9.6-7.15-.18-.17-.36-.33-.53-.5-.27-.25-.53-.5-.78-.76-1.05-1.04-2.06-2.13-3.02-3.26-8.13-9.53-13.05-21.89-13.05-35.42,0-30.14,24.43-54.57,54.58-54.57s54.58,24.43,54.58,54.57Z"/><g id="_5"><g><g><path class="cls-20" d="m101.33,185.05c-.34-.35-.67-.7-.99-1.02.32.32.65.67.99,1.02Z"/><path class="cls-9" d="m123.41,259.57c-1.39,1.66-2.9,3.23-4.49,4.71-5.6,5.22-12.29,9.27-19.71,11.77-.85-.04-1.7-.09-2.55-.13-2.7-.14-5.41-.29-8.11-.42-.02,0-.04,0-.07,0-.86-.04-1.72-.09-2.59-.13-.07,0-.15-.01-.23-.01h0c-1.8-.09-3.6-.18-5.41-.26-.2-.01-.4-.02-.6-.03-.7-.03-1.39-.07-2.09-.1-.09,0-.19,0-.29-.01-2.98-.14-5.96-.26-8.94-.37-.74-.03-1.49-.06-2.22-.09-1.55-.06-3.32.13-5.15.34-2.2-.91-4.33-1.95-6.36-3.12-.16-.09-.31-.18-.47-.27-3.46-2.03-6.68-4.44-9.6-7.15-.18-.17-.36-.33-.53-.5.14-4.2,1.91-8.95,3.95-13.4,2.21-4.83,4.74-9.33,5.86-12.44,2.3-6.39,4.02-12.99,5.12-19.7.76-4.7.4-9.2.5-13.73.03-1.65.12-3.3.35-4.97,1.86-13.49,13.6-25.19,27.81-22.97,15.16,2.38,22.76,13.56,24.27,28.6.52,5.15-.39,9.44,1.1,14.44,1.6,5.34,3.39,10.63,4.85,16.01,1.56,5.75,3.12,11.52,4.35,17.34.47,2.19.89,4.4,1.24,6.61Z"/></g><g><path class="cls-16" d="m69.84,239.94s3.08-6.72,1.92-14.53c-.89-5.99,24.01,2.21,24.01,2.21,0,0-1.02,5.7,0,10.68,1.02,4.98-11.91,14.52-11.91,14.52l-8.51-4.34-1.19,1.22-4.32-9.76Z"/><path class="cls-4" d="m91.4,197.17c1.45-1,7.12-3.66,6.9-5.65.25,2.32,1.43,4.27,2.04,6.46.69,2.46,1.69,4.79,2.18,7.32.91,4.7.95,10.13-.61,14.71-1.45,4.27-4.42,7.56-7.73,10.54-.23.21-.47.42-.71.63-2.64,2.34-5.25,3.45-7.83,3.37l-.06-34.45c2.04-.99,4.05-1.72,5.81-2.94Z"/><path class="cls-27" d="m76.26,206.04c3.11-1.74,9.22-6.07,9.39-5.99v34.51c-2.59.07-5.19-1.03-7.83-3.37-.24-.21-.47-.42-.71-.63-3.58-3.22-6.78-6.5-7.59-11.21-.11-.62-.45-1.36-1.08-1.4-2.05-.12-3.01-3.69-3.41-5.85,3.25-2.63,7.64-4.06,11.23-6.06Z"/></g></g><g><path class="cls-25" d="m94.58,260.66c.03.27-.01.55-.12.81l-.46,1.08-1.42,3.34-4.04,9.5-.04.1-1.34,3.15c-.76.07-1.53.14-2.31.18-.07,0-.15,0-.22,0-.23.02-.47.03-.7.04-.72.03-1.45.04-2.18.04-.11,0-.21,0-.32,0-.19,0-.39,0-.58,0-.64,0-1.27-.02-1.9-.06h0l-1.46-3.45-.19-.45-3.85-9.06-1.42-3.34-.46-1.08c-.11-.26-.16-.53-.12-.81.02-.32.14-.64.35-.91.69-.9,1.47-1.83,2.33-2.72.1-.11.2-.21.3-.3,2.08-2.1,4.57-4,7.28-5,.21-.08.42-.16.64-.22h0c.22-.07.45-.14.67-.2.18.04.35.09.53.16.48.14.95.32,1.42.52,2.45,1.06,4.72,2.81,6.64,4.75.01.01.02.02.03.04.96.97,1.83,1.99,2.6,2.98.21.27.33.59.35.91Z"/><path class="cls-2" d="m125.43,257.04c-.51.68-1.04,1.35-1.58,2.01-.14.17-.28.34-.44.51-1.39,1.66-2.9,3.23-4.49,4.71-5.6,5.22-12.29,9.27-19.71,11.77-1.09.37-2.2.71-3.32,1.01-2.35.63-4.76,1.11-7.22,1.42-.5.06-1.01.12-1.52.17-.76.07-1.53.14-2.31.18.35-1.15.71-2.31,1.06-3.46.04-.14.09-.28.13-.42l1.4-4.55c.94-3.08,1.9-6.16,2.85-9.25h0c.45-1.46.9-2.91,1.35-4.37.17-.55.34-1.1.51-1.65,1.4-4.56,2.79-9.1,4.18-13.65-.09.29-.05.58.1.87.19.39.59.78,1.13,1.16.92.65,2.26,1.28,3.77,1.86,4.55,1.75,10.63,3.07,11.32,3.28,4,1.22,7.15,2.37,9.54,4.31,1.31,1.07,2.39,2.39,3.26,4.09Z"/><path class="cls-29" d="m80.84,278.9c-.64,0-1.27-.02-1.9-.06h0c-.5-.02-1-.06-1.5-.1-2.37-.18-4.71-.52-6.99-1-3.28-.69-6.44-1.67-9.48-2.92-2.2-.91-4.33-1.95-6.36-3.12-.16-.09-.31-.18-.47-.27.29-7.45.39-14.85-.71-22.04-.06-.34-.11-.68-.17-1.03,2.77-.56,5.43-.6,8.54-1.83.4-.16,2.39-1.35,4.22-2.54,1.28-.84,2.49-1.68,3.02-2.16.14-.12.24-.22.27-.3.01-.02.02-.04.02-.06.14.46.29.93.42,1.39,1.45,4.72,2.9,9.45,4.36,14.17.46,1.5.93,3,1.39,4.5.98,3.18,1.95,6.36,2.93,9.53h0c.4,1.3.8,2.59,1.19,3.88.01.04.02.08.04.12.4,1.28.79,2.56,1.18,3.84Z"/><g><path class="cls-21" d="m88.97,277.72l-.29.76c-.5.06-1.01.12-1.52.17-.76.07-1.53.14-2.31.18-.07,0-.15,0-.22,0-.23.02-.47.03-.7.04-.72.03-1.45.04-2.18.04-.11,0-.21,0-.32,0-.19,0-.39,0-.58,0-.64,0-1.27-.02-1.9-.06h0c-.5-.02-1-.06-1.5-.1l-.4-1.03c-.04-.09-.04-.18-.02-.27l.45-2.06.09-.43.86-3.89h0s.26-1.17.26-1.17h0s2.22-10.09,2.22-10.09c.12-.56.04-1.15-.22-1.65l-1.24-2.32-.24-.45c-.06-.17-.02-.36.1-.49.57-.56,1.14-1.12,1.71-1.69.39-.39.85-.75,1.08-1.25,0,0,0-.01.01-.02.06-.12.14-.27.24-.42h0c.22-.32.53-.6.86-.37.14.09.25.21.34.33.22.26.35.57.55.84.06.07.11.14.18.21.27.3.63.58.91.87.5.5,1.01,1.01,1.52,1.51.13.13.17.32.11.49l-.24.45-1.24,2.32c-.27.5-.35,1.09-.22,1.65l2.22,10.09h0s.11.5.11.5l1.1,5,.02.11.43,1.95c.02.09.02.18-.02.27Z"/><path class="cls-3" d="m67.3,246.85l2.91-8.33,2.34,4.24c2.64,3.73,8.41,7.49,10.47,7.55,2.05-.06,7.57-3.64,10.46-7.55l2.34-4.24,2.91,8.33c.04.12.04.25,0,.37l-5.32,17.24c-.15.48-.8,3.06-1.1.18l-2.98-5.18c-.35-.6-.75-1.17-1.21-1.7l-5.11-6.37-5.11,6.37c-.46.53-.86,1.1-1.21,1.7l-2.98,5.18c-.3,2.88-.95.31-1.1-.18l-5.32-17.24c-.04-.12-.04-.25,0-.37Z"/><g><path class="cls-29" d="m98.02,257.3s4.9,8.78,4.91,8.79c.17.29-2.67,4.5-6.26,9.82-.25.37-.51.75-.77,1.14-2.35.63-4.76,1.11-7.22,1.42-.5.06-1.01.12-1.52.17-.76.07-1.53.14-2.31.18-.07,0-.15,0-.22,0l1.05-3.48h0l1.65-5.45h0s1.39-4.57,1.39-4.57l1.47-4.38,1.42-4.23.54-1.61,4.28-12.78.32-.96.09.07,3.69,2.96c.27.15.54.48.8.94,1.58,2.86,2.8,10.84,3.39,12.66l-6.69-.72Z"/><path class="cls-2" d="m81.42,278.91c-.19,0-.39,0-.58,0-.64,0-1.27-.02-1.9-.06h0c-.5-.02-1-.06-1.5-.1-2.37-.18-4.71-.52-6.99-1-.73-1.09-1.44-2.16-2.11-3.17-3.11-4.68-5.42-8.21-5.26-8.48,0,0,4.91-8.79,4.91-8.79l-6.69.72c.68-2.13,2.22-12.55,4.19-13.6l.53-.43,3.15-2.54.09-.07.05.15.44,1.32,4.65,13.87,1.42,4.23,1.47,4.38,1.39,4.56h0s1.57,5.2,1.57,5.2l1.16,3.82Z"/></g></g><path class="cls-29" d="m54.61,271.7c-.16-.09-.31-.18-.47-.27-3.46-2.03-6.68-4.44-9.6-7.15-.18-.17-.36-.33-.53-.5-.27-.25-.53-.5-.78-.76-1.05-1.04-2.06-2.13-3.02-3.26,2.02-3.81,4.64-7.4,7.75-9.38.36-.22.72-.43,1.09-.62,1.47-.73,2.86-1.12,4.22-1.39.06.34.11.68.17,1.03.96,6.1,1.26,12.29,1.11,18.44-.03,1.29,0,2.59.07,3.87Z"/></g></g></g><g><g><g id="_12"><g><path class="cls-33" d="m225.62,205.67c-1.68,5.13-2.95,16.98-.25,21.78-7.47-13.26-6.54-28.6-5.89-43.2.52-11.67,10.27-21.73,22.06-22.28,4.24-.2,9.19.98,10.96,4.84,3.85-1.05,8.05.75,10.85,3.6,14.35,14.61.34,39.74-7.66,53.76,2.25-3.94,1.34-9.75,2.35-14.04.94-3.97,1.6-6.56-.77-10.46-.21-.35-.46-.7-.84-.85-.55-.22-1.2.1-1.55.58-.35.48-.47,1.09-.58,1.67-.99,5.11-2.07,12.87-5.59,16.98-3.18,3.72-9.43,4.41-11.62-.54-2.46-5.57-6.39-10.53-8.69-16.36-.53-.38-1.16.33-1.42.93-.51,1.18-.96,2.38-1.36,3.6Z"/><g><path class="cls-30" d="m259.77,196.6c.31-.83.26-1.62.84-2.38.53-.69,1.35-1.18,2.22-1.2,2.77-.06,3.1,3.32,2.05,5.17-.52.92-1.3,1.69-1.78,2.63-.83,1.59-1.08,3.91-3.3,4.16-1.29.14-2-.32-2.32-1.05-.61-1.41.16-3.84.87-5.06.43-.74,1.12-1.46,1.42-2.26Z"/><g><path class="cls-28" d="m254.33,206.45c-.87,5.44-2.01,12.05-.17,16.78,2.1,5.4,4.77,6.48,9.59,8.34-2.25,3.07-4.37,6.25-7.01,8.98s-5.9,5.03-9.62,5.81c-1.14.24-2.32.3-3.49.21v-40.26c4.16-.13,10.6-.24,10.69.14Z"/><path class="cls-30" d="m258.45,178.35c4.68,6.5,4.53,15.57,1.71,22.78-2.28,5.82-9.46,15.78-16.52,15.57v-45.62c5.6-.25,11.58,2.77,14.81,7.27Z"/><path class="cls-24" d="m243.64,244.29v11.03s39.37,0,39.37,0c.45-.41.89-.83,1.32-1.27-.88-5.25-1.95-8.53-2.49-9.97-.2-.53-.46-1.04-.77-1.51-3.85-5.76-5.87-6.67-17.33-10.99-.12.17-.25.34-.37.5-3.88,5.24-9.01,11.35-19.74,12.2Z"/></g></g><g><path class="cls-5" d="m224.45,193.02c.87.02,1.69.5,2.22,1.2.58.76.53,1.55.84,2.38.3.8.99,1.52,1.42,2.26.71,1.22,1.49,3.65.87,5.06-.32.74-1.03,1.2-2.32,1.05-2.23-.25-2.48-2.56-3.3-4.16-.49-.94-1.26-1.71-1.78-2.63-1.04-1.85-.72-5.23,2.05-5.17Z"/><g><path class="cls-30" d="m233.12,223.23c1.84-4.73.7-11.34-.17-16.78.09-.38,6.53-.26,10.69-.14v40.26c-1.17.09-2.35.03-3.49-.21-3.72-.78-6.97-3.08-9.62-5.81-2.64-2.73-4.76-5.92-7.01-8.98,4.82-1.87,7.49-2.95,9.59-8.34Z"/><path class="cls-5" d="m243.64,171.09l.13,45.62c-7.06.21-14.38-9.75-16.65-15.57-2.82-7.21-2.97-16.28,1.71-22.78,3.23-4.49,9.22-7.52,14.81-7.27Z"/><path class="cls-7" d="m203.71,250.1c1.52,1.85,3.17,3.59,4.92,5.22h35s0-11.03,0-11.03c-10.73-.85-15.85-6.96-19.73-12.2-.12-.17-.25-.34-.37-.5-11.45,4.31-13.49,5.23-17.33,10.99-.32.47-.57.98-.77,1.51-.39,1.04-1.04,3.03-1.72,6.02Z"/></g></g><path class="cls-33" d="m225.59,175.57c.54-.43,9.24-5.91,9.88-6.02.64-.11,15.68.22,16.11.64.43.43,10.31,7.41,11.06,7.52v14.82s-1.31,3.44-1.31,3.44c0,0,.66-5.8-1.05-9.78-1.8-4.15-6.06-6.97-8.59-10.7,2.33,3.44-10.34,6.89-11.39,7.26-5.16,1.8-8.05,7.72-8.84,12.77-1.38,8.88-1.3,17.98.26,26.83-3.47-5.45-6-11.78-6.91-18.2-.71-4.93-1.59-11.62-1.09-16.48.23-2.26.07-10.67,1.88-12.11Z"/></g></g><path class="cls-24" d="m243.64,255.32v14.59c.72.03,1.45.04,2.18.04,14.37,0,27.45-5.56,37.19-14.63h-39.37Z"/><path class="cls-7" d="m208.63,255.32c9.25,8.62,21.5,14.06,35.01,14.59v-14.59s-35.01,0-35.01,0Z"/></g><path class="cls-1" d="m300.4,215.38c0,12.29-4.06,23.64-10.93,32.76-1.57,2.09-3.29,4.07-5.14,5.92-.43.43-.87.85-1.32,1.26-.77.72-1.56,1.42-2.37,2.08-.43.36-.86.71-1.3,1.05-6.97,5.43-15.3,9.21-24.39,10.74-1.29.22-2.6.39-3.93.52-1.72.16-3.45.24-5.21.24-.73,0-1.46-.01-2.18-.04-.72-.03-1.44-.07-2.15-.13-.99-.07-1.96-.18-2.93-.31-8.04-1.07-15.52-3.88-22.05-8.06-1.83-1.16-3.58-2.44-5.25-3.8-.9-.74-1.77-1.5-2.62-2.29-1.75-1.63-3.4-3.37-4.92-5.22-.44-.53-.87-1.08-1.29-1.63-7.02-9.18-11.18-20.65-11.18-33.09,0-30.14,24.44-54.58,54.58-54.58s54.58,24.44,54.58,54.58Z"/><g id="_2"><g><g><g><path class="cls-15" d="m261.28,223.46l.06,1.17c.32,6.34-.71,10.14,4.29,14.75,2.04,1.89,4.15,4.34,3.69,7.08-.43,2.57-3.02,4.25-5.56,4.82-2.54.57-5.2.35-7.76.84-2.99.57-5.84,2.08-8.88,1.96-3.71-.14-6.87-2.67-9.51-5.28-2.64-2.61-5.2-5.53-8.68-6.84-.64-.24-1.45-.67-1.29-1.33.06-.28.3-.48.51-.67,6.18-5.36,7.2-8.75,6.8-16.58l26.34.07Z"/><path class="cls-4" d="m246.09,186.75c1.56.42,3.66-1.58,4.67-2.4,1.82-1.48,3.89-2.66,6.09-3.47,1.61-.59,3.39-.98,5.04-.52,2.43.69,4.03,3.13,4.48,5.62.92,5.06-1.63,10.3-.81,15.37.11.71.31,2.32,1.44,1.54.47-.32.17-1.19.67-1.57,1.11-.85,1.65.51,1.74,1.33.31,2.92.02,6.14-1.24,8.86-.73,1.58-1.83,2.07-2.9,3.24-1.18,1.3-.85,3.7-1.24,5.26-.26,1.06-.69,2.04-1.3,2.9-1.29,1.85-3.65,2.8-5.15,4.49-1.4,1.59-2.7,3.17-4.69,4.25-1.2.65-2.91.75-4.49.76-.21.02-.41.04-.62.05l-2.33-45.85c.21.05.43.08.63.14Z"/><path class="cls-27" d="m224.5,204.92c0-.82.41-2.23,1.59-1.49.54.33.33,1.23.83,1.5,1.2.66,1.23-.96,1.28-1.68.16-2.73-1.28-5.27-1.07-7.95.2-2.46-.05-4.99.72-7.4.67-2.09,2-4.02,3.89-5.14,1.74-1.04,3.92-1.33,5.88-.79,1.72.48,2.92,1.52,4.08,2.82,1.26,1.41,1.86,1.4,3.78,1.83l2.33,45.85c-1.39.11-2.83.11-3.92-.35-2.09-.87-3.53-2.31-5.09-3.75-1.66-1.53-4.11-2.24-5.58-3.95-.69-.8-1.22-1.73-1.59-2.76-.54-1.51-.46-3.94-1.77-5.11-1.18-1.05-2.33-1.44-3.21-2.93-1.53-2.58-2.14-5.75-2.13-8.69Z"/><path class="cls-12" d="m268.14,199.22c-.44,2.07-.95,4.02-1.37,5.72-.2.78-.37,1.65-.61,2.4-.11.33-.12.61-.36.9-.06.07-.94.67-.92.51.29-2.93.62-5.72.3-8.66-.54-5.07.4-13.34-6.82-13.06-2.17.08-4.22.92-6.27,1.64-2.05.72-4.23,1.33-6.37.94-3.36-.61-5.98-3.56-9.37-3.99-5.22-.65-7.19,3.93-7.46,8.22-.19,2.93-.48,5.59-.24,8.58.09,1.13.48,2.13.63,3.25.06.47.84,3.76.59,3.98-.19.17-.45-.09-.57-.31-3.96-7.59-6.57-18-1.84-26.18.95-1.64,2.34-2.97,3.71-4.28,3.87-3.69,7.74-7.39,11.61-11.08.13-.12.25-.24.4-.32.73-.39,1.56.23,2.19.76,6.69,5.6,16.29,6.15,21.67,13.82,3.1,4.42,2.36,11.26,1.1,17.15Z"/></g><g><path class="cls-22" d="m268.72,243.19c-.23,1.29-.75,2.54-1.27,3.69-.64,1.37-1.4,2.68-2.21,3.95-1.72,2.7-3.67,5.25-5.21,8.06-1.87,3.4-3.43,6.85-5.07,10.3-1.29.22-2.6.39-3.93.52-1.72.16-3.45.24-5.21.24-.73,0-1.46-.01-2.18-.04-.72-.03-1.44-.07-2.15-.13-.99-.07-1.96-.18-2.93-.31-.08-.34-.16-.68-.23-1.02-1.59-7.42-2.96-14.87-5.99-22.04-.42-1-.71-2.06-.9-3.14-.37-2.06-.37-4.23-.22-6.29.02-.29.04-.58.07-.86l.05.05c.08.07.18.18.31.3,1.83,1.74,8.69,7.61,18.48,6.74,6.03-.53,10.37-3.38,12.63-5.23.34-.28.63-.53.88-.76.15-.14.29-.26.4-.37,0,0,4.19,1.12,4.7,3.96.14.79.11,1.59-.02,2.37Z"/><path class="cls-24" d="m241.49,269.78c-.99-.07-1.96-.18-2.93-.31-8.04-1.07-15.52-3.88-22.05-8.06-1.83-1.16-3.58-2.44-5.25-3.8-.06-1.72-.12-3.44-.16-5.17-.05-1.88-5.12-3.9-4.46-5.62.25-.66,1.24-1.38,2.54-2.05,2.75-1.42,6.86-2.68,8.14-2.93,3.05-.61,6.01-1.47,8.75-2.9,2.34-1.22,2.6-1.83,5.23-2.81.01,0,.02.01.05.05.04.07.11.23.19.45h0c.47,1.34,1.52,5.06,2.54,8.72h0c1.22,4.42,2.38,8.75,2.38,8.75l5.05,15.69Z"/><path class="cls-24" d="m282.24,244.63c0,.06-.01.11-.02.16-.44,4.15-1.03,8.36-1.58,12.6-.43.36-.86.71-1.3,1.05-6.97,5.43-15.3,9.21-24.39,10.74-1.29.22-2.6.39-3.93.52,1.72-4.06,3.18-7.39,3.72-8.68.68-1.66,1.95-5.24,3.31-9.17,1.82-5.26,3.8-11.16,4.71-13.88.22-.68.39-1.16.46-1.39.03-.1.05-.15.05-.15,0,0,8.31,3.29,10.2,3.84,3.13.9,5.97,3.19,8.76,4.35Z"/></g></g><g><path class="cls-12" d="m250.76,202.42v3.61s6.22-3.46,12.05-3.61c0-2.2-12.05,0-12.05,0Z"/><path class="cls-12" d="m243.81,202.42v3.61s-6.22-3.46-12.05-3.61c0-2.2,12.05,0,12.05,0Z"/></g><path class="cls-12" d="m263.49,219.53c.05.26-.08.51-.2.74-.29.56-.56,1.1-.95,1.57-.37.44-.57,1.05-.87,1.55-.61,1.04-1.43,2.13-2.41,2.83-2.39,1.79-4.97,3.5-7.63,4.84-.41.2-.84.41-1.28.37-1.26-.1-2.06-3.32-3.21-1.22-.24.45-.4.98-.81,1.28-2.17,1.58-6.83-2.81-8.41-3.96-.74-.54-1.48-1.1-2.12-1.77-.6-.62-1.1-1.33-1.6-2.04-.96-1.36-1.96-2.8-2.13-4.45-.11,1.12-.21,2.29.22,3.33.12.29.28.55.43.82,1.19,2.01,2.29,4.11,4.11,5.64,1.69,1.42,3.68,2.42,5.46,3.72,1.4,1.03,3.24,1.75,5.14,2.03,1.87-.28,3.73-1.01,5.18-2.07,1.87-1.37,4.02-2.46,5.9-4.01.68-.56,1.27-1.22,1.83-1.9.52-.64,1.2-1.32,1.58-2.06.31-.62.58-1.22.93-1.83.59-1.05,1.07-2.14.85-3.39Z"/></g><g id="_3"><path class="cls-24" d="m216.51,261.41c-1.83-1.16-3.58-2.44-5.25-3.8-.9-.74-1.77-1.5-2.62-2.29-1.75-1.63-3.4-3.37-4.92-5.22-.44-.53-.87-1.08-1.29-1.63,1.71-1.81,4.28-2.83,6.76-3.7,1.1-.39,2.18-.74,3.14-1.12.78-.3,1.53-.59,2.27-.86.2-.08.44-.15.62-.02.13.09.17.27.19.44.22,1.79-.91,3.57-1.07,5.34-.18,2.02.22,4.03.67,5.98.52,2.29,1.08,4.58,1.51,6.89Z"/><path class="cls-24" d="m289.47,248.14c-1.57,2.09-3.29,4.07-5.14,5.92-.43.43-.87.85-1.32,1.26-.77.72-1.56,1.42-2.37,2.08-.43.36-.86.71-1.3,1.05.16-1.94.29-3.88.4-5.82.16-2.92-1.93-7.79,2.44-7.84h.05c2.91-.01,5.34,1.34,7.25,3.34Z"/></g></g></g></g></g></svg>