<?xml version="1.0" encoding="UTF-8"?><svg id="_レイヤー_2" xmlns="http://www.w3.org/2000/svg" viewBox="0 0 431.4 174.9"><defs><style>.cls-1,.cls-2,.cls-3,.cls-4,.cls-5{font-family:HGPSoeiKakugothicUB, HGPSoeiKakugothicUB;isolation:isolate;}.cls-1,.cls-3,.cls-4,.cls-5{font-size:36px;}.cls-6{letter-spacing:-.16em;}.cls-2{font-size:30px;}.cls-2,.cls-5{fill:#fff;}.cls-3{stroke:#000;stroke-width:4px;}.cls-3,.cls-4{fill:none;stroke-linecap:round;stroke-linejoin:round;}.cls-4{stroke:#fff;stroke-width:6px;}.cls-7{fill:#8e6471;}</style></defs><g id="_レイヤー_1-2"><g><path class="cls-7" d="M395,114.7v.5c0,17.3-23.1,31.4-51.7,31.4-12.4,0-23.8-2.7-32.7-7.1-7.7,8.5-21.6,14.5-37.9,16-6.8,11.3-24.8,19.4-45.8,19.4-14.4,0-27.4-3.8-36.3-9.9-6.9,2.2-14.7,3.5-23,3.5-22.4,0-41.3-9.2-47-21.7-5.3,1.2-11,1.9-17,1.9-26.9,0-48.7-13.2-48.8-29.5-2.9,.3-5.8,.5-8.9,.5C20.6,119.7,0,107.2,0,91.8c0-14,17-25.6,39.1-27.6-.5-1.7-.7-3.3-.7-5.1,0-17.3,23.1-31.3,51.5-31.3,8.1,0,15.8,1.1,22.7,3.2,3.9-11.5,20.7-20.2,40.8-20.2,7,0,13.7,1.1,19.5,2.9C182.4,5.4,198.1,0,216,0c20.8,0,38.7,7.3,47.2,18,8.1-4.6,18.9-7.3,30.8-7.3,17.2,0,32.1,5.8,39.8,14.3,4.8-1,10.1-1.6,15.5-1.6,26,0,47.1,12.8,47.1,28.6,0,2.3-.5,4.6-1.3,6.8,20.8,3,36.3,14.3,36.3,27.9-.1,13.6-15.6,25-36.4,28Z"/><text class="cls-2" transform="translate(50.45 98.38)"><tspan x="0" y="0">こんな</tspan></text><g><text class="cls-4" transform="translate(132.55 97.56)"><tspan x="0" y="0">悩み</tspan></text><text class="cls-3" transform="translate(132.55 97.56)"><tspan x="0" y="0">悩み</tspan></text><text class="cls-1" transform="translate(132.55 97.56)"><tspan x="0" y="0">悩み</tspan></text><text class="cls-5" transform="translate(132.55 97.56)"><tspan x="0" y="0">悩み</tspan></text></g><text class="cls-2" transform="translate(208.73 98.38)"><tspan x="0" y="0">ありません</tspan><tspan class="cls-6" x="127.5" y="0">か</tspan><tspan x="151.06" y="0">？</tspan></text></g></g></svg>