<?xml version="1.0" encoding="UTF-8"?><svg id="_レイヤー_2" xmlns="http://www.w3.org/2000/svg" viewBox="0 0 431.4 174.73"><defs><style>.cls-1{fill:#fff;}.cls-2{stroke:#000;stroke-width:4px;}.cls-2,.cls-3{fill:none;stroke-linecap:round;stroke-linejoin:round;}.cls-3{stroke:#fff;stroke-width:6px;}.cls-4{fill:#8e6471;}</style></defs><g id="_問題提起エリア"><g><path class="cls-4" d="m395.02,114.57c1.87,28.99-59.35,40.19-84.36,24.79-7.67,8.46-21.56,14.54-37.93,15.96-6.84,11.34-24.76,19.42-45.79,19.42-25.27-1.03-35.87-12.58-59.38-6.36-22.39,0-41.26-9.17-46.98-21.67-25.04,7.33-67.27-6.07-65.82-27.66C30.65,122.91-1.17,109.6.03,91.71c0-14,16.97-25.58,39.1-27.56-4.65-21.29,20.45-35.91,50.84-36.37,33.93,8.56,23.98-17.21,63.45-16.97C177.82,17.67,187.44-1.03,216,.04c53.05,2.42,23.43,23.26,78,10.61,17.16,0,32.1,5.79,39.81,14.33,24.31-6.68,64.15,6.47,62.63,27.05-3.22,13.94,36.09,9.34,34.93,34.66,0,13.56-15.51,24.92-36.36,27.89Z"/><g><path class="cls-1" d="m58.87,89.36c-.78.63-1.33,1.09-1.64,1.41-.63.7-.86,1.33-.7,1.88.16.7.86,1.21,2.11,1.52,1.01.23,2.15.35,3.4.35,2.81,0,6.48-.51,11.02-1.52l.82,4.22c-6.41,1.41-11.56,1.83-15.47,1.29-3.67-.47-5.82-1.83-6.45-4.1-.7-2.66.62-5.23,3.98-7.73l2.93,2.7Zm-4.8-12.77c6.56.16,11.84-.08,15.82-.7l2.46,3.63c-2.89,1.17-5.86,3.01-8.91,5.51l-2.7-2.93c.47-.31,1.48-.98,3.05-1.99-2.74.31-5.94.47-9.61.47l-.12-3.98Z"/><path class="cls-1" d="m75.87,98.15c3.2-7.89,6.52-15.74,9.96-23.55l4.34,1.52c-1.88,3.83-3.44,7.34-4.69,10.55,1.48-1.09,2.93-1.41,4.34-.94,1.48.55,2.23,1.6,2.23,3.16v5.16c0,.94.31,1.33.94,1.17.7-.23,1.68-1.05,2.93-2.46.94-1.01,1.56-1.91,1.88-2.7l3.05,3.28c-1.64,2.74-3.71,4.73-6.21,5.98-1.64.86-3.16,1.09-4.57.7-1.64-.47-2.42-1.56-2.34-3.28l.12-5.27c0-1.64-.74-2.03-2.23-1.17-1.56.86-2.7,2.19-3.4,3.98-.39,1.09-1.05,3.01-1.99,5.74l-4.34-1.88Z"/><path class="cls-1" d="m102.82,94.28c2.27-3.52,3.98-7.11,5.16-10.78-1.8.23-3.13.35-3.98.35l-.35-4.1c1.72,0,3.52-.12,5.39-.35.31-.86.66-2.34,1.05-4.45l4.34.82c-.23,1.09-.55,2.15-.94,3.16.94-.08,2.07-.27,3.4-.59l.47,3.98c-1.64.31-3.24.55-4.8.7-1.48,4.77-3.48,9.22-5.98,13.36l-3.75-2.11Zm13.59-2.7c-.08-2.66.39-4.8,1.41-6.45l3.52,1.76c-.94,1.56-1.21,3.36-.82,5.39,2.27.78,4.26,1.76,5.98,2.93l-2.11,3.05c-1.72-1.25-3.05-2.03-3.98-2.34.23,2.34-.86,3.75-3.28,4.22-1.56.31-3.01.31-4.34,0-1.72-.39-2.89-1.17-3.52-2.34-1.02-1.95-.78-3.59.7-4.92,1.48-1.33,3.63-1.76,6.45-1.29Zm.23,3.28c-.78-.16-1.48-.23-2.11-.23-.94-.08-1.52.08-1.76.47-.47.7-.23,1.21.7,1.52.86.31,1.64.35,2.34.12s.98-.86.82-1.88Zm1.29-11.6l2.11-3.4c3.2,1.41,5.51,2.54,6.91,3.4l-2.23,3.63c-2.97-1.72-5.23-2.93-6.8-3.63Z"/></g><g><g><path class="cls-3" d="m133.5,84.5c.56-1.87.84-4.73.84-8.58l3.23.42c0,4.03-.19,6.99-.56,8.86l-3.52-.7Zm9.14-16.31v7.73l1.69-.84,2.11,4.78-3.23,1.55-.56-1.69v21.09h-4.78v-32.62h4.78Zm6.47,22.78c.56-.37,1.27-1.03,2.11-1.97.84-.94,1.31-1.59,1.41-1.97-.66-.94-1.74-1.83-3.23-2.67l2.81-3.38c1.03.56,1.92,1.31,2.67,2.25.65-.84,1.12-2.25,1.41-4.22l4.36,1.41c-.19.84-.52,1.97-.98,3.38-.47,1.41-.89,2.34-1.27,2.81.84.56,1.78,1.64,2.81,3.23v-8.3h4.92v19.27h-4.92v-1.55h-12.09v1.55h-4.92v-19.27h4.92v9.42Zm-4.36-20.11l4.64-1.41c.37.56.89,1.88,1.55,3.94.56,1.78.98,3.38,1.27,4.78l-4.36,1.27c-.84-4.03-1.88-6.89-3.09-8.58Zm4.36,23.77h2.95l-2.95-3.09v3.09Zm2.81-25.17l4.92-.98c.75,1.41,1.41,4.31,1.97,8.72l-4.64.84c0-1.12-.24-2.58-.7-4.36-.47-1.78-.98-3.19-1.55-4.22Zm.7,25.17h8.58v-4.08l-3.09,2.95c-.38-.75-1.08-1.64-2.11-2.67-1.12,1.88-2.25,3.14-3.38,3.8Zm6.33-15.75c1.97-3.28,3.09-6.84,3.38-10.69l4.78,1.55c-.19,1.41-.66,3.28-1.41,5.62-.84,2.53-1.6,4.22-2.25,5.06l-4.5-1.55Z"/><path class="cls-3" d="m181.87,80.85l2.95-5.91c-3.85.75-6.52,1.22-8.02,1.41l-1.27-5.34c5.34-.37,9.8-1.12,13.36-2.25l2.95,3.38c-2.25,4.22-3.85,7.31-4.78,9.28,1.78.28,3.8.89,6.05,1.83.56-1.69.98-3.84,1.27-6.47l5.2,1.69c-.47,2.72-1.03,5.06-1.69,7.03,1.69,1.12,3.38,2.3,5.06,3.52l-3.52,4.64c-.84-.84-2.02-1.83-3.52-2.95-1.88,3.47-4.36,6.56-7.45,9.28l-4.08-3.8c3.38-2.9,5.77-5.62,7.17-8.16-2.16-1.12-4.41-1.78-6.75-1.97-1.31,2.53-2.34,4.41-3.09,5.62-1.6,2.44-3.05,3.89-4.36,4.36-2.16.84-4.08.42-5.77-1.27-1.12-1.12-1.6-2.62-1.41-4.5.19-1.97.89-3.61,2.11-4.92,2.53-2.72,5.72-4.22,9.56-4.5Zm-2.25,5.34c-1.12.09-2.16.47-3.09,1.12-1.03.75-1.64,1.6-1.83,2.53-.09.38,0,.75.28,1.12.28.38.65.47,1.12.28.94-.37,2.11-2.06,3.52-5.06Z"/></g><g><path class="cls-2" d="m133.5,84.5c.56-1.87.84-4.73.84-8.58l3.23.42c0,4.03-.19,6.99-.56,8.86l-3.52-.7Zm9.14-16.31v7.73l1.69-.84,2.11,4.78-3.23,1.55-.56-1.69v21.09h-4.78v-32.62h4.78Zm6.47,22.78c.56-.37,1.27-1.03,2.11-1.97.84-.94,1.31-1.59,1.41-1.97-.66-.94-1.74-1.83-3.23-2.67l2.81-3.38c1.03.56,1.92,1.31,2.67,2.25.65-.84,1.12-2.25,1.41-4.22l4.36,1.41c-.19.84-.52,1.97-.98,3.38-.47,1.41-.89,2.34-1.27,2.81.84.56,1.78,1.64,2.81,3.23v-8.3h4.92v19.27h-4.92v-1.55h-12.09v1.55h-4.92v-19.27h4.92v9.42Zm-4.36-20.11l4.64-1.41c.37.56.89,1.88,1.55,3.94.56,1.78.98,3.38,1.27,4.78l-4.36,1.27c-.84-4.03-1.88-6.89-3.09-8.58Zm4.36,23.77h2.95l-2.95-3.09v3.09Zm2.81-25.17l4.92-.98c.75,1.41,1.41,4.31,1.97,8.72l-4.64.84c0-1.12-.24-2.58-.7-4.36-.47-1.78-.98-3.19-1.55-4.22Zm.7,25.17h8.58v-4.08l-3.09,2.95c-.38-.75-1.08-1.64-2.11-2.67-1.12,1.88-2.25,3.14-3.38,3.8Zm6.33-15.75c1.97-3.28,3.09-6.84,3.38-10.69l4.78,1.55c-.19,1.41-.66,3.28-1.41,5.62-.84,2.53-1.6,4.22-2.25,5.06l-4.5-1.55Z"/><path class="cls-2" d="m181.87,80.85l2.95-5.91c-3.85.75-6.52,1.22-8.02,1.41l-1.27-5.34c5.34-.37,9.8-1.12,13.36-2.25l2.95,3.38c-2.25,4.22-3.85,7.31-4.78,9.28,1.78.28,3.8.89,6.05,1.83.56-1.69.98-3.84,1.27-6.47l5.2,1.69c-.47,2.72-1.03,5.06-1.69,7.03,1.69,1.12,3.38,2.3,5.06,3.52l-3.52,4.64c-.84-.84-2.02-1.83-3.52-2.95-1.88,3.47-4.36,6.56-7.45,9.28l-4.08-3.8c3.38-2.9,5.77-5.62,7.17-8.16-2.16-1.12-4.41-1.78-6.75-1.97-1.31,2.53-2.34,4.41-3.09,5.62-1.6,2.44-3.05,3.89-4.36,4.36-2.16.84-4.08.42-5.77-1.27-1.12-1.12-1.6-2.62-1.41-4.5.19-1.97.89-3.61,2.11-4.92,2.53-2.72,5.72-4.22,9.56-4.5Zm-2.25,5.34c-1.12.09-2.16.47-3.09,1.12-1.03.75-1.64,1.6-1.83,2.53-.09.38,0,.75.28,1.12.28.38.65.47,1.12.28.94-.37,2.11-2.06,3.52-5.06Z"/></g><g><path d="m133.5,84.5c.56-1.87.84-4.73.84-8.58l3.23.42c0,4.03-.19,6.99-.56,8.86l-3.52-.7Zm9.14-16.31v7.73l1.69-.84,2.11,4.78-3.23,1.55-.56-1.69v21.09h-4.78v-32.62h4.78Zm6.47,22.78c.56-.37,1.27-1.03,2.11-1.97.84-.94,1.31-1.59,1.41-1.97-.66-.94-1.74-1.83-3.23-2.67l2.81-3.38c1.03.56,1.92,1.31,2.67,2.25.65-.84,1.12-2.25,1.41-4.22l4.36,1.41c-.19.84-.52,1.97-.98,3.38-.47,1.41-.89,2.34-1.27,2.81.84.56,1.78,1.64,2.81,3.23v-8.3h4.92v19.27h-4.92v-1.55h-12.09v1.55h-4.92v-19.27h4.92v9.42Zm-4.36-20.11l4.64-1.41c.37.56.89,1.88,1.55,3.94.56,1.78.98,3.38,1.27,4.78l-4.36,1.27c-.84-4.03-1.88-6.89-3.09-8.58Zm4.36,23.77h2.95l-2.95-3.09v3.09Zm2.81-25.17l4.92-.98c.75,1.41,1.41,4.31,1.97,8.72l-4.64.84c0-1.12-.24-2.58-.7-4.36-.47-1.78-.98-3.19-1.55-4.22Zm.7,25.17h8.58v-4.08l-3.09,2.95c-.38-.75-1.08-1.64-2.11-2.67-1.12,1.88-2.25,3.14-3.38,3.8Zm6.33-15.75c1.97-3.28,3.09-6.84,3.38-10.69l4.78,1.55c-.19,1.41-.66,3.28-1.41,5.62-.84,2.53-1.6,4.22-2.25,5.06l-4.5-1.55Z"/><path d="m181.87,80.85l2.95-5.91c-3.85.75-6.52,1.22-8.02,1.41l-1.27-5.34c5.34-.37,9.8-1.12,13.36-2.25l2.95,3.38c-2.25,4.22-3.85,7.31-4.78,9.28,1.78.28,3.8.89,6.05,1.83.56-1.69.98-3.84,1.27-6.47l5.2,1.69c-.47,2.72-1.03,5.06-1.69,7.03,1.69,1.12,3.38,2.3,5.06,3.52l-3.52,4.64c-.84-.84-2.02-1.83-3.52-2.95-1.88,3.47-4.36,6.56-7.45,9.28l-4.08-3.8c3.38-2.9,5.77-5.62,7.17-8.16-2.16-1.12-4.41-1.78-6.75-1.97-1.31,2.53-2.34,4.41-3.09,5.62-1.6,2.44-3.05,3.89-4.36,4.36-2.16.84-4.08.42-5.77-1.27-1.12-1.12-1.6-2.62-1.41-4.5.19-1.97.89-3.61,2.11-4.92,2.53-2.72,5.72-4.22,9.56-4.5Zm-2.25,5.34c-1.12.09-2.16.47-3.09,1.12-1.03.75-1.64,1.6-1.83,2.53-.09.38,0,.75.28,1.12.28.38.65.47,1.12.28.94-.37,2.11-2.06,3.52-5.06Z"/></g><g><path class="cls-1" d="m133.5,84.5c.56-1.87.84-4.73.84-8.58l3.23.42c0,4.03-.19,6.99-.56,8.86l-3.52-.7Zm9.14-16.31v7.73l1.69-.84,2.11,4.78-3.23,1.55-.56-1.69v21.09h-4.78v-32.62h4.78Zm6.47,22.78c.56-.37,1.27-1.03,2.11-1.97.84-.94,1.31-1.59,1.41-1.97-.66-.94-1.74-1.83-3.23-2.67l2.81-3.38c1.03.56,1.92,1.31,2.67,2.25.65-.84,1.12-2.25,1.41-4.22l4.36,1.41c-.19.84-.52,1.97-.98,3.38-.47,1.41-.89,2.34-1.27,2.81.84.56,1.78,1.64,2.81,3.23v-8.3h4.92v19.27h-4.92v-1.55h-12.09v1.55h-4.92v-19.27h4.92v9.42Zm-4.36-20.11l4.64-1.41c.37.56.89,1.88,1.55,3.94.56,1.78.98,3.38,1.27,4.78l-4.36,1.27c-.84-4.03-1.88-6.89-3.09-8.58Zm4.36,23.77h2.95l-2.95-3.09v3.09Zm2.81-25.17l4.92-.98c.75,1.41,1.41,4.31,1.97,8.72l-4.64.84c0-1.12-.24-2.58-.7-4.36-.47-1.78-.98-3.19-1.55-4.22Zm.7,25.17h8.58v-4.08l-3.09,2.95c-.38-.75-1.08-1.64-2.11-2.67-1.12,1.88-2.25,3.14-3.38,3.8Zm6.33-15.75c1.97-3.28,3.09-6.84,3.38-10.69l4.78,1.55c-.19,1.41-.66,3.28-1.41,5.62-.84,2.53-1.6,4.22-2.25,5.06l-4.5-1.55Z"/><path class="cls-1" d="m181.87,80.85l2.95-5.91c-3.85.75-6.52,1.22-8.02,1.41l-1.27-5.34c5.34-.37,9.8-1.12,13.36-2.25l2.95,3.38c-2.25,4.22-3.85,7.31-4.78,9.28,1.78.28,3.8.89,6.05,1.83.56-1.69.98-3.84,1.27-6.47l5.2,1.69c-.47,2.72-1.03,5.06-1.69,7.03,1.69,1.12,3.38,2.3,5.06,3.52l-3.52,4.64c-.84-.84-2.02-1.83-3.52-2.95-1.88,3.47-4.36,6.56-7.45,9.28l-4.08-3.8c3.38-2.9,5.77-5.62,7.17-8.16-2.16-1.12-4.41-1.78-6.75-1.97-1.31,2.53-2.34,4.41-3.09,5.62-1.6,2.44-3.05,3.89-4.36,4.36-2.16.84-4.08.42-5.77-1.27-1.12-1.12-1.6-2.62-1.41-4.5.19-1.97.89-3.61,2.11-4.92,2.53-2.72,5.72-4.22,9.56-4.5Zm-2.25,5.34c-1.12.09-2.16.47-3.09,1.12-1.03.75-1.64,1.6-1.83,2.53-.09.38,0,.75.28,1.12.28.38.65.47,1.12.28.94-.37,2.11-2.06,3.52-5.06Z"/></g></g><g><path class="cls-1" d="m217.39,85.61c0-.47.08-1.33.23-2.58-1.64.16-3.09.23-4.34.23l-.23-3.87c2.5,0,4.18-.04,5.04-.12.16-.94.47-2.46.94-4.57l4.45.82c-.47,1.41-.82,2.54-1.05,3.4,2.89-.31,5.27-.66,7.15-1.05l.59,3.98c-2.74.55-5.51.9-8.32,1.05l-.12,1.41c2.03-.16,3.55-.19,4.57-.12,1.72.16,3.16.59,4.34,1.29,1.64.94,2.73,2.27,3.28,3.98.7,2.03.59,3.95-.35,5.74-1.56,2.97-4.49,4.69-8.79,5.16l-1.64-3.4c1.41-.23,2.54-.51,3.4-.82,1.48-.55,2.5-1.37,3.05-2.46.55-1.09.62-2.15.23-3.16-.31-1.01-.98-1.76-1.99-2.23-1.8,3.05-3.63,5.31-5.51,6.8l.35,1.17-3.98,2.11-.12-.35c-1.72,1.01-3.36,1.48-4.92,1.41-1.25-.08-2.23-.74-2.93-1.99-.63-1.09-.82-2.23-.59-3.4.62-3.36,3.05-6.17,7.27-8.44Zm.47,8.67c-.16-.55-.27-1.25-.35-2.11,0-.78-.04-1.56-.12-2.34-2.03,1.56-3.09,3.05-3.16,4.45-.08.94.39,1.33,1.41,1.17.86-.16,1.6-.55,2.23-1.17Zm3.87-3.87c.62-.62,1.29-1.56,1.99-2.81-.94,0-1.64.04-2.11.12,0,1.25.04,2.15.12,2.7Z"/><path class="cls-1" d="m238.6,74.83l4.1.82c-1.33,4.61-1.88,8.52-1.64,11.72.55-1.41,1.09-2.7,1.64-3.87l2.81,1.76c-1.48,2.97-2.54,5.39-3.16,7.27l-3.87.82c-1.09-3.28-1.52-6.68-1.29-10.2.16-2.26.62-5.04,1.41-8.32Zm5.04,22.03c4.3-1.41,6.76-4.22,7.38-8.44.55-4.06.43-8.59-.35-13.59h4.45c.55,5.24.66,9.49.35,12.77-.31,3.05-1.17,5.67-2.58,7.85-1.64,2.42-3.79,4.1-6.45,5.04l-2.81-3.63Z"/><path class="cls-1" d="m258.75,82.56v-3.87c3.05-.23,6.17-.43,9.38-.59l-.12-3.52,4.57.35-.12,3.05h7.85v3.75c-2.58,0-5.23.04-7.97.12v3.52c1.88-.08,4.3-.43,7.27-1.05v3.98c-1.64.31-4.02.63-7.15.94l.12,2.23c3.2.63,6.13,1.76,8.79,3.4l-2.23,3.4c-2.19-1.41-4.3-2.42-6.33-3.05,0,2.42-1.17,3.98-3.52,4.69-1.41.39-2.81.55-4.22.47-2.11-.16-3.67-.7-4.69-1.64-1.09-1.01-1.45-2.3-1.05-3.87.39-1.8,1.56-2.97,3.52-3.52,1.17-.31,3.01-.43,5.51-.35l-.12-1.52c-1.95.08-3.48.08-4.57,0-1.72-.08-2.85-.59-3.4-1.52-.39-.62-.47-1.33-.23-2.11.16-.55.51-1.41,1.05-2.58l4.22.7c-.39.55-.63.9-.7,1.05-.08.31.08.51.47.59,1.09.08,2.15.08,3.16,0l-.12-3.75c-3.2.23-6.33.47-9.38.7Zm9.61,11.84c-1.33-.31-2.54-.27-3.63.12-1.09.39-1.37.94-.82,1.64.47.63,1.37.82,2.7.59,1.41-.23,1.99-1.01,1.76-2.34Z"/><path class="cls-1" d="m283.36,87.72l-.47-4.57,5.62-.59v-6.45l4.22-.12v6.09l6.45-.59c-.08-2.26-.12-4.53-.12-6.8h4.45c0,2.11.04,4.22.12,6.33l4.8-.35.12,4.1-5.04.23v4.34c0,1.56-.74,2.62-2.23,3.16-1.56.55-3.2.63-4.92.23l-.59-3.87c.78.08,1.45.12,1.99.12.86,0,1.29-.39,1.29-1.17v-2.23l-6.33.7.12,7.15c0,.78.16,1.29.47,1.52.31.23.98.35,1.99.35,3.2,0,6.91-.19,11.13-.59v4.45c-3.75.31-7.38.51-10.9.59-2.42.08-4.18-.27-5.27-1.05-1.09-.78-1.64-2.03-1.64-3.75l-.12-8.09-5.16.82Z"/><path class="cls-1" d="m310.55,98.15c3.2-7.89,6.52-15.74,9.96-23.55l4.34,1.52c-1.88,3.83-3.44,7.34-4.69,10.55,1.48-1.09,2.93-1.41,4.34-.94,1.48.55,2.23,1.6,2.23,3.16v5.16c0,.94.31,1.33.94,1.17.7-.23,1.68-1.05,2.93-2.46.94-1.01,1.56-1.91,1.88-2.7l3.05,3.28c-1.64,2.74-3.71,4.73-6.21,5.98-1.64.86-3.16,1.09-4.57.7-1.64-.47-2.42-1.56-2.34-3.28l.12-5.27c0-1.64-.74-2.03-2.23-1.17-1.56.86-2.7,2.19-3.4,3.98-.39,1.09-1.05,3.01-1.99,5.74l-4.34-1.88Z"/><path class="cls-1" d="m337.39,97.79c2.73-3.67,4.92-7.81,6.56-12.42-1.09.23-2.85.67-5.27,1.29l-.94-4.1c2.42-.39,4.84-.78,7.27-1.17.47-1.72.82-3.83,1.05-6.33l4.57.94-1.41,4.92c2.89-.47,4.84.27,5.86,2.23.86,1.56,1.05,3.95.59,7.15-.23,1.88-.63,3.56-1.17,5.04-.78,2.19-1.76,3.59-2.93,4.22-1.02.55-2.62.7-4.8.47l-.94-4.22c1.64.08,2.66.08,3.05,0,.55-.16,1.01-.59,1.41-1.29.7-1.33,1.21-2.77,1.52-4.34.39-1.72.43-3.08.12-4.1-.23-.86-.74-1.33-1.52-1.41-.47,0-1.21.04-2.23.12-1.64,5.62-4.06,10.78-7.27,15.47l-3.52-2.46Zm17.11-18.05l3.87-1.99c2.03,3.44,3.83,7.42,5.39,11.95l-3.87,1.88c-1.48-4.92-3.28-8.87-5.39-11.84Z"/><path class="cls-1" d="m362.81,82.91c0-2.66,1.05-4.84,3.16-6.56,1.95-1.41,4.14-1.95,6.56-1.64,2.66.31,4.61,1.41,5.86,3.28,1.25,1.88,1.6,3.75,1.05,5.62-.31,1.49-1.41,2.89-3.28,4.22l-1.64,1.17c-.78.55-1.17,1.17-1.17,1.88v2.34h-4.34v-1.88c0-2.03.7-3.52,2.11-4.45l2.93-2.11c.7-.55,1.13-1.21,1.29-1.99.23-.94.12-1.8-.35-2.58-1.02-1.56-2.5-2.15-4.45-1.76-2.11.47-3.36,1.95-3.75,4.45h-3.98Zm8.55,17.23c-.86,0-1.56-.31-2.11-.94-.39-.47-.59-1.01-.59-1.64s.19-1.21.59-1.76c.47-.62,1.09-.94,1.88-.94.78-.08,1.45.16,1.99.7.55.55.82,1.17.82,1.88.08.7-.12,1.33-.59,1.88-.47.55-1.13.82-1.99.82Z"/></g></g></g></svg>