<?xml version="1.0" encoding="UTF-8"?><svg id="_レイヤー_2" xmlns="http://www.w3.org/2000/svg" viewBox="0 0 408.02 51.05"><defs><style>.cls-1,.cls-2{fill:#0cc;}.cls-3{fill:none;stroke-linecap:round;stroke-linejoin:round;stroke-width:7px;}.cls-3,.cls-2{stroke:#fff;}.cls-2{stroke-miterlimit:10;}</style></defs><g id="_オファー_CTA"><g><g><path class="cls-2" d="m14.9,11.66c1-1.29,2.22-2.08,3.66-2.37,2.3-.29,4.23.5,5.82,2.37,8.9,10.2,17.45,18.74,25.63,25.63l-6.03,7.32c-4.74-4.88-9.05-9.48-12.92-13.79-3.59-3.88-6.97-7.61-10.12-11.2-.86-1-1.58-1-2.15,0-4.45,7.04-8.47,12.57-12.06,16.59L.69,29.1c3.16-3.02,5.82-5.96,7.97-8.83,2.3-3.02,4.38-5.89,6.25-8.62Zm25.42,4.74c-1.72.15-3.09-.36-4.09-1.51-.86-1-1.29-2.15-1.29-3.45,0-1.58.36-2.8,1.08-3.66,1-1.29,2.37-1.94,4.09-1.94,1.58.14,2.87.72,3.88,1.72.86,1.01,1.29,2.15,1.29,3.45s-.36,2.44-1.08,3.45c-1.01,1.29-2.3,1.94-3.88,1.94Zm1.51-3.66c.43-.43.65-.93.65-1.51s-.22-1.08-.65-1.51c-.43-.43-.94-.65-1.51-.65s-1.08.21-1.51.65c-.43.43-.65.94-.65,1.51s.22,1.08.65,1.51c.43.43.93.65,1.51.65s1.08-.21,1.51-.65Z"/><path class="cls-2" d="m52.17,15.53l6.03-2.37c2.01,4.17,3.52,7.83,4.52,10.99l-6.03,2.58c-1.44-4.16-2.94-7.9-4.52-11.2Zm5.6,27.57c8.33-3.16,14.29-7.18,17.88-12.06,3.02-4.02,5.46-10.26,7.32-18.74l7.54,2.58c-2.3,9.19-5.46,16.3-9.48,21.33-4.31,5.46-10.55,9.91-18.74,13.36l-4.52-6.46Zm5.82-29.51l6.25-2.37c1.58,3.45,3.09,6.97,4.52,10.55l-6.46,2.15c-1.44-3.88-2.87-7.32-4.31-10.34Z"/><path class="cls-2" d="m96.11,3.04h8.19v18.31l3.88-4.74c4.74,2.73,10.77,6.89,18.09,12.49l-5.17,6.46c-8.04-6.32-13.64-10.34-16.8-12.06v26.28h-8.19V3.04Z"/><path class="cls-2" d="m128.42,9.93h37.91l.86-.65,5.39,6.25c-7.47,9.05-13.5,15.65-18.09,19.82l4.95,5.82-6.46,5.17c-5.17-6.32-10.77-12.06-16.8-17.23l6.03-5.82c2.15,2.15,4.31,4.24,6.46,6.25,3.3-2.87,7.18-6.89,11.63-12.06h-31.88v-7.54Z"/><path class="cls-2" d="m175.81,15.53l6.03-2.37c2.01,4.17,3.52,7.83,4.52,10.99l-6.03,2.58c-1.44-4.16-2.94-7.9-4.52-11.2Zm5.6,27.57c8.33-3.16,14.29-7.18,17.88-12.06,3.02-4.02,5.46-10.26,7.32-18.74l7.54,2.58c-2.3,9.19-5.46,16.3-9.48,21.33-4.31,5.46-10.55,9.91-18.74,13.36l-4.52-6.46Zm5.82-29.51l6.25-2.37c1.58,3.45,3.09,6.97,4.52,10.55l-6.46,2.15c-1.44-3.88-2.87-7.32-4.31-10.34Z"/><path class="cls-2" d="m218.24,28.89v-7.54h19.6v-6.03c-2.88.72-7.11,1.44-12.71,2.15l-3.23-7.32c10.77-1,20.53-3.23,29.29-6.68l5.6,5.6c-2.73,1.44-6.25,2.8-10.55,4.09v8.19h15.94v7.54h-16.59c-1.15,10.05-6.89,17.23-17.23,21.54l-5.39-6.68c8.76-3.73,13.43-8.69,14-14.86h-18.74Z"/><path class="cls-2" d="m265.42,11.87l5.38-6.68c3.59,2.44,7.46,5.38,11.63,8.83l-5.6,6.68c-3.45-3.02-7.25-5.96-11.42-8.83Zm.21,29.08c8.47-2.3,15.65-5.46,21.54-9.48,6.6-4.45,12.28-10.34,17.02-17.66l5.6,6.89c-5.31,7.04-11.28,12.85-17.88,17.45-6.03,4.17-13.57,7.9-22.62,11.2l-3.66-8.4Z"/><path class="cls-2" d="m312.59,25.66c7.18-5.89,12.63-13.36,16.37-22.4l7.75,3.02-1.94,4.52h12.92l.65-.86,6.25,3.88c-5.31,16.8-15.08,29.01-29.29,36.62l-6.03-6.46c12.63-6.46,20.89-15.15,24.77-26.06h-13.57c-3.02,4.6-6.82,8.98-11.42,13.14l-6.46-5.38Zm28.86-22.19l3.66-2.58,4.95,5.6-3.88,2.58-4.74-5.6Zm7.75-.22l3.45-2.58,4.95,5.38-3.88,2.8-4.52-5.6Z"/><path class="cls-2" d="m363.64,4.12l8.19,1.72c-2.58,10.63-3.59,20.75-3.02,30.37.43-1.58.93-2.94,1.51-4.09l4.31,3.88c-1.72,4.02-3.16,8.4-4.31,13.14l-6.89.43c-2.87-13.36-2.8-28.5.22-45.45Zm25.42,28c-.43-3.3-.65-6.68-.65-10.12l-13.14.22v-7.32c4.31,0,8.62-.07,12.92-.21V3.69l7.97.21-.43,10.12c3.02-.29,5.82-.5,8.4-.65l.21,7.32c-1.58.29-4.45.58-8.62.86,0,4.45.29,8.33.86,11.63,4.59,1.72,8.18,3.45,10.77,5.17l-3.45,6.68c-2.87-2.01-5.03-3.3-6.46-3.88,0,4.74-2.44,7.61-7.32,8.62-2.44.57-4.88.57-7.32,0-3.16-.58-5.31-1.8-6.46-3.66-2.3-3.73-2.08-7.18.65-10.34,2.87-3.16,6.89-4.38,12.06-3.66Zm.65,6.89c-1.44-.29-2.66-.43-3.66-.43-1.58,0-2.66.43-3.23,1.29-.43.72-.43,1.44,0,2.15.57.72,1.36,1.08,2.37,1.08,3.45.15,4.95-1.22,4.52-4.09Z"/></g><g><path class="cls-3" d="m14.9,11.66c1-1.29,2.22-2.08,3.66-2.37,2.3-.29,4.23.5,5.82,2.37,8.9,10.2,17.45,18.74,25.63,25.63l-6.03,7.32c-4.74-4.88-9.05-9.48-12.92-13.79-3.59-3.88-6.97-7.61-10.12-11.2-.86-1-1.58-1-2.15,0-4.45,7.04-8.47,12.57-12.06,16.59L.69,29.1c3.16-3.02,5.82-5.96,7.97-8.83,2.3-3.02,4.38-5.89,6.25-8.62Zm25.42,4.74c-1.72.15-3.09-.36-4.09-1.51-.86-1-1.29-2.15-1.29-3.45,0-1.58.36-2.8,1.08-3.66,1-1.29,2.37-1.94,4.09-1.94,1.58.14,2.87.72,3.88,1.72.86,1.01,1.29,2.15,1.29,3.45s-.36,2.44-1.08,3.45c-1.01,1.29-2.3,1.94-3.88,1.94Zm1.51-3.66c.43-.43.65-.93.65-1.51s-.22-1.08-.65-1.51c-.43-.43-.94-.65-1.51-.65s-1.08.21-1.51.65c-.43.43-.65.94-.65,1.51s.22,1.08.65,1.51c.43.43.93.65,1.51.65s1.08-.21,1.51-.65Z"/><path class="cls-3" d="m52.17,15.53l6.03-2.37c2.01,4.17,3.52,7.83,4.52,10.99l-6.03,2.58c-1.44-4.16-2.94-7.9-4.52-11.2Zm5.6,27.57c8.33-3.16,14.29-7.18,17.88-12.06,3.02-4.02,5.46-10.26,7.32-18.74l7.54,2.58c-2.3,9.19-5.46,16.3-9.48,21.33-4.31,5.46-10.55,9.91-18.74,13.36l-4.52-6.46Zm5.82-29.51l6.25-2.37c1.58,3.45,3.09,6.97,4.52,10.55l-6.46,2.15c-1.44-3.88-2.87-7.32-4.31-10.34Z"/><path class="cls-3" d="m96.11,3.04h8.19v18.31l3.88-4.74c4.74,2.73,10.77,6.89,18.09,12.49l-5.17,6.46c-8.04-6.32-13.64-10.34-16.8-12.06v26.28h-8.19V3.04Z"/><path class="cls-3" d="m128.42,9.93h37.91l.86-.65,5.39,6.25c-7.47,9.05-13.5,15.65-18.09,19.82l4.95,5.82-6.46,5.17c-5.17-6.32-10.77-12.06-16.8-17.23l6.03-5.82c2.15,2.15,4.31,4.24,6.46,6.25,3.3-2.87,7.18-6.89,11.63-12.06h-31.88v-7.54Z"/><path class="cls-3" d="m175.81,15.53l6.03-2.37c2.01,4.17,3.52,7.83,4.52,10.99l-6.03,2.58c-1.44-4.16-2.94-7.9-4.52-11.2Zm5.6,27.57c8.33-3.16,14.29-7.18,17.88-12.06,3.02-4.02,5.46-10.26,7.32-18.74l7.54,2.58c-2.3,9.19-5.46,16.3-9.48,21.33-4.31,5.46-10.55,9.91-18.74,13.36l-4.52-6.46Zm5.82-29.51l6.25-2.37c1.58,3.45,3.09,6.97,4.52,10.55l-6.46,2.15c-1.44-3.88-2.87-7.32-4.31-10.34Z"/><path class="cls-3" d="m218.24,28.89v-7.54h19.6v-6.03c-2.88.72-7.11,1.44-12.71,2.15l-3.23-7.32c10.77-1,20.53-3.23,29.29-6.68l5.6,5.6c-2.73,1.44-6.25,2.8-10.55,4.09v8.19h15.94v7.54h-16.59c-1.15,10.05-6.89,17.23-17.23,21.54l-5.39-6.68c8.76-3.73,13.43-8.69,14-14.86h-18.74Z"/><path class="cls-3" d="m265.42,11.87l5.38-6.68c3.59,2.44,7.46,5.38,11.63,8.83l-5.6,6.68c-3.45-3.02-7.25-5.96-11.42-8.83Zm.21,29.08c8.47-2.3,15.65-5.46,21.54-9.48,6.6-4.45,12.28-10.34,17.02-17.66l5.6,6.89c-5.31,7.04-11.28,12.85-17.88,17.45-6.03,4.17-13.57,7.9-22.62,11.2l-3.66-8.4Z"/><path class="cls-3" d="m312.59,25.66c7.18-5.89,12.63-13.36,16.37-22.4l7.75,3.02-1.94,4.52h12.92l.65-.86,6.25,3.88c-5.31,16.8-15.08,29.01-29.29,36.62l-6.03-6.46c12.63-6.46,20.89-15.15,24.77-26.06h-13.57c-3.02,4.6-6.82,8.98-11.42,13.14l-6.46-5.38Zm28.86-22.19l3.66-2.58,4.95,5.6-3.88,2.58-4.74-5.6Zm7.75-.22l3.45-2.58,4.95,5.38-3.88,2.8-4.52-5.6Z"/><path class="cls-3" d="m363.64,4.12l8.19,1.72c-2.58,10.63-3.59,20.75-3.02,30.37.43-1.58.93-2.94,1.51-4.09l4.31,3.88c-1.72,4.02-3.16,8.4-4.31,13.14l-6.89.43c-2.87-13.36-2.8-28.5.22-45.45Zm25.42,28c-.43-3.3-.65-6.68-.65-10.12l-13.14.22v-7.32c4.31,0,8.62-.07,12.92-.21V3.69l7.97.21-.43,10.12c3.02-.29,5.82-.5,8.4-.65l.21,7.32c-1.58.29-4.45.58-8.62.86,0,4.45.29,8.33.86,11.63,4.59,1.72,8.18,3.45,10.77,5.17l-3.45,6.68c-2.87-2.01-5.03-3.3-6.46-3.88,0,4.74-2.44,7.61-7.32,8.62-2.44.57-4.88.57-7.32,0-3.16-.58-5.31-1.8-6.46-3.66-2.3-3.73-2.08-7.18.65-10.34,2.87-3.16,6.89-4.38,12.06-3.66Zm.65,6.89c-1.44-.29-2.66-.43-3.66-.43-1.58,0-2.66.43-3.23,1.29-.43.72-.43,1.44,0,2.15.57.72,1.36,1.08,2.37,1.08,3.45.15,4.95-1.22,4.52-4.09Z"/></g><g><path class="cls-1" d="m14.9,11.66c1-1.29,2.22-2.08,3.66-2.37,2.3-.29,4.23.5,5.82,2.37,8.9,10.2,17.45,18.74,25.63,25.63l-6.03,7.32c-4.74-4.88-9.05-9.48-12.92-13.79-3.59-3.88-6.97-7.61-10.12-11.2-.86-1-1.58-1-2.15,0-4.45,7.04-8.47,12.57-12.06,16.59L.69,29.1c3.16-3.02,5.82-5.96,7.97-8.83,2.3-3.02,4.38-5.89,6.25-8.62Zm25.42,4.74c-1.72.15-3.09-.36-4.09-1.51-.86-1-1.29-2.15-1.29-3.45,0-1.58.36-2.8,1.08-3.66,1-1.29,2.37-1.94,4.09-1.94,1.58.14,2.87.72,3.88,1.72.86,1.01,1.29,2.15,1.29,3.45s-.36,2.44-1.08,3.45c-1.01,1.29-2.3,1.94-3.88,1.94Zm1.51-3.66c.43-.43.65-.93.65-1.51s-.22-1.08-.65-1.51c-.43-.43-.94-.65-1.51-.65s-1.08.21-1.51.65c-.43.43-.65.94-.65,1.51s.22,1.08.65,1.51c.43.43.93.65,1.51.65s1.08-.21,1.51-.65Z"/><path class="cls-1" d="m52.17,15.53l6.03-2.37c2.01,4.17,3.52,7.83,4.52,10.99l-6.03,2.58c-1.44-4.16-2.94-7.9-4.52-11.2Zm5.6,27.57c8.33-3.16,14.29-7.18,17.88-12.06,3.02-4.02,5.46-10.26,7.32-18.74l7.54,2.58c-2.3,9.19-5.46,16.3-9.48,21.33-4.31,5.46-10.55,9.91-18.74,13.36l-4.52-6.46Zm5.82-29.51l6.25-2.37c1.58,3.45,3.09,6.97,4.52,10.55l-6.46,2.15c-1.44-3.88-2.87-7.32-4.31-10.34Z"/><path class="cls-1" d="m96.11,3.04h8.19v18.31l3.88-4.74c4.74,2.73,10.77,6.89,18.09,12.49l-5.17,6.46c-8.04-6.32-13.64-10.34-16.8-12.06v26.28h-8.19V3.04Z"/><path class="cls-1" d="m128.42,9.93h37.91l.86-.65,5.39,6.25c-7.47,9.05-13.5,15.65-18.09,19.82l4.95,5.82-6.46,5.17c-5.17-6.32-10.77-12.06-16.8-17.23l6.03-5.82c2.15,2.15,4.31,4.24,6.46,6.25,3.3-2.87,7.18-6.89,11.63-12.06h-31.88v-7.54Z"/><path class="cls-1" d="m175.81,15.53l6.03-2.37c2.01,4.17,3.52,7.83,4.52,10.99l-6.03,2.58c-1.44-4.16-2.94-7.9-4.52-11.2Zm5.6,27.57c8.33-3.16,14.29-7.18,17.88-12.06,3.02-4.02,5.46-10.26,7.32-18.74l7.54,2.58c-2.3,9.19-5.46,16.3-9.48,21.33-4.31,5.46-10.55,9.91-18.74,13.36l-4.52-6.46Zm5.82-29.51l6.25-2.37c1.58,3.45,3.09,6.97,4.52,10.55l-6.46,2.15c-1.44-3.88-2.87-7.32-4.31-10.34Z"/><path class="cls-1" d="m218.24,28.89v-7.54h19.6v-6.03c-2.88.72-7.11,1.44-12.71,2.15l-3.23-7.32c10.77-1,20.53-3.23,29.29-6.68l5.6,5.6c-2.73,1.44-6.25,2.8-10.55,4.09v8.19h15.94v7.54h-16.59c-1.15,10.05-6.89,17.23-17.23,21.54l-5.39-6.68c8.76-3.73,13.43-8.69,14-14.86h-18.74Z"/><path class="cls-1" d="m265.42,11.87l5.38-6.68c3.59,2.44,7.46,5.38,11.63,8.83l-5.6,6.68c-3.45-3.02-7.25-5.96-11.42-8.83Zm.21,29.08c8.47-2.3,15.65-5.46,21.54-9.48,6.6-4.45,12.28-10.34,17.02-17.66l5.6,6.89c-5.31,7.04-11.28,12.85-17.88,17.45-6.03,4.17-13.57,7.9-22.62,11.2l-3.66-8.4Z"/><path class="cls-1" d="m312.59,25.66c7.18-5.89,12.63-13.36,16.37-22.4l7.75,3.02-1.94,4.52h12.92l.65-.86,6.25,3.88c-5.31,16.8-15.08,29.01-29.29,36.62l-6.03-6.46c12.63-6.46,20.89-15.15,24.77-26.06h-13.57c-3.02,4.6-6.82,8.98-11.42,13.14l-6.46-5.38Zm28.86-22.19l3.66-2.58,4.95,5.6-3.88,2.58-4.74-5.6Zm7.75-.22l3.45-2.58,4.95,5.38-3.88,2.8-4.52-5.6Z"/><path class="cls-1" d="m363.64,4.12l8.19,1.72c-2.58,10.63-3.59,20.75-3.02,30.37.43-1.58.93-2.94,1.51-4.09l4.31,3.88c-1.72,4.02-3.16,8.4-4.31,13.14l-6.89.43c-2.87-13.36-2.8-28.5.22-45.45Zm25.42,28c-.43-3.3-.65-6.68-.65-10.12l-13.14.22v-7.32c4.31,0,8.62-.07,12.92-.21V3.69l7.97.21-.43,10.12c3.02-.29,5.82-.5,8.4-.65l.21,7.32c-1.58.29-4.45.58-8.62.86,0,4.45.29,8.33.86,11.63,4.59,1.72,8.18,3.45,10.77,5.17l-3.45,6.68c-2.87-2.01-5.03-3.3-6.46-3.88,0,4.74-2.44,7.61-7.32,8.62-2.44.57-4.88.57-7.32,0-3.16-.58-5.31-1.8-6.46-3.66-2.3-3.73-2.08-7.18.65-10.34,2.87-3.16,6.89-4.38,12.06-3.66Zm.65,6.89c-1.44-.29-2.66-.43-3.66-.43-1.58,0-2.66.43-3.23,1.29-.43.72-.43,1.44,0,2.15.57.72,1.36,1.08,2.37,1.08,3.45.15,4.95-1.22,4.52-4.09Z"/></g></g></g></svg>