<?xml version="1.0" encoding="UTF-8"?><svg id="_レイヤー_2" xmlns="http://www.w3.org/2000/svg" xmlns:xlink="http://www.w3.org/1999/xlink" viewBox="0 0 1059.75 42.79"><defs><style>.cls-1{fill:#ff52ad;}.cls-2{fill:url(#_名称未設定グラデーション_117);}</style><linearGradient id="_名称未設定グラデーション_117" x1="529.87" y1="42.79" x2="529.87" y2="0" gradientUnits="userSpaceOnUse"><stop offset="0" stop-color="#e2328c"/><stop offset=".09" stop-color="#e2348d"/><stop offset=".14" stop-color="#e43b92"/><stop offset=".17" stop-color="#e7489a"/><stop offset=".2" stop-color="#ec5ba5"/><stop offset=".23" stop-color="#f273b4"/><stop offset=".25" stop-color="#f990c7"/><stop offset=".27" stop-color="#ffa8d6"/><stop offset=".31" stop-color="#ff9acf"/><stop offset=".4" stop-color="#ff80c3"/><stop offset=".51" stop-color="#ff6bb9"/><stop offset=".63" stop-color="#ff5db2"/><stop offset=".77" stop-color="#ff54ae"/><stop offset="1" stop-color="#ff52ad"/></linearGradient></defs><g id="_オファー_CTA"><g><g><path class="cls-1" d="m11.86,8.99c.84-1.08,1.86-1.74,3.06-1.98,1.92-.24,3.53.42,4.85,1.98,7.43,8.51,14.56,15.64,21.39,21.39l-5.03,6.11c-3.95-4.07-7.55-7.91-10.79-11.5-3-3.24-5.81-6.35-8.45-9.35-.72-.84-1.32-.84-1.8,0-3.72,5.87-7.07,10.49-10.07,13.84L0,23.55c2.63-2.52,4.85-4.97,6.65-7.37,1.92-2.52,3.65-4.91,5.21-7.19Zm21.21,3.96c-1.44.12-2.58-.3-3.42-1.26-.72-.84-1.08-1.8-1.08-2.88,0-1.32.3-2.34.9-3.06.84-1.08,1.98-1.62,3.42-1.62,1.32.12,2.4.6,3.24,1.44.72.84,1.08,1.8,1.08,2.88s-.3,2.04-.9,2.88c-.84,1.08-1.92,1.62-3.24,1.62Zm1.26-3.06c.36-.36.54-.78.54-1.26s-.18-.9-.54-1.26c-.36-.36-.78-.54-1.26-.54s-.9.18-1.26.54c-.36.36-.54.78-.54,1.26s.18.9.54,1.26c.36.36.78.54,1.26.54s.9-.18,1.26-.54Z"/><path class="cls-1" d="m42.97,12.22l5.03-1.98c1.68,3.48,2.94,6.53,3.77,9.17l-5.03,2.16c-1.2-3.47-2.46-6.59-3.78-9.35Zm4.67,23.01c6.95-2.63,11.92-5.99,14.92-10.07,2.52-3.35,4.55-8.57,6.11-15.64l6.29,2.16c-1.92,7.67-4.56,13.6-7.91,17.8-3.6,4.56-8.81,8.27-15.64,11.15l-3.78-5.39Zm4.85-24.63l5.21-1.98c1.32,2.88,2.58,5.81,3.78,8.81l-5.39,1.8c-1.2-3.24-2.4-6.11-3.6-8.63Z"/><path class="cls-1" d="m79.64,1.8h6.83v15.28l3.24-3.96c3.96,2.28,8.99,5.75,15.1,10.43l-4.31,5.39c-6.71-5.27-11.39-8.63-14.02-10.07v21.93h-6.83V1.8Z"/><path class="cls-1" d="m107.14,24.09c2.52-3.59,4.91-7.25,7.19-10.97h-4.67v-5.75h8.09l2.88-5.21,6.65,1.08-2.52,4.13c3.12-.24,6.35-.54,9.71-.9v5.75c-4.08.36-8.39.66-12.94.9l-1.8,2.52c5.03-2.27,8.81-1.56,11.33,2.16,2.63-1.08,5.21-2.04,7.73-2.88l2.34,5.57c-3.24,1.2-6.29,2.4-9.17,3.59l-.18,6.47-6.47-.18.18-3.06c-1.44.72-2.4,1.32-2.88,1.8-.96.84-1.5,1.8-1.62,2.88,0,.96.78,1.62,2.34,1.98,1.32.24,3.17.36,5.57.36,2.76,0,6.17-.3,10.25-.9l-.72,6.29c-4.08.72-8.69.9-13.84.54-2.64-.24-4.74-.78-6.29-1.62-2.52-1.32-3.77-3.35-3.77-6.11,0-2.16.9-4.19,2.7-6.11,1.68-1.8,4.13-3.6,7.37-5.39-.36-.72-1.08-1.08-2.16-1.08-.96.12-2.16.54-3.6,1.26-2.04,1.08-4.38,3.18-7.01,6.29l-4.67-3.42Z"/><path class="cls-1" d="m154.24.18l5.57.9-.18.54c1.2,1.8,3.06,3.3,5.57,4.49v-3.96h20.13v36.13c0,2.76-1.5,4.13-4.49,4.13h-5.57l-1.62-6.29h3.78c1.2,0,1.8-.66,1.8-1.98V7.91h-13.48l-2.52,4.31c-1.44-.72-2.76-1.68-3.96-2.88v3.24h4.49v17.44h-9.89v4.31l3.06-.72-.72-1.62,5.03-1.8c1.8,3.12,3.24,6.23,4.31,9.35l-5.75,1.8-.72-2.16c-4.08,1.2-8.45,2.09-13.12,2.7l-1.26-6.11,3.42-.36V14.56l-1.44,1.26-2.34-5.93c3.71-2.16,7.01-5.39,9.89-9.71Zm-3.6,12.4h2.7v-2.52c-1.2,1.2-2.1,2.04-2.7,2.52Zm3.24,6.65h3.96v-1.44h-3.96v1.44Zm0,5.57h3.96v-1.44h-3.96v1.44Zm.54-15.82h4.49c-.96-.96-1.74-1.8-2.34-2.52-.24.48-.96,1.32-2.16,2.52Zm10.79,6.65v-5.03h13.12v5.03h-13.12Zm.54,18.16v-15.64h11.86v13.66h-7.19v1.98h-4.67Zm4.67-6.65h2.52v-4.49h-2.52v4.49Z"/><path class="cls-1" d="m200.08,5.93c-.84,2.28-1.44,4.74-1.8,7.37-.36,2.28-.6,4.38-.72,6.29-.12,1.32,0,3.18.36,5.57.24,1.44.54,2.58.9,3.42.48,1.08,1.02,1.62,1.62,1.62.84,0,1.68-.96,2.52-2.88l1.8-3.96,5.03,3.78c-.72,2.28-1.8,4.56-3.24,6.83-1.68,2.64-3.3,4.25-4.85,4.85-1.56.6-3.18.12-4.85-1.44-1.68-1.44-2.88-3.12-3.6-5.03-2.76-6.95-2.64-16.42.36-28.4l6.47,1.98Zm16.18,3.96l5.57-2.88c3.71,6.59,6.41,13.6,8.09,21.03l-6.29,2.34c-1.68-7.43-4.13-14.26-7.37-20.49Z"/><path class="cls-1" d="m233.7,37.75c3.95-6.71,7.07-13.78,9.35-21.21-2.64.36-5.28.54-7.91.54v-5.93c3.24-.12,6.35-.36,9.35-.72.72-2.63,1.26-5.39,1.62-8.27l6.65,1.08c-.36,2.16-.78,4.25-1.26,6.29,3.35-.48,5.87-.9,7.55-1.26l.72,6.11c-3,.72-6.35,1.26-10.07,1.62-2.4,8.99-5.75,17.32-10.07,24.99l-5.93-3.24Zm22.83-8.99c-1.2,1.8-1.38,3.06-.54,3.77.96.84,3.29,1.14,7.01.9,3.11-.24,5.69-.54,7.73-.9l.54,5.93c-6.83,1.2-12.22,1.44-16.18.72-3.12-.6-5.03-2.1-5.75-4.5-.72-2.4-.24-4.97,1.44-7.73l5.75,1.8Zm-1.62-11.15c5.03,0,10.07-.12,15.1-.36l.18,5.93c-5.15.12-10.25.18-15.28.18v-5.75Z"/><path class="cls-1" d="m284.4,5.93c-.84,2.28-1.44,4.74-1.8,7.37-.36,2.28-.6,4.38-.72,6.29-.12,1.32,0,3.18.36,5.57.24,1.44.54,2.58.9,3.42.48,1.08,1.02,1.62,1.62,1.62.84,0,1.68-.96,2.52-2.88l1.8-3.96,5.03,3.78c-.72,2.28-1.8,4.56-3.24,6.83-1.68,2.64-3.3,4.25-4.85,4.85-1.56.6-3.18.12-4.85-1.44-1.68-1.44-2.88-3.12-3.6-5.03-2.76-6.95-2.64-16.42.36-28.4l6.47,1.98Zm16.18,3.96l5.57-2.88c3.71,6.59,6.41,13.6,8.09,21.03l-6.29,2.34c-1.68-7.43-4.13-14.26-7.37-20.49Z"/><path class="cls-1" d="m327.36,18.52c-2.28-4.19-3.72-9.23-4.31-15.1l6.65-1.62c.48,5.75,1.5,10.37,3.06,13.84,4.55-2.16,9.29-4.07,14.2-5.75l2.16,5.75c-4.44,1.2-8.87,2.88-13.3,5.03-5.28,2.52-8.51,4.74-9.71,6.65-1.32,2.04-1.26,3.84.18,5.39.72.84,2.04,1.38,3.95,1.62,1.68.24,3.65.24,5.93,0,4.91-.36,9.47-1.2,13.66-2.52l1.08,6.47c-4.31,1.08-8.33,1.74-12.04,1.98-5.39.48-9.59.36-12.58-.36-5.39-1.2-8.15-4.07-8.27-8.63-.12-2.63.78-5.15,2.7-7.55,1.68-2.04,3.89-3.78,6.65-5.21Z"/><path class="cls-1" d="m372.13,9.17l.36-8.63h6.47v7.19c0,2.04.36,4.43,1.08,7.19,1.2,4.79,3.47,9.29,6.83,13.48,2.28,2.88,5.69,5.81,10.25,8.81l-4.67,5.57c-4.2-2.16-7.97-5.57-11.33-10.25-1.8-2.4-3.54-5.69-5.21-9.89-1.08,3.59-2.94,7.07-5.57,10.43-3.12,3.84-6.83,6.95-11.15,9.35l-4.67-5.57c4.55-2.52,8.15-5.33,10.79-8.45,4.19-5.03,6.47-11.44,6.83-19.24Z"/><path class="cls-1" d="m442.78,29.3h-16.9v8.81c0,2.76-1.32,4.13-3.96,4.13h-8.09l-1.62-6.47h5.57c1.32,0,1.92-.6,1.8-1.8v-4.67h-18.34v-5.75h18.34v-4.85h-15.82v-5.75h15.82v-3.6c-2.04.36-6.83.72-14.38,1.08l-2.34-6.47c4.55,0,10.01-.3,16.36-.9,6.47-.6,11.98-1.5,16.54-2.7l3.96,5.57c-2.16.72-6.77,1.56-13.84,2.52v4.49h14.2v5.75h-14.2v4.85h16.9v5.75Z"/><path class="cls-1" d="m450.33,20.49v-8.27h-3.42v-5.93h7.55V.54h6.11v5.75h6.11v5.93h-9.89v4.67h6.83c3.96-3.96,6.65-9.59,8.09-16.9l6.11,1.8c-.48,2.64-1.02,4.31-1.62,5.03h12.4v5.75h-2.88c0,2.04-.24,4.38-.72,7.01-.72,4.08-1.98,7.61-3.78,10.61,1.56,2.16,4.37,4.31,8.45,6.47l-3.77,5.93c-1.32-.48-2.88-1.5-4.67-3.06-1.68-1.44-3-2.76-3.95-3.96-.6.96-1.8,2.22-3.6,3.78-2.04,1.68-3.77,2.81-5.21,3.42l-3.95-5.21c-.12,3.12-1.68,4.67-4.67,4.67h-3.42l-1.98-6.65h2.16c1.2,0,1.86-.72,1.98-2.16l.54-10.79h-2.34c-.36,5.15-1.26,9.41-2.7,12.76-1.44,3.47-2.7,5.75-3.78,6.83l-3.96-6.65c1.92-2.63,3.12-5.57,3.6-8.81.24-1.8.36-3.89.36-6.29Zm23.19,9.89c-1.8-2.16-3.3-5.33-4.49-9.53l-1.8,2.34-1.98-2.52-.54,16.18c3.6-1.44,6.53-3.59,8.81-6.47Zm5.93-17.8h-5.57l-.54,1.26c1.08,5.27,2.34,8.81,3.78,10.61,1.56-2.88,2.34-6.83,2.34-11.87Z"/><path class="cls-1" d="m494.37,1.62l6.83.54c-.36,3.72-.6,7.43-.72,11.15-.12,3.84-.24,7.61-.36,11.33v3.59c0,1.68.24,2.94.72,3.78.6,1.32,1.98,1.98,4.13,1.98,1.8,0,3.47-.42,5.03-1.26,4.07-2.04,7.43-5.99,10.07-11.87l5.21,4.49c-2.88,5.28-6.65,9.35-11.33,12.22-5.15,3.24-10.19,4.07-15.1,2.52-2.04-.6-3.42-1.74-4.13-3.42-.72-1.56-1.08-3.77-1.08-6.65.12-9.35.36-18.81.72-28.4Z"/><path class="cls-1" d="m528.71,37.75c3.95-6.71,7.07-13.78,9.35-21.21-2.64.36-5.27.54-7.91.54v-5.93c3.24-.12,6.35-.36,9.35-.72.72-2.63,1.26-5.39,1.62-8.27l6.65,1.08c-.36,2.16-.78,4.25-1.26,6.29,3.36-.48,5.87-.9,7.55-1.26l.72,6.11c-3,.72-6.35,1.26-10.07,1.62-2.4,8.99-5.75,17.32-10.07,24.99l-5.93-3.24Zm22.83-8.99c-1.2,1.8-1.38,3.06-.54,3.77.96.84,3.29,1.14,7.01.9,3.12-.24,5.69-.54,7.73-.9l.54,5.93c-6.83,1.2-12.22,1.44-16.18.72-3.12-.6-5.03-2.1-5.75-4.5-.72-2.4-.24-4.97,1.44-7.73l5.75,1.8Zm-1.62-11.15c5.03,0,10.07-.12,15.1-.36l.18,5.93c-5.15.12-10.25.18-15.28.18v-5.75Z"/><path class="cls-1" d="m579.4,5.93c-.84,2.28-1.44,4.74-1.8,7.37-.36,2.28-.6,4.38-.72,6.29-.12,1.32,0,3.18.36,5.57.24,1.44.54,2.58.9,3.42.48,1.08,1.02,1.62,1.62,1.62.84,0,1.68-.96,2.52-2.88l1.8-3.96,5.03,3.78c-.72,2.28-1.8,4.56-3.24,6.83-1.68,2.64-3.3,4.25-4.85,4.85-1.56.6-3.18.12-4.85-1.44-1.68-1.44-2.88-3.12-3.6-5.03-2.76-6.95-2.64-16.42.36-28.4l6.47,1.98Zm16.18,3.96l5.57-2.88c3.71,6.59,6.41,13.6,8.09,21.03l-6.29,2.34c-1.68-7.43-4.13-14.26-7.37-20.49Z"/><path class="cls-1" d="m630.46,9.17l.36-8.63h6.47v7.19c0,2.04.36,4.43,1.08,7.19,1.2,4.79,3.47,9.29,6.83,13.48,2.28,2.88,5.69,5.81,10.25,8.81l-4.67,5.57c-4.2-2.16-7.97-5.57-11.33-10.25-1.8-2.4-3.54-5.69-5.21-9.89-1.08,3.59-2.94,7.07-5.57,10.43-3.12,3.84-6.83,6.95-11.15,9.35l-4.67-5.57c4.55-2.52,8.15-5.33,10.79-8.45,4.19-5.03,6.47-11.44,6.83-19.24Z"/><path class="cls-1" d="m658.86,24.09c2.52-3.59,4.91-7.25,7.19-10.97h-4.67v-5.75h8.09l2.88-5.21,6.65,1.08-2.52,4.13c3.12-.24,6.35-.54,9.71-.9v5.75c-4.08.36-8.39.66-12.94.9l-1.8,2.52c5.03-2.27,8.81-1.56,11.33,2.16,2.63-1.08,5.21-2.04,7.73-2.88l2.34,5.57c-3.24,1.2-6.29,2.4-9.17,3.59l-.18,6.47-6.47-.18.18-3.06c-1.44.72-2.4,1.32-2.88,1.8-.96.84-1.5,1.8-1.62,2.88,0,.96.78,1.62,2.34,1.98,1.32.24,3.17.36,5.57.36,2.76,0,6.17-.3,10.25-.9l-.72,6.29c-4.08.72-8.69.9-13.84.54-2.64-.24-4.74-.78-6.29-1.62-2.52-1.32-3.78-3.35-3.78-6.11,0-2.16.9-4.19,2.7-6.11,1.68-1.8,4.13-3.6,7.37-5.39-.36-.72-1.08-1.08-2.16-1.08-.96.12-2.16.54-3.6,1.26-2.04,1.08-4.38,3.18-7.01,6.29l-4.67-3.42Z"/><path class="cls-1" d="m710.64.36v1.98h7.55v3.6h-7.55v.72h6.83v9.17h-6.83v.72h7.37v2.7c1.8,0,3.17-.12,4.13-.36-1.2-.96-2.1-2.04-2.7-3.24h-1.26v-3.95h2.16l-2.7-4.13c1.2-.96,1.92-1.92,2.16-2.88.12-.6.18-1.68.18-3.24h12.58v3.77c-.12.36-.06.6.18.72.12.12.3.12.54,0h.54c.24,0,.36-.78.36-2.34l4.67.9v1.08l-.18,1.62c-.24,2.52-1.44,3.78-3.6,3.78h-5.03c-1.44,0-2.4-.48-2.88-1.44-.36-.6-.54-1.68-.54-3.24h-1.44c-.36,2.28-1.5,4.08-3.42,5.39h11.15l.36-.36,4.31,2.7c-1.08,2.28-2.7,4.13-4.85,5.57,2.16.84,4.13,1.26,5.93,1.26l-2.34,5.21c-3-.48-5.87-1.56-8.63-3.24-.6.36-1.5.66-2.7.9l2.52,1.44-3.78,4.13,3.24-.18-.9-.72,3.96-3.59c4.19,3.12,6.95,5.39,8.27,6.83l-4.31,3.78-2.34-2.16-4.13.54c2.52,1.44,5.75,2.4,9.71,2.88l-2.34,6.11c-1.8-.24-3.9-.84-6.29-1.8-2.4-.96-4.2-1.98-5.39-3.06l3.42-4.13-5.75.36v8.27h-6.47v-7.91l-4.49.18,2.52,2.88c-3,2.52-7.07,4.19-12.22,5.03l-3.24-5.75c3.6-.24,6.47-.96,8.63-2.16l-6.29.18-.9-5.39h9.35l-5.21-2.7,3.96-3.6h-1.26v-2.7h-8.27v-3.96h8.27v-.72h-7.01V6.65h7.01v-.72h-7.91v-3.6h7.91V.36h5.39Zm-7.01,10.07h1.62v-.9h-1.62v.9Zm0,2.7h1.62v-.9h-1.62v.9Zm3.24,10.07l3.59,1.98,4.31-4.13,3.96,1.62-.9-2.16h-7.19v2.7h-3.78Zm3.78-12.76h1.44v-.9h-1.44v.9Zm0,2.7h1.44v-.9h-1.44v.9Zm4.67,14.74l1.8.72,3.42-3.78h-.9l-.36-1.08-3.96,4.13Zm10.25-12.22c.48.72,1.08,1.26,1.8,1.62.84-.36,1.5-.9,1.98-1.62h-3.77Z"/><path class="cls-1" d="m745.69,2.16l6.11,1.26c-1.92,7.91-2.4,16.42-1.44,25.53l2.16-5.39,4.31,2.88c-1.68,4.08-2.94,8.15-3.78,12.22l-6.11,1.08c-3.96-12.34-4.38-24.87-1.26-37.57Zm10.25,9.71c6.11.24,10.19.3,12.22.18l-.18-10.25,6.11.36.18,9.35c1.8-.12,3.89-.3,6.29-.54v5.93c-2.16.36-4.26.54-6.29.54.6,10.07-2.1,17.98-8.09,23.73l-4.67-4.5c2.75-2.63,4.61-5.57,5.57-8.81.84-2.52,1.2-5.87,1.08-10.07-4.2.24-8.27.24-12.22,0v-5.93Zm18.88-6.65l2.7-2.16,3.6,4.31-2.7,2.16-3.6-4.32Zm3.24-2.88l2.7-2.16,3.42,4.13-2.7,2.16-3.42-4.13Z"/><path class="cls-1" d="m785.78,27.15c6.35-5.63,12.52-11.38,18.52-17.26-4.43.72-8.81,1.26-13.12,1.62l-1.26-6.29c9.23-.72,16.36-1.68,21.39-2.88l3.59,5.03c-3.48,3.48-6.41,6.41-8.81,8.81,2.88-.48,5.51-.3,7.91.54,2.63.84,4.61,2.46,5.93,4.85,1.68,3.12,1.86,6.35.54,9.71-1.2,3.24-3.3,5.69-6.29,7.37-2.52,1.44-5.46,2.22-8.81,2.34-3.36.12-6.23-.54-8.63-1.98-2.4-1.32-3.42-3.29-3.06-5.93.36-2.63,1.8-4.43,4.31-5.39,2.88-1.08,5.63-1.26,8.27-.54,2.88.72,4.85,2.4,5.93,5.03,1.56-1.08,2.46-2.52,2.7-4.31.24-1.8-.3-3.35-1.62-4.67-1.32-1.32-3.72-1.86-7.19-1.62-2.28.24-4.31.84-6.11,1.8-3.84,2.16-7.19,5.03-10.07,8.63l-4.13-4.85Zm21.21,7.73c-.36-1.68-1.26-2.7-2.7-3.06-1.08-.24-2.1-.18-3.06.18-.96.36-1.32.96-1.08,1.8.24.72,1.08,1.2,2.52,1.44,1.92.36,3.35.24,4.31-.36Z"/><path class="cls-1" d="m824.61,17.26v-6.11h7.73V2.88h6.65v8.27h8.81V2.52h6.65v8.63h7.55v6.11h-7.55c0,5.75-1.08,10.49-3.24,14.2-2.28,3.84-5.87,6.95-10.79,9.35l-4.85-5.03c4.43-2.16,7.55-4.61,9.35-7.37,1.92-2.75,2.88-6.47,2.88-11.15h-8.81v9.89h-6.65v-9.89h-7.73Z"/><path class="cls-1" d="m865.24,18.52h34.88v6.11h-34.88v-6.11Z"/><path class="cls-1" d="m911.44,2.7v14.02c7.07-1.68,13.36-4.19,18.88-7.55l4.85,4.67c-6.71,4.2-14.62,7.37-23.73,9.53v6.65c0,1.8,1.02,2.7,3.06,2.7,5.63,0,12.58-.06,20.85-.18l-.9,6.47h-22.83c-2.4,0-4.13-.54-5.21-1.62-.96-1.08-1.44-2.81-1.44-5.21V2.7h6.47Zm18.34,4.31l2.7-2.34,3.96,4.13-2.7,2.52-3.96-4.31Zm3.78-3.06l2.7-2.34,3.6,3.96-2.52,2.34-3.78-3.96Z"/><path class="cls-1" d="m940.74,32.36c6.35-2.63,11.38-5.75,15.1-9.35,3.96-3.71,6.83-8.21,8.63-13.48h-19.6V3.24h23.73l.9-.54,4.13,3.6c-3.24,7.19-5.63,12.04-7.19,14.56,4.67,3.84,9.05,7.85,13.12,12.04l-5.39,5.57c-3.72-4.79-7.67-8.75-11.87-11.86-4.56,5.27-10.31,9.41-17.26,12.4l-4.31-6.65Z"/><path class="cls-1" d="m981.37,6.83c14.26-.72,26.48-2.1,36.67-4.13l1.08,6.29c-3,.48-4.92.84-5.75,1.08-1.68.48-3.48,1.38-5.39,2.7-2.64,1.8-4.85,4.26-6.65,7.37-2.16,3.72-2.52,6.83-1.08,9.35,1.08,1.8,2.88,3.06,5.39,3.78,1.08.36,3.29.78,6.65,1.26l-1.98,6.29c-3.36-.6-5.99-1.26-7.91-1.98-2.88-.96-5.15-2.4-6.83-4.31-3.24-3.47-3.96-7.61-2.16-12.4,1.56-4.07,4.31-7.67,8.27-10.79-3.84.6-10.31,1.26-19.42,1.98l-.9-6.47Zm28.22,8.99l3.6-1.62,2.52,4.85-3.6,1.8-2.52-5.03Zm4.85-2.16l3.78-1.62,2.34,4.85-3.42,1.62-2.7-4.85Z"/><path class="cls-1" d="m1022,7.37c5.51-.12,11.15-.24,16.9-.36l-.18-5.39h7.01l-.18,5.39h14.2v5.93l-14.38-.18.18,4.13c2.28,2.76,2.99,6.35,2.16,10.79-.48,2.52-1.56,4.97-3.24,7.37-1.92,2.64-4.25,4.79-7.01,6.47l-4.49-4.67c3.47-2.04,5.63-3.95,6.47-5.75-1.68.96-3.42,1.14-5.21.54-2.4-.84-3.9-2.81-4.49-5.93-.48-2.75-.18-5.27.9-7.55,1.68-3.24,4.55-4.5,8.63-3.78l-.18-1.44c-5.99.24-11.69.48-17.08.72v-6.29Zm15.64,12.76c-1.56.24-2.28,1.32-2.16,3.24.12,1.92.84,2.94,2.16,3.06.96.12,1.68-.18,2.16-.9.36-.6.54-1.38.54-2.34s-.24-1.74-.72-2.34c-.48-.6-1.14-.84-1.98-.72Z"/></g><g><path class="cls-2" d="m11.86,8.99c.84-1.08,1.86-1.74,3.06-1.98,1.92-.24,3.53.42,4.85,1.98,7.43,8.51,14.56,15.64,21.39,21.39l-5.03,6.11c-3.95-4.07-7.55-7.91-10.79-11.5-3-3.24-5.81-6.35-8.45-9.35-.72-.84-1.32-.84-1.8,0-3.72,5.87-7.07,10.49-10.07,13.84L0,23.55c2.63-2.52,4.85-4.97,6.65-7.37,1.92-2.52,3.65-4.91,5.21-7.19Zm21.21,3.96c-1.44.12-2.58-.3-3.42-1.26-.72-.84-1.08-1.8-1.08-2.88,0-1.32.3-2.34.9-3.06.84-1.08,1.98-1.62,3.42-1.62,1.32.12,2.4.6,3.24,1.44.72.84,1.08,1.8,1.08,2.88s-.3,2.04-.9,2.88c-.84,1.08-1.92,1.62-3.24,1.62Zm1.26-3.06c.36-.36.54-.78.54-1.26s-.18-.9-.54-1.26c-.36-.36-.78-.54-1.26-.54s-.9.18-1.26.54c-.36.36-.54.78-.54,1.26s.18.9.54,1.26c.36.36.78.54,1.26.54s.9-.18,1.26-.54Z"/><path class="cls-2" d="m42.97,12.22l5.03-1.98c1.68,3.48,2.94,6.53,3.77,9.17l-5.03,2.16c-1.2-3.47-2.46-6.59-3.78-9.35Zm4.67,23.01c6.95-2.63,11.92-5.99,14.92-10.07,2.52-3.35,4.55-8.57,6.11-15.64l6.29,2.16c-1.92,7.67-4.56,13.6-7.91,17.8-3.6,4.56-8.81,8.27-15.64,11.15l-3.78-5.39Zm4.85-24.63l5.21-1.98c1.32,2.88,2.58,5.81,3.78,8.81l-5.39,1.8c-1.2-3.24-2.4-6.11-3.6-8.63Z"/><path class="cls-2" d="m79.64,1.8h6.83v15.28l3.24-3.96c3.96,2.28,8.99,5.75,15.1,10.43l-4.31,5.39c-6.71-5.27-11.39-8.63-14.02-10.07v21.93h-6.83V1.8Z"/><path class="cls-2" d="m107.14,24.09c2.52-3.59,4.91-7.25,7.19-10.97h-4.67v-5.75h8.09l2.88-5.21,6.65,1.08-2.52,4.13c3.12-.24,6.35-.54,9.71-.9v5.75c-4.08.36-8.39.66-12.94.9l-1.8,2.52c5.03-2.27,8.81-1.56,11.33,2.16,2.63-1.08,5.21-2.04,7.73-2.88l2.34,5.57c-3.24,1.2-6.29,2.4-9.17,3.59l-.18,6.47-6.47-.18.18-3.06c-1.44.72-2.4,1.32-2.88,1.8-.96.84-1.5,1.8-1.62,2.88,0,.96.78,1.62,2.34,1.98,1.32.24,3.17.36,5.57.36,2.76,0,6.17-.3,10.25-.9l-.72,6.29c-4.08.72-8.69.9-13.84.54-2.64-.24-4.74-.78-6.29-1.62-2.52-1.32-3.77-3.35-3.77-6.11,0-2.16.9-4.19,2.7-6.11,1.68-1.8,4.13-3.6,7.37-5.39-.36-.72-1.08-1.08-2.16-1.08-.96.12-2.16.54-3.6,1.26-2.04,1.08-4.38,3.18-7.01,6.29l-4.67-3.42Z"/><path class="cls-2" d="m154.24.18l5.57.9-.18.54c1.2,1.8,3.06,3.3,5.57,4.49v-3.96h20.13v36.13c0,2.76-1.5,4.13-4.49,4.13h-5.57l-1.62-6.29h3.78c1.2,0,1.8-.66,1.8-1.98V7.91h-13.48l-2.52,4.31c-1.44-.72-2.76-1.68-3.96-2.88v3.24h4.49v17.44h-9.89v4.31l3.06-.72-.72-1.62,5.03-1.8c1.8,3.12,3.24,6.23,4.31,9.35l-5.75,1.8-.72-2.16c-4.08,1.2-8.45,2.09-13.12,2.7l-1.26-6.11,3.42-.36V14.56l-1.44,1.26-2.34-5.93c3.71-2.16,7.01-5.39,9.89-9.71Zm-3.6,12.4h2.7v-2.52c-1.2,1.2-2.1,2.04-2.7,2.52Zm3.24,6.65h3.96v-1.44h-3.96v1.44Zm0,5.57h3.96v-1.44h-3.96v1.44Zm.54-15.82h4.49c-.96-.96-1.74-1.8-2.34-2.52-.24.48-.96,1.32-2.16,2.52Zm10.79,6.65v-5.03h13.12v5.03h-13.12Zm.54,18.16v-15.64h11.86v13.66h-7.19v1.98h-4.67Zm4.67-6.65h2.52v-4.49h-2.52v4.49Z"/><path class="cls-2" d="m200.08,5.93c-.84,2.28-1.44,4.74-1.8,7.37-.36,2.28-.6,4.38-.72,6.29-.12,1.32,0,3.18.36,5.57.24,1.44.54,2.58.9,3.42.48,1.08,1.02,1.62,1.62,1.62.84,0,1.68-.96,2.52-2.88l1.8-3.96,5.03,3.78c-.72,2.28-1.8,4.56-3.24,6.83-1.68,2.64-3.3,4.25-4.85,4.85-1.56.6-3.18.12-4.85-1.44-1.68-1.44-2.88-3.12-3.6-5.03-2.76-6.95-2.64-16.42.36-28.4l6.47,1.98Zm16.18,3.96l5.57-2.88c3.71,6.59,6.41,13.6,8.09,21.03l-6.29,2.34c-1.68-7.43-4.13-14.26-7.37-20.49Z"/><path class="cls-2" d="m233.7,37.75c3.95-6.71,7.07-13.78,9.35-21.21-2.64.36-5.28.54-7.91.54v-5.93c3.24-.12,6.35-.36,9.35-.72.72-2.63,1.26-5.39,1.62-8.27l6.65,1.08c-.36,2.16-.78,4.25-1.26,6.29,3.35-.48,5.87-.9,7.55-1.26l.72,6.11c-3,.72-6.35,1.26-10.07,1.62-2.4,8.99-5.75,17.32-10.07,24.99l-5.93-3.24Zm22.83-8.99c-1.2,1.8-1.38,3.06-.54,3.77.96.84,3.29,1.14,7.01.9,3.11-.24,5.69-.54,7.73-.9l.54,5.93c-6.83,1.2-12.22,1.44-16.18.72-3.12-.6-5.03-2.1-5.75-4.5-.72-2.4-.24-4.97,1.44-7.73l5.75,1.8Zm-1.62-11.15c5.03,0,10.07-.12,15.1-.36l.18,5.93c-5.15.12-10.25.18-15.28.18v-5.75Z"/><path class="cls-2" d="m284.4,5.93c-.84,2.28-1.44,4.74-1.8,7.37-.36,2.28-.6,4.38-.72,6.29-.12,1.32,0,3.18.36,5.57.24,1.44.54,2.58.9,3.42.48,1.08,1.02,1.62,1.62,1.62.84,0,1.68-.96,2.52-2.88l1.8-3.96,5.03,3.78c-.72,2.28-1.8,4.56-3.24,6.83-1.68,2.64-3.3,4.25-4.85,4.85-1.56.6-3.18.12-4.85-1.44-1.68-1.44-2.88-3.12-3.6-5.03-2.76-6.95-2.64-16.42.36-28.4l6.47,1.98Zm16.18,3.96l5.57-2.88c3.71,6.59,6.41,13.6,8.09,21.03l-6.29,2.34c-1.68-7.43-4.13-14.26-7.37-20.49Z"/><path class="cls-2" d="m327.36,18.52c-2.28-4.19-3.72-9.23-4.31-15.1l6.65-1.62c.48,5.75,1.5,10.37,3.06,13.84,4.55-2.16,9.29-4.07,14.2-5.75l2.16,5.75c-4.44,1.2-8.87,2.88-13.3,5.03-5.28,2.52-8.51,4.74-9.71,6.65-1.32,2.04-1.26,3.84.18,5.39.72.84,2.04,1.38,3.95,1.62,1.68.24,3.65.24,5.93,0,4.91-.36,9.47-1.2,13.66-2.52l1.08,6.47c-4.31,1.08-8.33,1.74-12.04,1.98-5.39.48-9.59.36-12.58-.36-5.39-1.2-8.15-4.07-8.27-8.63-.12-2.63.78-5.15,2.7-7.55,1.68-2.04,3.89-3.78,6.65-5.21Z"/><path class="cls-2" d="m372.13,9.17l.36-8.63h6.47v7.19c0,2.04.36,4.43,1.08,7.19,1.2,4.79,3.47,9.29,6.83,13.48,2.28,2.88,5.69,5.81,10.25,8.81l-4.67,5.57c-4.2-2.16-7.97-5.57-11.33-10.25-1.8-2.4-3.54-5.69-5.21-9.89-1.08,3.59-2.94,7.07-5.57,10.43-3.12,3.84-6.83,6.95-11.15,9.35l-4.67-5.57c4.55-2.52,8.15-5.33,10.79-8.45,4.19-5.03,6.47-11.44,6.83-19.24Z"/><path class="cls-2" d="m442.78,29.3h-16.9v8.81c0,2.76-1.32,4.13-3.96,4.13h-8.09l-1.62-6.47h5.57c1.32,0,1.92-.6,1.8-1.8v-4.67h-18.34v-5.75h18.34v-4.85h-15.82v-5.75h15.82v-3.6c-2.04.36-6.83.72-14.38,1.08l-2.34-6.47c4.55,0,10.01-.3,16.36-.9,6.47-.6,11.98-1.5,16.54-2.7l3.96,5.57c-2.16.72-6.77,1.56-13.84,2.52v4.49h14.2v5.75h-14.2v4.85h16.9v5.75Z"/><path class="cls-2" d="m450.33,20.49v-8.27h-3.42v-5.93h7.55V.54h6.11v5.75h6.11v5.93h-9.89v4.67h6.83c3.96-3.96,6.65-9.59,8.09-16.9l6.11,1.8c-.48,2.64-1.02,4.31-1.62,5.03h12.4v5.75h-2.88c0,2.04-.24,4.38-.72,7.01-.72,4.08-1.98,7.61-3.78,10.61,1.56,2.16,4.37,4.31,8.45,6.47l-3.77,5.93c-1.32-.48-2.88-1.5-4.67-3.06-1.68-1.44-3-2.76-3.95-3.96-.6.96-1.8,2.22-3.6,3.78-2.04,1.68-3.77,2.81-5.21,3.42l-3.95-5.21c-.12,3.12-1.68,4.67-4.67,4.67h-3.42l-1.98-6.65h2.16c1.2,0,1.86-.72,1.98-2.16l.54-10.79h-2.34c-.36,5.15-1.26,9.41-2.7,12.76-1.44,3.47-2.7,5.75-3.78,6.83l-3.96-6.65c1.92-2.63,3.12-5.57,3.6-8.81.24-1.8.36-3.89.36-6.29Zm23.19,9.89c-1.8-2.16-3.3-5.33-4.49-9.53l-1.8,2.34-1.98-2.52-.54,16.18c3.6-1.44,6.53-3.59,8.81-6.47Zm5.93-17.8h-5.57l-.54,1.26c1.08,5.27,2.34,8.81,3.78,10.61,1.56-2.88,2.34-6.83,2.34-11.87Z"/><path class="cls-2" d="m494.37,1.62l6.83.54c-.36,3.72-.6,7.43-.72,11.15-.12,3.84-.24,7.61-.36,11.33v3.59c0,1.68.24,2.94.72,3.78.6,1.32,1.98,1.98,4.13,1.98,1.8,0,3.47-.42,5.03-1.26,4.07-2.04,7.43-5.99,10.07-11.87l5.21,4.49c-2.88,5.28-6.65,9.35-11.33,12.22-5.15,3.24-10.19,4.07-15.1,2.52-2.04-.6-3.42-1.74-4.13-3.42-.72-1.56-1.08-3.77-1.08-6.65.12-9.35.36-18.81.72-28.4Z"/><path class="cls-2" d="m528.71,37.75c3.95-6.71,7.07-13.78,9.35-21.21-2.64.36-5.27.54-7.91.54v-5.93c3.24-.12,6.35-.36,9.35-.72.72-2.63,1.26-5.39,1.62-8.27l6.65,1.08c-.36,2.16-.78,4.25-1.26,6.29,3.36-.48,5.87-.9,7.55-1.26l.72,6.11c-3,.72-6.35,1.26-10.07,1.62-2.4,8.99-5.75,17.32-10.07,24.99l-5.93-3.24Zm22.83-8.99c-1.2,1.8-1.38,3.06-.54,3.77.96.84,3.29,1.14,7.01.9,3.12-.24,5.69-.54,7.73-.9l.54,5.93c-6.83,1.2-12.22,1.44-16.18.72-3.12-.6-5.03-2.1-5.75-4.5-.72-2.4-.24-4.97,1.44-7.73l5.75,1.8Zm-1.62-11.15c5.03,0,10.07-.12,15.1-.36l.18,5.93c-5.15.12-10.25.18-15.28.18v-5.75Z"/><path class="cls-2" d="m579.4,5.93c-.84,2.28-1.44,4.74-1.8,7.37-.36,2.28-.6,4.38-.72,6.29-.12,1.32,0,3.18.36,5.57.24,1.44.54,2.58.9,3.42.48,1.08,1.02,1.62,1.62,1.62.84,0,1.68-.96,2.52-2.88l1.8-3.96,5.03,3.78c-.72,2.28-1.8,4.56-3.24,6.83-1.68,2.64-3.3,4.25-4.85,4.85-1.56.6-3.18.12-4.85-1.44-1.68-1.44-2.88-3.12-3.6-5.03-2.76-6.95-2.64-16.42.36-28.4l6.47,1.98Zm16.18,3.96l5.57-2.88c3.71,6.59,6.41,13.6,8.09,21.03l-6.29,2.34c-1.68-7.43-4.13-14.26-7.37-20.49Z"/><path class="cls-2" d="m630.46,9.17l.36-8.63h6.47v7.19c0,2.04.36,4.43,1.08,7.19,1.2,4.79,3.47,9.29,6.83,13.48,2.28,2.88,5.69,5.81,10.25,8.81l-4.67,5.57c-4.2-2.16-7.97-5.57-11.33-10.25-1.8-2.4-3.54-5.69-5.21-9.89-1.08,3.59-2.94,7.07-5.57,10.43-3.12,3.84-6.83,6.95-11.15,9.35l-4.67-5.57c4.55-2.52,8.15-5.33,10.79-8.45,4.19-5.03,6.47-11.44,6.83-19.24Z"/><path class="cls-2" d="m658.86,24.09c2.52-3.59,4.91-7.25,7.19-10.97h-4.67v-5.75h8.09l2.88-5.21,6.65,1.08-2.52,4.13c3.12-.24,6.35-.54,9.71-.9v5.75c-4.08.36-8.39.66-12.94.9l-1.8,2.52c5.03-2.27,8.81-1.56,11.33,2.16,2.63-1.08,5.21-2.04,7.73-2.88l2.34,5.57c-3.24,1.2-6.29,2.4-9.17,3.59l-.18,6.47-6.47-.18.18-3.06c-1.44.72-2.4,1.32-2.88,1.8-.96.84-1.5,1.8-1.62,2.88,0,.96.78,1.62,2.34,1.98,1.32.24,3.17.36,5.57.36,2.76,0,6.17-.3,10.25-.9l-.72,6.29c-4.08.72-8.69.9-13.84.54-2.64-.24-4.74-.78-6.29-1.62-2.52-1.32-3.78-3.35-3.78-6.11,0-2.16.9-4.19,2.7-6.11,1.68-1.8,4.13-3.6,7.37-5.39-.36-.72-1.08-1.08-2.16-1.08-.96.12-2.16.54-3.6,1.26-2.04,1.08-4.38,3.18-7.01,6.29l-4.67-3.42Z"/><path class="cls-2" d="m710.64.36v1.98h7.55v3.6h-7.55v.72h6.83v9.17h-6.83v.72h7.37v2.7c1.8,0,3.17-.12,4.13-.36-1.2-.96-2.1-2.04-2.7-3.24h-1.26v-3.95h2.16l-2.7-4.13c1.2-.96,1.92-1.92,2.16-2.88.12-.6.18-1.68.18-3.24h12.58v3.77c-.12.36-.06.6.18.72.12.12.3.12.54,0h.54c.24,0,.36-.78.36-2.34l4.67.9v1.08l-.18,1.62c-.24,2.52-1.44,3.78-3.6,3.78h-5.03c-1.44,0-2.4-.48-2.88-1.44-.36-.6-.54-1.68-.54-3.24h-1.44c-.36,2.28-1.5,4.08-3.42,5.39h11.15l.36-.36,4.31,2.7c-1.08,2.28-2.7,4.13-4.85,5.57,2.16.84,4.13,1.26,5.93,1.26l-2.34,5.21c-3-.48-5.87-1.56-8.63-3.24-.6.36-1.5.66-2.7.9l2.52,1.44-3.78,4.13,3.24-.18-.9-.72,3.96-3.59c4.19,3.12,6.95,5.39,8.27,6.83l-4.31,3.78-2.34-2.16-4.13.54c2.52,1.44,5.75,2.4,9.71,2.88l-2.34,6.11c-1.8-.24-3.9-.84-6.29-1.8-2.4-.96-4.2-1.98-5.39-3.06l3.42-4.13-5.75.36v8.27h-6.47v-7.91l-4.49.18,2.52,2.88c-3,2.52-7.07,4.19-12.22,5.03l-3.24-5.75c3.6-.24,6.47-.96,8.63-2.16l-6.29.18-.9-5.39h9.35l-5.21-2.7,3.96-3.6h-1.26v-2.7h-8.27v-3.96h8.27v-.72h-7.01V6.65h7.01v-.72h-7.91v-3.6h7.91V.36h5.39Zm-7.01,10.07h1.62v-.9h-1.62v.9Zm0,2.7h1.62v-.9h-1.62v.9Zm3.24,10.07l3.59,1.98,4.31-4.13,3.96,1.62-.9-2.16h-7.19v2.7h-3.78Zm3.78-12.76h1.44v-.9h-1.44v.9Zm0,2.7h1.44v-.9h-1.44v.9Zm4.67,14.74l1.8.72,3.42-3.78h-.9l-.36-1.08-3.96,4.13Zm10.25-12.22c.48.72,1.08,1.26,1.8,1.62.84-.36,1.5-.9,1.98-1.62h-3.77Z"/><path class="cls-2" d="m745.69,2.16l6.11,1.26c-1.92,7.91-2.4,16.42-1.44,25.53l2.16-5.39,4.31,2.88c-1.68,4.08-2.94,8.15-3.78,12.22l-6.11,1.08c-3.96-12.34-4.38-24.87-1.26-37.57Zm10.25,9.71c6.11.24,10.19.3,12.22.18l-.18-10.25,6.11.36.18,9.35c1.8-.12,3.89-.3,6.29-.54v5.93c-2.16.36-4.26.54-6.29.54.6,10.07-2.1,17.98-8.09,23.73l-4.67-4.5c2.75-2.63,4.61-5.57,5.57-8.81.84-2.52,1.2-5.87,1.08-10.07-4.2.24-8.27.24-12.22,0v-5.93Zm18.88-6.65l2.7-2.16,3.6,4.31-2.7,2.16-3.6-4.32Zm3.24-2.88l2.7-2.16,3.42,4.13-2.7,2.16-3.42-4.13Z"/><path class="cls-2" d="m785.78,27.15c6.35-5.63,12.52-11.38,18.52-17.26-4.43.72-8.81,1.26-13.12,1.62l-1.26-6.29c9.23-.72,16.36-1.68,21.39-2.88l3.59,5.03c-3.48,3.48-6.41,6.41-8.81,8.81,2.88-.48,5.51-.3,7.91.54,2.63.84,4.61,2.46,5.93,4.85,1.68,3.12,1.86,6.35.54,9.71-1.2,3.24-3.3,5.69-6.29,7.37-2.52,1.44-5.46,2.22-8.81,2.34-3.36.12-6.23-.54-8.63-1.98-2.4-1.32-3.42-3.29-3.06-5.93.36-2.63,1.8-4.43,4.31-5.39,2.88-1.08,5.63-1.26,8.27-.54,2.88.72,4.85,2.4,5.93,5.03,1.56-1.08,2.46-2.52,2.7-4.31.24-1.8-.3-3.35-1.62-4.67-1.32-1.32-3.72-1.86-7.19-1.62-2.28.24-4.31.84-6.11,1.8-3.84,2.16-7.19,5.03-10.07,8.63l-4.13-4.85Zm21.21,7.73c-.36-1.68-1.26-2.7-2.7-3.06-1.08-.24-2.1-.18-3.06.18-.96.36-1.32.96-1.08,1.8.24.72,1.08,1.2,2.52,1.44,1.92.36,3.35.24,4.31-.36Z"/><path class="cls-2" d="m824.61,17.26v-6.11h7.73V2.88h6.65v8.27h8.81V2.52h6.65v8.63h7.55v6.11h-7.55c0,5.75-1.08,10.49-3.24,14.2-2.28,3.84-5.87,6.95-10.79,9.35l-4.85-5.03c4.43-2.16,7.55-4.61,9.35-7.37,1.92-2.75,2.88-6.47,2.88-11.15h-8.81v9.89h-6.65v-9.89h-7.73Z"/><path class="cls-2" d="m865.24,18.52h34.88v6.11h-34.88v-6.11Z"/><path class="cls-2" d="m911.44,2.7v14.02c7.07-1.68,13.36-4.19,18.88-7.55l4.85,4.67c-6.71,4.2-14.62,7.37-23.73,9.53v6.65c0,1.8,1.02,2.7,3.06,2.7,5.63,0,12.58-.06,20.85-.18l-.9,6.47h-22.83c-2.4,0-4.13-.54-5.21-1.62-.96-1.08-1.44-2.81-1.44-5.21V2.7h6.47Zm18.34,4.31l2.7-2.34,3.96,4.13-2.7,2.52-3.96-4.31Zm3.78-3.06l2.7-2.34,3.6,3.96-2.52,2.34-3.78-3.96Z"/><path class="cls-2" d="m940.74,32.36c6.35-2.63,11.38-5.75,15.1-9.35,3.96-3.71,6.83-8.21,8.63-13.48h-19.6V3.24h23.73l.9-.54,4.13,3.6c-3.24,7.19-5.63,12.04-7.19,14.56,4.67,3.84,9.05,7.85,13.12,12.04l-5.39,5.57c-3.72-4.79-7.67-8.75-11.87-11.86-4.56,5.27-10.31,9.41-17.26,12.4l-4.31-6.65Z"/><path class="cls-2" d="m981.37,6.83c14.26-.72,26.48-2.1,36.67-4.13l1.08,6.29c-3,.48-4.92.84-5.75,1.08-1.68.48-3.48,1.38-5.39,2.7-2.64,1.8-4.85,4.26-6.65,7.37-2.16,3.72-2.52,6.83-1.08,9.35,1.08,1.8,2.88,3.06,5.39,3.78,1.08.36,3.29.78,6.65,1.26l-1.98,6.29c-3.36-.6-5.99-1.26-7.91-1.98-2.88-.96-5.15-2.4-6.83-4.31-3.24-3.47-3.96-7.61-2.16-12.4,1.56-4.07,4.31-7.67,8.27-10.79-3.84.6-10.31,1.26-19.42,1.98l-.9-6.47Zm28.22,8.99l3.6-1.62,2.52,4.85-3.6,1.8-2.52-5.03Zm4.85-2.16l3.78-1.62,2.34,4.85-3.42,1.62-2.7-4.85Z"/><path class="cls-2" d="m1022,7.37c5.51-.12,11.15-.24,16.9-.36l-.18-5.39h7.01l-.18,5.39h14.2v5.93l-14.38-.18.18,4.13c2.28,2.76,2.99,6.35,2.16,10.79-.48,2.52-1.56,4.97-3.24,7.37-1.92,2.64-4.25,4.79-7.01,6.47l-4.49-4.67c3.47-2.04,5.63-3.95,6.47-5.75-1.68.96-3.42,1.14-5.21.54-2.4-.84-3.9-2.81-4.49-5.93-.48-2.75-.18-5.27.9-7.55,1.68-3.24,4.55-4.5,8.63-3.78l-.18-1.44c-5.99.24-11.69.48-17.08.72v-6.29Zm15.64,12.76c-1.56.24-2.28,1.32-2.16,3.24.12,1.92.84,2.94,2.16,3.06.96.12,1.68-.18,2.16-.9.36-.6.54-1.38.54-2.34s-.24-1.74-.72-2.34c-.48-.6-1.14-.84-1.98-.72Z"/></g></g></g></svg>