<?xml version="1.0" encoding="UTF-8"?><svg id="_レイヤー_2" xmlns="http://www.w3.org/2000/svg" viewBox="0 0 329.17 329.17"><defs><style>.cls-1{fill:#fff;}.cls-2{fill:#53c4c1;}.cls-3{fill:#ff52ad;}.cls-4{fill:#351e2c;}</style></defs><g id="_使い方"><g><rect class="cls-3" width="329.17" height="329.17" rx="46.32" ry="46.32"/><g><rect class="cls-2" x="225.83" y="278.55" width="70.36" height="35.53" rx="6.59" ry="6.59"/><g><path class="cls-1" d="m248.06,297.28h-1.22v-1.69h3.27v3.44c0,.54.23,1.01.7,1.4.47.39,1.01.58,1.63.58l3.03.06,4.84-.17-.35,1.92-2.8.06-4.26.06c-1.4,0-2.53-.35-3.38-1.05l-1.75,1.22-1.11-1.87,1.4-.99v-2.97Zm-.93-6.01l1.34-1.58c.27.12.66.35,1.17.7.58.43.99.78,1.22,1.05l-1.34,1.69c-.19-.27-.56-.62-1.11-1.05-.54-.43-.97-.7-1.28-.82Zm12.89,5.13h-3.62c.27.43.72.84,1.34,1.22.66.43,1.36.72,2.1.88l-.99,2.1c-.66-.19-1.3-.5-1.92-.93-.78-.5-1.36-1.07-1.75-1.69-.35.47-.78.91-1.28,1.34-.7.54-1.4.93-2.1,1.17l-1.34-1.87c.66-.16,1.28-.41,1.87-.76.74-.43,1.22-.91,1.46-1.46h-3.32v-1.81h3.67v-.88h-3.21v-1.81h1.63c0-.16-.12-.43-.35-.82-.23-.43-.41-.68-.52-.76l1.87-.76c.5.86.8,1.48.88,1.87l-1.11.47h2.33l.99-2.39,2.1.7-.82,1.69h1.52v1.81h-3.15v.88h3.73v1.81Z"/><path class="cls-1" d="m261.36,295.12c1.17-1.4,2.06-3.25,2.68-5.54l1.87.52c-.39,1.25-.74,2.18-1.05,2.8v10.21h-1.98v-6.42c-.12.35-.33.68-.64.99l-.88-2.57Zm4.02-1.28v-1.63h9.74v1.63h-9.74Zm.88,4.49h7.76v4.78h-1.98v-.58h-3.73v.58h-2.04v-4.78Zm.35-6.59v-1.69h7.06v1.69h-7.06Zm.06,2.57h7v1.63h-7v-1.63Zm0,3.56v-1.58h7v1.58h-7Zm1.63,2.97h3.73v-.88h-3.73v.88Z"/></g></g><rect class="cls-1" x="32.97" y="42.84" width="263.22" height="98.43" rx="14.66" ry="14.66"/><g><path class="cls-1" d="m47.57,21.36l1.86.3-.06.18c.4.6,1.02,1.1,1.86,1.5v-1.32h6.72v12.05c0,.92-.5,1.38-1.5,1.38h-1.86l-.54-2.1h1.26c.4,0,.6-.22.6-.66v-8.75h-4.5l-.84,1.44c-.48-.24-.92-.56-1.32-.96v1.08h1.5v5.82h-3.3v1.44l1.02-.24-.24-.54,1.68-.6c.6,1.04,1.08,2.08,1.44,3.12l-1.92.6-.24-.72c-1.36.4-2.82.7-4.38.9l-.42-2.04,1.14-.12v-6.96l-.48.42-.78-1.98c1.24-.72,2.34-1.8,3.3-3.24Zm-1.2,4.14h.9v-.84c-.4.4-.7.68-.9.84Zm1.08,2.22h1.32v-.48h-1.32v.48Zm0,1.86h1.32v-.48h-1.32v.48Zm.18-5.28h1.5c-.32-.32-.58-.6-.78-.84-.08.16-.32.44-.72.84Zm3.6,2.22v-1.68h4.38v1.68h-4.38Zm.18,6.06v-5.22h3.96v4.56h-2.4v.66h-1.56Zm1.56-2.22h.84v-1.5h-.84v1.5Z"/><path class="cls-1" d="m59.8,33.65c1.8-2.12,3.6-4.22,5.4-6.3-1.16.32-2.6.58-4.32.78l-.36-2.22c2.84-.16,5.46-.6,7.85-1.32l1.08,1.62c-1.04.92-2,1.86-2.88,2.82.56,0,.92.2,1.08.6.12.32.14.8.06,1.44-.16,1.2.16,1.78.96,1.74.64-.04,1.6-.22,2.88-.54v2.16c-1.88.4-3.3.54-4.26.42-.96-.16-1.46-.74-1.5-1.74l-.06-1.68c-.04-.48-.24-.68-.6-.6-.28.04-.56.22-.84.54-.88,1.04-1.84,2.22-2.88,3.54l-1.62-1.26Zm2.46-9.71l.3-2.04c1.6.2,3.32.34,5.16.42l-.18,2.16c-2.16-.16-3.92-.34-5.28-.54Z"/><path class="cls-1" d="m72.45,30.35c2.12-1.88,4.18-3.8,6.18-5.76-1.48.24-2.94.42-4.38.54l-.42-2.1c3.08-.24,5.46-.56,7.13-.96l1.2,1.68c-1.16,1.16-2.14,2.14-2.94,2.94.96-.16,1.84-.1,2.64.18.88.28,1.54.82,1.98,1.62.56,1.04.62,2.12.18,3.24-.4,1.08-1.1,1.9-2.1,2.46-.84.48-1.82.74-2.94.78-1.12.04-2.08-.18-2.88-.66-.8-.44-1.14-1.1-1.02-1.98.12-.88.6-1.48,1.44-1.8.96-.36,1.88-.42,2.76-.18.96.24,1.62.8,1.98,1.68.52-.36.82-.84.9-1.44.08-.6-.1-1.12-.54-1.56-.44-.44-1.24-.62-2.4-.54-.76.08-1.44.28-2.04.6-1.28.72-2.4,1.68-3.36,2.88l-1.38-1.62Zm7.07,2.58c-.12-.56-.42-.9-.9-1.02-.36-.08-.7-.06-1.02.06-.32.12-.44.32-.36.6.08.24.36.4.84.48.64.12,1.12.08,1.44-.12Z"/><path class="cls-1" d="m87.5,26.27h-1.8v-1.86h1.8v-2.82h2.1v2.82h1.44v1.86h-1.32c.32.68.88,1.5,1.68,2.46l-.96,2.1-.84-1.26v5.82h-2.1v-4.2c-.24.64-.56,1.2-.96,1.68l-1.08-2.16c.4-.52.84-1.32,1.32-2.4.48-1.04.72-1.72.72-2.04Zm6.42,2.58h-.36v3.9l1.26-.42.54,1.92c-.36.16-1.06.38-2.1.66-1.04.28-1.92.46-2.64.54l-.42-1.98,1.32-.24v-11.21h7.02v6.83h-.54l1.2,1.5-1.68,1.32c.44.72,1.24,1.38,2.4,1.98l-1.38,1.86c-1.12-.6-2.04-1.38-2.76-2.34-.84-1.16-1.46-2.6-1.86-4.32Zm-.36-4.26h2.88v-.72h-2.88v.72Zm0,2.34h2.88v-.72h-2.88v.72Zm4.32,1.92h-1.86c0,.08.06.3.18.66.08.24.16.4.24.48l1.44-1.14Z"/><path class="cls-1" d="m104.23,21.54v2.82h.66v1.92h-.66v1.32l.48-.24c.6-1.08.96-3.04,1.08-5.88l1.86.3-.24,1.26h1.74c.04,1.32-.04,2.8-.24,4.44-.2,1.56-.42,2.74-.66,3.54.6.8,1.48,1.4,2.64,1.8,1.24.44,2.58.58,4.02.42l-.42,2.1c-1.68,0-3.04-.16-4.08-.48-1.08-.32-2.08-.94-3-1.86-.6,1.12-1.22,1.94-1.86,2.46l-1.2-1.92c.96-.76,1.56-1.48,1.8-2.16-.2-.36-.36-.8-.48-1.32l-.42.9-.72-1.5-.3.18v4.38c0,.92-.5,1.38-1.5,1.38h-1.14l-.48-1.92h.66c.24,0,.4-.06.48-.18.04-.04.06-.18.06-.42v-2.52l-1.08.42-.42-1.92,1.5-.48v-2.1h-1.38v-1.92h1.38v-2.82h1.92Zm2.88,7.61c.12-.48.24-1.24.36-2.28.12-1,.16-1.62.12-1.86h-.48c-.12.92-.28,1.66-.48,2.22.08.72.24,1.36.48,1.92Zm6.71,2.94h-1.08c-.8,0-1.2-.42-1.2-1.26v-6.71h-.42v3.66c0,1.64-.32,3.06-.96,4.26l-1.56-1.32c.64-1.08.96-2.44.96-4.08v-4.5h3.72v7.43c0,.24.06.36.18.36h.12c.16,0,.24-.46.24-1.38v-.96l1.5.54c-.12,1.84-.26,2.9-.42,3.18-.16.52-.52.78-1.08.78Z"/></g><g><path class="cls-4" d="m51.85,74.55c-.53.26-1.24.49-2.14.67v1.46h2.14v1.85h-1.97c.9.9,1.52,1.48,1.85,1.74l-.96,2.02c-.26-.26-.62-.67-1.07-1.24v5h-1.91v-4.22c-.08.19-.3.54-.67,1.07-.45.64-.79,1.07-1.01,1.29l-.96-2.14c.41-.34.9-.9,1.46-1.69.56-.79.92-1.41,1.07-1.86h-2.42v-1.85h2.53v-1.07c-.64.11-1.24.19-1.8.22l-.73-1.91c1.8-.04,3.67-.41,5.62-1.12l.96,1.74Zm-1.8,9.11l.96-.06c.71-1.76,1.26-3.48,1.63-5.17.45-1.91.79-3.65,1.01-5.23l2.08.51c-.49,2.36-.94,4.24-1.35,5.62-.49,1.76-.94,3.13-1.35,4.1l2.75-.34c-.26-1.12-.64-2.21-1.12-3.26l1.91-.56c.45,1.2,1.09,3.13,1.91,5.79l-1.97.62-.23-.79-5.73.73-.51-1.97Z"/><path class="cls-4" d="m59.55,84.44c1.31-1.76,2.36-3.75,3.15-5.96-.53.11-1.37.32-2.53.62l-.45-1.97c1.16-.19,2.32-.37,3.49-.56.22-.82.39-1.83.51-3.04l2.19.45-.67,2.36c1.39-.22,2.32.13,2.81,1.07.41.75.51,1.89.28,3.43-.11.9-.3,1.71-.56,2.42-.38,1.05-.84,1.72-1.41,2.02-.49.26-1.26.34-2.3.22l-.45-2.02c.79.04,1.27.04,1.46,0,.26-.07.49-.28.67-.62.34-.64.58-1.33.73-2.08.19-.82.21-1.48.06-1.97-.11-.41-.36-.64-.73-.67-.22,0-.58.02-1.07.06-.79,2.7-1.95,5.17-3.48,7.42l-1.69-1.18Zm8.6-10.17l.96-.73,1.18,1.57-.96.67-1.18-1.52Zm.17,2.42l1.69-1.07c.67,1.01,1.41,2.66,2.19,4.95l-1.85.9c-.64-2.17-1.31-3.77-2.02-4.78Zm1.35-3.15l.96-.67,1.12,1.57-.96.67-1.12-1.57Z"/><path class="cls-4" d="m76.08,72.86l1.74.28-.06.17c.37.56.96,1.03,1.74,1.41v-1.24h6.3v11.3c0,.86-.47,1.29-1.41,1.29h-1.74l-.51-1.97h1.18c.37,0,.56-.21.56-.62v-8.21h-4.22l-.79,1.35c-.45-.22-.86-.52-1.24-.9v1.01h1.41v5.45h-3.09v1.35l.96-.22-.22-.51,1.57-.56c.56.97,1.01,1.95,1.35,2.92l-1.8.56-.22-.67c-1.27.37-2.64.66-4.1.84l-.39-1.91,1.07-.11v-6.52l-.45.39-.73-1.85c1.16-.67,2.19-1.69,3.09-3.04Zm-1.12,3.88h.84v-.79c-.38.38-.66.64-.84.79Zm1.01,2.08h1.24v-.45h-1.24v.45Zm0,1.74h1.24v-.45h-1.24v.45Zm.17-4.95h1.41c-.3-.3-.54-.56-.73-.79-.08.15-.3.41-.67.79Zm3.37,2.08v-1.57h4.1v1.57h-4.1Zm.17,5.68v-4.89h3.71v4.27h-2.25v.62h-1.46Zm1.46-2.08h.79v-1.41h-.79v1.41Z"/><path class="cls-4" d="m87.55,84.39c1.69-1.99,3.37-3.95,5.06-5.9-1.09.3-2.44.54-4.05.73l-.34-2.08c2.66-.15,5.11-.56,7.36-1.24l1.01,1.52c-.97.86-1.87,1.74-2.7,2.64.52,0,.86.19,1.01.56.11.3.13.75.06,1.35-.15,1.12.15,1.67.9,1.63.6-.04,1.5-.21,2.7-.51v2.02c-1.76.38-3.09.51-3.99.39-.9-.15-1.37-.69-1.41-1.63l-.06-1.57c-.04-.45-.23-.64-.56-.56-.26.04-.53.21-.79.51-.82.97-1.72,2.08-2.7,3.32l-1.52-1.18Zm2.3-9.11l.28-1.91c1.5.19,3.11.32,4.83.39l-.17,2.02c-2.02-.15-3.67-.32-4.95-.51Z"/><path class="cls-4" d="m99.41,81.3c1.99-1.76,3.92-3.56,5.79-5.4-1.39.22-2.75.39-4.1.51l-.39-1.97c2.88-.22,5.11-.52,6.69-.9l1.12,1.57c-1.09,1.09-2.01,2-2.75,2.75.9-.15,1.72-.09,2.47.17.82.26,1.44.77,1.85,1.52.52.97.58,1.99.17,3.04-.38,1.01-1.03,1.78-1.97,2.3-.79.45-1.71.69-2.75.73-1.05.04-1.95-.17-2.7-.62-.75-.41-1.07-1.03-.96-1.85s.56-1.39,1.35-1.69c.9-.34,1.76-.39,2.59-.17.9.23,1.52.75,1.85,1.57.49-.34.77-.79.84-1.35.07-.56-.09-1.05-.51-1.46-.41-.41-1.16-.58-2.25-.51-.71.08-1.35.26-1.91.56-1.2.67-2.25,1.57-3.15,2.7l-1.29-1.52Zm6.63,2.42c-.11-.52-.39-.84-.84-.96-.34-.07-.66-.06-.96.06-.3.11-.41.3-.34.56.07.22.34.38.79.45.6.11,1.05.08,1.35-.11Z"/><path class="cls-4" d="m114.64,78.6c-.71-1.31-1.16-2.89-1.35-4.72l2.08-.51c.15,1.8.47,3.24.96,4.33,1.42-.67,2.9-1.27,4.44-1.8l.67,1.8c-1.39.38-2.77.9-4.16,1.57-1.65.79-2.66,1.48-3.04,2.08-.41.64-.39,1.2.06,1.69.22.26.64.43,1.24.51.52.08,1.14.08,1.85,0,1.54-.11,2.96-.37,4.27-.79l.34,2.02c-1.35.34-2.6.54-3.77.62-1.69.15-3,.11-3.93-.11-1.69-.38-2.55-1.27-2.59-2.7-.04-.82.24-1.61.84-2.36.52-.64,1.22-1.18,2.08-1.63Z"/><path class="cls-4" d="m135.89,74.61c-.64.9-1.37,1.65-2.19,2.25h2.64v1.8h-4.67l-1.01.67c.86,0,2.17-.13,3.93-.39l.96,1.63c-1.16.22-3.35.38-6.58.45l-.11.22h6.01l-.39,2.81c-.19,1.31-.88,1.97-2.08,1.97h-2.64l-.62-1.97h2.36c.34,0,.56-.04.67-.11s.19-.23.23-.45l.11-.62h-4.1l-.34,1.24-2.08-.51.73-1.97c-.56.45-1.41.81-2.53,1.07l-1.01-1.97c2.14-.52,3.77-1.22,4.89-2.08h-4.78v-1.8h4.72v-.79h-3.09v-1.8h3.09v-1.29h2.02v1.29h2.87v.51c.3-.26.67-.69,1.12-1.29l1.85,1.12Zm-4.27,1.46h-1.57v.79h.56c.45-.22.79-.49,1.01-.79Z"/><path class="cls-4" d="m137.57,84.39c1.69-1.99,3.37-3.95,5.06-5.9-1.09.3-2.44.54-4.05.73l-.34-2.08c2.66-.15,5.11-.56,7.36-1.24l1.01,1.52c-.97.86-1.87,1.74-2.7,2.64.52,0,.86.19,1.01.56.11.3.13.75.06,1.35-.15,1.12.15,1.67.9,1.63.6-.04,1.5-.21,2.7-.51v2.02c-1.76.38-3.09.51-3.99.39-.9-.15-1.37-.69-1.41-1.63l-.06-1.57c-.04-.45-.23-.64-.56-.56-.26.04-.53.21-.79.51-.82.97-1.72,2.08-2.7,3.32l-1.52-1.18Zm2.3-9.11l.28-1.91c1.5.19,3.11.32,4.83.39l-.17,2.02c-2.02-.15-3.67-.32-4.95-.51Z"/><path class="cls-4" d="m149.38,74.94c4.46-.22,8.28-.66,11.47-1.29l.34,1.97c-.94.15-1.54.26-1.8.34-.53.15-1.09.43-1.69.84-.82.56-1.52,1.33-2.08,2.3-.67,1.16-.79,2.14-.34,2.92.34.56.9.96,1.69,1.18.34.11,1.03.24,2.08.39l-.62,1.97c-1.05-.19-1.87-.39-2.47-.62-.9-.3-1.61-.75-2.14-1.35-1.01-1.09-1.24-2.38-.67-3.88.49-1.27,1.35-2.4,2.59-3.37-1.2.19-3.22.39-6.07.62l-.28-2.02Z"/><path class="cls-4" d="m165,74.66c-.26.71-.45,1.48-.56,2.3-.11.71-.19,1.37-.22,1.97-.04.41,0,.99.11,1.74.07.45.17.81.28,1.07.15.34.32.51.51.51.26,0,.52-.3.79-.9l.56-1.24,1.57,1.18c-.22.71-.56,1.42-1.01,2.14-.53.82-1.03,1.33-1.52,1.52-.49.19-.99.04-1.52-.45-.53-.45-.9-.97-1.12-1.57-.86-2.17-.82-5.13.11-8.88l2.02.62Zm5.06,1.24l1.74-.9c1.16,2.06,2,4.25,2.53,6.58l-1.97.73c-.53-2.32-1.29-4.46-2.3-6.41Z"/><path class="cls-4" d="m175.35,81.3c1.99-1.76,3.92-3.56,5.79-5.4-1.39.22-2.75.39-4.1.51l-.39-1.97c2.88-.22,5.12-.52,6.69-.9l1.12,1.57-2.75,2.75c.9-.15,1.72-.09,2.47.17.82.26,1.44.77,1.85,1.52.52.97.58,1.99.17,3.04-.38,1.01-1.03,1.78-1.97,2.3-.79.45-1.71.69-2.75.73-1.05.04-1.95-.17-2.7-.62-.75-.41-1.07-1.03-.96-1.85.11-.82.56-1.39,1.35-1.69.9-.34,1.76-.39,2.59-.17.9.23,1.52.75,1.85,1.57.49-.34.77-.79.84-1.35.08-.56-.09-1.05-.51-1.46-.41-.41-1.16-.58-2.25-.51-.71.08-1.35.26-1.91.56-1.2.67-2.25,1.57-3.15,2.7l-1.29-1.52Zm6.63,2.42c-.11-.52-.39-.84-.84-.96-.34-.07-.66-.06-.96.06-.3.11-.41.3-.34.56.07.22.34.38.79.45.6.11,1.05.08,1.35-.11Z"/><path class="cls-4" d="m192.6,80.85h2.7v-.79h-2.7v-6.58h7.36v6.58h-2.64v.79h2.7v1.8h-2.7v1.07h3.43v1.86h-8.88v-1.57c-1.57.6-2.81.99-3.71,1.18l-.51-1.97,1.46-.39v-3.09h-1.18v-1.8h1.18v-2.59h-1.35v-1.8h4.44v1.8h-1.12v2.59h1.01v1.8h-1.01v2.53l.84-.34.56,1.8h2.81v-1.07h-2.7v-1.8Zm2.02-4.83h.67v-.73h-.67v.73Zm0,2.19h.67v-.79h-.67v.79Zm2.7-2.19h.67v-.73h-.67v.73Zm0,2.19h.67v-.79h-.67v.79Z"/><path class="cls-4" d="m203.11,86.07v-10.74h4.44v-2.3h2.14v2.3h4.55v10.68h-1.97v-.56h-7.19v.62h-1.97Zm1.97-6.75h2.47v-2.25h-2.47v2.25Zm0,4.27h2.47v-2.47h-2.47v2.47Zm4.61-4.27h2.58v-2.25h-2.58v2.25Zm0,4.27h2.58v-2.47h-2.58v2.47Z"/><path class="cls-4" d="m217.34,73.65l2.14.45c-.67,2.77-.94,5.42-.79,7.93.11-.41.24-.77.39-1.07l1.12,1.01c-.45,1.05-.82,2.19-1.12,3.43l-1.8.11c-.75-3.48-.73-7.44.06-11.86Zm6.63,7.31c-.11-.86-.17-1.74-.17-2.64l-3.43.06v-1.91c1.12,0,2.25-.02,3.37-.06v-2.87l2.08.06-.11,2.64c.79-.07,1.52-.13,2.19-.17l.06,1.91c-.41.08-1.16.15-2.25.23,0,1.16.07,2.17.22,3.04,1.2.45,2.14.9,2.81,1.35l-.9,1.74c-.75-.52-1.31-.86-1.69-1.01,0,1.24-.64,1.99-1.91,2.25-.64.15-1.27.15-1.91,0-.82-.15-1.39-.47-1.69-.96-.6-.97-.54-1.87.17-2.7.75-.82,1.8-1.14,3.15-.96Zm.17,1.8c-.38-.07-.69-.11-.96-.11-.41,0-.69.11-.84.34-.11.19-.11.38,0,.56.15.19.36.28.62.28.9.04,1.29-.32,1.18-1.07Z"/><path class="cls-4" d="m45.16,109.63c1.31-1.76,2.36-3.75,3.15-5.96-.53.11-1.37.32-2.53.62l-.45-1.97c1.16-.19,2.32-.37,3.49-.56.22-.82.39-1.83.51-3.04l2.19.45-.67,2.36c1.39-.22,2.32.13,2.81,1.07.41.75.51,1.89.28,3.43-.11.9-.3,1.71-.56,2.42-.38,1.05-.84,1.72-1.41,2.02-.49.26-1.26.34-2.3.22l-.45-2.02c.79.04,1.27.04,1.46,0,.26-.07.49-.28.67-.62.34-.64.58-1.33.73-2.08.19-.82.21-1.48.06-1.97-.11-.41-.36-.64-.73-.67-.22,0-.58.02-1.07.06-.79,2.7-1.95,5.17-3.48,7.42l-1.69-1.18Zm8.21-8.66l1.85-.96c.97,1.65,1.84,3.56,2.59,5.73l-1.85.9c-.71-2.36-1.57-4.25-2.59-5.68Z"/><path class="cls-4" d="m58.82,101.7l2.75-.73c.9-.23,1.87-.41,2.92-.56,1.54-.22,2.68-.24,3.43-.06,1.65.45,2.64,1.54,2.98,3.26.22,1.24.02,2.36-.62,3.37-.6.98-1.48,1.76-2.64,2.36-.86.49-2.57.77-5.12.84l-.45-2.14c.6-.04,1.22-.07,1.85-.11.75-.04,1.37-.11,1.85-.22,1.35-.3,2.3-1.05,2.87-2.25.3-.6.34-1.22.11-1.85-.22-.64-.69-1.09-1.41-1.35-.67-.26-1.84-.21-3.48.17-1.5.38-3.02.79-4.55,1.24l-.51-1.97Z"/><path class="cls-4" d="m71.98,100.13c4.46-.22,8.28-.66,11.47-1.29l.34,1.97c-.94.15-1.54.26-1.8.34-.53.15-1.09.43-1.69.84-.82.56-1.52,1.33-2.08,2.3-.67,1.16-.79,2.14-.34,2.92.34.56.9.96,1.69,1.18.34.11,1.03.24,2.08.39l-.62,1.97c-1.05-.19-1.87-.39-2.47-.62-.9-.3-1.61-.75-2.14-1.35-1.01-1.09-1.24-2.38-.67-3.88.49-1.27,1.35-2.4,2.59-3.37-1.2.19-3.22.39-6.07.62l-.28-2.02Z"/><path class="cls-4" d="m88.22,100.8c.26-.34.58-.54.96-.62.6-.08,1.1.13,1.52.62,2.32,2.66,4.55,4.89,6.69,6.69l-1.57,1.91c-1.24-1.27-2.36-2.47-3.37-3.6-.94-1.01-1.82-1.99-2.64-2.92-.23-.26-.41-.26-.56,0-1.16,1.84-2.21,3.28-3.15,4.33l-1.57-1.86c.82-.79,1.52-1.55,2.08-2.3.6-.79,1.14-1.54,1.63-2.25Zm6.63,1.24c-.45.04-.81-.09-1.07-.39-.22-.26-.34-.56-.34-.9,0-.41.09-.73.28-.96.26-.34.62-.51,1.07-.51.41.04.75.19,1.01.45.23.26.34.56.34.9s-.09.64-.28.9c-.26.34-.6.51-1.01.51Zm.39-.96c.11-.11.17-.24.17-.39s-.06-.28-.17-.39-.24-.17-.39-.17-.28.06-.39.17c-.11.11-.17.24-.17.39s.06.28.17.39c.11.11.24.17.39.17s.28-.06.39-.17Z"/><path class="cls-4" d="m97.95,101.81l1.57-.62c.52,1.09.92,2.04,1.18,2.87l-1.57.67c-.38-1.09-.77-2.06-1.18-2.92Zm1.46,7.2c2.17-.82,3.73-1.87,4.67-3.15.79-1.05,1.42-2.68,1.91-4.89l1.97.67c-.6,2.4-1.42,4.25-2.47,5.57-1.12,1.42-2.75,2.58-4.89,3.48l-1.18-1.69Zm1.52-7.7l1.63-.62c.41.9.81,1.82,1.18,2.75l-1.69.56c-.38-1.01-.75-1.91-1.12-2.7Z"/><path class="cls-4" d="m109.41,98.55h2.14v4.78l1.01-1.24c1.24.71,2.81,1.8,4.72,3.26l-1.35,1.69c-2.1-1.65-3.56-2.7-4.38-3.15v6.86h-2.14v-12.2Z"/><path class="cls-4" d="m118.01,105.52c.79-1.12,1.54-2.27,2.25-3.43h-1.46v-1.8h2.53l.9-1.63,2.08.34-.79,1.29c.97-.07,1.99-.17,3.04-.28v1.8c-1.27.11-2.62.21-4.05.28l-.56.79c1.57-.71,2.75-.49,3.54.67.82-.34,1.63-.64,2.42-.9l.73,1.74c-1.01.38-1.97.75-2.87,1.12l-.06,2.02-2.02-.06.06-.96c-.45.22-.75.41-.9.56-.3.26-.47.56-.51.9,0,.3.24.51.73.62.41.08.99.11,1.74.11.86,0,1.93-.09,3.2-.28l-.22,1.97c-1.27.22-2.72.28-4.33.17-.82-.08-1.48-.24-1.97-.51-.79-.41-1.18-1.05-1.18-1.91,0-.67.28-1.31.84-1.91.52-.56,1.29-1.12,2.3-1.69-.11-.22-.34-.34-.67-.34-.3.04-.67.17-1.12.39-.64.34-1.37.99-2.19,1.97l-1.46-1.07Z"/><path class="cls-4" d="m133.86,106.36h1.69c.11,1.09.45,1.78,1.01,2.08.6.3,1.12.32,1.57.06.56-.34.86-.81.9-1.41.07-.82-.17-1.37-.73-1.63-.3-.15-.82-.22-1.57-.22v-1.74c.94,0,1.54-.26,1.8-.79.26-.56.28-1.07.06-1.52-.19-.45-.51-.71-.96-.79-.56-.11-1.01.04-1.35.45s-.54.92-.62,1.52h-1.52c.04-1.24.37-2.17,1.01-2.81.56-.6,1.33-.9,2.3-.9.75,0,1.41.26,1.97.79.52.52.82,1.2.9,2.02.07,1.24-.32,2.14-1.18,2.7.94.22,1.48.97,1.63,2.25.15.97-.09,1.87-.73,2.7-.67.9-1.54,1.35-2.59,1.35s-1.82-.32-2.42-.96c-.79-.79-1.18-1.84-1.18-3.15Z"/><path class="cls-4" d="m156.69,103.11l1.91.67c0,1.35-.06,2.23-.17,2.64-.19.71-.66,1.07-1.41,1.07h-2.36c-.82,0-1.24-.36-1.24-1.07v-6.01h-.84v2.59c0,.94-.17,1.84-.51,2.7-.38.9-.99,1.69-1.85,2.36l-1.52-1.57c.64-.52,1.09-1.05,1.35-1.57.26-.52.39-1.2.39-2.02v-2.47h-1.85v8.15h10.57v1.86h-10.57v.84h-2.08v-12.7h12.2v1.85h-3.26v4.72c0,.26.13.39.39.39h.56c.11,0,.19-.19.22-.56.04-.26.06-.88.06-1.85Z"/><path class="cls-4" d="m163.37,98.05l1.74.28-.06.17c.37.56.96,1.03,1.74,1.41v-1.24h6.29v11.3c0,.86-.47,1.29-1.41,1.29h-1.74l-.51-1.97h1.18c.37,0,.56-.21.56-.62v-8.21h-4.21l-.79,1.35c-.45-.22-.86-.52-1.24-.9v1.01h1.41v5.45h-3.09v1.35l.96-.22-.22-.51,1.57-.56c.56.97,1.01,1.95,1.35,2.92l-1.8.56-.22-.67c-1.27.37-2.64.66-4.1.84l-.39-1.91,1.07-.11v-6.52l-.45.39-.73-1.85c1.16-.67,2.19-1.69,3.09-3.04Zm-1.12,3.88h.84v-.79c-.38.38-.66.64-.84.79Zm1.01,2.08h1.24v-.45h-1.24v.45Zm0,1.74h1.24v-.45h-1.24v.45Zm.17-4.95h1.41c-.3-.3-.54-.56-.73-.79-.08.15-.3.41-.67.79Zm3.37,2.08v-1.57h4.1v1.57h-4.1Zm.17,5.68v-4.89h3.71v4.27h-2.25v.62h-1.46Zm1.46-2.08h.79v-1.41h-.79v1.41Z"/><path class="cls-4" d="m174.84,103.22c1.46-.45,2.66-.77,3.6-.96,1.61-.3,2.83-.32,3.65-.06,1.31.45,2.1,1.35,2.36,2.7.3,1.39-.06,2.55-1.07,3.48-.67.67-1.65,1.12-2.92,1.35-.9.15-1.89.19-2.98.11l-.11-1.69c.9.04,1.69.02,2.36-.06,1.01-.11,1.74-.37,2.19-.79.49-.45.75-1.03.79-1.74.04-.71-.24-1.24-.84-1.57-.75-.41-1.84-.45-3.26-.11-.53.15-1.12.34-1.8.56-.53.19-1.03.38-1.52.56l-.45-1.8Z"/><path class="cls-4" d="m185.58,100.13c4.46-.22,8.28-.66,11.47-1.29l.34,1.97c-.94.15-1.54.26-1.8.34-.53.15-1.09.43-1.69.84-.82.56-1.52,1.33-2.08,2.3-.67,1.16-.79,2.14-.34,2.92.34.56.9.96,1.69,1.18.34.11,1.03.24,2.08.39l-.62,1.97c-1.05-.19-1.87-.39-2.47-.62-.9-.3-1.61-.75-2.14-1.35-1.01-1.09-1.24-2.38-.67-3.88.49-1.27,1.35-2.4,2.59-3.37-1.2.19-3.22.39-6.07.62l-.28-2.02Z"/><path class="cls-4" d="m201.2,99.84c-.26.71-.45,1.48-.56,2.3-.11.71-.19,1.37-.23,1.97-.04.41,0,.99.11,1.74.08.45.17.81.28,1.07.15.34.32.51.51.51.26,0,.52-.3.79-.9l.56-1.24,1.57,1.18c-.22.71-.56,1.42-1.01,2.14-.53.82-1.03,1.33-1.52,1.52-.49.19-.99.04-1.52-.45-.53-.45-.9-.97-1.12-1.57-.86-2.17-.83-5.13.11-8.88l2.02.62Zm5.06,1.24l1.74-.9c1.16,2.06,2,4.25,2.53,6.58l-1.97.73c-.52-2.32-1.29-4.46-2.3-6.41Z"/><path class="cls-4" d="m211.72,109.79c1.24-2.1,2.21-4.31,2.92-6.63-.83.11-1.65.17-2.47.17v-1.85c1.01-.04,1.99-.11,2.92-.23.22-.82.39-1.69.51-2.58l2.08.34c-.11.67-.24,1.33-.39,1.97,1.05-.15,1.84-.28,2.36-.39l.23,1.91c-.94.22-1.99.39-3.15.51-.75,2.81-1.8,5.42-3.15,7.81l-1.85-1.01Zm7.14-2.81c-.38.56-.43.96-.17,1.18.3.26,1.03.36,2.19.28.97-.07,1.78-.17,2.42-.28l.17,1.86c-2.14.37-3.82.45-5.06.22-.97-.19-1.57-.66-1.8-1.41-.22-.75-.08-1.55.45-2.42l1.8.56Zm-.51-3.48c1.57,0,3.15-.04,4.72-.11l.06,1.85c-1.61.04-3.2.06-4.78.06v-1.8Z"/><path class="cls-4" d="m224.64,109.63c1.31-1.76,2.36-3.75,3.15-5.96-.52.11-1.37.32-2.53.62l-.45-1.97c1.16-.19,2.32-.37,3.48-.56.23-.82.39-1.83.51-3.04l2.19.45-.67,2.36c1.39-.22,2.32.13,2.81,1.07.41.75.51,1.89.28,3.43-.11.9-.3,1.71-.56,2.42-.38,1.05-.84,1.72-1.41,2.02-.49.26-1.26.34-2.3.22l-.45-2.02c.79.04,1.27.04,1.46,0,.26-.07.49-.28.67-.62.34-.64.58-1.33.73-2.08.19-.82.21-1.48.06-1.97-.11-.41-.36-.64-.73-.67-.22,0-.58.02-1.07.06-.79,2.7-1.95,5.17-3.48,7.42l-1.69-1.18Zm8.21-8.66l1.85-.96c.97,1.65,1.84,3.56,2.59,5.73l-1.86.9c-.71-2.36-1.57-4.25-2.58-5.68Z"/><path class="cls-4" d="m238.3,106.42c.45-1.72.92-3.47,1.41-5.23l1.97.62c-.26,1.01-.54,1.99-.84,2.92,2.02-1.42,3.92-1.93,5.68-1.52.94.22,1.63.75,2.08,1.57.45.79.54,1.65.28,2.58-.38,1.5-1.74,2.53-4.1,3.09-.97.22-2.44.3-4.38.22l-.45-1.91c2.66.26,4.57.04,5.73-.67.49-.3.82-.64,1.01-1.01.19-.38.21-.73.06-1.07-.34-.75-1.24-1.01-2.7-.79-1.24.26-2.44.94-3.6,2.02l-2.14-.84Zm2.36-6.01l.62-1.8c1.95.34,3.52.75,4.72,1.24l-.84,1.91c-1.24-.52-2.74-.97-4.5-1.35Z"/><path class="cls-4" d="m250.05,100.13c4.46-.22,8.28-.66,11.47-1.29l.34,1.97c-.94.15-1.54.26-1.8.34-.53.15-1.09.43-1.69.84-.82.56-1.52,1.33-2.08,2.3-.67,1.16-.79,2.14-.34,2.92.34.56.9.96,1.69,1.18.34.11,1.03.24,2.08.39l-.62,1.97c-1.05-.19-1.87-.39-2.47-.62-.9-.3-1.61-.75-2.14-1.35-1.01-1.09-1.24-2.38-.67-3.88.49-1.27,1.35-2.4,2.59-3.37-1.2.19-3.22.39-6.07.62l-.28-2.02Zm8.83,2.81l1.12-.51.79,1.52-1.12.56-.79-1.57Zm1.52-.67l1.18-.51.73,1.52-1.07.51-.84-1.52Z"/><path class="cls-4" d="m262.75,100.29c1.72-.04,3.49-.07,5.28-.11l-.06-1.69h2.19l-.06,1.69h4.44v1.85l-4.5-.06.06,1.29c.71.86.94,1.99.67,3.37-.15.79-.49,1.56-1.01,2.3-.6.83-1.33,1.5-2.19,2.02l-1.41-1.46c1.09-.64,1.76-1.24,2.02-1.8-.53.3-1.07.36-1.63.17-.75-.26-1.22-.88-1.41-1.85-.15-.86-.06-1.65.28-2.36.52-1.01,1.42-1.41,2.7-1.18l-.06-.45c-1.87.08-3.65.15-5.34.23v-1.97Zm4.89,3.99c-.49.08-.71.41-.67,1.01s.26.92.67.96c.3.04.52-.06.67-.28.11-.19.17-.43.17-.73s-.08-.54-.22-.73c-.15-.19-.36-.26-.62-.22Z"/><path class="cls-4" d="m277.76,111.2c-.53,0-.99-.21-1.41-.62-.41-.41-.62-.88-.62-1.41s.21-.99.62-1.41c.41-.41.88-.62,1.41-.62s.99.21,1.41.62c.41.41.62.88.62,1.41s-.21.99-.62,1.41c-.41.41-.88.62-1.41.62Zm.62-1.46c.15-.15.22-.34.22-.56s-.08-.41-.22-.56c-.19-.19-.39-.28-.62-.28s-.43.09-.62.28c-.15.15-.22.34-.22.56s.07.41.22.56c.19.19.39.28.62.28s.43-.09.62-.28Z"/></g><g><rect class="cls-1" x="32.97" y="172.95" width="263.22" height="98.43" rx="14.66" ry="14.66"/><g><path class="cls-1" d="m47.57,151.47l1.86.3-.06.18c.4.6,1.02,1.1,1.86,1.5v-1.32h6.72v12.05c0,.92-.5,1.38-1.5,1.38h-1.86l-.54-2.1h1.26c.4,0,.6-.22.6-.66v-8.75h-4.5l-.84,1.44c-.48-.24-.92-.56-1.32-.96v1.08h1.5v5.82h-3.3v1.44l1.02-.24-.24-.54,1.68-.6c.6,1.04,1.08,2.08,1.44,3.12l-1.92.6-.24-.72c-1.36.4-2.82.7-4.38.9l-.42-2.04,1.14-.12v-6.96l-.48.42-.78-1.98c1.24-.72,2.34-1.8,3.3-3.24Zm-1.2,4.14h.9v-.84c-.4.4-.7.68-.9.84Zm1.08,2.22h1.32v-.48h-1.32v.48Zm0,1.86h1.32v-.48h-1.32v.48Zm.18-5.28h1.5c-.32-.32-.58-.6-.78-.84-.08.16-.32.44-.72.84Zm3.6,2.22v-1.68h4.38v1.68h-4.38Zm.18,6.06v-5.22h3.96v4.56h-2.4v.66h-1.56Zm1.56-2.22h.84v-1.5h-.84v1.5Z"/><path class="cls-1" d="m59.8,156.99c1.56-.48,2.84-.82,3.84-1.02,1.72-.32,3.02-.34,3.9-.06,1.4.48,2.24,1.44,2.52,2.88.32,1.48-.06,2.72-1.14,3.72-.72.72-1.76,1.2-3.12,1.44-.96.16-2.02.2-3.18.12l-.12-1.8c.96.04,1.8.02,2.52-.06,1.08-.12,1.86-.4,2.34-.84.52-.48.8-1.1.84-1.86.04-.76-.26-1.32-.9-1.68-.8-.44-1.96-.48-3.48-.12-.56.16-1.2.36-1.92.6-.56.2-1.1.4-1.62.6l-.48-1.92Z"/><path class="cls-1" d="m71.49,164c1.32-2.24,2.36-4.6,3.12-7.08-.88.12-1.76.18-2.64.18v-1.98c1.08-.04,2.12-.12,3.12-.24.24-.88.42-1.8.54-2.76l2.22.36c-.12.72-.26,1.42-.42,2.1,1.12-.16,1.96-.3,2.52-.42l.24,2.04c-1,.24-2.12.42-3.36.54-.8,3-1.92,5.78-3.36,8.33l-1.98-1.08Zm7.61-3c-.4.6-.46,1.02-.18,1.26.32.28,1.1.38,2.34.3,1.04-.08,1.9-.18,2.58-.3l.18,1.98c-2.28.4-4.08.48-5.4.24-1.04-.2-1.68-.7-1.92-1.5-.24-.8-.08-1.66.48-2.58l1.92.6Zm-.54-3.72c1.68,0,3.36-.04,5.04-.12l.06,1.98c-1.72.04-3.42.06-5.1.06v-1.92Z"/><path class="cls-1" d="m91.52,153.57l1.5-2.1,2.04.6-2.04,2.7.6.42,2.22-2.64,1.98.84-3,3.48,1.44-.18-.48-.66,1.62-1.02c.48.68,1.12,1.8,1.92,3.36l-1.62.9-.36-.72-3.72.3-.24.3h3.3l1.5,1.08c-.68,1.04-1.38,1.86-2.1,2.46.84.44,1.96.7,3.36.78l-.9,2.1c-1.56-.12-2.98-.56-4.26-1.32-1.36.76-2.76,1.24-4.2,1.44l-1.2-1.98c.6-.08,1.24-.2,1.92-.36.76-.2,1.26-.4,1.5-.6-.2-.12-.5-.38-.9-.78-.24.36-.66.72-1.26,1.08l-1.32-1.74c1.2-.68,2.04-1.46,2.52-2.34l-2.04.12-.06-1.8-.54.9v7.32h-2.04v-5.16c-.2.24-.44.5-.72.78l-.72-2.34c1.12-.8,2.14-2.04,3.06-3.72l1.74.96c-.08.24-.3.6-.66,1.08l2.64-.06.3-.3-3.18-2.22,1.32-1.74,1.08.78Zm-6.12.6c1.32-.68,2.3-1.56,2.94-2.64l1.68,1.08c-.92,1.48-2.08,2.56-3.48,3.24l-1.14-1.68Zm7.85,6.83c.16.2.46.42.9.66.28-.08.54-.3.78-.66h-1.68Z"/><path class="cls-1" d="m103.81,157.59c-.76-1.4-1.24-3.08-1.44-5.04l2.22-.54c.16,1.92.5,3.46,1.02,4.62,1.52-.72,3.1-1.36,4.74-1.92l.72,1.92c-1.48.4-2.96.96-4.44,1.68-1.76.84-2.84,1.58-3.24,2.22-.44.68-.42,1.28.06,1.8.24.28.68.46,1.32.54.56.08,1.22.08,1.98,0,1.64-.12,3.16-.4,4.56-.84l.36,2.16c-1.44.36-2.78.58-4.02.66-1.8.16-3.2.12-4.2-.12-1.8-.4-2.72-1.36-2.76-2.88-.04-.88.26-1.72.9-2.52.56-.68,1.3-1.26,2.22-1.74Zm4.38-4.86l1.08-.66,1.2,1.62-1.08.72-1.2-1.68Zm1.98-.42l1.02-.66,1.2,1.56-1.02.72-1.2-1.62Z"/><path class="cls-1" d="m113.1,157.05c2.2-.92,3.94-1.48,5.22-1.68,2.12-.32,3.62-.04,4.5.84.76.8,1.12,1.78,1.08,2.94-.04,1.08-.4,2.06-1.08,2.94-1.16,1.52-3.1,2.56-5.82,3.12l-.9-1.92c.92-.12,1.82-.36,2.7-.72,1-.44,1.72-.92,2.16-1.44.52-.6.78-1.32.78-2.16s-.4-1.42-1.2-1.62c-1.48-.32-3.68.26-6.6,1.74l-.84-2.04Zm2.88-3.06l.3-1.98c1.48.32,3.24.58,5.28.78l-.3,1.92c-1.8-.12-3.56-.36-5.28-.72Z"/><path class="cls-1" d="m124.97,153.87c1.84-.04,3.72-.08,5.64-.12l-.06-1.8h2.34l-.06,1.8h4.74v1.98l-4.8-.06.06,1.38c.76.92,1,2.12.72,3.6-.16.84-.52,1.66-1.08,2.46-.64.88-1.42,1.6-2.34,2.16l-1.5-1.56c1.16-.68,1.88-1.32,2.16-1.92-.56.32-1.14.38-1.74.18-.8-.28-1.3-.94-1.5-1.98-.16-.92-.06-1.76.3-2.52.56-1.08,1.52-1.5,2.88-1.26l-.06-.48c-2,.08-3.9.16-5.7.24v-2.1Zm5.22,4.26c-.52.08-.76.44-.72,1.08.04.64.28.98.72,1.02.32.04.56-.06.72-.3.12-.2.18-.46.18-.78s-.08-.58-.24-.78c-.16-.2-.38-.28-.66-.24Z"/><path class="cls-1" d="m138.4,160.46c2.12-1.88,4.18-3.8,6.18-5.76-1.48.24-2.94.42-4.38.54l-.42-2.1c3.08-.24,5.46-.56,7.13-.96l1.2,1.68c-1.16,1.16-2.14,2.14-2.94,2.94.96-.16,1.84-.1,2.64.18.88.28,1.54.82,1.98,1.62.56,1.04.62,2.12.18,3.24-.4,1.08-1.1,1.9-2.1,2.46-.84.48-1.82.74-2.94.78-1.12.04-2.08-.18-2.88-.66-.8-.44-1.14-1.1-1.02-1.98.12-.88.6-1.48,1.44-1.8.96-.36,1.88-.42,2.76-.18.96.24,1.62.8,1.98,1.68.52-.36.82-.84.9-1.44.08-.6-.1-1.12-.54-1.56-.44-.44-1.24-.62-2.4-.54-.76.08-1.44.28-2.04.6-1.28.72-2.4,1.68-3.36,2.88l-1.38-1.62Zm7.07,2.58c-.12-.56-.42-.9-.9-1.02-.36-.08-.7-.06-1.02.06-.32.12-.44.32-.36.6.08.24.36.4.84.48.64.12,1.12.08,1.44-.12Z"/><path class="cls-1" d="m151.47,163.82c1.4-1.88,2.52-4,3.36-6.36-.56.12-1.46.34-2.7.66l-.48-2.1c1.24-.2,2.48-.4,3.72-.6.24-.88.42-1.96.54-3.24l2.34.48-.72,2.52c1.48-.24,2.48.14,3,1.14.44.8.54,2.02.3,3.66-.12.96-.32,1.82-.6,2.58-.4,1.12-.9,1.84-1.5,2.16-.52.28-1.34.36-2.46.24l-.48-2.16c.84.04,1.36.04,1.56,0,.28-.08.52-.3.72-.66.36-.68.62-1.42.78-2.22.2-.88.22-1.58.06-2.1-.12-.44-.38-.68-.78-.72-.24,0-.62.02-1.14.06-.84,2.88-2.08,5.52-3.72,7.92l-1.8-1.26Zm8.75-9.23l1.98-1.02c1.04,1.76,1.96,3.8,2.76,6.12l-1.98.96c-.76-2.52-1.68-4.54-2.76-6.06Z"/></g><g><path class="cls-4" d="m51.85,204.66c-.53.26-1.24.49-2.14.67v1.46h2.14v1.85h-1.97c.9.9,1.52,1.48,1.85,1.74l-.96,2.02c-.26-.26-.62-.67-1.07-1.24v5h-1.91v-4.22c-.08.19-.3.54-.67,1.07-.45.64-.79,1.07-1.01,1.29l-.96-2.14c.41-.34.9-.9,1.46-1.69.56-.79.92-1.41,1.07-1.86h-2.42v-1.85h2.53v-1.07c-.64.11-1.24.19-1.8.22l-.73-1.91c1.8-.04,3.67-.41,5.62-1.12l.96,1.74Zm-1.8,9.11l.96-.06c.71-1.76,1.26-3.48,1.63-5.17.45-1.91.79-3.65,1.01-5.23l2.08.51c-.49,2.36-.94,4.24-1.35,5.62-.49,1.76-.94,3.13-1.35,4.1l2.75-.34c-.26-1.12-.64-2.21-1.12-3.26l1.91-.56c.45,1.2,1.09,3.13,1.91,5.79l-1.97.62-.23-.79-5.73.73-.51-1.97Z"/><path class="cls-4" d="m59.55,214.56c1.31-1.76,2.36-3.75,3.15-5.96-.53.11-1.37.32-2.53.62l-.45-1.97c1.16-.19,2.32-.37,3.49-.56.22-.82.39-1.83.51-3.04l2.19.45-.67,2.36c1.39-.22,2.32.13,2.81,1.07.41.75.51,1.89.28,3.43-.11.9-.3,1.71-.56,2.42-.38,1.05-.84,1.72-1.41,2.02-.49.26-1.26.34-2.3.22l-.45-2.02c.79.04,1.27.04,1.46,0,.26-.07.49-.28.67-.62.34-.64.58-1.33.73-2.08.19-.82.21-1.48.06-1.97-.11-.41-.36-.64-.73-.67-.22,0-.58.02-1.07.06-.79,2.7-1.95,5.17-3.48,7.42l-1.69-1.18Zm8.6-10.17l.96-.73,1.18,1.57-.96.67-1.18-1.52Zm.17,2.42l1.69-1.07c.67,1.01,1.41,2.66,2.19,4.95l-1.85.9c-.64-2.17-1.31-3.77-2.02-4.78Zm1.35-3.15l.96-.67,1.12,1.57-.96.67-1.12-1.57Z"/><path class="cls-4" d="m76.08,202.98l1.74.28-.06.17c.37.56.96,1.03,1.74,1.41v-1.24h6.3v11.3c0,.86-.47,1.29-1.41,1.29h-1.74l-.51-1.97h1.18c.37,0,.56-.21.56-.62v-8.21h-4.22l-.79,1.35c-.45-.22-.86-.52-1.24-.9v1.01h1.41v5.45h-3.09v1.35l.96-.22-.22-.51,1.57-.56c.56.97,1.01,1.95,1.35,2.92l-1.8.56-.22-.67c-1.27.37-2.64.66-4.1.84l-.39-1.91,1.07-.11v-6.52l-.45.39-.73-1.85c1.16-.67,2.19-1.69,3.09-3.04Zm-1.12,3.88h.84v-.79c-.38.38-.66.64-.84.79Zm1.01,2.08h1.24v-.45h-1.24v.45Zm0,1.74h1.24v-.45h-1.24v.45Zm.17-4.95h1.41c-.3-.3-.54-.56-.73-.79-.08.15-.3.41-.67.79Zm3.37,2.08v-1.57h4.1v1.57h-4.1Zm.17,5.68v-4.89h3.71v4.27h-2.25v.62h-1.46Zm1.46-2.08h.79v-1.41h-.79v1.41Z"/><path class="cls-4" d="m87.55,214.5c1.69-1.99,3.37-3.95,5.06-5.9-1.09.3-2.44.54-4.05.73l-.34-2.08c2.66-.15,5.11-.56,7.36-1.24l1.01,1.52c-.97.86-1.87,1.74-2.7,2.64.52,0,.86.19,1.01.56.11.3.13.75.06,1.35-.15,1.12.15,1.67.9,1.63.6-.04,1.5-.21,2.7-.51v2.02c-1.76.38-3.09.51-3.99.39-.9-.15-1.37-.69-1.41-1.63l-.06-1.57c-.04-.45-.23-.64-.56-.56-.26.04-.53.21-.79.51-.82.97-1.72,2.08-2.7,3.32l-1.52-1.18Zm2.3-9.11l.28-1.91c1.5.19,3.11.32,4.83.39l-.17,2.02c-2.02-.15-3.67-.32-4.95-.51Z"/><path class="cls-4" d="m99.41,211.41c1.99-1.76,3.92-3.56,5.79-5.4-1.39.22-2.75.39-4.1.51l-.39-1.97c2.88-.22,5.11-.52,6.69-.9l1.12,1.57c-1.09,1.09-2.01,2-2.75,2.75.9-.15,1.72-.09,2.47.17.82.26,1.44.77,1.85,1.52.52.97.58,1.99.17,3.04-.38,1.01-1.03,1.78-1.97,2.3-.79.45-1.71.69-2.75.73-1.05.04-1.95-.17-2.7-.62-.75-.41-1.07-1.03-.96-1.85s.56-1.39,1.35-1.69c.9-.34,1.76-.39,2.59-.17.9.23,1.52.75,1.85,1.57.49-.34.77-.79.84-1.35.07-.56-.09-1.05-.51-1.46-.41-.41-1.16-.58-2.25-.51-.71.08-1.35.26-1.91.56-1.2.67-2.25,1.57-3.15,2.7l-1.29-1.52Zm6.63,2.42c-.11-.52-.39-.84-.84-.96-.34-.07-.66-.06-.96.06-.3.11-.41.3-.34.56.07.22.34.38.79.45.6.11,1.05.08,1.35-.11Z"/><path class="cls-4" d="m114.64,208.71c-.71-1.31-1.16-2.89-1.35-4.72l2.08-.51c.15,1.8.47,3.24.96,4.33,1.42-.67,2.9-1.27,4.44-1.8l.67,1.8c-1.39.38-2.77.9-4.16,1.57-1.65.79-2.66,1.48-3.04,2.08-.41.64-.39,1.2.06,1.69.22.26.64.43,1.24.51.52.08,1.14.08,1.85,0,1.54-.11,2.96-.37,4.27-.79l.34,2.02c-1.35.34-2.6.54-3.77.62-1.69.15-3,.11-3.93-.11-1.69-.38-2.55-1.27-2.59-2.7-.04-.82.24-1.61.84-2.36.52-.64,1.22-1.18,2.08-1.63Z"/><path class="cls-4" d="m135.89,204.72c-.64.9-1.37,1.65-2.19,2.25h2.64v1.8h-4.67l-1.01.67c.86,0,2.17-.13,3.93-.39l.96,1.63c-1.16.22-3.35.38-6.58.45l-.11.22h6.01l-.39,2.81c-.19,1.31-.88,1.97-2.08,1.97h-2.64l-.62-1.97h2.36c.34,0,.56-.04.67-.11s.19-.23.23-.45l.11-.62h-4.1l-.34,1.24-2.08-.51.73-1.97c-.56.45-1.41.81-2.53,1.07l-1.01-1.97c2.14-.52,3.77-1.22,4.89-2.08h-4.78v-1.8h4.72v-.79h-3.09v-1.8h3.09v-1.29h2.02v1.29h2.87v.51c.3-.26.67-.69,1.12-1.29l1.85,1.12Zm-4.27,1.46h-1.57v.79h.56c.45-.22.79-.49,1.01-.79Z"/><path class="cls-4" d="m137.57,214.5c1.69-1.99,3.37-3.95,5.06-5.9-1.09.3-2.44.54-4.05.73l-.34-2.08c2.66-.15,5.11-.56,7.36-1.24l1.01,1.52c-.97.86-1.87,1.74-2.7,2.64.52,0,.86.19,1.01.56.11.3.13.75.06,1.35-.15,1.12.15,1.67.9,1.63.6-.04,1.5-.21,2.7-.51v2.02c-1.76.38-3.09.51-3.99.39-.9-.15-1.37-.69-1.41-1.63l-.06-1.57c-.04-.45-.23-.64-.56-.56-.26.04-.53.21-.79.51-.82.97-1.72,2.08-2.7,3.32l-1.52-1.18Zm2.3-9.11l.28-1.91c1.5.19,3.11.32,4.83.39l-.17,2.02c-2.02-.15-3.67-.32-4.95-.51Z"/><path class="cls-4" d="m149.38,205.06c4.46-.22,8.28-.66,11.47-1.29l.34,1.97c-.94.15-1.54.26-1.8.34-.53.15-1.09.43-1.69.84-.82.56-1.52,1.33-2.08,2.3-.67,1.16-.79,2.14-.34,2.92.34.56.9.96,1.69,1.18.34.11,1.03.24,2.08.39l-.62,1.97c-1.05-.19-1.87-.39-2.47-.62-.9-.3-1.61-.75-2.14-1.35-1.01-1.09-1.24-2.38-.67-3.88.49-1.27,1.35-2.4,2.59-3.37-1.2.19-3.22.39-6.07.62l-.28-2.02Z"/><path class="cls-4" d="m165,204.78c-.26.71-.45,1.48-.56,2.3-.11.71-.19,1.37-.22,1.97-.04.41,0,.99.11,1.74.07.45.17.81.28,1.07.15.34.32.51.51.51.26,0,.52-.3.79-.9l.56-1.24,1.57,1.18c-.22.71-.56,1.42-1.01,2.14-.53.82-1.03,1.33-1.52,1.52-.49.19-.99.04-1.52-.45-.53-.45-.9-.97-1.12-1.57-.86-2.17-.82-5.13.11-8.88l2.02.62Zm5.06,1.24l1.74-.9c1.16,2.06,2,4.25,2.53,6.58l-1.97.73c-.53-2.32-1.29-4.46-2.3-6.41Z"/><path class="cls-4" d="m175.35,211.41c1.99-1.76,3.92-3.56,5.79-5.4-1.39.22-2.75.39-4.1.51l-.39-1.97c2.88-.22,5.12-.52,6.69-.9l1.12,1.57-2.75,2.75c.9-.15,1.72-.09,2.47.17.82.26,1.44.77,1.85,1.52.52.97.58,1.99.17,3.04-.38,1.01-1.03,1.78-1.97,2.3-.79.45-1.71.69-2.75.73-1.05.04-1.95-.17-2.7-.62-.75-.41-1.07-1.03-.96-1.85.11-.82.56-1.39,1.35-1.69.9-.34,1.76-.39,2.59-.17.9.23,1.52.75,1.85,1.57.49-.34.77-.79.84-1.35.08-.56-.09-1.05-.51-1.46-.41-.41-1.16-.58-2.25-.51-.71.08-1.35.26-1.91.56-1.2.67-2.25,1.57-3.15,2.7l-1.29-1.52Zm6.63,2.42c-.11-.52-.39-.84-.84-.96-.34-.07-.66-.06-.96.06-.3.11-.41.3-.34.56.07.22.34.38.79.45.6.11,1.05.08,1.35-.11Z"/><path class="cls-4" d="m192.6,210.96h2.7v-.79h-2.7v-6.58h7.36v6.58h-2.64v.79h2.7v1.8h-2.7v1.07h3.43v1.86h-8.88v-1.57c-1.57.6-2.81.99-3.71,1.18l-.51-1.97,1.46-.39v-3.09h-1.18v-1.8h1.18v-2.59h-1.35v-1.8h4.44v1.8h-1.12v2.59h1.01v1.8h-1.01v2.53l.84-.34.56,1.8h2.81v-1.07h-2.7v-1.8Zm2.02-4.83h.67v-.73h-.67v.73Zm0,2.19h.67v-.79h-.67v.79Zm2.7-2.19h.67v-.73h-.67v.73Zm0,2.19h.67v-.79h-.67v.79Z"/><path class="cls-4" d="m203.11,216.19v-10.74h4.44v-2.3h2.14v2.3h4.55v10.68h-1.97v-.56h-7.19v.62h-1.97Zm1.97-6.75h2.47v-2.25h-2.47v2.25Zm0,4.27h2.47v-2.47h-2.47v2.47Zm4.61-4.27h2.58v-2.25h-2.58v2.25Zm0,4.27h2.58v-2.47h-2.58v2.47Z"/><path class="cls-4" d="m217.34,203.76l2.14.45c-.67,2.77-.94,5.42-.79,7.93.11-.41.24-.77.39-1.07l1.12,1.01c-.45,1.05-.82,2.19-1.12,3.43l-1.8.11c-.75-3.48-.73-7.44.06-11.86Zm6.63,7.31c-.11-.86-.17-1.74-.17-2.64l-3.43.06v-1.91c1.12,0,2.25-.02,3.37-.06v-2.87l2.08.06-.11,2.64c.79-.07,1.52-.13,2.19-.17l.06,1.91c-.41.08-1.16.15-2.25.23,0,1.16.07,2.17.22,3.04,1.2.45,2.14.9,2.81,1.35l-.9,1.74c-.75-.52-1.31-.86-1.69-1.01,0,1.24-.64,1.99-1.91,2.25-.64.15-1.27.15-1.91,0-.82-.15-1.39-.47-1.69-.96-.6-.97-.54-1.87.17-2.7.75-.82,1.8-1.14,3.15-.96Zm.17,1.8c-.38-.07-.69-.11-.96-.11-.41,0-.69.11-.84.34-.11.19-.11.38,0,.56.15.19.36.28.62.28.9.04,1.29-.32,1.18-1.07Z"/><path class="cls-4" d="m45.16,239.74c1.31-1.76,2.36-3.75,3.15-5.96-.53.11-1.37.32-2.53.62l-.45-1.97c1.16-.19,2.32-.37,3.49-.56.22-.82.39-1.83.51-3.04l2.19.45-.67,2.36c1.39-.22,2.32.13,2.81,1.07.41.75.51,1.89.28,3.43-.11.9-.3,1.71-.56,2.42-.38,1.05-.84,1.72-1.41,2.02-.49.26-1.26.34-2.3.22l-.45-2.02c.79.04,1.27.04,1.46,0,.26-.07.49-.28.67-.62.34-.64.58-1.33.73-2.08.19-.82.21-1.48.06-1.97-.11-.41-.36-.64-.73-.67-.22,0-.58.02-1.07.06-.79,2.7-1.95,5.17-3.48,7.42l-1.69-1.18Zm8.21-8.66l1.85-.96c.97,1.65,1.84,3.56,2.59,5.73l-1.85.9c-.71-2.36-1.57-4.25-2.59-5.68Z"/><path class="cls-4" d="m58.82,231.81l2.75-.73c.9-.23,1.87-.41,2.92-.56,1.54-.22,2.68-.24,3.43-.06,1.65.45,2.64,1.54,2.98,3.26.22,1.24.02,2.36-.62,3.37-.6.98-1.48,1.76-2.64,2.36-.86.49-2.57.77-5.12.84l-.45-2.14c.6-.04,1.22-.07,1.85-.11.75-.04,1.37-.11,1.85-.22,1.35-.3,2.3-1.05,2.87-2.25.3-.6.34-1.22.11-1.85-.22-.64-.69-1.09-1.41-1.35-.67-.26-1.84-.21-3.48.17-1.5.38-3.02.79-4.55,1.24l-.51-1.97Z"/><path class="cls-4" d="m71.98,230.24c4.46-.22,8.28-.66,11.47-1.29l.34,1.97c-.94.15-1.54.26-1.8.34-.53.15-1.09.43-1.69.84-.82.56-1.52,1.33-2.08,2.3-.67,1.16-.79,2.14-.34,2.92.34.56.9.96,1.69,1.18.34.11,1.03.24,2.08.39l-.62,1.97c-1.05-.19-1.87-.39-2.47-.62-.9-.3-1.61-.75-2.14-1.35-1.01-1.09-1.24-2.38-.67-3.88.49-1.27,1.35-2.4,2.59-3.37-1.2.19-3.22.39-6.07.62l-.28-2.02Z"/><path class="cls-4" d="m88.22,230.91c.26-.34.58-.54.96-.62.6-.08,1.1.13,1.52.62,2.32,2.66,4.55,4.89,6.69,6.69l-1.57,1.91c-1.24-1.27-2.36-2.47-3.37-3.6-.94-1.01-1.82-1.99-2.64-2.92-.23-.26-.41-.26-.56,0-1.16,1.84-2.21,3.28-3.15,4.33l-1.57-1.86c.82-.79,1.52-1.55,2.08-2.3.6-.79,1.14-1.54,1.63-2.25Zm6.63,1.24c-.45.04-.81-.09-1.07-.39-.22-.26-.34-.56-.34-.9,0-.41.09-.73.28-.96.26-.34.62-.51,1.07-.51.41.04.75.19,1.01.45.23.26.34.56.34.9s-.09.64-.28.9c-.26.34-.6.51-1.01.51Zm.39-.96c.11-.11.17-.24.17-.39s-.06-.28-.17-.39-.24-.17-.39-.17-.28.06-.39.17c-.11.11-.17.24-.17.39s.06.28.17.39c.11.11.24.17.39.17s.28-.06.39-.17Z"/><path class="cls-4" d="m97.95,231.92l1.57-.62c.52,1.09.92,2.04,1.18,2.87l-1.57.67c-.38-1.09-.77-2.06-1.18-2.92Zm1.46,7.2c2.17-.82,3.73-1.87,4.67-3.15.79-1.05,1.42-2.68,1.91-4.89l1.97.67c-.6,2.4-1.42,4.25-2.47,5.57-1.12,1.42-2.75,2.58-4.89,3.48l-1.18-1.69Zm1.52-7.7l1.63-.62c.41.9.81,1.82,1.18,2.75l-1.69.56c-.38-1.01-.75-1.91-1.12-2.7Z"/><path class="cls-4" d="m109.41,228.66h2.14v4.78l1.01-1.24c1.24.71,2.81,1.8,4.72,3.26l-1.35,1.69c-2.1-1.65-3.56-2.7-4.38-3.15v6.86h-2.14v-12.2Z"/><path class="cls-4" d="m118.01,235.63c.79-1.12,1.54-2.27,2.25-3.43h-1.46v-1.8h2.53l.9-1.63,2.08.34-.79,1.29c.97-.07,1.99-.17,3.04-.28v1.8c-1.27.11-2.62.21-4.05.28l-.56.79c1.57-.71,2.75-.49,3.54.67.82-.34,1.63-.64,2.42-.9l.73,1.74c-1.01.38-1.97.75-2.87,1.12l-.06,2.02-2.02-.06.06-.96c-.45.22-.75.41-.9.56-.3.26-.47.56-.51.9,0,.3.24.51.73.62.41.08.99.11,1.74.11.86,0,1.93-.09,3.2-.28l-.22,1.97c-1.27.22-2.72.28-4.33.17-.82-.08-1.48-.24-1.97-.51-.79-.41-1.18-1.05-1.18-1.91,0-.67.28-1.31.84-1.91.52-.56,1.29-1.12,2.3-1.69-.11-.22-.34-.34-.67-.34-.3.04-.67.17-1.12.39-.64.34-1.37.99-2.19,1.97l-1.46-1.07Z"/><path class="cls-4" d="m133.86,236.48h1.69c.11,1.09.45,1.78,1.01,2.08.6.3,1.12.32,1.57.06.56-.34.86-.81.9-1.41.07-.82-.17-1.37-.73-1.63-.3-.15-.82-.22-1.57-.22v-1.74c.94,0,1.54-.26,1.8-.79.26-.56.28-1.07.06-1.52-.19-.45-.51-.71-.96-.79-.56-.11-1.01.04-1.35.45s-.54.92-.62,1.52h-1.52c.04-1.24.37-2.17,1.01-2.81.56-.6,1.33-.9,2.3-.9.75,0,1.41.26,1.97.79.52.52.82,1.2.9,2.02.07,1.24-.32,2.14-1.18,2.7.94.22,1.48.97,1.63,2.25.15.97-.09,1.87-.73,2.7-.67.9-1.54,1.35-2.59,1.35s-1.82-.32-2.42-.96c-.79-.79-1.18-1.84-1.18-3.15Z"/><path class="cls-4" d="m156.69,233.22l1.91.67c0,1.35-.06,2.23-.17,2.64-.19.71-.66,1.07-1.41,1.07h-2.36c-.82,0-1.24-.36-1.24-1.07v-6.01h-.84v2.59c0,.94-.17,1.84-.51,2.7-.38.9-.99,1.69-1.85,2.36l-1.52-1.57c.64-.52,1.09-1.05,1.35-1.57.26-.52.39-1.2.39-2.02v-2.47h-1.85v8.15h10.57v1.86h-10.57v.84h-2.08v-12.7h12.2v1.85h-3.26v4.72c0,.26.13.39.39.39h.56c.11,0,.19-.19.22-.56.04-.26.06-.88.06-1.85Z"/><path class="cls-4" d="m163.37,228.16l1.74.28-.06.17c.37.56.96,1.03,1.74,1.41v-1.24h6.29v11.3c0,.86-.47,1.29-1.41,1.29h-1.74l-.51-1.97h1.18c.37,0,.56-.21.56-.62v-8.21h-4.21l-.79,1.35c-.45-.22-.86-.52-1.24-.9v1.01h1.41v5.45h-3.09v1.35l.96-.22-.22-.51,1.57-.56c.56.97,1.01,1.95,1.35,2.92l-1.8.56-.22-.67c-1.27.37-2.64.66-4.1.84l-.39-1.91,1.07-.11v-6.52l-.45.39-.73-1.85c1.16-.67,2.19-1.69,3.09-3.04Zm-1.12,3.88h.84v-.79c-.38.38-.66.64-.84.79Zm1.01,2.08h1.24v-.45h-1.24v.45Zm0,1.74h1.24v-.45h-1.24v.45Zm.17-4.95h1.41c-.3-.3-.54-.56-.73-.79-.08.15-.3.41-.67.79Zm3.37,2.08v-1.57h4.1v1.57h-4.1Zm.17,5.68v-4.89h3.71v4.27h-2.25v.62h-1.46Zm1.46-2.08h.79v-1.41h-.79v1.41Z"/><path class="cls-4" d="m174.84,233.33c1.46-.45,2.66-.77,3.6-.96,1.61-.3,2.83-.32,3.65-.06,1.31.45,2.1,1.35,2.36,2.7.3,1.39-.06,2.55-1.07,3.48-.67.67-1.65,1.12-2.92,1.35-.9.15-1.89.19-2.98.11l-.11-1.69c.9.04,1.69.02,2.36-.06,1.01-.11,1.74-.37,2.19-.79.49-.45.75-1.03.79-1.74.04-.71-.24-1.24-.84-1.57-.75-.41-1.84-.45-3.26-.11-.53.15-1.12.34-1.8.56-.53.19-1.03.38-1.52.56l-.45-1.8Z"/><path class="cls-4" d="m185.58,230.24c4.46-.22,8.28-.66,11.47-1.29l.34,1.97c-.94.15-1.54.26-1.8.34-.53.15-1.09.43-1.69.84-.82.56-1.52,1.33-2.08,2.3-.67,1.16-.79,2.14-.34,2.92.34.56.9.96,1.69,1.18.34.11,1.03.24,2.08.39l-.62,1.97c-1.05-.19-1.87-.39-2.47-.62-.9-.3-1.61-.75-2.14-1.35-1.01-1.09-1.24-2.38-.67-3.88.49-1.27,1.35-2.4,2.59-3.37-1.2.19-3.22.39-6.07.62l-.28-2.02Z"/><path class="cls-4" d="m201.2,229.96c-.26.71-.45,1.48-.56,2.3-.11.71-.19,1.37-.23,1.97-.04.41,0,.99.11,1.74.08.45.17.81.28,1.07.15.34.32.51.51.51.26,0,.52-.3.79-.9l.56-1.24,1.57,1.18c-.22.71-.56,1.42-1.01,2.14-.53.82-1.03,1.33-1.52,1.52-.49.19-.99.04-1.52-.45-.53-.45-.9-.97-1.12-1.57-.86-2.17-.83-5.13.11-8.88l2.02.62Zm5.06,1.24l1.74-.9c1.16,2.06,2,4.25,2.53,6.58l-1.97.73c-.52-2.32-1.29-4.46-2.3-6.41Z"/><path class="cls-4" d="m211.72,239.91c1.24-2.1,2.21-4.31,2.92-6.63-.83.11-1.65.17-2.47.17v-1.85c1.01-.04,1.99-.11,2.92-.23.22-.82.39-1.69.51-2.58l2.08.34c-.11.67-.24,1.33-.39,1.97,1.05-.15,1.84-.28,2.36-.39l.23,1.91c-.94.22-1.99.39-3.15.51-.75,2.81-1.8,5.42-3.15,7.81l-1.85-1.01Zm7.14-2.81c-.38.56-.43.96-.17,1.18.3.26,1.03.36,2.19.28.97-.07,1.78-.17,2.42-.28l.17,1.86c-2.14.37-3.82.45-5.06.22-.97-.19-1.57-.66-1.8-1.41-.22-.75-.08-1.55.45-2.42l1.8.56Zm-.51-3.48c1.57,0,3.15-.04,4.72-.11l.06,1.85c-1.61.04-3.2.06-4.78.06v-1.8Z"/><path class="cls-4" d="m224.64,239.74c1.31-1.76,2.36-3.75,3.15-5.96-.52.11-1.37.32-2.53.62l-.45-1.97c1.16-.19,2.32-.37,3.48-.56.23-.82.39-1.83.51-3.04l2.19.45-.67,2.36c1.39-.22,2.32.13,2.81,1.07.41.75.51,1.89.28,3.43-.11.9-.3,1.71-.56,2.42-.38,1.05-.84,1.72-1.41,2.02-.49.26-1.26.34-2.3.22l-.45-2.02c.79.04,1.27.04,1.46,0,.26-.07.49-.28.67-.62.34-.64.58-1.33.73-2.08.19-.82.21-1.48.06-1.97-.11-.41-.36-.64-.73-.67-.22,0-.58.02-1.07.06-.79,2.7-1.95,5.17-3.48,7.42l-1.69-1.18Zm8.21-8.66l1.85-.96c.97,1.65,1.84,3.56,2.59,5.73l-1.86.9c-.71-2.36-1.57-4.25-2.58-5.68Z"/><path class="cls-4" d="m238.3,236.53c.45-1.72.92-3.47,1.41-5.23l1.97.62c-.26,1.01-.54,1.99-.84,2.92,2.02-1.42,3.92-1.93,5.68-1.52.94.22,1.63.75,2.08,1.57.45.79.54,1.65.28,2.58-.38,1.5-1.74,2.53-4.1,3.09-.97.22-2.44.3-4.38.22l-.45-1.91c2.66.26,4.57.04,5.73-.67.49-.3.82-.64,1.01-1.01.19-.38.21-.73.06-1.07-.34-.75-1.24-1.01-2.7-.79-1.24.26-2.44.94-3.6,2.02l-2.14-.84Zm2.36-6.01l.62-1.8c1.95.34,3.52.75,4.72,1.24l-.84,1.91c-1.24-.52-2.74-.97-4.5-1.35Z"/><path class="cls-4" d="m250.05,230.24c4.46-.22,8.28-.66,11.47-1.29l.34,1.97c-.94.15-1.54.26-1.8.34-.53.15-1.09.43-1.69.84-.82.56-1.52,1.33-2.08,2.3-.67,1.16-.79,2.14-.34,2.92.34.56.9.96,1.69,1.18.34.11,1.03.24,2.08.39l-.62,1.97c-1.05-.19-1.87-.39-2.47-.62-.9-.3-1.61-.75-2.14-1.35-1.01-1.09-1.24-2.38-.67-3.88.49-1.27,1.35-2.4,2.59-3.37-1.2.19-3.22.39-6.07.62l-.28-2.02Zm8.83,2.81l1.12-.51.79,1.52-1.12.56-.79-1.57Zm1.52-.67l1.18-.51.73,1.52-1.07.51-.84-1.52Z"/><path class="cls-4" d="m262.75,230.41c1.72-.04,3.49-.07,5.28-.11l-.06-1.69h2.19l-.06,1.69h4.44v1.85l-4.5-.06.06,1.29c.71.86.94,1.99.67,3.37-.15.79-.49,1.56-1.01,2.3-.6.83-1.33,1.5-2.19,2.02l-1.41-1.46c1.09-.64,1.76-1.24,2.02-1.8-.53.3-1.07.36-1.63.17-.75-.26-1.22-.88-1.41-1.85-.15-.86-.06-1.65.28-2.36.52-1.01,1.42-1.41,2.7-1.18l-.06-.45c-1.87.08-3.65.15-5.34.23v-1.97Zm4.89,3.99c-.49.08-.71.41-.67,1.01s.26.92.67.96c.3.04.52-.06.67-.28.11-.19.17-.43.17-.73s-.08-.54-.22-.73c-.15-.19-.36-.26-.62-.22Z"/><path class="cls-4" d="m277.76,241.31c-.53,0-.99-.21-1.41-.62-.41-.41-.62-.88-.62-1.41s.21-.99.62-1.41c.41-.41.88-.62,1.41-.62s.99.21,1.41.62c.41.41.62.88.62,1.41s-.21.99-.62,1.41c-.41.41-.88.62-1.41.62Zm.62-1.46c.15-.15.22-.34.22-.56s-.08-.41-.22-.56c-.19-.19-.39-.28-.62-.28s-.43.09-.62.28c-.15.15-.22.34-.22.56s.07.41.22.56c.19.19.39.28.62.28s.43-.09.62-.28Z"/></g></g></g></g></svg>