<?xml version="1.0" encoding="UTF-8"?><svg id="_レイヤー_2" xmlns="http://www.w3.org/2000/svg" viewBox="0 0 329.17 329.17"><defs><style>.cls-1,.cls-2{fill:#fff;}.cls-2{stroke:#000;stroke-miterlimit:10;}.cls-3{fill:#ff52ad;}.cls-4{fill:none;stroke:#fff;stroke-linecap:round;stroke-linejoin:round;stroke-width:3px;}</style></defs><g id="_使い方"><g><rect class="cls-3" width="329.17" height="329.17" rx="46.32" ry="46.32"/><polygon class="cls-1" points="31.01 91.55 13.43 108.68 45.46 108.68 31.01 91.55"/><rect class="cls-1" x="28.25" y="34.72" width="237.11" height="73.96" rx="18.03" ry="18.03"/><g><g><path class="cls-2" d="m42.27,69h5.48v-.28h-3.73v-2.88h3.73v-.62h2.09v.56h3.67v2.94h-3.67v.28h5.36v1.47h-12.93v-1.47Zm3.39,7.11h-1.41v-5.31h9.09v5.31h-1.35c.53.23,1.62.43,3.27.62l-.96,1.92c-1.77-.19-3.27-.68-4.52-1.47l1.07-1.07h-3.95l.96,1.07c-1.13.75-2.35,1.22-3.67,1.41l-1.58-1.86c1.47-.11,2.48-.32,3.05-.62Zm.4-9.03v.4h1.69v-.4h-1.69Zm.17,5.25h5.14v-.34h-5.14v.34Zm0,1.3h5.14v-.34h-5.14v.34Zm0,1.36h5.14v-.34h-5.14v.34Zm5.25-7.51v-.4h-1.64v.4h1.64Z"/><path class="cls-2" d="m66.15,78.32h-2.71l-.56-1.98h2.26c.45,0,.71-.28.79-.85l.34-3.11h-4.23c-.04,1.28-.38,2.43-1.02,3.44-.72,1.17-1.68,2.07-2.88,2.71l-1.41-1.81c.71-.38,1.35-.87,1.92-1.47.53-.53.9-1.11,1.13-1.75.3-.79.45-2.24.45-4.35h-3.5v-1.86h5.42v-2.03h2.09v2.03h5.42v1.86h-7.45v1.41h6.21l-.28,3.56-.28,2.37c-.08.56-.25,1-.51,1.3-.3.34-.7.51-1.19.51Z"/><path class="cls-2" d="m71.06,75.1c1.09-1.69,1.92-3.42,2.48-5.19-.87.11-1.51.17-1.92.17l-.17-1.98c.83,0,1.69-.06,2.6-.17.15-.41.32-1.13.51-2.15l2.09.4c-.11.53-.26,1.04-.45,1.52.45-.04,1-.13,1.64-.28l.23,1.92c-.79.15-1.56.26-2.32.34-.72,2.3-1.67,4.44-2.88,6.44l-1.81-1.02Zm6.55-1.3c-.04-1.28.19-2.31.68-3.11l1.69.85c-.45.75-.58,1.62-.4,2.6,1.09.38,2.05.85,2.88,1.41l-1.02,1.47c-.83-.6-1.47-.98-1.92-1.13.11,1.13-.42,1.81-1.58,2.03-.75.15-1.45.15-2.09,0-.83-.19-1.39-.56-1.69-1.13-.49-.94-.38-1.73.34-2.37.71-.64,1.75-.85,3.11-.62Zm.11,1.58c-.38-.08-.72-.11-1.02-.11-.45-.04-.73.04-.85.23-.23.34-.11.58.34.73.41.15.79.17,1.13.06.34-.11.47-.41.4-.9Zm.62-5.59l1.02-1.64c1.54.68,2.65,1.22,3.33,1.64l-1.07,1.75c-1.43-.83-2.52-1.41-3.27-1.75Z"/><path class="cls-2" d="m83.83,73.58c.45-1.73.92-3.48,1.41-5.25l1.98.62c-.26,1.02-.55,2-.85,2.94,2.03-1.43,3.93-1.94,5.7-1.52.94.23,1.64.75,2.09,1.58.45.79.54,1.66.28,2.6-.38,1.51-1.75,2.54-4.12,3.11-.98.23-2.45.3-4.4.23l-.45-1.92c2.67.26,4.59.04,5.76-.68.49-.3.83-.64,1.02-1.02.19-.38.21-.73.06-1.07-.34-.75-1.24-1.02-2.71-.79-1.24.26-2.45.94-3.61,2.03l-2.15-.85Zm2.37-6.04l.62-1.81c1.96.34,3.54.75,4.74,1.24l-.85,1.92c-1.24-.53-2.75-.98-4.52-1.36Z"/><path class="cls-2" d="m96.36,65.62l2.15.17c-.11,1.17-.19,2.33-.23,3.5-.04,1.21-.08,2.39-.11,3.56v1.13c0,.53.08.92.23,1.19.19.42.62.62,1.3.62.56,0,1.09-.13,1.58-.4,1.28-.64,2.33-1.88,3.16-3.73l1.64,1.41c-.9,1.66-2.09,2.94-3.56,3.84-1.62,1.02-3.2,1.28-4.74.79-.64-.19-1.07-.55-1.3-1.07-.23-.49-.34-1.19-.34-2.09.04-2.94.11-5.91.23-8.92Z"/><path class="cls-2" d="m107.14,70.36c1.47-.45,2.67-.77,3.61-.96,1.62-.3,2.84-.32,3.67-.06,1.32.45,2.11,1.35,2.37,2.71.3,1.39-.06,2.56-1.07,3.5-.68.68-1.66,1.13-2.94,1.35-.9.15-1.9.19-2.99.11l-.11-1.69c.9.04,1.69.02,2.37-.06,1.02-.11,1.75-.38,2.2-.79.49-.45.75-1.04.79-1.75.04-.71-.25-1.24-.85-1.58-.75-.41-1.84-.45-3.28-.11-.53.15-1.13.34-1.81.56-.53.19-1.04.38-1.52.57l-.45-1.81Z"/><path class="cls-2" d="m118.1,76.8c1.32-1.77,2.37-3.76,3.16-5.99-.53.11-1.37.32-2.54.62l-.45-1.98c1.17-.19,2.33-.38,3.5-.56.23-.83.39-1.84.51-3.05l2.2.45-.68,2.37c1.39-.23,2.33.13,2.82,1.07.41.75.51,1.9.28,3.44-.11.9-.3,1.71-.56,2.43-.38,1.05-.85,1.73-1.41,2.03-.49.26-1.26.34-2.31.23l-.45-2.03c.79.04,1.28.04,1.47,0,.26-.08.49-.28.68-.62.34-.64.58-1.34.73-2.09.19-.83.21-1.49.06-1.98-.11-.41-.36-.64-.73-.68-.23,0-.58.02-1.07.06-.79,2.71-1.96,5.19-3.5,7.45l-1.69-1.19Zm8.24-8.7l1.86-.96c.98,1.66,1.84,3.58,2.6,5.76l-1.86.9c-.72-2.37-1.58-4.27-2.6-5.7Z"/><path class="cls-2" d="m132.61,65.73l1.98.4c-.64,2.22-.9,4.1-.79,5.65.26-.68.53-1.3.79-1.86l1.36.85c-.72,1.43-1.22,2.6-1.52,3.5l-1.86.4c-.53-1.58-.73-3.22-.62-4.91.08-1.09.3-2.43.68-4.01Zm2.43,10.62c2.07-.68,3.26-2.03,3.56-4.07.26-1.96.21-4.14-.17-6.55h2.15c.26,2.52.32,4.57.17,6.15-.15,1.47-.57,2.73-1.24,3.78-.79,1.17-1.83,1.98-3.11,2.43l-1.36-1.75Z"/><path class="cls-2" d="m145.26,65.16l1.75.28-.06.17c.38.56.96,1.04,1.75,1.41v-1.24h6.32v11.35c0,.87-.47,1.3-1.41,1.3h-1.75l-.51-1.98h1.19c.38,0,.57-.21.57-.62v-8.24h-4.24l-.79,1.36c-.45-.23-.87-.53-1.24-.9v1.02h1.41v5.48h-3.11v1.36l.96-.23-.23-.51,1.58-.56c.56.98,1.02,1.96,1.35,2.94l-1.81.57-.23-.68c-1.28.38-2.65.66-4.12.85l-.4-1.92,1.07-.11v-6.55l-.45.39-.73-1.86c1.17-.68,2.2-1.69,3.11-3.05Zm-1.13,3.9h.85v-.79c-.38.38-.66.64-.85.79Zm1.02,2.09h1.24v-.45h-1.24v.45Zm0,1.75h1.24v-.45h-1.24v.45Zm.17-4.97h1.41c-.3-.3-.55-.56-.73-.79-.08.15-.3.41-.68.79Zm3.39,2.09v-1.58h4.12v1.58h-4.12Zm.17,5.7v-4.91h3.73v4.29h-2.26v.62h-1.47Zm1.47-2.09h.79v-1.41h-.79v1.41Z"/><path class="cls-2" d="m156.78,70.36c1.47-.45,2.67-.77,3.61-.96,1.62-.3,2.84-.32,3.67-.06,1.32.45,2.11,1.35,2.37,2.71.3,1.39-.06,2.56-1.07,3.5-.68.68-1.66,1.13-2.94,1.35-.9.15-1.9.19-2.99.11l-.11-1.69c.9.04,1.69.02,2.37-.06,1.02-.11,1.75-.38,2.2-.79.49-.45.75-1.04.79-1.75.04-.71-.25-1.24-.85-1.58-.75-.41-1.84-.45-3.28-.11-.53.15-1.13.34-1.81.56-.53.19-1.04.38-1.52.57l-.45-1.81Z"/><path class="cls-2" d="m167.56,67.25c4.48-.23,8.32-.66,11.52-1.3l.34,1.98c-.94.15-1.54.26-1.81.34-.53.15-1.09.43-1.69.85-.83.57-1.52,1.34-2.09,2.32-.68,1.17-.79,2.15-.34,2.94.34.56.9.96,1.69,1.19.34.11,1.04.25,2.09.39l-.62,1.98c-1.05-.19-1.88-.4-2.48-.62-.9-.3-1.62-.75-2.15-1.36-1.02-1.09-1.24-2.39-.68-3.9.49-1.28,1.35-2.41,2.6-3.39-1.21.19-3.24.4-6.1.62l-.28-2.03Z"/><path class="cls-2" d="m188.74,66.52c-2.07,1.88-3.84,3.35-5.31,4.4-.23.15-.32.28-.28.39.04.08.13.19.28.34,1.84,1.36,3.63,2.9,5.36,4.63l-1.58,1.69c-1.02-1.17-1.92-2.11-2.71-2.82-1.05-.94-2.2-1.84-3.44-2.71-.56-.38-.85-.71-.85-1.02,0-.34.17-.64.51-.9.9-.71,1.88-1.49,2.94-2.32,1.47-1.17,2.65-2.22,3.56-3.16l1.52,1.47Z"/><path class="cls-2" d="m189.87,75.16l2.71-3.56v-.73l-2.15.68-.4-2.03,2.54-.68.06-3.05,2.03.11c-.08.98-.11,1.79-.11,2.43l.45-.17.45.79.9-.68c.9-.68,1.69-.9,2.37-.68,1.02.34,1.47,1.3,1.36,2.88l-.28,3.78c-.04.53.23.64.79.34.41-.19.77-.43,1.07-.73l.85,1.81c-.6.53-1.13.92-1.58,1.19-.79.49-1.47.66-2.03.51-.9-.26-1.3-1.19-1.19-2.77l.17-2.37c.04-.49.08-.94.11-1.35,0-.41-.11-.66-.34-.73-.19-.04-.42.02-.68.17-.26.15-.6.41-1.02.79-.56.49-1.05.96-1.47,1.41.04,1.85.08,3.69.11,5.53l-1.98.06-.06-3.5-1.36,1.98-1.35-1.41Z"/><path class="cls-2" d="m203.08,70.58c1.13-.11,2.26-.25,3.39-.4l2.71-2.32c-1.24.15-2.47.28-3.67.4l-.28-1.98c2.11-.11,4.38-.32,6.83-.62l.68,1.69-2.94,2.48c1.62-.23,3.22-.47,4.8-.73l.28,1.92-1.92.23c-.83.11-1.58.42-2.26.9-.68.53-1.13,1.15-1.35,1.86-.3,1.02.04,1.66,1.02,1.92.56.15,1.47.17,2.71.06l-.28,1.92c-1.51.08-2.52.08-3.05,0-1.02-.15-1.77-.62-2.26-1.41-.42-.64-.53-1.43-.34-2.37.19-.9.6-1.66,1.24-2.26l-4.97.73-.34-2.03Z"/><path class="cls-2" d="m215.84,70.41c2.07-.87,3.71-1.39,4.91-1.58,2-.3,3.41-.04,4.24.79.71.75,1.05,1.67,1.02,2.77-.04,1.02-.38,1.94-1.02,2.77-1.09,1.43-2.92,2.41-5.48,2.94l-.85-1.81c.87-.11,1.71-.34,2.54-.68.94-.41,1.62-.87,2.03-1.36.49-.56.73-1.24.73-2.03s-.38-1.33-1.13-1.52c-1.39-.3-3.46.25-6.21,1.64l-.79-1.92Zm2.71-2.88l.28-1.86c1.39.3,3.05.55,4.97.73l-.28,1.81c-1.69-.11-3.35-.34-4.97-.68Z"/><path class="cls-2" d="m227.02,67.25c4.48-.23,8.32-.66,11.52-1.3l.34,1.98c-.94.15-1.54.26-1.81.34-.53.15-1.09.43-1.69.85-.83.57-1.52,1.34-2.09,2.32-.68,1.17-.79,2.15-.34,2.94.34.56.9.96,1.69,1.19.34.11,1.04.25,2.09.39l-.62,1.98c-1.05-.19-1.88-.4-2.48-.62-.9-.3-1.62-.75-2.15-1.36-1.02-1.09-1.24-2.39-.68-3.9.49-1.28,1.35-2.41,2.6-3.39-1.21.19-3.24.4-6.1.62l-.28-2.03Zm8.87,2.82l1.13-.51.79,1.52-1.13.56-.79-1.58Zm1.52-.68l1.19-.51.73,1.52-1.07.51-.85-1.53Z"/><path class="cls-2" d="m239.78,67.42c1.73-.04,3.5-.08,5.31-.11l-.06-1.69h2.2l-.06,1.69h4.46v1.86l-4.52-.06.06,1.3c.71.87.94,2,.68,3.39-.15.79-.49,1.56-1.02,2.32-.6.83-1.34,1.5-2.2,2.03l-1.41-1.47c1.09-.64,1.77-1.24,2.03-1.81-.53.3-1.07.36-1.64.17-.75-.26-1.22-.88-1.41-1.86-.15-.87-.06-1.66.28-2.37.53-1.02,1.43-1.41,2.71-1.19l-.06-.45c-1.88.08-3.67.15-5.36.23v-1.98Zm4.91,4.01c-.49.08-.72.42-.68,1.02.04.6.26.92.68.96.3.04.53-.06.68-.28.11-.19.17-.43.17-.73s-.08-.54-.23-.73c-.15-.19-.36-.26-.62-.23Z"/></g><g><path class="cls-4" d="m42.27,69h5.48v-.28h-3.73v-2.88h3.73v-.62h2.09v.56h3.67v2.94h-3.67v.28h5.36v1.47h-12.93v-1.47Zm3.39,7.11h-1.41v-5.31h9.09v5.31h-1.35c.53.23,1.62.43,3.27.62l-.96,1.92c-1.77-.19-3.27-.68-4.52-1.47l1.07-1.07h-3.95l.96,1.07c-1.13.75-2.35,1.22-3.67,1.41l-1.58-1.86c1.47-.11,2.48-.32,3.05-.62Zm.4-9.03v.4h1.69v-.4h-1.69Zm.17,5.25h5.14v-.34h-5.14v.34Zm0,1.3h5.14v-.34h-5.14v.34Zm0,1.36h5.14v-.34h-5.14v.34Zm5.25-7.51v-.4h-1.64v.4h1.64Z"/><path class="cls-4" d="m66.15,78.32h-2.71l-.56-1.98h2.26c.45,0,.71-.28.79-.85l.34-3.11h-4.23c-.04,1.28-.38,2.43-1.02,3.44-.72,1.17-1.68,2.07-2.88,2.71l-1.41-1.81c.71-.38,1.35-.87,1.92-1.47.53-.53.9-1.11,1.13-1.75.3-.79.45-2.24.45-4.35h-3.5v-1.86h5.42v-2.03h2.09v2.03h5.42v1.86h-7.45v1.41h6.21l-.28,3.56-.28,2.37c-.08.56-.25,1-.51,1.3-.3.34-.7.51-1.19.51Z"/><path class="cls-4" d="m71.06,75.1c1.09-1.69,1.92-3.42,2.48-5.19-.87.11-1.51.17-1.92.17l-.17-1.98c.83,0,1.69-.06,2.6-.17.15-.41.32-1.13.51-2.15l2.09.4c-.11.53-.26,1.04-.45,1.52.45-.04,1-.13,1.64-.28l.23,1.92c-.79.15-1.56.26-2.32.34-.72,2.3-1.67,4.44-2.88,6.44l-1.81-1.02Zm6.55-1.3c-.04-1.28.19-2.31.68-3.11l1.69.85c-.45.75-.58,1.62-.4,2.6,1.09.38,2.05.85,2.88,1.41l-1.02,1.47c-.83-.6-1.47-.98-1.92-1.13.11,1.13-.42,1.81-1.58,2.03-.75.15-1.45.15-2.09,0-.83-.19-1.39-.56-1.69-1.13-.49-.94-.38-1.73.34-2.37.71-.64,1.75-.85,3.11-.62Zm.11,1.58c-.38-.08-.72-.11-1.02-.11-.45-.04-.73.04-.85.23-.23.34-.11.58.34.73.41.15.79.17,1.13.06.34-.11.47-.41.4-.9Zm.62-5.59l1.02-1.64c1.54.68,2.65,1.22,3.33,1.64l-1.07,1.75c-1.43-.83-2.52-1.41-3.27-1.75Z"/><path class="cls-4" d="m83.83,73.58c.45-1.73.92-3.48,1.41-5.25l1.98.62c-.26,1.02-.55,2-.85,2.94,2.03-1.43,3.93-1.94,5.7-1.52.94.23,1.64.75,2.09,1.58.45.79.54,1.66.28,2.6-.38,1.51-1.75,2.54-4.12,3.11-.98.23-2.45.3-4.4.23l-.45-1.92c2.67.26,4.59.04,5.76-.68.49-.3.83-.64,1.02-1.02.19-.38.21-.73.06-1.07-.34-.75-1.24-1.02-2.71-.79-1.24.26-2.45.94-3.61,2.03l-2.15-.85Zm2.37-6.04l.62-1.81c1.96.34,3.54.75,4.74,1.24l-.85,1.92c-1.24-.53-2.75-.98-4.52-1.36Z"/><path class="cls-4" d="m96.36,65.62l2.15.17c-.11,1.17-.19,2.33-.23,3.5-.04,1.21-.08,2.39-.11,3.56v1.13c0,.53.08.92.23,1.19.19.42.62.62,1.3.62.56,0,1.09-.13,1.58-.4,1.28-.64,2.33-1.88,3.16-3.73l1.64,1.41c-.9,1.66-2.09,2.94-3.56,3.84-1.62,1.02-3.2,1.28-4.74.79-.64-.19-1.07-.55-1.3-1.07-.23-.49-.34-1.19-.34-2.09.04-2.94.11-5.91.23-8.92Z"/><path class="cls-4" d="m107.14,70.36c1.47-.45,2.67-.77,3.61-.96,1.62-.3,2.84-.32,3.67-.06,1.32.45,2.11,1.35,2.37,2.71.3,1.39-.06,2.56-1.07,3.5-.68.68-1.66,1.13-2.94,1.35-.9.15-1.9.19-2.99.11l-.11-1.69c.9.04,1.69.02,2.37-.06,1.02-.11,1.75-.38,2.2-.79.49-.45.75-1.04.79-1.75.04-.71-.25-1.24-.85-1.58-.75-.41-1.84-.45-3.28-.11-.53.15-1.13.34-1.81.56-.53.19-1.04.38-1.52.57l-.45-1.81Z"/><path class="cls-4" d="m118.1,76.8c1.32-1.77,2.37-3.76,3.16-5.99-.53.11-1.37.32-2.54.62l-.45-1.98c1.17-.19,2.33-.38,3.5-.56.23-.83.39-1.84.51-3.05l2.2.45-.68,2.37c1.39-.23,2.33.13,2.82,1.07.41.75.51,1.9.28,3.44-.11.9-.3,1.71-.56,2.43-.38,1.05-.85,1.73-1.41,2.03-.49.26-1.26.34-2.31.23l-.45-2.03c.79.04,1.28.04,1.47,0,.26-.08.49-.28.68-.62.34-.64.58-1.34.73-2.09.19-.83.21-1.49.06-1.98-.11-.41-.36-.64-.73-.68-.23,0-.58.02-1.07.06-.79,2.71-1.96,5.19-3.5,7.45l-1.69-1.19Zm8.24-8.7l1.86-.96c.98,1.66,1.84,3.58,2.6,5.76l-1.86.9c-.72-2.37-1.58-4.27-2.6-5.7Z"/><path class="cls-4" d="m132.61,65.73l1.98.4c-.64,2.22-.9,4.1-.79,5.65.26-.68.53-1.3.79-1.86l1.36.85c-.72,1.43-1.22,2.6-1.52,3.5l-1.86.4c-.53-1.58-.73-3.22-.62-4.91.08-1.09.3-2.43.68-4.01Zm2.43,10.62c2.07-.68,3.26-2.03,3.56-4.07.26-1.96.21-4.14-.17-6.55h2.15c.26,2.52.32,4.57.17,6.15-.15,1.47-.57,2.73-1.24,3.78-.79,1.17-1.83,1.98-3.11,2.43l-1.36-1.75Z"/><path class="cls-4" d="m145.26,65.16l1.75.28-.06.17c.38.56.96,1.04,1.75,1.41v-1.24h6.32v11.35c0,.87-.47,1.3-1.41,1.3h-1.75l-.51-1.98h1.19c.38,0,.57-.21.57-.62v-8.24h-4.24l-.79,1.36c-.45-.23-.87-.53-1.24-.9v1.02h1.41v5.48h-3.11v1.36l.96-.23-.23-.51,1.58-.56c.56.98,1.02,1.96,1.35,2.94l-1.81.57-.23-.68c-1.28.38-2.65.66-4.12.85l-.4-1.92,1.07-.11v-6.55l-.45.39-.73-1.86c1.17-.68,2.2-1.69,3.11-3.05Zm-1.13,3.9h.85v-.79c-.38.38-.66.64-.85.79Zm1.02,2.09h1.24v-.45h-1.24v.45Zm0,1.75h1.24v-.45h-1.24v.45Zm.17-4.97h1.41c-.3-.3-.55-.56-.73-.79-.08.15-.3.41-.68.79Zm3.39,2.09v-1.58h4.12v1.58h-4.12Zm.17,5.7v-4.91h3.73v4.29h-2.26v.62h-1.47Zm1.47-2.09h.79v-1.41h-.79v1.41Z"/><path class="cls-4" d="m156.78,70.36c1.47-.45,2.67-.77,3.61-.96,1.62-.3,2.84-.32,3.67-.06,1.32.45,2.11,1.35,2.37,2.71.3,1.39-.06,2.56-1.07,3.5-.68.68-1.66,1.13-2.94,1.35-.9.15-1.9.19-2.99.11l-.11-1.69c.9.04,1.69.02,2.37-.06,1.02-.11,1.75-.38,2.2-.79.49-.45.75-1.04.79-1.75.04-.71-.25-1.24-.85-1.58-.75-.41-1.84-.45-3.28-.11-.53.15-1.13.34-1.81.56-.53.19-1.04.38-1.52.57l-.45-1.81Z"/><path class="cls-4" d="m167.56,67.25c4.48-.23,8.32-.66,11.52-1.3l.34,1.98c-.94.15-1.54.26-1.81.34-.53.15-1.09.43-1.69.85-.83.57-1.52,1.34-2.09,2.32-.68,1.17-.79,2.15-.34,2.94.34.56.9.96,1.69,1.19.34.11,1.04.25,2.09.39l-.62,1.98c-1.05-.19-1.88-.4-2.48-.62-.9-.3-1.62-.75-2.15-1.36-1.02-1.09-1.24-2.39-.68-3.9.49-1.28,1.35-2.41,2.6-3.39-1.21.19-3.24.4-6.1.62l-.28-2.03Z"/><path class="cls-4" d="m188.74,66.52c-2.07,1.88-3.84,3.35-5.31,4.4-.23.15-.32.28-.28.39.04.08.13.19.28.34,1.84,1.36,3.63,2.9,5.36,4.63l-1.58,1.69c-1.02-1.17-1.92-2.11-2.71-2.82-1.05-.94-2.2-1.84-3.44-2.71-.56-.38-.85-.71-.85-1.02,0-.34.17-.64.51-.9.9-.71,1.88-1.49,2.94-2.32,1.47-1.17,2.65-2.22,3.56-3.16l1.52,1.47Z"/><path class="cls-4" d="m189.87,75.16l2.71-3.56v-.73l-2.15.68-.4-2.03,2.54-.68.06-3.05,2.03.11c-.08.98-.11,1.79-.11,2.43l.45-.17.45.79.9-.68c.9-.68,1.69-.9,2.37-.68,1.02.34,1.47,1.3,1.36,2.88l-.28,3.78c-.04.53.23.64.79.34.41-.19.77-.43,1.07-.73l.85,1.81c-.6.53-1.13.92-1.58,1.19-.79.49-1.47.66-2.03.51-.9-.26-1.3-1.19-1.19-2.77l.17-2.37c.04-.49.08-.94.11-1.35,0-.41-.11-.66-.34-.73-.19-.04-.42.02-.68.17-.26.15-.6.41-1.02.79-.56.49-1.05.96-1.47,1.41.04,1.85.08,3.69.11,5.53l-1.98.06-.06-3.5-1.36,1.98-1.35-1.41Z"/><path class="cls-4" d="m203.08,70.58c1.13-.11,2.26-.25,3.39-.4l2.71-2.32c-1.24.15-2.47.28-3.67.4l-.28-1.98c2.11-.11,4.38-.32,6.83-.62l.68,1.69-2.94,2.48c1.62-.23,3.22-.47,4.8-.73l.28,1.92-1.92.23c-.83.11-1.58.42-2.26.9-.68.53-1.13,1.15-1.35,1.86-.3,1.02.04,1.66,1.02,1.92.56.15,1.47.17,2.71.06l-.28,1.92c-1.51.08-2.52.08-3.05,0-1.02-.15-1.77-.62-2.26-1.41-.42-.64-.53-1.43-.34-2.37.19-.9.6-1.66,1.24-2.26l-4.97.73-.34-2.03Z"/><path class="cls-4" d="m215.84,70.41c2.07-.87,3.71-1.39,4.91-1.58,2-.3,3.41-.04,4.24.79.71.75,1.05,1.67,1.02,2.77-.04,1.02-.38,1.94-1.02,2.77-1.09,1.43-2.92,2.41-5.48,2.94l-.85-1.81c.87-.11,1.71-.34,2.54-.68.94-.41,1.62-.87,2.03-1.36.49-.56.73-1.24.73-2.03s-.38-1.33-1.13-1.52c-1.39-.3-3.46.25-6.21,1.64l-.79-1.92Zm2.71-2.88l.28-1.86c1.39.3,3.05.55,4.97.73l-.28,1.81c-1.69-.11-3.35-.34-4.97-.68Z"/><path class="cls-4" d="m227.02,67.25c4.48-.23,8.32-.66,11.52-1.3l.34,1.98c-.94.15-1.54.26-1.81.34-.53.15-1.09.43-1.69.85-.83.57-1.52,1.34-2.09,2.32-.68,1.17-.79,2.15-.34,2.94.34.56.9.96,1.69,1.19.34.11,1.04.25,2.09.39l-.62,1.98c-1.05-.19-1.88-.4-2.48-.62-.9-.3-1.62-.75-2.15-1.36-1.02-1.09-1.24-2.39-.68-3.9.49-1.28,1.35-2.41,2.6-3.39-1.21.19-3.24.4-6.1.62l-.28-2.03Zm8.87,2.82l1.13-.51.79,1.52-1.13.56-.79-1.58Zm1.52-.68l1.19-.51.73,1.52-1.07.51-.85-1.53Z"/><path class="cls-4" d="m239.78,67.42c1.73-.04,3.5-.08,5.31-.11l-.06-1.69h2.2l-.06,1.69h4.46v1.86l-4.52-.06.06,1.3c.71.87.94,2,.68,3.39-.15.79-.49,1.56-1.02,2.32-.6.83-1.34,1.5-2.2,2.03l-1.41-1.47c1.09-.64,1.77-1.24,2.03-1.81-.53.3-1.07.36-1.64.17-.75-.26-1.22-.88-1.41-1.86-.15-.87-.06-1.66.28-2.37.53-1.02,1.43-1.41,2.71-1.19l-.06-.45c-1.88.08-3.67.15-5.36.23v-1.98Zm4.91,4.01c-.49.08-.72.42-.68,1.02.04.6.26.92.68.96.3.04.53-.06.68-.28.11-.19.17-.43.17-.73s-.08-.54-.23-.73c-.15-.19-.36-.26-.62-.23Z"/></g><g><path d="m42.27,69h5.48v-.28h-3.73v-2.88h3.73v-.62h2.09v.56h3.67v2.94h-3.67v.28h5.36v1.47h-12.93v-1.47Zm3.39,7.11h-1.41v-5.31h9.09v5.31h-1.35c.53.23,1.62.43,3.27.62l-.96,1.92c-1.77-.19-3.27-.68-4.52-1.47l1.07-1.07h-3.95l.96,1.07c-1.13.75-2.35,1.22-3.67,1.41l-1.58-1.86c1.47-.11,2.48-.32,3.05-.62Zm.4-9.03v.4h1.69v-.4h-1.69Zm.17,5.25h5.14v-.34h-5.14v.34Zm0,1.3h5.14v-.34h-5.14v.34Zm0,1.36h5.14v-.34h-5.14v.34Zm5.25-7.51v-.4h-1.64v.4h1.64Z"/><path d="m66.15,78.32h-2.71l-.56-1.98h2.26c.45,0,.71-.28.79-.85l.34-3.11h-4.23c-.04,1.28-.38,2.43-1.02,3.44-.72,1.17-1.68,2.07-2.88,2.71l-1.41-1.81c.71-.38,1.35-.87,1.92-1.47.53-.53.9-1.11,1.13-1.75.3-.79.45-2.24.45-4.35h-3.5v-1.86h5.42v-2.03h2.09v2.03h5.42v1.86h-7.45v1.41h6.21l-.28,3.56-.28,2.37c-.08.56-.25,1-.51,1.3-.3.34-.7.51-1.19.51Z"/><path d="m71.06,75.1c1.09-1.69,1.92-3.42,2.48-5.19-.87.11-1.51.17-1.92.17l-.17-1.98c.83,0,1.69-.06,2.6-.17.15-.41.32-1.13.51-2.15l2.09.4c-.11.53-.26,1.04-.45,1.52.45-.04,1-.13,1.64-.28l.23,1.92c-.79.15-1.56.26-2.32.34-.72,2.3-1.67,4.44-2.88,6.44l-1.81-1.02Zm6.55-1.3c-.04-1.28.19-2.31.68-3.11l1.69.85c-.45.75-.58,1.62-.4,2.6,1.09.38,2.05.85,2.88,1.41l-1.02,1.47c-.83-.6-1.47-.98-1.92-1.13.11,1.13-.42,1.81-1.58,2.03-.75.15-1.45.15-2.09,0-.83-.19-1.39-.56-1.69-1.13-.49-.94-.38-1.73.34-2.37.71-.64,1.75-.85,3.11-.62Zm.11,1.58c-.38-.08-.72-.11-1.02-.11-.45-.04-.73.04-.85.23-.23.34-.11.58.34.73.41.15.79.17,1.13.06.34-.11.47-.41.4-.9Zm.62-5.59l1.02-1.64c1.54.68,2.65,1.22,3.33,1.64l-1.07,1.75c-1.43-.83-2.52-1.41-3.27-1.75Z"/><path d="m83.83,73.58c.45-1.73.92-3.48,1.41-5.25l1.98.62c-.26,1.02-.55,2-.85,2.94,2.03-1.43,3.93-1.94,5.7-1.52.94.23,1.64.75,2.09,1.58.45.79.54,1.66.28,2.6-.38,1.51-1.75,2.54-4.12,3.11-.98.23-2.45.3-4.4.23l-.45-1.92c2.67.26,4.59.04,5.76-.68.49-.3.83-.64,1.02-1.02.19-.38.21-.73.06-1.07-.34-.75-1.24-1.02-2.71-.79-1.24.26-2.45.94-3.61,2.03l-2.15-.85Zm2.37-6.04l.62-1.81c1.96.34,3.54.75,4.74,1.24l-.85,1.92c-1.24-.53-2.75-.98-4.52-1.36Z"/><path d="m96.36,65.62l2.15.17c-.11,1.17-.19,2.33-.23,3.5-.04,1.21-.08,2.39-.11,3.56v1.13c0,.53.08.92.23,1.19.19.42.62.62,1.3.62.56,0,1.09-.13,1.58-.4,1.28-.64,2.33-1.88,3.16-3.73l1.64,1.41c-.9,1.66-2.09,2.94-3.56,3.84-1.62,1.02-3.2,1.28-4.74.79-.64-.19-1.07-.55-1.3-1.07-.23-.49-.34-1.19-.34-2.09.04-2.94.11-5.91.23-8.92Z"/><path d="m107.14,70.36c1.47-.45,2.67-.77,3.61-.96,1.62-.3,2.84-.32,3.67-.06,1.32.45,2.11,1.35,2.37,2.71.3,1.39-.06,2.56-1.07,3.5-.68.68-1.66,1.13-2.94,1.35-.9.15-1.9.19-2.99.11l-.11-1.69c.9.04,1.69.02,2.37-.06,1.02-.11,1.75-.38,2.2-.79.49-.45.75-1.04.79-1.75.04-.71-.25-1.24-.85-1.58-.75-.41-1.84-.45-3.28-.11-.53.15-1.13.34-1.81.56-.53.19-1.04.38-1.52.57l-.45-1.81Z"/><path d="m118.1,76.8c1.32-1.77,2.37-3.76,3.16-5.99-.53.11-1.37.32-2.54.62l-.45-1.98c1.17-.19,2.33-.38,3.5-.56.23-.83.39-1.84.51-3.05l2.2.45-.68,2.37c1.39-.23,2.33.13,2.82,1.07.41.75.51,1.9.28,3.44-.11.9-.3,1.71-.56,2.43-.38,1.05-.85,1.73-1.41,2.03-.49.26-1.26.34-2.31.23l-.45-2.03c.79.04,1.28.04,1.47,0,.26-.08.49-.28.68-.62.34-.64.58-1.34.73-2.09.19-.83.21-1.49.06-1.98-.11-.41-.36-.64-.73-.68-.23,0-.58.02-1.07.06-.79,2.71-1.96,5.19-3.5,7.45l-1.69-1.19Zm8.24-8.7l1.86-.96c.98,1.66,1.84,3.58,2.6,5.76l-1.86.9c-.72-2.37-1.58-4.27-2.6-5.7Z"/><path d="m132.61,65.73l1.98.4c-.64,2.22-.9,4.1-.79,5.65.26-.68.53-1.3.79-1.86l1.36.85c-.72,1.43-1.22,2.6-1.52,3.5l-1.86.4c-.53-1.58-.73-3.22-.62-4.91.08-1.09.3-2.43.68-4.01Zm2.43,10.62c2.07-.68,3.26-2.03,3.56-4.07.26-1.96.21-4.14-.17-6.55h2.15c.26,2.52.32,4.57.17,6.15-.15,1.47-.57,2.73-1.24,3.78-.79,1.17-1.83,1.98-3.11,2.43l-1.36-1.75Z"/><path d="m145.26,65.16l1.75.28-.06.17c.38.56.96,1.04,1.75,1.41v-1.24h6.32v11.35c0,.87-.47,1.3-1.41,1.3h-1.75l-.51-1.98h1.19c.38,0,.57-.21.57-.62v-8.24h-4.24l-.79,1.36c-.45-.23-.87-.53-1.24-.9v1.02h1.41v5.48h-3.11v1.36l.96-.23-.23-.51,1.58-.56c.56.98,1.02,1.96,1.35,2.94l-1.81.57-.23-.68c-1.28.38-2.65.66-4.12.85l-.4-1.92,1.07-.11v-6.55l-.45.39-.73-1.86c1.17-.68,2.2-1.69,3.11-3.05Zm-1.13,3.9h.85v-.79c-.38.38-.66.64-.85.79Zm1.02,2.09h1.24v-.45h-1.24v.45Zm0,1.75h1.24v-.45h-1.24v.45Zm.17-4.97h1.41c-.3-.3-.55-.56-.73-.79-.08.15-.3.41-.68.79Zm3.39,2.09v-1.58h4.12v1.58h-4.12Zm.17,5.7v-4.91h3.73v4.29h-2.26v.62h-1.47Zm1.47-2.09h.79v-1.41h-.79v1.41Z"/><path d="m156.78,70.36c1.47-.45,2.67-.77,3.61-.96,1.62-.3,2.84-.32,3.67-.06,1.32.45,2.11,1.35,2.37,2.71.3,1.39-.06,2.56-1.07,3.5-.68.68-1.66,1.13-2.94,1.35-.9.15-1.9.19-2.99.11l-.11-1.69c.9.04,1.69.02,2.37-.06,1.02-.11,1.75-.38,2.2-.79.49-.45.75-1.04.79-1.75.04-.71-.25-1.24-.85-1.58-.75-.41-1.84-.45-3.28-.11-.53.15-1.13.34-1.81.56-.53.19-1.04.38-1.52.57l-.45-1.81Z"/><path d="m167.56,67.25c4.48-.23,8.32-.66,11.52-1.3l.34,1.98c-.94.15-1.54.26-1.81.34-.53.15-1.09.43-1.69.85-.83.57-1.52,1.34-2.09,2.32-.68,1.17-.79,2.15-.34,2.94.34.56.9.96,1.69,1.19.34.11,1.04.25,2.09.39l-.62,1.98c-1.05-.19-1.88-.4-2.48-.62-.9-.3-1.62-.75-2.15-1.36-1.02-1.09-1.24-2.39-.68-3.9.49-1.28,1.35-2.41,2.6-3.39-1.21.19-3.24.4-6.1.62l-.28-2.03Z"/><path d="m188.74,66.52c-2.07,1.88-3.84,3.35-5.31,4.4-.23.15-.32.28-.28.39.04.08.13.19.28.34,1.84,1.36,3.63,2.9,5.36,4.63l-1.58,1.69c-1.02-1.17-1.92-2.11-2.71-2.82-1.05-.94-2.2-1.84-3.44-2.71-.56-.38-.85-.71-.85-1.02,0-.34.17-.64.51-.9.9-.71,1.88-1.49,2.94-2.32,1.47-1.17,2.65-2.22,3.56-3.16l1.52,1.47Z"/><path d="m189.87,75.16l2.71-3.56v-.73l-2.15.68-.4-2.03,2.54-.68.06-3.05,2.03.11c-.08.98-.11,1.79-.11,2.43l.45-.17.45.79.9-.68c.9-.68,1.69-.9,2.37-.68,1.02.34,1.47,1.3,1.36,2.88l-.28,3.78c-.04.53.23.64.79.34.41-.19.77-.43,1.07-.73l.85,1.81c-.6.53-1.13.92-1.58,1.19-.79.49-1.47.66-2.03.51-.9-.26-1.3-1.19-1.19-2.77l.17-2.37c.04-.49.08-.94.11-1.35,0-.41-.11-.66-.34-.73-.19-.04-.42.02-.68.17-.26.15-.6.41-1.02.79-.56.49-1.05.96-1.47,1.41.04,1.85.08,3.69.11,5.53l-1.98.06-.06-3.5-1.36,1.98-1.35-1.41Z"/><path d="m203.08,70.58c1.13-.11,2.26-.25,3.39-.4l2.71-2.32c-1.24.15-2.47.28-3.67.4l-.28-1.98c2.11-.11,4.38-.32,6.83-.62l.68,1.69-2.94,2.48c1.62-.23,3.22-.47,4.8-.73l.28,1.92-1.92.23c-.83.11-1.58.42-2.26.9-.68.53-1.13,1.15-1.35,1.86-.3,1.02.04,1.66,1.02,1.92.56.15,1.47.17,2.71.06l-.28,1.92c-1.51.08-2.52.08-3.05,0-1.02-.15-1.77-.62-2.26-1.41-.42-.64-.53-1.43-.34-2.37.19-.9.6-1.66,1.24-2.26l-4.97.73-.34-2.03Z"/><path d="m215.84,70.41c2.07-.87,3.71-1.39,4.91-1.58,2-.3,3.41-.04,4.24.79.71.75,1.05,1.67,1.02,2.77-.04,1.02-.38,1.94-1.02,2.77-1.09,1.43-2.92,2.41-5.48,2.94l-.85-1.81c.87-.11,1.71-.34,2.54-.68.94-.41,1.62-.87,2.03-1.36.49-.56.73-1.24.73-2.03s-.38-1.33-1.13-1.52c-1.39-.3-3.46.25-6.21,1.64l-.79-1.92Zm2.71-2.88l.28-1.86c1.39.3,3.05.55,4.97.73l-.28,1.81c-1.69-.11-3.35-.34-4.97-.68Z"/><path d="m227.02,67.25c4.48-.23,8.32-.66,11.52-1.3l.34,1.98c-.94.15-1.54.26-1.81.34-.53.15-1.09.43-1.69.85-.83.57-1.52,1.34-2.09,2.32-.68,1.17-.79,2.15-.34,2.94.34.56.9.96,1.69,1.19.34.11,1.04.25,2.09.39l-.62,1.98c-1.05-.19-1.88-.4-2.48-.62-.9-.3-1.62-.75-2.15-1.36-1.02-1.09-1.24-2.39-.68-3.9.49-1.28,1.35-2.41,2.6-3.39-1.21.19-3.24.4-6.1.62l-.28-2.03Zm8.87,2.82l1.13-.51.79,1.52-1.13.56-.79-1.58Zm1.52-.68l1.19-.51.73,1.52-1.07.51-.85-1.53Z"/><path d="m239.78,67.42c1.73-.04,3.5-.08,5.31-.11l-.06-1.69h2.2l-.06,1.69h4.46v1.86l-4.52-.06.06,1.3c.71.87.94,2,.68,3.39-.15.79-.49,1.56-1.02,2.32-.6.83-1.34,1.5-2.2,2.03l-1.41-1.47c1.09-.64,1.77-1.24,2.03-1.81-.53.3-1.07.36-1.64.17-.75-.26-1.22-.88-1.41-1.86-.15-.87-.06-1.66.28-2.37.53-1.02,1.43-1.41,2.71-1.19l-.06-.45c-1.88.08-3.67.15-5.36.23v-1.98Zm4.91,4.01c-.49.08-.72.42-.68,1.02.04.6.26.92.68.96.3.04.53-.06.68-.28.11-.19.17-.43.17-.73s-.08-.54-.23-.73c-.15-.19-.36-.26-.62-.23Z"/></g></g><g><g><path class="cls-2" d="m42.78,17.72l1.75.28-.06.17c.38.56.96,1.04,1.75,1.41v-1.24h6.32v11.35c0,.87-.47,1.3-1.41,1.3h-1.75l-.51-1.98h1.19c.38,0,.57-.21.57-.62v-8.24h-4.24l-.79,1.36c-.45-.23-.87-.53-1.24-.9v1.02h1.41v5.48h-3.11v1.36l.96-.23-.23-.51,1.58-.56c.56.98,1.02,1.96,1.35,2.94l-1.81.57-.23-.68c-1.28.38-2.65.66-4.12.85l-.4-1.92,1.07-.11v-6.55l-.45.39-.73-1.86c1.17-.68,2.2-1.69,3.11-3.05Zm-1.13,3.9h.85v-.79c-.38.38-.66.64-.85.79Zm1.02,2.09h1.24v-.45h-1.24v.45Zm0,1.75h1.24v-.45h-1.24v.45Zm.17-4.97h1.41c-.3-.3-.55-.56-.73-.79-.08.15-.3.41-.68.79Zm3.39,2.09v-1.58h4.12v1.58h-4.12Zm.17,5.7v-4.91h3.73v4.29h-2.26v.62h-1.47Zm1.47-2.09h.79v-1.41h-.79v1.41Z"/><path class="cls-2" d="m57.18,19.53c-.26.72-.45,1.49-.56,2.32-.11.71-.19,1.37-.23,1.98-.04.42,0,1,.11,1.75.08.45.17.81.28,1.07.15.34.32.51.51.51.26,0,.53-.3.79-.9l.56-1.24,1.58,1.19c-.23.72-.56,1.43-1.02,2.15-.53.83-1.04,1.34-1.52,1.52s-1,.04-1.52-.45c-.53-.45-.9-.98-1.13-1.58-.87-2.18-.83-5.16.11-8.92l2.03.62Zm5.08,1.24l1.75-.9c1.17,2.07,2.01,4.27,2.54,6.61l-1.98.73c-.53-2.33-1.3-4.48-2.31-6.44Z"/><path class="cls-2" d="m75.7,20.2h4.46v1.81h-4.74v2.2h3.95v1.81h-3.95v2.65h5.48v1.86h-13.04v-1.86h5.48v-2.65h-4.07v-1.81h4.07v-2.2h-4.69v-1.81h5.25c-.38-.26-1-.56-1.86-.9l1.53-1.69c1.54.75,2.52,1.28,2.94,1.58l-.79,1.02Z"/></g><g><path class="cls-4" d="m42.78,17.72l1.75.28-.06.17c.38.56.96,1.04,1.75,1.41v-1.24h6.32v11.35c0,.87-.47,1.3-1.41,1.3h-1.75l-.51-1.98h1.19c.38,0,.57-.21.57-.62v-8.24h-4.24l-.79,1.36c-.45-.23-.87-.53-1.24-.9v1.02h1.41v5.48h-3.11v1.36l.96-.23-.23-.51,1.58-.56c.56.98,1.02,1.96,1.35,2.94l-1.81.57-.23-.68c-1.28.38-2.65.66-4.12.85l-.4-1.92,1.07-.11v-6.55l-.45.39-.73-1.86c1.17-.68,2.2-1.69,3.11-3.05Zm-1.13,3.9h.85v-.79c-.38.38-.66.64-.85.79Zm1.02,2.09h1.24v-.45h-1.24v.45Zm0,1.75h1.24v-.45h-1.24v.45Zm.17-4.97h1.41c-.3-.3-.55-.56-.73-.79-.08.15-.3.41-.68.79Zm3.39,2.09v-1.58h4.12v1.58h-4.12Zm.17,5.7v-4.91h3.73v4.29h-2.26v.62h-1.47Zm1.47-2.09h.79v-1.41h-.79v1.41Z"/><path class="cls-4" d="m57.18,19.53c-.26.72-.45,1.49-.56,2.32-.11.71-.19,1.37-.23,1.98-.04.42,0,1,.11,1.75.08.45.17.81.28,1.07.15.34.32.51.51.51.26,0,.53-.3.79-.9l.56-1.24,1.58,1.19c-.23.72-.56,1.43-1.02,2.15-.53.83-1.04,1.34-1.52,1.52s-1,.04-1.52-.45c-.53-.45-.9-.98-1.13-1.58-.87-2.18-.83-5.16.11-8.92l2.03.62Zm5.08,1.24l1.75-.9c1.17,2.07,2.01,4.27,2.54,6.61l-1.98.73c-.53-2.33-1.3-4.48-2.31-6.44Z"/><path class="cls-4" d="m75.7,20.2h4.46v1.81h-4.74v2.2h3.95v1.81h-3.95v2.65h5.48v1.86h-13.04v-1.86h5.48v-2.65h-4.07v-1.81h4.07v-2.2h-4.69v-1.81h5.25c-.38-.26-1-.56-1.86-.9l1.53-1.69c1.54.75,2.52,1.28,2.94,1.58l-.79,1.02Z"/></g><g><path d="m42.78,17.72l1.75.28-.06.17c.38.56.96,1.04,1.75,1.41v-1.24h6.32v11.35c0,.87-.47,1.3-1.41,1.3h-1.75l-.51-1.98h1.19c.38,0,.57-.21.57-.62v-8.24h-4.24l-.79,1.36c-.45-.23-.87-.53-1.24-.9v1.02h1.41v5.48h-3.11v1.36l.96-.23-.23-.51,1.58-.56c.56.98,1.02,1.96,1.35,2.94l-1.81.57-.23-.68c-1.28.38-2.65.66-4.12.85l-.4-1.92,1.07-.11v-6.55l-.45.39-.73-1.86c1.17-.68,2.2-1.69,3.11-3.05Zm-1.13,3.9h.85v-.79c-.38.38-.66.64-.85.79Zm1.02,2.09h1.24v-.45h-1.24v.45Zm0,1.75h1.24v-.45h-1.24v.45Zm.17-4.97h1.41c-.3-.3-.55-.56-.73-.79-.08.15-.3.41-.68.79Zm3.39,2.09v-1.58h4.12v1.58h-4.12Zm.17,5.7v-4.91h3.73v4.29h-2.26v.62h-1.47Zm1.47-2.09h.79v-1.41h-.79v1.41Z"/><path d="m57.18,19.53c-.26.72-.45,1.49-.56,2.32-.11.71-.19,1.37-.23,1.98-.04.42,0,1,.11,1.75.08.45.17.81.28,1.07.15.34.32.51.51.51.26,0,.53-.3.79-.9l.56-1.24,1.58,1.19c-.23.72-.56,1.43-1.02,2.15-.53.83-1.04,1.34-1.52,1.52s-1,.04-1.52-.45c-.53-.45-.9-.98-1.13-1.58-.87-2.18-.83-5.16.11-8.92l2.03.62Zm5.08,1.24l1.75-.9c1.17,2.07,2.01,4.27,2.54,6.61l-1.98.73c-.53-2.33-1.3-4.48-2.31-6.44Z"/><path d="m75.7,20.2h4.46v1.81h-4.74v2.2h3.95v1.81h-3.95v2.65h5.48v1.86h-13.04v-1.86h5.48v-2.65h-4.07v-1.81h4.07v-2.2h-4.69v-1.81h5.25c-.38-.26-1-.56-1.86-.9l1.53-1.69c1.54.75,2.52,1.28,2.94,1.58l-.79,1.02Z"/></g></g><g><polygon class="cls-1" points="36.68 291.59 19.1 308.72 51.13 308.72 36.68 291.59"/><rect class="cls-1" x="33.92" y="234.76" width="218.1" height="73.96" rx="17.29" ry="17.29"/><g><g><path class="cls-2" d="m65.69,273.13h5.48v-.96h-3.84v-6.49h9.77v6.49h-3.9v.96h5.42v1.81h-5.42v3.39h-2.03v-3.39h-5.48v-1.81Zm3.61-4.97h5.82v-.68h-5.82v.68Zm0,2.15h5.82v-.68h-5.82v.68Z"/><path class="cls-2" d="m86.19,276.29h2.82l4.07-.11-.45,1.86-5.76.11c-.94,0-1.75-.04-2.43-.11-.75-.11-1.38-.42-1.86-.9l-1.47,1.3-1.19-1.64,1.41-1.3v-2.88h-1.36v-1.69h3.28v2.82c0,.79.15,1.36.45,1.69.53.56,1.36.85,2.48.85Zm6.89-2.26l-1.19,1.75c-1.17-.49-2.07-1.13-2.71-1.92v2.03h-1.98v-2.26c-.64.98-1.49,1.71-2.54,2.2l-1.19-1.81c1.17-.41,1.92-.94,2.26-1.58h-1.47v-4.01h2.94v-.62h-3.67v-.79l-1.07,1.52c-.11-.19-.4-.45-.85-.79-.6-.45-1.09-.75-1.47-.9l1.07-1.58c.26.08.68.32,1.24.73.53.38.88.68,1.07.9v-.68h3.67v-1.02h1.98v1.02h3.61v1.58h-3.61v.62h2.88v4.01h-1.69c.56.6,1.47,1.13,2.71,1.58Zm-6.78-3.22h.9v-.79h-.9v.79Zm2.88,0h.9v-.79h-.9v.79Z"/><path class="cls-2" d="m99.23,278.32h-3.11l-.68-1.86h2.77c.49,0,.83-.13,1.02-.4.15-.23.26-.64.34-1.24l.11-1.13h-2.94l-.11.79-2.15-.28.45-3.11.28-2.43h4.35v-1.41h-4.74v-1.81h6.72v4.97h-4.35l-.17,1.47h4.8l-.23,2.65-.34,2.2c-.19,1.05-.87,1.58-2.03,1.58Zm5.19,0v-13.1h2.09v13.1h-2.09Z"/><path class="cls-2" d="m108.83,270.36c1.73-.19,3.42-.4,5.08-.62l-.4-.68c-1.13.23-2.39.38-3.78.45l-.28-1.86c1.58-.08,2.71-.17,3.39-.28-.15-.3-.34-.81-.56-1.52l2.2-.34c.26.79.45,1.3.56,1.52.71-.11,1.51-.3,2.37-.56l.56,1.69c-.75.23-1.54.4-2.37.51l.34.68c1.05-.23,2-.45,2.82-.68l.51,1.81c-.45.11-1.3.3-2.54.56.64,1.09,1.15,1.9,1.52,2.43l-1.19,1.36c-.98-.56-2.18-.88-3.61-.96-.45-.04-.83-.02-1.13.06-.45.11-.72.32-.79.62-.23.83.41,1.32,1.92,1.47,1.32.11,2.6-.02,3.84-.4l.11,1.92c-1.66.38-3.16.49-4.52.34-1.92-.19-3.05-.98-3.39-2.37-.23-.83-.08-1.52.45-2.09.49-.53,1.15-.85,1.98-.96.83-.11,1.92-.09,3.28.06l-.51-.96c-1.84.26-3.71.51-5.59.73l-.28-1.92Z"/><path class="cls-2" d="m120.41,276.97c.71-.98,1.21-2.41,1.47-4.29l1.64.85c-.08.79-.26,1.66-.56,2.6-.3,1.02-.6,1.73-.9,2.15l-1.64-1.3Zm.06-6.61l1.07-1.58c.34.08.75.28,1.24.62.49.34.83.62,1.02.85l-1.13,1.64c-.19-.23-.53-.51-1.02-.85-.45-.3-.85-.53-1.19-.68Zm13.16-2.15h-1.52v.62h1.3v1.41h-1.3v1.92h-5.14v-1.92h-1.07v2.54c0,1.43-.23,2.73-.68,3.9,1.2-.08,2.05-.3,2.54-.68-.6-.49-1.02-1.02-1.24-1.58h-.45v-1.81h5.76l.11-.11,1.3,1.52c-.41.68-1.09,1.39-2.03,2.15.68.34,1.5.51,2.48.51l-.62,1.81c-1.62-.19-2.8-.6-3.56-1.24-.3.26-.81.53-1.52.79-.72.26-1.32.41-1.81.45l-1.02-1.69c-.19.68-.43,1.17-.73,1.47l-1.53-1.52c.68-.98,1.02-2.15,1.02-3.5v-6.15l-.85,1.35c-.15-.23-.43-.49-.85-.79-.57-.41-1.05-.68-1.47-.79l1.13-1.52c.3.08.68.26,1.13.56.45.3.75.55.9.73v-.28h3.84v-1.13h2.03v1.13h3.84v1.86Zm-7.74.62h1.07v-.62h-1.07v.62Zm3.61,6.44c.38-.15.7-.43.96-.85h-1.86c.3.45.6.73.9.85Zm-.62-6.44h1.3v-.62h-1.3v.62Zm0,1.86h1.3v-.45h-1.3v.45Z"/><path class="cls-2" d="m135.43,265.56l2.15.17c-.11,1.17-.19,2.33-.23,3.5-.04,1.21-.08,2.39-.11,3.56v1.13c0,.53.08.92.23,1.19.19.42.62.62,1.3.62.56,0,1.09-.13,1.58-.4,1.28-.64,2.33-1.88,3.16-3.73l1.64,1.41c-.9,1.66-2.09,2.94-3.56,3.84-1.62,1.02-3.2,1.28-4.74.79-.64-.19-1.07-.55-1.3-1.07-.23-.49-.34-1.19-.34-2.09.04-2.94.11-5.91.23-8.92Z"/><path class="cls-2" d="m153.78,277.81l-1.02-1.81c1.43-.49,2.39-1.09,2.88-1.81.94-1.39,1.11-2.73.51-4.01-.56-1.24-1.58-1.84-3.05-1.81,0,3.92-.83,6.59-2.48,8.02-.68.56-1.37.71-2.09.45-.75-.3-1.32-.85-1.69-1.64-.75-1.51-.77-3.11-.06-4.8.71-1.62,1.88-2.75,3.5-3.39,1.17-.45,2.32-.6,3.44-.45,1.2.11,2.22.56,3.05,1.36.98.9,1.52,2.03,1.64,3.39.11,1.47-.23,2.77-1.02,3.9-.83,1.17-2.03,2.03-3.61,2.6Zm-2.6-9.2c-1.69.6-2.63,1.83-2.82,3.67-.08.53-.02,1.05.17,1.58.23.64.53.87.9.68.49-.23.9-.85,1.24-1.86.34-1.02.51-2.37.51-4.07Z"/><path class="cls-2" d="m159.48,270.7c1.09-1.28,1.99-3.11,2.71-5.48l1.86.56c-.38,1.21-.72,2.11-1.02,2.71v9.88h-1.98v-6.49l-.62.96-.96-2.15Zm3.67-.34c.41-.53.81-1.24,1.19-2.15.41-1.02.66-1.86.73-2.54l1.81.62c-.11.75-.28,1.36-.51,1.81h.9v-2.94h2.03v2.94h2.82v1.75h-2.82v2.37h3.56v1.81h-3.56v4.24h-2.03v-4.24h-3.84v-1.81h3.84v-2.37h-1.58c-.42,1.05-.77,1.73-1.07,2.03l-1.47-1.52Z"/><path class="cls-2" d="m173.82,267.2c4.48-.23,8.32-.66,11.52-1.3l.34,1.98c-.94.15-1.54.26-1.81.34-.53.15-1.09.43-1.69.85-.83.57-1.52,1.34-2.09,2.32-.68,1.17-.79,2.15-.34,2.94.34.56.9.96,1.69,1.19.34.11,1.04.25,2.09.39l-.62,1.98c-1.05-.19-1.88-.4-2.48-.62-.9-.3-1.62-.75-2.15-1.36-1.02-1.09-1.24-2.39-.68-3.9.49-1.28,1.35-2.41,2.6-3.39-1.21.19-3.24.4-6.1.62l-.28-2.03Zm8.87,2.82l1.13-.51.79,1.52-1.13.56-.79-1.58Zm1.52-.68l1.19-.51.73,1.52-1.07.51-.85-1.53Z"/><path class="cls-2" d="m186.58,267.37c1.73-.04,3.5-.08,5.31-.11l-.06-1.69h2.2l-.06,1.69h4.46v1.86l-4.52-.06.06,1.3c.71.87.94,2,.68,3.39-.15.79-.49,1.56-1.02,2.32-.6.83-1.34,1.5-2.2,2.03l-1.41-1.47c1.09-.64,1.77-1.24,2.03-1.81-.53.3-1.07.36-1.64.17-.75-.26-1.22-.88-1.41-1.86-.15-.87-.06-1.66.28-2.37.53-1.02,1.43-1.41,2.71-1.19l-.06-.45c-1.88.08-3.67.15-5.36.23v-1.98Zm4.91,4.01c-.49.08-.72.42-.68,1.02.04.6.26.92.68.96.3.04.53-.06.68-.28.11-.19.17-.43.17-.73s-.08-.54-.23-.73c-.15-.19-.36-.26-.62-.23Z"/><path class="cls-2" d="m199.35,276.74c1.32-1.77,2.37-3.76,3.16-5.99-.53.11-1.37.32-2.54.62l-.45-1.98c1.17-.19,2.33-.38,3.5-.56.23-.83.39-1.84.51-3.05l2.2.45-.68,2.37c1.39-.23,2.33.13,2.82,1.07.41.75.51,1.9.28,3.44-.11.9-.3,1.71-.56,2.43-.38,1.05-.85,1.73-1.41,2.03-.49.26-1.26.34-2.31.23l-.45-2.03c.79.04,1.28.04,1.47,0,.26-.08.49-.28.68-.62.34-.64.58-1.34.73-2.09.19-.83.21-1.49.06-1.98-.11-.41-.36-.64-.73-.68-.23,0-.58.02-1.07.06-.79,2.71-1.96,5.19-3.5,7.45l-1.69-1.19Zm8.64-10.22l.96-.73,1.19,1.58-.96.68-1.19-1.53Zm.17,2.43l1.69-1.07c.68,1.02,1.41,2.67,2.2,4.97l-1.86.9c-.64-2.18-1.32-3.78-2.03-4.8Zm1.36-3.16l.96-.68,1.13,1.58-.96.68-1.13-1.58Z"/><path class="cls-2" d="m215.54,276.18c.19.19.28.41.28.68s-.09.49-.28.68c-.23.23-.47.34-.73.34s-.51-.11-.73-.34c-.19-.19-.28-.41-.28-.68s.09-.49.28-.68c.23-.23.47-.34.73-.34s.51.11.73.34Z"/><path class="cls-2" d="m218.87,276.18c.19.19.28.41.28.68s-.09.49-.28.68c-.23.23-.47.34-.73.34s-.51-.11-.73-.34c-.19-.19-.28-.41-.28-.68s.09-.49.28-.68c.23-.23.47-.34.73-.34s.51.11.73.34Z"/><path class="cls-2" d="m222.2,276.18c.19.19.28.41.28.68s-.09.49-.28.68c-.23.23-.47.34-.73.34s-.51-.11-.73-.34c-.19-.19-.28-.41-.28-.68s.09-.49.28-.68c.23-.23.47-.34.73-.34s.51.11.73.34Z"/><path class="cls-2" d="m225.53,276.18c.19.19.28.41.28.68s-.09.49-.28.68c-.23.23-.47.34-.73.34s-.51-.11-.73-.34c-.19-.19-.28-.41-.28-.68s.09-.49.28-.68c.23-.23.47-.34.73-.34s.51.11.73.34Z"/><path class="cls-2" d="m228.86,276.18c.19.19.28.41.28.68s-.09.49-.28.68c-.23.23-.47.34-.73.34s-.51-.11-.73-.34c-.19-.19-.28-.41-.28-.68s.09-.49.28-.68c.23-.23.47-.34.73-.34s.51.11.73.34Z"/></g><g><path class="cls-4" d="m65.69,273.13h5.48v-.96h-3.84v-6.49h9.77v6.49h-3.9v.96h5.42v1.81h-5.42v3.39h-2.03v-3.39h-5.48v-1.81Zm3.61-4.97h5.82v-.68h-5.82v.68Zm0,2.15h5.82v-.68h-5.82v.68Z"/><path class="cls-4" d="m86.19,276.29h2.82l4.07-.11-.45,1.86-5.76.11c-.94,0-1.75-.04-2.43-.11-.75-.11-1.38-.42-1.86-.9l-1.47,1.3-1.19-1.64,1.41-1.3v-2.88h-1.36v-1.69h3.28v2.82c0,.79.15,1.36.45,1.69.53.56,1.36.85,2.48.85Zm6.89-2.26l-1.19,1.75c-1.17-.49-2.07-1.13-2.71-1.92v2.03h-1.98v-2.26c-.64.98-1.49,1.71-2.54,2.2l-1.19-1.81c1.17-.41,1.92-.94,2.26-1.58h-1.47v-4.01h2.94v-.62h-3.67v-.79l-1.07,1.52c-.11-.19-.4-.45-.85-.79-.6-.45-1.09-.75-1.47-.9l1.07-1.58c.26.08.68.32,1.24.73.53.38.88.68,1.07.9v-.68h3.67v-1.02h1.98v1.02h3.61v1.58h-3.61v.62h2.88v4.01h-1.69c.56.6,1.47,1.13,2.71,1.58Zm-6.78-3.22h.9v-.79h-.9v.79Zm2.88,0h.9v-.79h-.9v.79Z"/><path class="cls-4" d="m99.23,278.32h-3.11l-.68-1.86h2.77c.49,0,.83-.13,1.02-.4.15-.23.26-.64.34-1.24l.11-1.13h-2.94l-.11.79-2.15-.28.45-3.11.28-2.43h4.35v-1.41h-4.74v-1.81h6.72v4.97h-4.35l-.17,1.47h4.8l-.23,2.65-.34,2.2c-.19,1.05-.87,1.58-2.03,1.58Zm5.19,0v-13.1h2.09v13.1h-2.09Z"/><path class="cls-4" d="m108.83,270.36c1.73-.19,3.42-.4,5.08-.62l-.4-.68c-1.13.23-2.39.38-3.78.45l-.28-1.86c1.58-.08,2.71-.17,3.39-.28-.15-.3-.34-.81-.56-1.52l2.2-.34c.26.79.45,1.3.56,1.52.71-.11,1.51-.3,2.37-.56l.56,1.69c-.75.23-1.54.4-2.37.51l.34.68c1.05-.23,2-.45,2.82-.68l.51,1.81c-.45.11-1.3.3-2.54.56.64,1.09,1.15,1.9,1.52,2.43l-1.19,1.36c-.98-.56-2.18-.88-3.61-.96-.45-.04-.83-.02-1.13.06-.45.11-.72.32-.79.62-.23.83.41,1.32,1.92,1.47,1.32.11,2.6-.02,3.84-.4l.11,1.92c-1.66.38-3.16.49-4.52.34-1.92-.19-3.05-.98-3.39-2.37-.23-.83-.08-1.52.45-2.09.49-.53,1.15-.85,1.98-.96.83-.11,1.92-.09,3.28.06l-.51-.96c-1.84.26-3.71.51-5.59.73l-.28-1.92Z"/><path class="cls-4" d="m120.41,276.97c.71-.98,1.21-2.41,1.47-4.29l1.64.85c-.08.79-.26,1.66-.56,2.6-.3,1.02-.6,1.73-.9,2.15l-1.64-1.3Zm.06-6.61l1.07-1.58c.34.08.75.28,1.24.62.49.34.83.62,1.02.85l-1.13,1.64c-.19-.23-.53-.51-1.02-.85-.45-.3-.85-.53-1.19-.68Zm13.16-2.15h-1.52v.62h1.3v1.41h-1.3v1.92h-5.14v-1.92h-1.07v2.54c0,1.43-.23,2.73-.68,3.9,1.2-.08,2.05-.3,2.54-.68-.6-.49-1.02-1.02-1.24-1.58h-.45v-1.81h5.76l.11-.11,1.3,1.52c-.41.68-1.09,1.39-2.03,2.15.68.34,1.5.51,2.48.51l-.62,1.81c-1.62-.19-2.8-.6-3.56-1.24-.3.26-.81.53-1.52.79-.72.26-1.32.41-1.81.45l-1.02-1.69c-.19.68-.43,1.17-.73,1.47l-1.53-1.52c.68-.98,1.02-2.15,1.02-3.5v-6.15l-.85,1.35c-.15-.23-.43-.49-.85-.79-.57-.41-1.05-.68-1.47-.79l1.13-1.52c.3.08.68.26,1.13.56.45.3.75.55.9.73v-.28h3.84v-1.13h2.03v1.13h3.84v1.86Zm-7.74.62h1.07v-.62h-1.07v.62Zm3.61,6.44c.38-.15.7-.43.96-.85h-1.86c.3.45.6.73.9.85Zm-.62-6.44h1.3v-.62h-1.3v.62Zm0,1.86h1.3v-.45h-1.3v.45Z"/><path class="cls-4" d="m135.43,265.56l2.15.17c-.11,1.17-.19,2.33-.23,3.5-.04,1.21-.08,2.39-.11,3.56v1.13c0,.53.08.92.23,1.19.19.42.62.62,1.3.62.56,0,1.09-.13,1.58-.4,1.28-.64,2.33-1.88,3.16-3.73l1.64,1.41c-.9,1.66-2.09,2.94-3.56,3.84-1.62,1.02-3.2,1.28-4.74.79-.64-.19-1.07-.55-1.3-1.07-.23-.49-.34-1.19-.34-2.09.04-2.94.11-5.91.23-8.92Z"/><path class="cls-4" d="m153.78,277.81l-1.02-1.81c1.43-.49,2.39-1.09,2.88-1.81.94-1.39,1.11-2.73.51-4.01-.56-1.24-1.58-1.84-3.05-1.81,0,3.92-.83,6.59-2.48,8.02-.68.56-1.37.71-2.09.45-.75-.3-1.32-.85-1.69-1.64-.75-1.51-.77-3.11-.06-4.8.71-1.62,1.88-2.75,3.5-3.39,1.17-.45,2.32-.6,3.44-.45,1.2.11,2.22.56,3.05,1.36.98.9,1.52,2.03,1.64,3.39.11,1.47-.23,2.77-1.02,3.9-.83,1.17-2.03,2.03-3.61,2.6Zm-2.6-9.2c-1.69.6-2.63,1.83-2.82,3.67-.08.53-.02,1.05.17,1.58.23.64.53.87.9.68.49-.23.9-.85,1.24-1.86.34-1.02.51-2.37.51-4.07Z"/><path class="cls-4" d="m159.48,270.7c1.09-1.28,1.99-3.11,2.71-5.48l1.86.56c-.38,1.21-.72,2.11-1.02,2.71v9.88h-1.98v-6.49l-.62.96-.96-2.15Zm3.67-.34c.41-.53.81-1.24,1.19-2.15.41-1.02.66-1.86.73-2.54l1.81.62c-.11.75-.28,1.36-.51,1.81h.9v-2.94h2.03v2.94h2.82v1.75h-2.82v2.37h3.56v1.81h-3.56v4.24h-2.03v-4.24h-3.84v-1.81h3.84v-2.37h-1.58c-.42,1.05-.77,1.73-1.07,2.03l-1.47-1.52Z"/><path class="cls-4" d="m173.82,267.2c4.48-.23,8.32-.66,11.52-1.3l.34,1.98c-.94.15-1.54.26-1.81.34-.53.15-1.09.43-1.69.85-.83.57-1.52,1.34-2.09,2.32-.68,1.17-.79,2.15-.34,2.94.34.56.9.96,1.69,1.19.34.11,1.04.25,2.09.39l-.62,1.98c-1.05-.19-1.88-.4-2.48-.62-.9-.3-1.62-.75-2.15-1.36-1.02-1.09-1.24-2.39-.68-3.9.49-1.28,1.35-2.41,2.6-3.39-1.21.19-3.24.4-6.1.62l-.28-2.03Zm8.87,2.82l1.13-.51.79,1.52-1.13.56-.79-1.58Zm1.52-.68l1.19-.51.73,1.52-1.07.51-.85-1.53Z"/><path class="cls-4" d="m186.58,267.37c1.73-.04,3.5-.08,5.31-.11l-.06-1.69h2.2l-.06,1.69h4.46v1.86l-4.52-.06.06,1.3c.71.87.94,2,.68,3.39-.15.79-.49,1.56-1.02,2.32-.6.83-1.34,1.5-2.2,2.03l-1.41-1.47c1.09-.64,1.77-1.24,2.03-1.81-.53.3-1.07.36-1.64.17-.75-.26-1.22-.88-1.41-1.86-.15-.87-.06-1.66.28-2.37.53-1.02,1.43-1.41,2.71-1.19l-.06-.45c-1.88.08-3.67.15-5.36.23v-1.98Zm4.91,4.01c-.49.08-.72.42-.68,1.02.04.6.26.92.68.96.3.04.53-.06.68-.28.11-.19.17-.43.17-.73s-.08-.54-.23-.73c-.15-.19-.36-.26-.62-.23Z"/><path class="cls-4" d="m199.35,276.74c1.32-1.77,2.37-3.76,3.16-5.99-.53.11-1.37.32-2.54.62l-.45-1.98c1.17-.19,2.33-.38,3.5-.56.23-.83.39-1.84.51-3.05l2.2.45-.68,2.37c1.39-.23,2.33.13,2.82,1.07.41.75.51,1.9.28,3.44-.11.9-.3,1.71-.56,2.43-.38,1.05-.85,1.73-1.41,2.03-.49.26-1.26.34-2.31.23l-.45-2.03c.79.04,1.28.04,1.47,0,.26-.08.49-.28.68-.62.34-.64.58-1.34.73-2.09.19-.83.21-1.49.06-1.98-.11-.41-.36-.64-.73-.68-.23,0-.58.02-1.07.06-.79,2.71-1.96,5.19-3.5,7.45l-1.69-1.19Zm8.64-10.22l.96-.73,1.19,1.58-.96.68-1.19-1.53Zm.17,2.43l1.69-1.07c.68,1.02,1.41,2.67,2.2,4.97l-1.86.9c-.64-2.18-1.32-3.78-2.03-4.8Zm1.36-3.16l.96-.68,1.13,1.58-.96.68-1.13-1.58Z"/><path class="cls-4" d="m215.54,276.18c.19.19.28.41.28.68s-.09.49-.28.68c-.23.23-.47.34-.73.34s-.51-.11-.73-.34c-.19-.19-.28-.41-.28-.68s.09-.49.28-.68c.23-.23.47-.34.73-.34s.51.11.73.34Z"/><path class="cls-4" d="m218.87,276.18c.19.19.28.41.28.68s-.09.49-.28.68c-.23.23-.47.34-.73.34s-.51-.11-.73-.34c-.19-.19-.28-.41-.28-.68s.09-.49.28-.68c.23-.23.47-.34.73-.34s.51.11.73.34Z"/><path class="cls-4" d="m222.2,276.18c.19.19.28.41.28.68s-.09.49-.28.68c-.23.23-.47.34-.73.34s-.51-.11-.73-.34c-.19-.19-.28-.41-.28-.68s.09-.49.28-.68c.23-.23.47-.34.73-.34s.51.11.73.34Z"/><path class="cls-4" d="m225.53,276.18c.19.19.28.41.28.68s-.09.49-.28.68c-.23.23-.47.34-.73.34s-.51-.11-.73-.34c-.19-.19-.28-.41-.28-.68s.09-.49.28-.68c.23-.23.47-.34.73-.34s.51.11.73.34Z"/><path class="cls-4" d="m228.86,276.18c.19.19.28.41.28.68s-.09.49-.28.68c-.23.23-.47.34-.73.34s-.51-.11-.73-.34c-.19-.19-.28-.41-.28-.68s.09-.49.28-.68c.23-.23.47-.34.73-.34s.51.11.73.34Z"/></g><g><path d="m65.69,273.13h5.48v-.96h-3.84v-6.49h9.77v6.49h-3.9v.96h5.42v1.81h-5.42v3.39h-2.03v-3.39h-5.48v-1.81Zm3.61-4.97h5.82v-.68h-5.82v.68Zm0,2.15h5.82v-.68h-5.82v.68Z"/><path d="m86.19,276.29h2.82l4.07-.11-.45,1.86-5.76.11c-.94,0-1.75-.04-2.43-.11-.75-.11-1.38-.42-1.86-.9l-1.47,1.3-1.19-1.64,1.41-1.3v-2.88h-1.36v-1.69h3.28v2.82c0,.79.15,1.36.45,1.69.53.56,1.36.85,2.48.85Zm6.89-2.26l-1.19,1.75c-1.17-.49-2.07-1.13-2.71-1.92v2.03h-1.98v-2.26c-.64.98-1.49,1.71-2.54,2.2l-1.19-1.81c1.17-.41,1.92-.94,2.26-1.58h-1.47v-4.01h2.94v-.62h-3.67v-.79l-1.07,1.52c-.11-.19-.4-.45-.85-.79-.6-.45-1.09-.75-1.47-.9l1.07-1.58c.26.08.68.32,1.24.73.53.38.88.68,1.07.9v-.68h3.67v-1.02h1.98v1.02h3.61v1.58h-3.61v.62h2.88v4.01h-1.69c.56.6,1.47,1.13,2.71,1.58Zm-6.78-3.22h.9v-.79h-.9v.79Zm2.88,0h.9v-.79h-.9v.79Z"/><path d="m99.23,278.32h-3.11l-.68-1.86h2.77c.49,0,.83-.13,1.02-.4.15-.23.26-.64.34-1.24l.11-1.13h-2.94l-.11.79-2.15-.28.45-3.11.28-2.43h4.35v-1.41h-4.74v-1.81h6.72v4.97h-4.35l-.17,1.47h4.8l-.23,2.65-.34,2.2c-.19,1.05-.87,1.58-2.03,1.58Zm5.19,0v-13.1h2.09v13.1h-2.09Z"/><path d="m108.83,270.36c1.73-.19,3.42-.4,5.08-.62l-.4-.68c-1.13.23-2.39.38-3.78.45l-.28-1.86c1.58-.08,2.71-.17,3.39-.28-.15-.3-.34-.81-.56-1.52l2.2-.34c.26.79.45,1.3.56,1.52.71-.11,1.51-.3,2.37-.56l.56,1.69c-.75.23-1.54.4-2.37.51l.34.68c1.05-.23,2-.45,2.82-.68l.51,1.81c-.45.11-1.3.3-2.54.56.64,1.09,1.15,1.9,1.52,2.43l-1.19,1.36c-.98-.56-2.18-.88-3.61-.96-.45-.04-.83-.02-1.13.06-.45.11-.72.32-.79.62-.23.83.41,1.32,1.92,1.47,1.32.11,2.6-.02,3.84-.4l.11,1.92c-1.66.38-3.16.49-4.52.34-1.92-.19-3.05-.98-3.39-2.37-.23-.83-.08-1.52.45-2.09.49-.53,1.15-.85,1.98-.96.83-.11,1.92-.09,3.28.06l-.51-.96c-1.84.26-3.71.51-5.59.73l-.28-1.92Z"/><path d="m120.41,276.97c.71-.98,1.21-2.41,1.47-4.29l1.64.85c-.08.79-.26,1.66-.56,2.6-.3,1.02-.6,1.73-.9,2.15l-1.64-1.3Zm.06-6.61l1.07-1.58c.34.08.75.28,1.24.62.49.34.83.62,1.02.85l-1.13,1.64c-.19-.23-.53-.51-1.02-.85-.45-.3-.85-.53-1.19-.68Zm13.16-2.15h-1.52v.62h1.3v1.41h-1.3v1.92h-5.14v-1.92h-1.07v2.54c0,1.43-.23,2.73-.68,3.9,1.2-.08,2.05-.3,2.54-.68-.6-.49-1.02-1.02-1.24-1.58h-.45v-1.81h5.76l.11-.11,1.3,1.52c-.41.68-1.09,1.39-2.03,2.15.68.34,1.5.51,2.48.51l-.62,1.81c-1.62-.19-2.8-.6-3.56-1.24-.3.26-.81.53-1.52.79-.72.26-1.32.41-1.81.45l-1.02-1.69c-.19.68-.43,1.17-.73,1.47l-1.53-1.52c.68-.98,1.02-2.15,1.02-3.5v-6.15l-.85,1.35c-.15-.23-.43-.49-.85-.79-.57-.41-1.05-.68-1.47-.79l1.13-1.52c.3.08.68.26,1.13.56.45.3.75.55.9.73v-.28h3.84v-1.13h2.03v1.13h3.84v1.86Zm-7.74.62h1.07v-.62h-1.07v.62Zm3.61,6.44c.38-.15.7-.43.96-.85h-1.86c.3.45.6.73.9.85Zm-.62-6.44h1.3v-.62h-1.3v.62Zm0,1.86h1.3v-.45h-1.3v.45Z"/><path d="m135.43,265.56l2.15.17c-.11,1.17-.19,2.33-.23,3.5-.04,1.21-.08,2.39-.11,3.56v1.13c0,.53.08.92.23,1.19.19.42.62.62,1.3.62.56,0,1.09-.13,1.58-.4,1.28-.64,2.33-1.88,3.16-3.73l1.64,1.41c-.9,1.66-2.09,2.94-3.56,3.84-1.62,1.02-3.2,1.28-4.74.79-.64-.19-1.07-.55-1.3-1.07-.23-.49-.34-1.19-.34-2.09.04-2.94.11-5.91.23-8.92Z"/><path d="m153.78,277.81l-1.02-1.81c1.43-.49,2.39-1.09,2.88-1.81.94-1.39,1.11-2.73.51-4.01-.56-1.24-1.58-1.84-3.05-1.81,0,3.92-.83,6.59-2.48,8.02-.68.56-1.37.71-2.09.45-.75-.3-1.32-.85-1.69-1.64-.75-1.51-.77-3.11-.06-4.8.71-1.62,1.88-2.75,3.5-3.39,1.17-.45,2.32-.6,3.44-.45,1.2.11,2.22.56,3.05,1.36.98.9,1.52,2.03,1.64,3.39.11,1.47-.23,2.77-1.02,3.9-.83,1.17-2.03,2.03-3.61,2.6Zm-2.6-9.2c-1.69.6-2.63,1.83-2.82,3.67-.08.53-.02,1.05.17,1.58.23.64.53.87.9.68.49-.23.9-.85,1.24-1.86.34-1.02.51-2.37.51-4.07Z"/><path d="m159.48,270.7c1.09-1.28,1.99-3.11,2.71-5.48l1.86.56c-.38,1.21-.72,2.11-1.02,2.71v9.88h-1.98v-6.49l-.62.96-.96-2.15Zm3.67-.34c.41-.53.81-1.24,1.19-2.15.41-1.02.66-1.86.73-2.54l1.81.62c-.11.75-.28,1.36-.51,1.81h.9v-2.94h2.03v2.94h2.82v1.75h-2.82v2.37h3.56v1.81h-3.56v4.24h-2.03v-4.24h-3.84v-1.81h3.84v-2.37h-1.58c-.42,1.05-.77,1.73-1.07,2.03l-1.47-1.52Z"/><path d="m173.82,267.2c4.48-.23,8.32-.66,11.52-1.3l.34,1.98c-.94.15-1.54.26-1.81.34-.53.15-1.09.43-1.69.85-.83.57-1.52,1.34-2.09,2.32-.68,1.17-.79,2.15-.34,2.94.34.56.9.96,1.69,1.19.34.11,1.04.25,2.09.39l-.62,1.98c-1.05-.19-1.88-.4-2.48-.62-.9-.3-1.62-.75-2.15-1.36-1.02-1.09-1.24-2.39-.68-3.9.49-1.28,1.35-2.41,2.6-3.39-1.21.19-3.24.4-6.1.62l-.28-2.03Zm8.87,2.82l1.13-.51.79,1.52-1.13.56-.79-1.58Zm1.52-.68l1.19-.51.73,1.52-1.07.51-.85-1.53Z"/><path d="m186.58,267.37c1.73-.04,3.5-.08,5.31-.11l-.06-1.69h2.2l-.06,1.69h4.46v1.86l-4.52-.06.06,1.3c.71.87.94,2,.68,3.39-.15.79-.49,1.56-1.02,2.32-.6.83-1.34,1.5-2.2,2.03l-1.41-1.47c1.09-.64,1.77-1.24,2.03-1.81-.53.3-1.07.36-1.64.17-.75-.26-1.22-.88-1.41-1.86-.15-.87-.06-1.66.28-2.37.53-1.02,1.43-1.41,2.71-1.19l-.06-.45c-1.88.08-3.67.15-5.36.23v-1.98Zm4.91,4.01c-.49.08-.72.42-.68,1.02.04.6.26.92.68.96.3.04.53-.06.68-.28.11-.19.17-.43.17-.73s-.08-.54-.23-.73c-.15-.19-.36-.26-.62-.23Z"/><path d="m199.35,276.74c1.32-1.77,2.37-3.76,3.16-5.99-.53.11-1.37.32-2.54.62l-.45-1.98c1.17-.19,2.33-.38,3.5-.56.23-.83.39-1.84.51-3.05l2.2.45-.68,2.37c1.39-.23,2.33.13,2.82,1.07.41.75.51,1.9.28,3.44-.11.9-.3,1.71-.56,2.43-.38,1.05-.85,1.73-1.41,2.03-.49.26-1.26.34-2.31.23l-.45-2.03c.79.04,1.28.04,1.47,0,.26-.08.49-.28.68-.62.34-.64.58-1.34.73-2.09.19-.83.21-1.49.06-1.98-.11-.41-.36-.64-.73-.68-.23,0-.58.02-1.07.06-.79,2.71-1.96,5.19-3.5,7.45l-1.69-1.19Zm8.64-10.22l.96-.73,1.19,1.58-.96.68-1.19-1.53Zm.17,2.43l1.69-1.07c.68,1.02,1.41,2.67,2.2,4.97l-1.86.9c-.64-2.18-1.32-3.78-2.03-4.8Zm1.36-3.16l.96-.68,1.13,1.58-.96.68-1.13-1.58Z"/><path d="m215.54,276.18c.19.19.28.41.28.68s-.09.49-.28.68c-.23.23-.47.34-.73.34s-.51-.11-.73-.34c-.19-.19-.28-.41-.28-.68s.09-.49.28-.68c.23-.23.47-.34.73-.34s.51.11.73.34Z"/><path d="m218.87,276.18c.19.19.28.41.28.68s-.09.49-.28.68c-.23.23-.47.34-.73.34s-.51-.11-.73-.34c-.19-.19-.28-.41-.28-.68s.09-.49.28-.68c.23-.23.47-.34.73-.34s.51.11.73.34Z"/><path d="m222.2,276.18c.19.19.28.41.28.68s-.09.49-.28.68c-.23.23-.47.34-.73.34s-.51-.11-.73-.34c-.19-.19-.28-.41-.28-.68s.09-.49.28-.68c.23-.23.47-.34.73-.34s.51.11.73.34Z"/><path d="m225.53,276.18c.19.19.28.41.28.68s-.09.49-.28.68c-.23.23-.47.34-.73.34s-.51-.11-.73-.34c-.19-.19-.28-.41-.28-.68s.09-.49.28-.68c.23-.23.47-.34.73-.34s.51.11.73.34Z"/><path d="m228.86,276.18c.19.19.28.41.28.68s-.09.49-.28.68c-.23.23-.47.34-.73.34s-.51-.11-.73-.34c-.19-.19-.28-.41-.28-.68s.09-.49.28-.68c.23-.23.47-.34.73-.34s.51.11.73.34Z"/></g></g><g><g><path class="cls-2" d="m48.45,217.76l1.75.28-.06.17c.38.56.96,1.04,1.75,1.41v-1.24h6.32v11.35c0,.87-.47,1.3-1.41,1.3h-1.75l-.51-1.98h1.19c.38,0,.57-.21.57-.62v-8.24h-4.24l-.79,1.36c-.45-.23-.87-.53-1.24-.9v1.02h1.41v5.48h-3.11v1.36l.96-.23-.23-.51,1.58-.56c.56.98,1.02,1.96,1.35,2.94l-1.81.57-.23-.68c-1.28.38-2.65.66-4.12.85l-.4-1.92,1.07-.11v-6.55l-.45.39-.73-1.86c1.17-.68,2.2-1.69,3.11-3.05Zm-1.13,3.9h.85v-.79c-.38.38-.66.64-.85.79Zm1.02,2.09h1.24v-.45h-1.24v.45Zm0,1.75h1.24v-.45h-1.24v.45Zm.17-4.97h1.41c-.3-.3-.55-.56-.73-.79-.08.15-.3.41-.68.79Zm3.39,2.09v-1.58h4.12v1.58h-4.12Zm.17,5.7v-4.91h3.73v4.29h-2.26v.62h-1.47Zm1.47-2.09h.79v-1.41h-.79v1.41Z"/><path class="cls-2" d="m62.85,219.56c-.26.72-.45,1.49-.56,2.32-.11.71-.19,1.37-.23,1.98-.04.42,0,1,.11,1.75.08.45.17.81.28,1.07.15.34.32.51.51.51.26,0,.53-.3.79-.9l.56-1.24,1.58,1.19c-.23.72-.56,1.43-1.02,2.15-.53.83-1.04,1.34-1.52,1.52s-1,.04-1.52-.45c-.53-.45-.9-.98-1.13-1.58-.87-2.18-.83-5.16.11-8.92l2.03.62Zm5.08,1.24l1.75-.9c1.17,2.07,2.01,4.27,2.54,6.61l-1.98.73c-.53-2.33-1.3-4.48-2.31-6.44Z"/><path class="cls-2" d="m81.37,220.24h4.46v1.81h-4.74v2.2h3.95v1.81h-3.95v2.65h5.48v1.86h-13.04v-1.86h5.48v-2.65h-4.07v-1.81h4.07v-2.2h-4.69v-1.81h5.25c-.38-.26-1-.56-1.86-.9l1.53-1.69c1.54.75,2.52,1.28,2.94,1.58l-.79,1.02Z"/></g><g><path class="cls-4" d="m48.45,217.76l1.75.28-.06.17c.38.56.96,1.04,1.75,1.41v-1.24h6.32v11.35c0,.87-.47,1.3-1.41,1.3h-1.75l-.51-1.98h1.19c.38,0,.57-.21.57-.62v-8.24h-4.24l-.79,1.36c-.45-.23-.87-.53-1.24-.9v1.02h1.41v5.48h-3.11v1.36l.96-.23-.23-.51,1.58-.56c.56.98,1.02,1.96,1.35,2.94l-1.81.57-.23-.68c-1.28.38-2.65.66-4.12.85l-.4-1.92,1.07-.11v-6.55l-.45.39-.73-1.86c1.17-.68,2.2-1.69,3.11-3.05Zm-1.13,3.9h.85v-.79c-.38.38-.66.64-.85.79Zm1.02,2.09h1.24v-.45h-1.24v.45Zm0,1.75h1.24v-.45h-1.24v.45Zm.17-4.97h1.41c-.3-.3-.55-.56-.73-.79-.08.15-.3.41-.68.79Zm3.39,2.09v-1.58h4.12v1.58h-4.12Zm.17,5.7v-4.91h3.73v4.29h-2.26v.62h-1.47Zm1.47-2.09h.79v-1.41h-.79v1.41Z"/><path class="cls-4" d="m62.85,219.56c-.26.72-.45,1.49-.56,2.32-.11.71-.19,1.37-.23,1.98-.04.42,0,1,.11,1.75.08.45.17.81.28,1.07.15.34.32.51.51.51.26,0,.53-.3.79-.9l.56-1.24,1.58,1.19c-.23.72-.56,1.43-1.02,2.15-.53.83-1.04,1.34-1.52,1.52s-1,.04-1.52-.45c-.53-.45-.9-.98-1.13-1.58-.87-2.18-.83-5.16.11-8.92l2.03.62Zm5.08,1.24l1.75-.9c1.17,2.07,2.01,4.27,2.54,6.61l-1.98.73c-.53-2.33-1.3-4.48-2.31-6.44Z"/><path class="cls-4" d="m81.37,220.24h4.46v1.81h-4.74v2.2h3.95v1.81h-3.95v2.65h5.48v1.86h-13.04v-1.86h5.48v-2.65h-4.07v-1.81h4.07v-2.2h-4.69v-1.81h5.25c-.38-.26-1-.56-1.86-.9l1.53-1.69c1.54.75,2.52,1.28,2.94,1.58l-.79,1.02Z"/></g><g><path d="m48.45,217.76l1.75.28-.06.17c.38.56.96,1.04,1.75,1.41v-1.24h6.32v11.35c0,.87-.47,1.3-1.41,1.3h-1.75l-.51-1.98h1.19c.38,0,.57-.21.57-.62v-8.24h-4.24l-.79,1.36c-.45-.23-.87-.53-1.24-.9v1.02h1.41v5.48h-3.11v1.36l.96-.23-.23-.51,1.58-.56c.56.98,1.02,1.96,1.35,2.94l-1.81.57-.23-.68c-1.28.38-2.65.66-4.12.85l-.4-1.92,1.07-.11v-6.55l-.45.39-.73-1.86c1.17-.68,2.2-1.69,3.11-3.05Zm-1.13,3.9h.85v-.79c-.38.38-.66.64-.85.79Zm1.02,2.09h1.24v-.45h-1.24v.45Zm0,1.75h1.24v-.45h-1.24v.45Zm.17-4.97h1.41c-.3-.3-.55-.56-.73-.79-.08.15-.3.41-.68.79Zm3.39,2.09v-1.58h4.12v1.58h-4.12Zm.17,5.7v-4.91h3.73v4.29h-2.26v.62h-1.47Zm1.47-2.09h.79v-1.41h-.79v1.41Z"/><path d="m62.85,219.56c-.26.72-.45,1.49-.56,2.32-.11.71-.19,1.37-.23,1.98-.04.42,0,1,.11,1.75.08.45.17.81.28,1.07.15.34.32.51.51.51.26,0,.53-.3.79-.9l.56-1.24,1.58,1.19c-.23.72-.56,1.43-1.02,2.15-.53.83-1.04,1.34-1.52,1.52s-1,.04-1.52-.45c-.53-.45-.9-.98-1.13-1.58-.87-2.18-.83-5.16.11-8.92l2.03.62Zm5.08,1.24l1.75-.9c1.17,2.07,2.01,4.27,2.54,6.61l-1.98.73c-.53-2.33-1.3-4.48-2.31-6.44Z"/><path d="m81.37,220.24h4.46v1.81h-4.74v2.2h3.95v1.81h-3.95v2.65h5.48v1.86h-13.04v-1.86h5.48v-2.65h-4.07v-1.81h4.07v-2.2h-4.69v-1.81h5.25c-.38-.26-1-.56-1.86-.9l1.53-1.69c1.54.75,2.52,1.28,2.94,1.58l-.79,1.02Z"/></g></g></g><g><g><path class="cls-2" d="m237.98,124.44l1.41-1.3h-4.07v2.48l-.06,2.54c0,.75-.09,1.49-.28,2.2-.23.98-.64,1.96-1.24,2.94l-1.41-1.98c.64-1.09.96-2.33.96-3.73v-6.21h5.03v-1.35h1.98v1.35h5.2v1.75h-5.93c1.24.68,2.22,1.32,2.94,1.92l-1.3,1.52c-.19-.26-.6-.62-1.24-1.07-.68-.45-1.34-.81-1.98-1.07Zm-2.94,6.89c.64-1.54.92-3.18.85-4.91l1.92.23c0,2.33-.32,4.22-.96,5.65l-1.81-.96Zm5.08-5.59v4.91c0,.19.04.32.11.39.11.11.23.17.34.17h.4c.23,0,.36-.38.4-1.13l.06-1.19,1.92.68-.23,1.69c-.15,1.2-.66,1.81-1.52,1.81h-1.81c-1.09,0-1.64-.53-1.64-1.58v-5.76h1.98Zm3.78,0c.94,1.51,1.62,3.14,2.03,4.91l-1.92.85c-.34-2-.98-3.63-1.92-4.91l1.81-.85Z"/><path class="cls-2" d="m249.55,128.56h-2.43v-1.64h4.01l.23-.28h-2.48v-3.95h1.58v-.4h-3.33v-1.64h3.33v-.68h1.98v.68h2.37v-.68h1.98v.68h3.33v1.64h-3.33v.4h1.58v3.95h-4.63l-.23.28h6.61v1.64h-2.37c.15.19.47.4.96.62.53.26,1.03.43,1.52.51l-.62,1.86c-.68-.15-1.28-.4-1.81-.73v.9c-.04.34-.15.62-.34.85-.26.38-.64.57-1.13.57h-1.58l-.51-1.52h1.07c.34,0,.47-.25.39-.73h-1.75c-.87,1.54-2.41,2.39-4.63,2.54l-.73-1.75c1.43-.07,2.37-.34,2.82-.79h-1.47v-.4c-.15.15-.47.36-.96.62-.45.23-.81.38-1.07.45l-.9-1.75c1.17-.3,2.01-.71,2.54-1.24Zm1.3-4.4h5.53v-.34h-5.53v.34Zm0,1.3h5.53v-.34h-5.53v.34Zm.51,4.01h1.13l.23-.62,1.92.11-.11.51h1.3c-.23-.11-.58-.41-1.07-.9h-2.37c-.34.42-.68.72-1.02.9Zm1.07-6.78h2.37v-.4h-2.37v.4Z"/><path class="cls-2" d="m263.16,123.14v-1.81h3.44v-1.35h2.09v1.35h2.94v.79c.64-.53,1.15-1.07,1.52-1.64l1.24,1.47c-.98,1.05-1.75,1.77-2.32,2.15h2.54v1.81h-4.91l-.96.68h4.23v6.61h-1.98v-.68h-4.4v.68h-1.98v-4.29c-.3.3-1.05.64-2.26,1.02l-1.02-1.86c.79-.19,1.67-.51,2.65-.96,1.02-.45,1.75-.85,2.2-1.19h-4.63v-1.81h5.03v-.96h-3.44Zm3.44,5.7h4.4v-.62h-4.4v.62Zm0,2.03h4.4v-.62h-4.4v.62Zm2.48-6.78c.49-.3.9-.62,1.24-.96h-1.64v.96h.4Z"/></g><g><path class="cls-4" d="m237.98,124.44l1.41-1.3h-4.07v2.48l-.06,2.54c0,.75-.09,1.49-.28,2.2-.23.98-.64,1.96-1.24,2.94l-1.41-1.98c.64-1.09.96-2.33.96-3.73v-6.21h5.03v-1.35h1.98v1.35h5.2v1.75h-5.93c1.24.68,2.22,1.32,2.94,1.92l-1.3,1.52c-.19-.26-.6-.62-1.24-1.07-.68-.45-1.34-.81-1.98-1.07Zm-2.94,6.89c.64-1.54.92-3.18.85-4.91l1.92.23c0,2.33-.32,4.22-.96,5.65l-1.81-.96Zm5.08-5.59v4.91c0,.19.04.32.11.39.11.11.23.17.34.17h.4c.23,0,.36-.38.4-1.13l.06-1.19,1.92.68-.23,1.69c-.15,1.2-.66,1.81-1.52,1.81h-1.81c-1.09,0-1.64-.53-1.64-1.58v-5.76h1.98Zm3.78,0c.94,1.51,1.62,3.14,2.03,4.91l-1.92.85c-.34-2-.98-3.63-1.92-4.91l1.81-.85Z"/><path class="cls-4" d="m249.55,128.56h-2.43v-1.64h4.01l.23-.28h-2.48v-3.95h1.58v-.4h-3.33v-1.64h3.33v-.68h1.98v.68h2.37v-.68h1.98v.68h3.33v1.64h-3.33v.4h1.58v3.95h-4.63l-.23.28h6.61v1.64h-2.37c.15.19.47.4.96.62.53.26,1.03.43,1.52.51l-.62,1.86c-.68-.15-1.28-.4-1.81-.73v.9c-.04.34-.15.62-.34.85-.26.38-.64.57-1.13.57h-1.58l-.51-1.52h1.07c.34,0,.47-.25.39-.73h-1.75c-.87,1.54-2.41,2.39-4.63,2.54l-.73-1.75c1.43-.07,2.37-.34,2.82-.79h-1.47v-.4c-.15.15-.47.36-.96.62-.45.23-.81.38-1.07.45l-.9-1.75c1.17-.3,2.01-.71,2.54-1.24Zm1.3-4.4h5.53v-.34h-5.53v.34Zm0,1.3h5.53v-.34h-5.53v.34Zm.51,4.01h1.13l.23-.62,1.92.11-.11.51h1.3c-.23-.11-.58-.41-1.07-.9h-2.37c-.34.42-.68.72-1.02.9Zm1.07-6.78h2.37v-.4h-2.37v.4Z"/><path class="cls-4" d="m263.16,123.14v-1.81h3.44v-1.35h2.09v1.35h2.94v.79c.64-.53,1.15-1.07,1.52-1.64l1.24,1.47c-.98,1.05-1.75,1.77-2.32,2.15h2.54v1.81h-4.91l-.96.68h4.23v6.61h-1.98v-.68h-4.4v.68h-1.98v-4.29c-.3.3-1.05.64-2.26,1.02l-1.02-1.86c.79-.19,1.67-.51,2.65-.96,1.02-.45,1.75-.85,2.2-1.19h-4.63v-1.81h5.03v-.96h-3.44Zm3.44,5.7h4.4v-.62h-4.4v.62Zm0,2.03h4.4v-.62h-4.4v.62Zm2.48-6.78c.49-.3.9-.62,1.24-.96h-1.64v.96h.4Z"/></g><g><path d="m237.98,124.44l1.41-1.3h-4.07v2.48l-.06,2.54c0,.75-.09,1.49-.28,2.2-.23.98-.64,1.96-1.24,2.94l-1.41-1.98c.64-1.09.96-2.33.96-3.73v-6.21h5.03v-1.35h1.98v1.35h5.2v1.75h-5.93c1.24.68,2.22,1.32,2.94,1.92l-1.3,1.52c-.19-.26-.6-.62-1.24-1.07-.68-.45-1.34-.81-1.98-1.07Zm-2.94,6.89c.64-1.54.92-3.18.85-4.91l1.92.23c0,2.33-.32,4.22-.96,5.65l-1.81-.96Zm5.08-5.59v4.91c0,.19.04.32.11.39.11.11.23.17.34.17h.4c.23,0,.36-.38.4-1.13l.06-1.19,1.92.68-.23,1.69c-.15,1.2-.66,1.81-1.52,1.81h-1.81c-1.09,0-1.64-.53-1.64-1.58v-5.76h1.98Zm3.78,0c.94,1.51,1.62,3.14,2.03,4.91l-1.92.85c-.34-2-.98-3.63-1.92-4.91l1.81-.85Z"/><path d="m249.55,128.56h-2.43v-1.64h4.01l.23-.28h-2.48v-3.95h1.58v-.4h-3.33v-1.64h3.33v-.68h1.98v.68h2.37v-.68h1.98v.68h3.33v1.64h-3.33v.4h1.58v3.95h-4.63l-.23.28h6.61v1.64h-2.37c.15.19.47.4.96.62.53.26,1.03.43,1.52.51l-.62,1.86c-.68-.15-1.28-.4-1.81-.73v.9c-.04.34-.15.62-.34.85-.26.38-.64.57-1.13.57h-1.58l-.51-1.52h1.07c.34,0,.47-.25.39-.73h-1.75c-.87,1.54-2.41,2.39-4.63,2.54l-.73-1.75c1.43-.07,2.37-.34,2.82-.79h-1.47v-.4c-.15.15-.47.36-.96.62-.45.23-.81.38-1.07.45l-.9-1.75c1.17-.3,2.01-.71,2.54-1.24Zm1.3-4.4h5.53v-.34h-5.53v.34Zm0,1.3h5.53v-.34h-5.53v.34Zm.51,4.01h1.13l.23-.62,1.92.11-.11.51h1.3c-.23-.11-.58-.41-1.07-.9h-2.37c-.34.42-.68.72-1.02.9Zm1.07-6.78h2.37v-.4h-2.37v.4Z"/><path d="m263.16,123.14v-1.81h3.44v-1.35h2.09v1.35h2.94v.79c.64-.53,1.15-1.07,1.52-1.64l1.24,1.47c-.98,1.05-1.75,1.77-2.32,2.15h2.54v1.81h-4.91l-.96.68h4.23v6.61h-1.98v-.68h-4.4v.68h-1.98v-4.29c-.3.3-1.05.64-2.26,1.02l-1.02-1.86c.79-.19,1.67-.51,2.65-.96,1.02-.45,1.75-.85,2.2-1.19h-4.63v-1.81h5.03v-.96h-3.44Zm3.44,5.7h4.4v-.62h-4.4v.62Zm0,2.03h4.4v-.62h-4.4v.62Zm2.48-6.78c.49-.3.9-.62,1.24-.96h-1.64v.96h.4Z"/></g></g><polygon class="cls-1" points="284.35 195.06 301.93 212.19 269.9 212.19 284.35 195.06"/><rect class="cls-1" x="81.13" y="138.23" width="205.98" height="73.96" rx="16.8" ry="16.8" transform="translate(368.23 350.43) rotate(-180)"/><g><g><path class="cls-2" d="m113.18,174.08c0-.23.04-.64.11-1.24-.79.08-1.49.11-2.09.11l-.11-1.86c1.21,0,2.01-.02,2.43-.06.07-.45.23-1.19.45-2.2l2.15.4c-.23.68-.39,1.22-.51,1.64,1.39-.15,2.54-.32,3.44-.51l.28,1.92c-1.32.26-2.65.43-4.01.51l-.06.68c.98-.08,1.71-.09,2.2-.06.83.08,1.52.28,2.09.62.79.45,1.32,1.09,1.58,1.92.34.98.28,1.9-.17,2.77-.75,1.43-2.17,2.26-4.24,2.48l-.79-1.64c.68-.11,1.22-.24,1.64-.4.71-.26,1.2-.66,1.47-1.19.26-.53.3-1.04.11-1.52-.15-.49-.47-.85-.96-1.07-.87,1.47-1.75,2.56-2.65,3.28l.17.56-1.92,1.02-.06-.17c-.83.49-1.62.71-2.37.68-.6-.04-1.07-.36-1.41-.96-.3-.53-.4-1.07-.28-1.64.3-1.62,1.47-2.97,3.5-4.07Zm.23,4.18c-.08-.26-.13-.6-.17-1.02,0-.38-.02-.75-.06-1.13-.98.75-1.49,1.47-1.52,2.15-.04.45.19.64.68.56.41-.07.77-.26,1.07-.56Zm1.86-1.86c.3-.3.62-.75.96-1.36-.45,0-.79.02-1.02.06,0,.6.02,1.04.06,1.3Z"/><path class="cls-2" d="m123.4,168.89l1.98.4c-.64,2.22-.9,4.1-.79,5.65.26-.68.53-1.3.79-1.86l1.36.85c-.72,1.43-1.22,2.6-1.52,3.5l-1.86.4c-.53-1.58-.73-3.22-.62-4.91.08-1.09.3-2.43.68-4.01Zm2.43,10.62c2.07-.68,3.26-2.03,3.56-4.07.26-1.96.21-4.14-.17-6.55h2.15c.26,2.52.32,4.57.17,6.15-.15,1.47-.57,2.73-1.24,3.78-.79,1.17-1.83,1.98-3.11,2.43l-1.36-1.75Z"/><path class="cls-2" d="m133.06,179.96c1.32-1.77,2.37-3.76,3.16-5.99-.53.11-1.37.32-2.54.62l-.45-1.98c1.17-.19,2.33-.38,3.5-.56.23-.83.39-1.84.51-3.05l2.2.45-.68,2.37c1.39-.23,2.33.13,2.82,1.07.41.75.51,1.9.28,3.44-.11.9-.3,1.71-.56,2.43-.38,1.05-.85,1.73-1.41,2.03-.49.26-1.26.34-2.31.23l-.45-2.03c.79.04,1.28.04,1.47,0,.26-.08.49-.28.68-.62.34-.64.58-1.34.73-2.09.19-.83.21-1.49.06-1.98-.11-.41-.36-.64-.73-.68-.23,0-.58.02-1.07.06-.79,2.71-1.96,5.19-3.5,7.45l-1.69-1.19Zm8.64-10.22l.96-.73,1.19,1.58-.96.68-1.19-1.53Zm.17,2.43l1.69-1.07c.68,1.02,1.41,2.67,2.2,4.97l-1.86.9c-.64-2.18-1.32-3.78-2.03-4.8Zm1.36-3.16l.96-.68,1.13,1.58-.96.68-1.13-1.58Z"/><path class="cls-2" d="m149.66,174.08c-.72-1.32-1.17-2.9-1.36-4.74l2.09-.51c.15,1.81.47,3.26.96,4.35,1.43-.68,2.92-1.28,4.46-1.81l.68,1.81c-1.39.38-2.79.9-4.18,1.58-1.66.79-2.67,1.49-3.05,2.09-.42.64-.4,1.21.06,1.69.23.26.64.43,1.24.51.53.08,1.15.08,1.86,0,1.54-.11,2.97-.38,4.29-.79l.34,2.03c-1.36.34-2.62.54-3.78.62-1.69.15-3.01.11-3.95-.11-1.69-.38-2.56-1.28-2.6-2.71-.04-.83.24-1.62.85-2.37.53-.64,1.22-1.19,2.09-1.64Z"/><path class="cls-2" d="m158.24,173.57c2.07-.87,3.71-1.39,4.91-1.58,2-.3,3.41-.04,4.24.79.71.75,1.05,1.67,1.02,2.77-.04,1.02-.38,1.94-1.02,2.77-1.09,1.43-2.92,2.41-5.48,2.94l-.85-1.81c.87-.11,1.71-.34,2.54-.68.94-.41,1.62-.87,2.03-1.36.49-.56.73-1.24.73-2.03s-.38-1.33-1.13-1.52c-1.39-.3-3.46.25-6.21,1.64l-.79-1.92Zm2.71-2.88l.28-1.86c1.39.3,3.05.55,4.97.73l-.28,1.81c-1.69-.11-3.35-.34-4.97-.68Z"/><path class="cls-2" d="m173.09,175.89c-.38.3-.64.53-.79.68-.3.34-.42.64-.34.9.08.34.41.58,1.02.73.49.11,1.03.17,1.64.17,1.36,0,3.12-.24,5.31-.73l.4,2.03c-3.09.68-5.57.88-7.45.62-1.77-.23-2.8-.88-3.11-1.98-.34-1.28.3-2.52,1.92-3.73l1.41,1.3Zm-2.31-6.16c3.12.08,5.61-.02,7.45-.28l1.13,1.81c-1.21.49-2.56,1.34-4.07,2.54l-1.3-1.41c.23-.15.71-.47,1.47-.96-1.32.15-2.86.23-4.63.23l-.06-1.92Zm7.9-.11l.96-.51.9,1.58-.96.51-.9-1.58Zm1.24-.56l.96-.51.79,1.52-.96.51-.79-1.52Z"/><path class="cls-2" d="m182.29,172.22c1.81-.23,3.29-.47,4.46-.73-.26-.6-.56-1.28-.9-2.03l2.15-.62c.3.83.64,1.54,1.02,2.15,1.2-.3,2.22-.6,3.05-.9l.85,1.81c-1.13.34-2.17.62-3.11.85.79,1.32,1.69,2.5,2.71,3.56l-1.24,1.3c-.75-.45-1.68-.75-2.77-.9-1.05-.15-1.94-.09-2.65.17-.72.26-1,.68-.85,1.24.19.64.88,1.02,2.09,1.13,1.28.11,2.65-.06,4.12-.51l.62,1.75c-2.18.75-4.18.94-5.99.56-.87-.19-1.56-.55-2.09-1.07-.6-.6-.88-1.3-.85-2.09.04-1.35.75-2.24,2.15-2.65,1.05-.34,2.35-.38,3.9-.11-.42-.6-.81-1.22-1.19-1.86-1.62.34-3.24.64-4.86.9l-.62-1.92Zm9.43-3.11l.96-.56,1.02,1.69-.96.62-1.02-1.75Zm1.36-.39l.9-.56.96,1.64-.9.56-.96-1.64Z"/><path class="cls-2" d="m198.5,170.13c-.26.72-.45,1.49-.56,2.32-.11.71-.19,1.37-.23,1.98-.04.42,0,1,.11,1.75.08.45.17.81.28,1.07.15.34.32.51.51.51.26,0,.53-.3.79-.9l.56-1.24,1.58,1.19c-.23.72-.56,1.43-1.02,2.15-.53.83-1.04,1.34-1.52,1.52s-1,.04-1.52-.45c-.53-.45-.9-.98-1.13-1.58-.87-2.18-.83-5.16.11-8.92l2.03.62Zm5.08,1.24l1.75-.9c1.17,2.07,2.01,4.27,2.54,6.61l-1.98.73c-.53-2.33-1.3-4.48-2.31-6.44Z"/><path class="cls-2" d="m209.06,172.61v-1.86c1.47-.11,2.97-.21,4.52-.28l-.06-1.69,2.2.17-.06,1.47h3.78v1.81c-1.24,0-2.52.02-3.84.06v1.69c.9-.04,2.07-.21,3.5-.51v1.92c-.79.15-1.94.3-3.44.45l.06,1.07c1.54.3,2.95.85,4.23,1.64l-1.07,1.64c-1.05-.68-2.07-1.17-3.05-1.47,0,1.17-.56,1.92-1.69,2.26-.68.19-1.36.26-2.03.23-1.02-.08-1.77-.34-2.26-.79-.53-.49-.7-1.11-.51-1.86.19-.87.75-1.43,1.69-1.69.56-.15,1.45-.21,2.65-.17l-.06-.73c-.94.04-1.68.04-2.2,0-.83-.04-1.38-.28-1.64-.73-.19-.3-.23-.64-.11-1.02.08-.26.24-.68.51-1.24l2.03.34c-.19.26-.3.43-.34.51-.04.15.04.25.23.28.53.04,1.04.04,1.53,0l-.06-1.81c-1.54.11-3.05.23-4.52.34Zm4.63,5.7c-.64-.15-1.22-.13-1.75.06-.53.19-.66.45-.4.79.23.3.66.4,1.3.28.68-.11.96-.49.85-1.13Z"/><path class="cls-2" d="m220.69,170.58c1.73-.04,3.5-.08,5.31-.11l-.06-1.69h2.2l-.06,1.69h4.46v1.86l-4.52-.06.06,1.3c.71.87.94,2,.68,3.39-.15.79-.49,1.56-1.02,2.32-.6.83-1.34,1.5-2.2,2.03l-1.41-1.47c1.09-.64,1.77-1.24,2.03-1.81-.53.3-1.07.36-1.64.17-.75-.26-1.22-.88-1.41-1.86-.15-.87-.06-1.66.28-2.37.53-1.02,1.43-1.41,2.71-1.19l-.06-.45c-1.88.08-3.67.15-5.36.23v-1.98Zm4.91,4.01c-.49.08-.72.42-.68,1.02.04.6.26.92.68.96.3.04.53-.06.68-.28.11-.19.17-.43.17-.73s-.08-.54-.23-.73c-.15-.19-.36-.26-.62-.23Z"/><path class="cls-2" d="m240.17,181.08c-.42,0-.75-.15-1.02-.45-.19-.23-.28-.49-.28-.79s.09-.58.28-.85c.23-.3.53-.45.9-.45.38-.04.7.08.96.34.26.26.4.56.4.9.04.34-.06.64-.28.9-.23.26-.55.4-.96.4Zm-1.19-8.86v-3.22h2.43v3.22l-.51,5.53h-1.47l-.45-5.53Z"/><path class="cls-2" d="m254.62,181.08c-.42,0-.75-.15-1.02-.45-.19-.23-.28-.49-.28-.79s.09-.58.28-.85c.23-.3.53-.45.9-.45.38-.04.7.08.96.34.26.26.4.56.4.9.04.34-.06.64-.28.9-.23.26-.55.4-.96.4Zm-1.19-8.86v-3.22h2.43v3.22l-.51,5.53h-1.47l-.45-5.53Z"/></g><g><path class="cls-4" d="m113.18,174.08c0-.23.04-.64.11-1.24-.79.08-1.49.11-2.09.11l-.11-1.86c1.21,0,2.01-.02,2.43-.06.07-.45.23-1.19.45-2.2l2.15.4c-.23.68-.39,1.22-.51,1.64,1.39-.15,2.54-.32,3.44-.51l.28,1.92c-1.32.26-2.65.43-4.01.51l-.06.68c.98-.08,1.71-.09,2.2-.06.83.08,1.52.28,2.09.62.79.45,1.32,1.09,1.58,1.92.34.98.28,1.9-.17,2.77-.75,1.43-2.17,2.26-4.24,2.48l-.79-1.64c.68-.11,1.22-.24,1.64-.4.71-.26,1.2-.66,1.47-1.19.26-.53.3-1.04.11-1.52-.15-.49-.47-.85-.96-1.07-.87,1.47-1.75,2.56-2.65,3.28l.17.56-1.92,1.02-.06-.17c-.83.49-1.62.71-2.37.68-.6-.04-1.07-.36-1.41-.96-.3-.53-.4-1.07-.28-1.64.3-1.62,1.47-2.97,3.5-4.07Zm.23,4.18c-.08-.26-.13-.6-.17-1.02,0-.38-.02-.75-.06-1.13-.98.75-1.49,1.47-1.52,2.15-.04.45.19.64.68.56.41-.07.77-.26,1.07-.56Zm1.86-1.86c.3-.3.62-.75.96-1.36-.45,0-.79.02-1.02.06,0,.6.02,1.04.06,1.3Z"/><path class="cls-4" d="m123.4,168.89l1.98.4c-.64,2.22-.9,4.1-.79,5.65.26-.68.53-1.3.79-1.86l1.36.85c-.72,1.43-1.22,2.6-1.52,3.5l-1.86.4c-.53-1.58-.73-3.22-.62-4.91.08-1.09.3-2.43.68-4.01Zm2.43,10.62c2.07-.68,3.26-2.03,3.56-4.07.26-1.96.21-4.14-.17-6.55h2.15c.26,2.52.32,4.57.17,6.15-.15,1.47-.57,2.73-1.24,3.78-.79,1.17-1.83,1.98-3.11,2.43l-1.36-1.75Z"/><path class="cls-4" d="m133.06,179.96c1.32-1.77,2.37-3.76,3.16-5.99-.53.11-1.37.32-2.54.62l-.45-1.98c1.17-.19,2.33-.38,3.5-.56.23-.83.39-1.84.51-3.05l2.2.45-.68,2.37c1.39-.23,2.33.13,2.82,1.07.41.75.51,1.9.28,3.44-.11.9-.3,1.71-.56,2.43-.38,1.05-.85,1.73-1.41,2.03-.49.26-1.26.34-2.31.23l-.45-2.03c.79.04,1.28.04,1.47,0,.26-.08.49-.28.68-.62.34-.64.58-1.34.73-2.09.19-.83.21-1.49.06-1.98-.11-.41-.36-.64-.73-.68-.23,0-.58.02-1.07.06-.79,2.71-1.96,5.19-3.5,7.45l-1.69-1.19Zm8.64-10.22l.96-.73,1.19,1.58-.96.68-1.19-1.53Zm.17,2.43l1.69-1.07c.68,1.02,1.41,2.67,2.2,4.97l-1.86.9c-.64-2.18-1.32-3.78-2.03-4.8Zm1.36-3.16l.96-.68,1.13,1.58-.96.68-1.13-1.58Z"/><path class="cls-4" d="m149.66,174.08c-.72-1.32-1.17-2.9-1.36-4.74l2.09-.51c.15,1.81.47,3.26.96,4.35,1.43-.68,2.92-1.28,4.46-1.81l.68,1.81c-1.39.38-2.79.9-4.18,1.58-1.66.79-2.67,1.49-3.05,2.09-.42.64-.4,1.21.06,1.69.23.26.64.43,1.24.51.53.08,1.15.08,1.86,0,1.54-.11,2.97-.38,4.29-.79l.34,2.03c-1.36.34-2.62.54-3.78.62-1.69.15-3.01.11-3.95-.11-1.69-.38-2.56-1.28-2.6-2.71-.04-.83.24-1.62.85-2.37.53-.64,1.22-1.19,2.09-1.64Z"/><path class="cls-4" d="m158.24,173.57c2.07-.87,3.71-1.39,4.91-1.58,2-.3,3.41-.04,4.24.79.71.75,1.05,1.67,1.02,2.77-.04,1.02-.38,1.94-1.02,2.77-1.09,1.43-2.92,2.41-5.48,2.94l-.85-1.81c.87-.11,1.71-.34,2.54-.68.94-.41,1.62-.87,2.03-1.36.49-.56.73-1.24.73-2.03s-.38-1.33-1.13-1.52c-1.39-.3-3.46.25-6.21,1.64l-.79-1.92Zm2.71-2.88l.28-1.86c1.39.3,3.05.55,4.97.73l-.28,1.81c-1.69-.11-3.35-.34-4.97-.68Z"/><path class="cls-4" d="m173.09,175.89c-.38.3-.64.53-.79.68-.3.34-.42.64-.34.9.08.34.41.58,1.02.73.49.11,1.03.17,1.64.17,1.36,0,3.12-.24,5.31-.73l.4,2.03c-3.09.68-5.57.88-7.45.62-1.77-.23-2.8-.88-3.11-1.98-.34-1.28.3-2.52,1.92-3.73l1.41,1.3Zm-2.31-6.16c3.12.08,5.61-.02,7.45-.28l1.13,1.81c-1.21.49-2.56,1.34-4.07,2.54l-1.3-1.41c.23-.15.71-.47,1.47-.96-1.32.15-2.86.23-4.63.23l-.06-1.92Zm7.9-.11l.96-.51.9,1.58-.96.51-.9-1.58Zm1.24-.56l.96-.51.79,1.52-.96.51-.79-1.52Z"/><path class="cls-4" d="m182.29,172.22c1.81-.23,3.29-.47,4.46-.73-.26-.6-.56-1.28-.9-2.03l2.15-.62c.3.83.64,1.54,1.02,2.15,1.2-.3,2.22-.6,3.05-.9l.85,1.81c-1.13.34-2.17.62-3.11.85.79,1.32,1.69,2.5,2.71,3.56l-1.24,1.3c-.75-.45-1.68-.75-2.77-.9-1.05-.15-1.94-.09-2.65.17-.72.26-1,.68-.85,1.24.19.64.88,1.02,2.09,1.13,1.28.11,2.65-.06,4.12-.51l.62,1.75c-2.18.75-4.18.94-5.99.56-.87-.19-1.56-.55-2.09-1.07-.6-.6-.88-1.3-.85-2.09.04-1.35.75-2.24,2.15-2.65,1.05-.34,2.35-.38,3.9-.11-.42-.6-.81-1.22-1.19-1.86-1.62.34-3.24.64-4.86.9l-.62-1.92Zm9.43-3.11l.96-.56,1.02,1.69-.96.62-1.02-1.75Zm1.36-.39l.9-.56.96,1.64-.9.56-.96-1.64Z"/><path class="cls-4" d="m198.5,170.13c-.26.72-.45,1.49-.56,2.32-.11.71-.19,1.37-.23,1.98-.04.42,0,1,.11,1.75.08.45.17.81.28,1.07.15.34.32.51.51.51.26,0,.53-.3.79-.9l.56-1.24,1.58,1.19c-.23.72-.56,1.43-1.02,2.15-.53.83-1.04,1.34-1.52,1.52s-1,.04-1.52-.45c-.53-.45-.9-.98-1.13-1.58-.87-2.18-.83-5.16.11-8.92l2.03.62Zm5.08,1.24l1.75-.9c1.17,2.07,2.01,4.27,2.54,6.61l-1.98.73c-.53-2.33-1.3-4.48-2.31-6.44Z"/><path class="cls-4" d="m209.06,172.61v-1.86c1.47-.11,2.97-.21,4.52-.28l-.06-1.69,2.2.17-.06,1.47h3.78v1.81c-1.24,0-2.52.02-3.84.06v1.69c.9-.04,2.07-.21,3.5-.51v1.92c-.79.15-1.94.3-3.44.45l.06,1.07c1.54.3,2.95.85,4.23,1.64l-1.07,1.64c-1.05-.68-2.07-1.17-3.05-1.47,0,1.17-.56,1.92-1.69,2.26-.68.19-1.36.26-2.03.23-1.02-.08-1.77-.34-2.26-.79-.53-.49-.7-1.11-.51-1.86.19-.87.75-1.43,1.69-1.69.56-.15,1.45-.21,2.65-.17l-.06-.73c-.94.04-1.68.04-2.2,0-.83-.04-1.38-.28-1.64-.73-.19-.3-.23-.64-.11-1.02.08-.26.24-.68.51-1.24l2.03.34c-.19.26-.3.43-.34.51-.04.15.04.25.23.28.53.04,1.04.04,1.53,0l-.06-1.81c-1.54.11-3.05.23-4.52.34Zm4.63,5.7c-.64-.15-1.22-.13-1.75.06-.53.19-.66.45-.4.79.23.3.66.4,1.3.28.68-.11.96-.49.85-1.13Z"/><path class="cls-4" d="m220.69,170.58c1.73-.04,3.5-.08,5.31-.11l-.06-1.69h2.2l-.06,1.69h4.46v1.86l-4.52-.06.06,1.3c.71.87.94,2,.68,3.39-.15.79-.49,1.56-1.02,2.32-.6.83-1.34,1.5-2.2,2.03l-1.41-1.47c1.09-.64,1.77-1.24,2.03-1.81-.53.3-1.07.36-1.64.17-.75-.26-1.22-.88-1.41-1.86-.15-.87-.06-1.66.28-2.37.53-1.02,1.43-1.41,2.71-1.19l-.06-.45c-1.88.08-3.67.15-5.36.23v-1.98Zm4.91,4.01c-.49.08-.72.42-.68,1.02.04.6.26.92.68.96.3.04.53-.06.68-.28.11-.19.17-.43.17-.73s-.08-.54-.23-.73c-.15-.19-.36-.26-.62-.23Z"/><path class="cls-4" d="m240.17,181.08c-.42,0-.75-.15-1.02-.45-.19-.23-.28-.49-.28-.79s.09-.58.28-.85c.23-.3.53-.45.9-.45.38-.04.7.08.96.34.26.26.4.56.4.9.04.34-.06.64-.28.9-.23.26-.55.4-.96.4Zm-1.19-8.86v-3.22h2.43v3.22l-.51,5.53h-1.47l-.45-5.53Z"/><path class="cls-4" d="m254.62,181.08c-.42,0-.75-.15-1.02-.45-.19-.23-.28-.49-.28-.79s.09-.58.28-.85c.23-.3.53-.45.9-.45.38-.04.7.08.96.34.26.26.4.56.4.9.04.34-.06.64-.28.9-.23.26-.55.4-.96.4Zm-1.19-8.86v-3.22h2.43v3.22l-.51,5.53h-1.47l-.45-5.53Z"/></g><g><path d="m113.18,174.08c0-.23.04-.64.11-1.24-.79.08-1.49.11-2.09.11l-.11-1.86c1.21,0,2.01-.02,2.43-.06.07-.45.23-1.19.45-2.2l2.15.4c-.23.68-.39,1.22-.51,1.64,1.39-.15,2.54-.32,3.44-.51l.28,1.92c-1.32.26-2.65.43-4.01.51l-.06.68c.98-.08,1.71-.09,2.2-.06.83.08,1.52.28,2.09.62.79.45,1.32,1.09,1.58,1.92.34.98.28,1.9-.17,2.77-.75,1.43-2.17,2.26-4.24,2.48l-.79-1.64c.68-.11,1.22-.24,1.64-.4.71-.26,1.2-.66,1.47-1.19.26-.53.3-1.04.11-1.52-.15-.49-.47-.85-.96-1.07-.87,1.47-1.75,2.56-2.65,3.28l.17.56-1.92,1.02-.06-.17c-.83.49-1.62.71-2.37.68-.6-.04-1.07-.36-1.41-.96-.3-.53-.4-1.07-.28-1.64.3-1.62,1.47-2.97,3.5-4.07Zm.23,4.18c-.08-.26-.13-.6-.17-1.02,0-.38-.02-.75-.06-1.13-.98.75-1.49,1.47-1.52,2.15-.04.45.19.64.68.56.41-.07.77-.26,1.07-.56Zm1.86-1.86c.3-.3.62-.75.96-1.36-.45,0-.79.02-1.02.06,0,.6.02,1.04.06,1.3Z"/><path d="m123.4,168.89l1.98.4c-.64,2.22-.9,4.1-.79,5.65.26-.68.53-1.3.79-1.86l1.36.85c-.72,1.43-1.22,2.6-1.52,3.5l-1.86.4c-.53-1.58-.73-3.22-.62-4.91.08-1.09.3-2.43.68-4.01Zm2.43,10.62c2.07-.68,3.26-2.03,3.56-4.07.26-1.96.21-4.14-.17-6.55h2.15c.26,2.52.32,4.57.17,6.15-.15,1.47-.57,2.73-1.24,3.78-.79,1.17-1.83,1.98-3.11,2.43l-1.36-1.75Z"/><path d="m133.06,179.96c1.32-1.77,2.37-3.76,3.16-5.99-.53.11-1.37.32-2.54.62l-.45-1.98c1.17-.19,2.33-.38,3.5-.56.23-.83.39-1.84.51-3.05l2.2.45-.68,2.37c1.39-.23,2.33.13,2.82,1.07.41.75.51,1.9.28,3.44-.11.9-.3,1.71-.56,2.43-.38,1.05-.85,1.73-1.41,2.03-.49.26-1.26.34-2.31.23l-.45-2.03c.79.04,1.28.04,1.47,0,.26-.08.49-.28.68-.62.34-.64.58-1.34.73-2.09.19-.83.21-1.49.06-1.98-.11-.41-.36-.64-.73-.68-.23,0-.58.02-1.07.06-.79,2.71-1.96,5.19-3.5,7.45l-1.69-1.19Zm8.64-10.22l.96-.73,1.19,1.58-.96.68-1.19-1.53Zm.17,2.43l1.69-1.07c.68,1.02,1.41,2.67,2.2,4.97l-1.86.9c-.64-2.18-1.32-3.78-2.03-4.8Zm1.36-3.16l.96-.68,1.13,1.58-.96.68-1.13-1.58Z"/><path d="m149.66,174.08c-.72-1.32-1.17-2.9-1.36-4.74l2.09-.51c.15,1.81.47,3.26.96,4.35,1.43-.68,2.92-1.28,4.46-1.81l.68,1.81c-1.39.38-2.79.9-4.18,1.58-1.66.79-2.67,1.49-3.05,2.09-.42.64-.4,1.21.06,1.69.23.26.64.43,1.24.51.53.08,1.15.08,1.86,0,1.54-.11,2.97-.38,4.29-.79l.34,2.03c-1.36.34-2.62.54-3.78.62-1.69.15-3.01.11-3.95-.11-1.69-.38-2.56-1.28-2.6-2.71-.04-.83.24-1.62.85-2.37.53-.64,1.22-1.19,2.09-1.64Z"/><path d="m158.24,173.57c2.07-.87,3.71-1.39,4.91-1.58,2-.3,3.41-.04,4.24.79.71.75,1.05,1.67,1.02,2.77-.04,1.02-.38,1.94-1.02,2.77-1.09,1.43-2.92,2.41-5.48,2.94l-.85-1.81c.87-.11,1.71-.34,2.54-.68.94-.41,1.62-.87,2.03-1.36.49-.56.73-1.24.73-2.03s-.38-1.33-1.13-1.52c-1.39-.3-3.46.25-6.21,1.64l-.79-1.92Zm2.71-2.88l.28-1.86c1.39.3,3.05.55,4.97.73l-.28,1.81c-1.69-.11-3.35-.34-4.97-.68Z"/><path d="m173.09,175.89c-.38.3-.64.53-.79.68-.3.34-.42.64-.34.9.08.34.41.58,1.02.73.49.11,1.03.17,1.64.17,1.36,0,3.12-.24,5.31-.73l.4,2.03c-3.09.68-5.57.88-7.45.62-1.77-.23-2.8-.88-3.11-1.98-.34-1.28.3-2.52,1.92-3.73l1.41,1.3Zm-2.31-6.16c3.12.08,5.61-.02,7.45-.28l1.13,1.81c-1.21.49-2.56,1.34-4.07,2.54l-1.3-1.41c.23-.15.71-.47,1.47-.96-1.32.15-2.86.23-4.63.23l-.06-1.92Zm7.9-.11l.96-.51.9,1.58-.96.51-.9-1.58Zm1.24-.56l.96-.51.79,1.52-.96.51-.79-1.52Z"/><path d="m182.29,172.22c1.81-.23,3.29-.47,4.46-.73-.26-.6-.56-1.28-.9-2.03l2.15-.62c.3.83.64,1.54,1.02,2.15,1.2-.3,2.22-.6,3.05-.9l.85,1.81c-1.13.34-2.17.62-3.11.85.79,1.32,1.69,2.5,2.71,3.56l-1.24,1.3c-.75-.45-1.68-.75-2.77-.9-1.05-.15-1.94-.09-2.65.17-.72.26-1,.68-.85,1.24.19.64.88,1.02,2.09,1.13,1.28.11,2.65-.06,4.12-.51l.62,1.75c-2.18.75-4.18.94-5.99.56-.87-.19-1.56-.55-2.09-1.07-.6-.6-.88-1.3-.85-2.09.04-1.35.75-2.24,2.15-2.65,1.05-.34,2.35-.38,3.9-.11-.42-.6-.81-1.22-1.19-1.86-1.62.34-3.24.64-4.86.9l-.62-1.92Zm9.43-3.11l.96-.56,1.02,1.69-.96.62-1.02-1.75Zm1.36-.39l.9-.56.96,1.64-.9.56-.96-1.64Z"/><path d="m198.5,170.13c-.26.72-.45,1.49-.56,2.32-.11.71-.19,1.37-.23,1.98-.04.42,0,1,.11,1.75.08.45.17.81.28,1.07.15.34.32.51.51.51.26,0,.53-.3.79-.9l.56-1.24,1.58,1.19c-.23.72-.56,1.43-1.02,2.15-.53.83-1.04,1.34-1.52,1.52s-1,.04-1.52-.45c-.53-.45-.9-.98-1.13-1.58-.87-2.18-.83-5.16.11-8.92l2.03.62Zm5.08,1.24l1.75-.9c1.17,2.07,2.01,4.27,2.54,6.61l-1.98.73c-.53-2.33-1.3-4.48-2.31-6.44Z"/><path d="m209.06,172.61v-1.86c1.47-.11,2.97-.21,4.52-.28l-.06-1.69,2.2.17-.06,1.47h3.78v1.81c-1.24,0-2.52.02-3.84.06v1.69c.9-.04,2.07-.21,3.5-.51v1.92c-.79.15-1.94.3-3.44.45l.06,1.07c1.54.3,2.95.85,4.23,1.64l-1.07,1.64c-1.05-.68-2.07-1.17-3.05-1.47,0,1.17-.56,1.92-1.69,2.26-.68.19-1.36.26-2.03.23-1.02-.08-1.77-.34-2.26-.79-.53-.49-.7-1.11-.51-1.86.19-.87.75-1.43,1.69-1.69.56-.15,1.45-.21,2.65-.17l-.06-.73c-.94.04-1.68.04-2.2,0-.83-.04-1.38-.28-1.64-.73-.19-.3-.23-.64-.11-1.02.08-.26.24-.68.51-1.24l2.03.34c-.19.26-.3.43-.34.51-.04.15.04.25.23.28.53.04,1.04.04,1.53,0l-.06-1.81c-1.54.11-3.05.23-4.52.34Zm4.63,5.7c-.64-.15-1.22-.13-1.75.06-.53.19-.66.45-.4.79.23.3.66.4,1.3.28.68-.11.96-.49.85-1.13Z"/><path d="m220.69,170.58c1.73-.04,3.5-.08,5.31-.11l-.06-1.69h2.2l-.06,1.69h4.46v1.86l-4.52-.06.06,1.3c.71.87.94,2,.68,3.39-.15.79-.49,1.56-1.02,2.32-.6.83-1.34,1.5-2.2,2.03l-1.41-1.47c1.09-.64,1.77-1.24,2.03-1.81-.53.3-1.07.36-1.64.17-.75-.26-1.22-.88-1.41-1.86-.15-.87-.06-1.66.28-2.37.53-1.02,1.43-1.41,2.71-1.19l-.06-.45c-1.88.08-3.67.15-5.36.23v-1.98Zm4.91,4.01c-.49.08-.72.42-.68,1.02.04.6.26.92.68.96.3.04.53-.06.68-.28.11-.19.17-.43.17-.73s-.08-.54-.23-.73c-.15-.19-.36-.26-.62-.23Z"/><path d="m240.17,181.08c-.42,0-.75-.15-1.02-.45-.19-.23-.28-.49-.28-.79s.09-.58.28-.85c.23-.3.53-.45.9-.45.38-.04.7.08.96.34.26.26.4.56.4.9.04.34-.06.64-.28.9-.23.26-.55.4-.96.4Zm-1.19-8.86v-3.22h2.43v3.22l-.51,5.53h-1.47l-.45-5.53Z"/><path d="m254.62,181.08c-.42,0-.75-.15-1.02-.45-.19-.23-.28-.49-.28-.79s.09-.58.28-.85c.23-.3.53-.45.9-.45.38-.04.7.08.96.34.26.26.4.56.4.9.04.34-.06.64-.28.9-.23.26-.55.4-.96.4Zm-1.19-8.86v-3.22h2.43v3.22l-.51,5.53h-1.47l-.45-5.53Z"/></g></g></g></g></svg>