<?xml version="1.0" encoding="UTF-8"?><svg id="_レイヤー_2" xmlns="http://www.w3.org/2000/svg" viewBox="0 0 254.08 260.44"><defs><style>.cls-1{fill:#0cc;}.cls-2{fill:#00ccae;}</style></defs><g id="_レイヤー_1-2"><g><g><g><path d="m0,141.67V16.57h21.86l39.47,85.02V16.57h19.43v125.1h-20.04L19.43,54.83v86.84H0Z"/><path d="m96.55,94.91c0-11.33,2.63-21.65,7.89-30.97,5.67-10.12,13.97-15.79,24.9-17,9.31-.81,17.4,2.23,24.29,9.11,8.5,8.5,12.75,20.86,12.75,37.04,0,18.63-4.05,31.99-12.15,40.08-6.48,6.47-13.97,9.72-22.47,9.72s-16-3.25-22.47-9.72c-8.5-8.5-12.75-21.25-12.75-38.26Zm18.83-3.04c-.41,8.5.4,15.39,2.43,20.65,2.43,6.89,6.27,11.14,11.54,12.75,6.47.82,11.33-1.82,14.57-7.89,2.02-4.04,3.44-9.72,4.25-17,.4-10.12-.41-18.01-2.43-23.68-2.84-8.5-7.29-12.75-13.36-12.75-4.46,0-8.1,2.23-10.93,6.68-3.64,5.27-5.67,12.35-6.07,21.25Z"/><path d="m199.18,127.7c2.02,2.03,3.04,4.46,3.04,7.29s-1.01,5.26-3.04,7.29c-2.43,2.43-5.07,3.64-7.89,3.64s-5.46-1.21-7.89-3.64c-2.03-2.03-3.04-4.46-3.04-7.29s1.01-5.26,3.04-7.29c2.43-2.43,5.06-3.64,7.89-3.64s5.47,1.21,7.89,3.64Z"/><path d="m205.88,53.01v-15.18c8.5-.81,14.37-2.43,17.61-4.86,4.86-2.83,8.09-8.29,9.72-16.4h17v125.1h-20.65V53.01h-23.68Z"/></g><g><path class="cls-1" d="m0,141.67V16.57h21.86l39.47,85.02V16.57h19.43v125.1h-20.04L19.43,54.83v86.84H0Z"/><path class="cls-1" d="m96.55,94.91c0-11.33,2.63-21.65,7.89-30.97,5.67-10.12,13.97-15.79,24.9-17,9.31-.81,17.4,2.23,24.29,9.11,8.5,8.5,12.75,20.86,12.75,37.04,0,18.63-4.05,31.99-12.15,40.08-6.48,6.47-13.97,9.72-22.47,9.72s-16-3.25-22.47-9.72c-8.5-8.5-12.75-21.25-12.75-38.26Zm18.83-3.04c-.41,8.5.4,15.39,2.43,20.65,2.43,6.89,6.27,11.14,11.54,12.75,6.47.82,11.33-1.82,14.57-7.89,2.02-4.04,3.44-9.72,4.25-17,.4-10.12-.41-18.01-2.43-23.68-2.84-8.5-7.29-12.75-13.36-12.75-4.46,0-8.1,2.23-10.93,6.68-3.64,5.27-5.67,12.35-6.07,21.25Z"/><path class="cls-1" d="m199.18,127.7c2.02,2.03,3.04,4.46,3.04,7.29s-1.01,5.26-3.04,7.29c-2.43,2.43-5.07,3.64-7.89,3.64s-5.46-1.21-7.89-3.64c-2.03-2.03-3.04-4.46-3.04-7.29s1.01-5.26,3.04-7.29c2.43-2.43,5.06-3.64,7.89-3.64s5.47,1.21,7.89,3.64Z"/><path class="cls-1" d="m205.88,53.01v-15.18c8.5-.81,14.37-2.43,17.61-4.86,4.86-2.83,8.09-8.29,9.72-16.4h17v125.1h-20.65V53.01h-23.68Z"/></g></g><g><g><path d="m9.74,176.06c1.24-2,2.76-2.97,4.05-3.13,2.21-.22,3.89.22,5.4,2.38l2.54,4.27c5.13,8.37,9.78,16.26,14.05,23.67,1.68,2.49,1.41,4.7-.81,6.65-2.32,1.35-4.32.76-6.05-1.78l-13.18-22.42c-1.24-2.43-1.19-1.73-2.11-.05-.32.49-.97,1.57-1.89,3.24l-4.43,8.1c-1.24,2.11-3.13,2.54-5.62,1.24-1.67-1.57-1.95-3.46-.86-5.67,4.81-9.02,7.78-14.53,8.92-16.48Zm18.48-2.92c1.13-1.13,2.54-1.73,4.21-1.73,3.3,0,6,2.7,6,6s-2.7,5.94-6,5.94c-1.67,0-3.08-.59-4.21-1.73s-1.78-2.59-1.78-4.21.59-3.03,1.78-4.27Zm5.57,1.89c-1.78-.86-4,.05-4,2.38,0,1.13.43,1.89,1.35,2.32,1.73.86,4-.16,4-2.32,0-1.13-.43-1.89-1.35-2.38Z"/><path d="m50.48,193.08c.27,1.89-.54,3.03-2.32,3.4-1.78.32-2.81-.49-3.08-2.43l-2.16-12.81c-.22-1.95.59-3.03,2.49-3.24,1.78-.16,2.81.54,2.97,2.11l2.11,12.97Zm-2.75,13.67c3.84-.81,6.97-2.7,9.4-5.57,4.92-5.78,7.02-13.13,7.89-19.61.27-2.32,1.51-3.46,3.84-3.51,2.43.11,3.51,1.46,3.13,4.05-1.35,10.37-3.51,15.78-7.83,21.56-3.94,5.24-9.46,8.92-14.37,10.05-2.54.59-4.11-.27-4.59-2.59-.38-2.54.49-4,2.54-4.38Zm6.65-28.75c1.84-.16,2.86.54,3.03,2.11l2.11,12.97c.27,1.89-.54,3.03-2.38,3.4-1.78.32-2.81-.49-3.08-2.43l-2.16-12.81c-.16-1.95.65-3.03,2.49-3.24Z"/><path d="m79.87,174.07c0-2.86,1.41-4.27,4.27-4.27s4.27,1.41,4.27,4.27v10.32h18.48c2.81,0,4.21,1.4,4.21,4.21s-1.41,4.27-4.21,4.27h-18.48v17.94c0,2.86-1.4,4.27-4.27,4.27s-4.27-1.4-4.27-4.27v-36.74Z"/><path d="m119.86,183.41c3.03-6.48,8.54-10.75,15.08-11.4,3.51-.27,6.81.27,9.78,1.51,6.11,2.65,10.05,9.02,10.48,18.26.05,4.05-.43,7.56-1.57,10.48-2.22,5.62-5.89,8.92-10.37,10.16-2.54.65-4.21-.22-5.03-2.54-.59-2.54.32-4.21,2.65-4.92,1.03-.27,2.38-1.46,4-3.57,1.62-2.11,2.43-5.46,2.38-10.1-.22-6-2.59-10-7.19-10.7-.27,8.48-.92,15.02-2.7,20.42-2.16,6.32-5.13,9.83-9.51,9.67-1.67-.05-3.3-.65-4.81-1.68-3.3-2.16-5.51-7.02-5.57-14.75.05-3.94.86-7.56,2.38-10.86Zm11.83,11.83c.54-4.7.76-9.51.7-14.48-4.27,1.46-7.08,7.4-7.35,13.51-.11,2.7.11,4.65.7,5.89.59,1.24,1.35,1.94,2.27,2,1.89.05,3.08-2.22,3.67-6.92Z"/><path d="m161.63,196.81c.22-.97.81-1.73,1.73-2.27,6.11-3.4,11.29-8.11,15.67-14.21.05-.16.11-.22.05-.27-.05-.11-.11-.16-.27-.16h-12.32c-.92,0-1.73-.32-2.38-.97-.7-.7-1.03-1.51-1.03-2.43s.32-1.73,1.03-2.43c.65-.65,1.46-.97,2.38-.97h4.32c.05,0,.16-.05.27-.16.05-.05.05-.16.05-.32l-1.13-2.59c-.27-.49-.38-.97-.38-1.46,0-.27.05-.7.22-1.19.38-.92,1.03-1.57,1.89-1.89.54-.22,1.08-.32,1.62-.32.49,0,.97.05,1.35.22,1.03.32,1.78.97,2.27,1.89.22.43.43.81.65,1.19l.54,1.19c.16.27.22.65.22,1.03,0,.32-.05.65-.22.92-.27.7-.76,1.13-1.4,1.35-.05.05-.05.11,0,.11v.05h6.05c.32,0,.59-.16.76-.43.86-1.68,1.57-3.35,2.16-4.92.43-1.08,1.13-1.89,2.16-2.43.59-.38,1.24-.54,1.95-.54.38,0,.81.05,1.24.16,1.03.32,1.84.97,2.38,1.95.22.54.32,1.08.32,1.62,0,.49-.05.97-.22,1.41l-1.24,2.7c-.05.16-.05.27,0,.32.05.11.16.16.32.16h5.24c1.19,0,2.16.49,2.92,1.41.59.59.86,1.35.86,2.27,0,.16-.05.43-.11.81-.27,1.46-.65,3.13-1.08,5.03-.05.16,0,.27.05.38.11.11.22.16.27.16h1.08c1.19,0,2.16.43,2.97,1.35.54.7.81,1.46.81,2.32,0,.38-.05.65-.11.81-.27,1.35-.59,3.08-1.08,5.08-.05.11-.05.22.05.32.05.11.16.16.32.16h.86c1.24,0,2.27.43,3.13,1.35.7.81,1.08,1.78,1.08,2.81v.38c-.38,4.54-.81,7.94-1.3,10.21-.49,2.21-1.08,3.78-1.89,4.7-1.03,1.24-2.49,2-4.38,2.27l-1.84.16h-.22c-1.13,0-2.16-.38-3.08-1.19-1.03-.81-1.73-1.89-2.21-3.24-.16-.59-.43-1.19-.76-1.78,0-.05-.16-.16-.22-.11-.16.11-.43.11-.7-.05-.22-.16-.38-.32-.54-.59-.27-1.08-.7-2.32-1.3-3.78-.16-.32-.27-.65-.27-1.03s.11-.76.27-1.08c.27-.65.76-1.13,1.46-1.4.38-.11.76-.16,1.08-.16.38,0,.81.11,1.3.27.7.27,1.3.81,1.68,1.51l.65,1.51c.16.43.27.81.27,1.19s-.11.86-.32,1.35c-.43.81-1.08,1.41-1.95,1.73q-.05,0-.05.05l.05.11,2.92.05c.76,0,1.35-.22,1.78-.65.76-.7,1.35-3.13,1.78-7.4,0-.16-.05-.32-.11-.38-.16-.05-.27-.11-.38-.11h-31.34c-.38,0-.76.11-1.03.27l-.97.65c-.11.05-.16.11-.16.22l.16.22.59.22c1.24.38,2.11,1.19,2.7,2.32.38.59.54,1.24.54,1.94,0,.49-.11.97-.27,1.51-.81,2.05-1.67,3.78-2.65,5.19-.59.86-1.46,1.35-2.49,1.46-.16.05-.38.05-.54.05-.92,0-1.73-.22-2.43-.7-.76-.43-1.19-1.13-1.3-2.16l-.05-.43c0-.76.27-1.46.76-2.05,1.19-1.67,2.22-3.84,3.08-6.38l-.05-.11c-.05-.05-.11-.05-.11,0-.32.16-.7.22-1.13.22-.32,0-.54-.05-.7-.11-.65-.16-1.13-.54-1.51-1.19l-.76-1.35c-.38-.59-.54-1.19-.54-1.89,0-.32.05-.65.16-.97Zm13.02,9.29c0-.65.22-1.24.59-1.84.54-.7,1.24-1.08,2.05-1.19.05-.05.22-.05.49-.05.7,0,1.4.22,2,.7.76.49,1.19,1.19,1.35,2.05.22,1.13.38,2.32.49,3.51v.38c0,.87-.27,1.57-.81,2.16-.59.76-1.35,1.19-2.38,1.3l-.43.05c-.65,0-1.3-.27-1.89-.76-.65-.59-1.03-1.35-1.08-2.21-.05-.81-.16-2-.38-3.57v-.54Zm4.11-12.91h17.94c.38,0,.59-.16.7-.49.05-.27.22-1.08.54-2.32,0-.16-.05-.32-.11-.38-.05-.11-.16-.16-.32-.16h-15.56c-.38,0-.65.11-.92.38-.76.86-1.57,1.73-2.43,2.59-.05.05-.05.11-.05.22.05.11.16.16.22.16Zm4.75,10.48c.38-.7.97-1.19,1.78-1.41.16-.05.49-.05.87-.05.59,0,1.13.11,1.62.38.76.43,1.3,1.08,1.57,1.89s.54,1.78.81,2.81c.05.38.11.65.11.81,0,.59-.16,1.19-.54,1.67-.54.81-1.24,1.3-2.05,1.46-.16.05-.38.11-.7.11-.59,0-1.13-.16-1.62-.49-.76-.49-1.19-1.13-1.35-1.95l-.76-2.97c-.11-.27-.16-.59-.16-.87,0-.49.16-.92.43-1.4Zm3.51-20.53h5.67c.32,0,.54-.16.65-.54l.49-2.21c.05-.11.05-.22-.05-.32-.11-.11-.22-.16-.27-.16h-4.43c-.38,0-.65.16-.81.43l-1.41,2.38c-.11.05-.11.11-.05.27.05.11.16.16.22.16Z"/><path d="m218.74,183.41c3.03-6.48,8.54-10.75,15.08-11.4,3.51-.27,6.81.27,9.78,1.51,6.11,2.65,10.05,9.02,10.48,18.26.05,4.05-.43,7.56-1.57,10.48-2.22,5.62-5.89,8.92-10.37,10.16-2.54.65-4.21-.22-5.03-2.54-.59-2.54.32-4.21,2.65-4.92,1.03-.27,2.38-1.46,4-3.57,1.62-2.11,2.43-5.46,2.38-10.1-.22-6-2.59-10-7.19-10.7-.27,8.48-.92,15.02-2.7,20.42-2.16,6.32-5.13,9.83-9.51,9.67-1.67-.05-3.3-.65-4.81-1.68-3.3-2.16-5.51-7.02-5.57-14.75.05-3.94.86-7.56,2.38-10.86Zm11.83,11.83c.54-4.7.76-9.51.7-14.48-4.27,1.46-7.08,7.4-7.35,13.51-.11,2.7.11,4.65.7,5.89.59,1.24,1.35,1.94,2.27,2,1.89.05,3.08-2.22,3.67-6.92Z"/></g><g><path class="cls-2" d="m9.74,176.06c1.24-2,2.76-2.97,4.05-3.13,2.21-.22,3.89.22,5.4,2.38l2.54,4.27c5.13,8.37,9.78,16.26,14.05,23.67,1.68,2.49,1.41,4.7-.81,6.65-2.32,1.35-4.32.76-6.05-1.78l-13.18-22.42c-1.24-2.43-1.19-1.73-2.11-.05-.32.49-.97,1.57-1.89,3.24l-4.43,8.1c-1.24,2.11-3.13,2.54-5.62,1.24-1.67-1.57-1.95-3.46-.86-5.67,4.81-9.02,7.78-14.53,8.92-16.48Zm18.48-2.92c1.13-1.13,2.54-1.73,4.21-1.73,3.3,0,6,2.7,6,6s-2.7,5.94-6,5.94c-1.67,0-3.08-.59-4.21-1.73s-1.78-2.59-1.78-4.21.59-3.03,1.78-4.27Zm5.57,1.89c-1.78-.86-4,.05-4,2.38,0,1.13.43,1.89,1.35,2.32,1.73.86,4-.16,4-2.32,0-1.13-.43-1.89-1.35-2.38Z"/><path class="cls-2" d="m50.48,193.08c.27,1.89-.54,3.03-2.32,3.4-1.78.32-2.81-.49-3.08-2.43l-2.16-12.81c-.22-1.95.59-3.03,2.49-3.24,1.78-.16,2.81.54,2.97,2.11l2.11,12.97Zm-2.75,13.67c3.84-.81,6.97-2.7,9.4-5.57,4.92-5.78,7.02-13.13,7.89-19.61.27-2.32,1.51-3.46,3.84-3.51,2.43.11,3.51,1.46,3.13,4.05-1.35,10.37-3.51,15.78-7.83,21.56-3.94,5.24-9.46,8.92-14.37,10.05-2.54.59-4.11-.27-4.59-2.59-.38-2.54.49-4,2.54-4.38Zm6.65-28.75c1.84-.16,2.86.54,3.03,2.11l2.11,12.97c.27,1.89-.54,3.03-2.38,3.4-1.78.32-2.81-.49-3.08-2.43l-2.16-12.81c-.16-1.95.65-3.03,2.49-3.24Z"/><path class="cls-2" d="m79.87,174.07c0-2.86,1.41-4.27,4.27-4.27s4.27,1.41,4.27,4.27v10.32h18.48c2.81,0,4.21,1.4,4.21,4.21s-1.41,4.27-4.21,4.27h-18.48v17.94c0,2.86-1.4,4.27-4.27,4.27s-4.27-1.4-4.27-4.27v-36.74Z"/><path class="cls-2" d="m119.86,183.41c3.03-6.48,8.54-10.75,15.08-11.4,3.51-.27,6.81.27,9.78,1.51,6.11,2.65,10.05,9.02,10.48,18.26.05,4.05-.43,7.56-1.57,10.48-2.22,5.62-5.89,8.92-10.37,10.16-2.54.65-4.21-.22-5.03-2.54-.59-2.54.32-4.21,2.65-4.92,1.03-.27,2.38-1.46,4-3.57,1.62-2.11,2.43-5.46,2.38-10.1-.22-6-2.59-10-7.19-10.7-.27,8.48-.92,15.02-2.7,20.42-2.16,6.32-5.13,9.83-9.51,9.67-1.67-.05-3.3-.65-4.81-1.68-3.3-2.16-5.51-7.02-5.57-14.75.05-3.94.86-7.56,2.38-10.86Zm11.83,11.83c.54-4.7.76-9.51.7-14.48-4.27,1.46-7.08,7.4-7.35,13.51-.11,2.7.11,4.65.7,5.89.59,1.24,1.35,1.94,2.27,2,1.89.05,3.08-2.22,3.67-6.92Z"/><path class="cls-2" d="m161.63,196.81c.22-.97.81-1.73,1.73-2.27,6.11-3.4,11.29-8.11,15.67-14.21.05-.16.11-.22.05-.27-.05-.11-.11-.16-.27-.16h-12.32c-.92,0-1.73-.32-2.38-.97-.7-.7-1.03-1.51-1.03-2.43s.32-1.73,1.03-2.43c.65-.65,1.46-.97,2.38-.97h4.32c.05,0,.16-.05.27-.16.05-.05.05-.16.05-.32l-1.13-2.59c-.27-.49-.38-.97-.38-1.46,0-.27.05-.7.22-1.19.38-.92,1.03-1.57,1.89-1.89.54-.22,1.08-.32,1.62-.32.49,0,.97.05,1.35.22,1.03.32,1.78.97,2.27,1.89.22.43.43.81.65,1.19l.54,1.19c.16.27.22.65.22,1.03,0,.32-.05.65-.22.92-.27.7-.76,1.13-1.4,1.35-.05.05-.05.11,0,.11v.05h6.05c.32,0,.59-.16.76-.43.86-1.68,1.57-3.35,2.16-4.92.43-1.08,1.13-1.89,2.16-2.43.59-.38,1.24-.54,1.95-.54.38,0,.81.05,1.24.16,1.03.32,1.84.97,2.38,1.95.22.54.32,1.08.32,1.62,0,.49-.05.97-.22,1.41l-1.24,2.7c-.05.16-.05.27,0,.32.05.11.16.16.32.16h5.24c1.19,0,2.16.49,2.92,1.41.59.59.86,1.35.86,2.27,0,.16-.05.43-.11.81-.27,1.46-.65,3.13-1.08,5.03-.05.16,0,.27.05.38.11.11.22.16.27.16h1.08c1.19,0,2.16.43,2.97,1.35.54.7.81,1.46.81,2.32,0,.38-.05.65-.11.81-.27,1.35-.59,3.08-1.08,5.08-.05.11-.05.22.05.32.05.11.16.16.32.16h.86c1.24,0,2.27.43,3.13,1.35.7.81,1.08,1.78,1.08,2.81v.38c-.38,4.54-.81,7.94-1.3,10.21-.49,2.21-1.08,3.78-1.89,4.7-1.03,1.24-2.49,2-4.38,2.27l-1.84.16h-.22c-1.13,0-2.16-.38-3.08-1.19-1.03-.81-1.73-1.89-2.21-3.24-.16-.59-.43-1.19-.76-1.78,0-.05-.16-.16-.22-.11-.16.11-.43.11-.7-.05-.22-.16-.38-.32-.54-.59-.27-1.08-.7-2.32-1.3-3.78-.16-.32-.27-.65-.27-1.03s.11-.76.27-1.08c.27-.65.76-1.13,1.46-1.4.38-.11.76-.16,1.08-.16.38,0,.81.11,1.3.27.7.27,1.3.81,1.68,1.51l.65,1.51c.16.43.27.81.27,1.19s-.11.86-.32,1.35c-.43.81-1.08,1.41-1.95,1.73q-.05,0-.05.05l.05.11,2.92.05c.76,0,1.35-.22,1.78-.65.76-.7,1.35-3.13,1.78-7.4,0-.16-.05-.32-.11-.38-.16-.05-.27-.11-.38-.11h-31.34c-.38,0-.76.11-1.03.27l-.97.65c-.11.05-.16.11-.16.22l.16.22.59.22c1.24.38,2.11,1.19,2.7,2.32.38.59.54,1.24.54,1.94,0,.49-.11.97-.27,1.51-.81,2.05-1.67,3.78-2.65,5.19-.59.86-1.46,1.35-2.49,1.46-.16.05-.38.05-.54.05-.92,0-1.73-.22-2.43-.7-.76-.43-1.19-1.13-1.3-2.16l-.05-.43c0-.76.27-1.46.76-2.05,1.19-1.67,2.22-3.84,3.08-6.38l-.05-.11c-.05-.05-.11-.05-.11,0-.32.16-.7.22-1.13.22-.32,0-.54-.05-.7-.11-.65-.16-1.13-.54-1.51-1.19l-.76-1.35c-.38-.59-.54-1.19-.54-1.89,0-.32.05-.65.16-.97Zm13.02,9.29c0-.65.22-1.24.59-1.84.54-.7,1.24-1.08,2.05-1.19.05-.05.22-.05.49-.05.7,0,1.4.22,2,.7.76.49,1.19,1.19,1.35,2.05.22,1.13.38,2.32.49,3.51v.38c0,.87-.27,1.57-.81,2.16-.59.76-1.35,1.19-2.38,1.3l-.43.05c-.65,0-1.3-.27-1.89-.76-.65-.59-1.03-1.35-1.08-2.21-.05-.81-.16-2-.38-3.57v-.54Zm4.11-12.91h17.94c.38,0,.59-.16.7-.49.05-.27.22-1.08.54-2.32,0-.16-.05-.32-.11-.38-.05-.11-.16-.16-.32-.16h-15.56c-.38,0-.65.11-.92.38-.76.86-1.57,1.73-2.43,2.59-.05.05-.05.11-.05.22.05.11.16.16.22.16Zm4.75,10.48c.38-.7.97-1.19,1.78-1.41.16-.05.49-.05.87-.05.59,0,1.13.11,1.62.38.76.43,1.3,1.08,1.57,1.89s.54,1.78.81,2.81c.05.38.11.65.11.81,0,.59-.16,1.19-.54,1.67-.54.81-1.24,1.3-2.05,1.46-.16.05-.38.11-.7.11-.59,0-1.13-.16-1.62-.49-.76-.49-1.19-1.13-1.35-1.95l-.76-2.97c-.11-.27-.16-.59-.16-.87,0-.49.16-.92.43-1.4Zm3.51-20.53h5.67c.32,0,.54-.16.65-.54l.49-2.21c.05-.11.05-.22-.05-.32-.11-.11-.22-.16-.27-.16h-4.43c-.38,0-.65.16-.81.43l-1.41,2.38c-.11.05-.11.11-.05.27.05.11.16.16.22.16Z"/><path class="cls-2" d="m218.74,183.41c3.03-6.48,8.54-10.75,15.08-11.4,3.51-.27,6.81.27,9.78,1.51,6.11,2.65,10.05,9.02,10.48,18.26.05,4.05-.43,7.56-1.57,10.48-2.22,5.62-5.89,8.92-10.37,10.16-2.54.65-4.21-.22-5.03-2.54-.59-2.54.32-4.21,2.65-4.92,1.03-.27,2.38-1.46,4-3.57,1.62-2.11,2.43-5.46,2.38-10.1-.22-6-2.59-10-7.19-10.7-.27,8.48-.92,15.02-2.7,20.42-2.16,6.32-5.13,9.83-9.51,9.67-1.67-.05-3.3-.65-4.81-1.68-3.3-2.16-5.51-7.02-5.57-14.75.05-3.94.86-7.56,2.38-10.86Zm11.83,11.83c.54-4.7.76-9.51.7-14.48-4.27,1.46-7.08,7.4-7.35,13.51-.11,2.7.11,4.65.7,5.89.59,1.24,1.35,1.94,2.27,2,1.89.05,3.08-2.22,3.67-6.92Z"/></g></g><g><path class="cls-2" d="m6.7,227.9h17.2c5.62.08,8.1,4.09,6,9.8-2.07,4.92-4.09,8.39-6.08,10.34-2.03,1.94-3.6,3.43-4.8,4.47l1.94,3.23c.91,1.65.45,3.02-1.32,4.13-2.11.75-3.6.37-4.47-1.16l-8.77-14.23c-1.08-1.9-.75-3.43.99-4.63,1.86-.87,3.43-.5,4.63,1.16l3.72,6.08c3.72-2.69,6.24-6.33,7.53-10.92.21-.99-.25-1.49-1.36-1.49H6.7c-2.27,0-3.39-1.12-3.39-3.39s1.12-3.39,3.39-3.39Z"/><path class="cls-2" d="m41.52,244.03c.21,1.45-.41,2.32-1.78,2.6-1.37.25-2.15-.37-2.36-1.86l-1.65-9.8c-.17-1.49.46-2.32,1.9-2.48,1.36-.12,2.15.41,2.27,1.61l1.61,9.92Zm-2.11,10.46c2.94-.62,5.33-2.07,7.2-4.26,3.76-4.42,5.38-10.05,6.04-15.01.21-1.78,1.16-2.65,2.94-2.69,1.86.08,2.69,1.12,2.4,3.1-1.03,7.94-2.69,12.07-6,16.5-3.02,4.01-7.24,6.82-11,7.69-1.94.46-3.14-.21-3.51-1.98-.29-1.94.37-3.06,1.94-3.35Zm5.09-22c1.41-.12,2.19.41,2.32,1.61l1.61,9.92c.21,1.45-.41,2.32-1.82,2.6-1.37.25-2.15-.37-2.36-1.86l-1.65-9.8c-.12-1.49.5-2.32,1.9-2.48Z"/><path class="cls-2" d="m65.63,238.78h7.86v-4.67h-6.7c-2.15,0-3.23-1.08-3.23-3.23s1.08-3.22,3.23-3.22h18.32c2.15,0,3.23,1.08,3.23,3.22s-1.08,3.23-3.23,3.23h-5.04v4.67h6.24c2.15,0,3.23,1.08,3.23,3.23s-1.08,3.23-3.23,3.23h-6.29c-.25,2.69-1.03,4.96-2.32,6.82-2.6,3.76-5.42,5.79-10.42,7.65-1.9.66-3.23,0-3.97-1.99-.62-2.11.04-3.47,1.98-4.13,5.42-1.78,7.44-4.34,8.06-8.35h-7.73c-2.15,0-3.23-1.08-3.23-3.23s1.08-3.23,3.23-3.23Z"/><path class="cls-2" d="m96.61,228.07h7.11c2.15,0,3.23,1.08,3.23,3.23s-1.08,3.23-3.23,3.23h-7.11c-2.15,0-3.23-1.08-3.23-3.23s1.08-3.23,3.23-3.23Zm-.21,24.85c3.56-.62,6.37-1.74,8.44-3.35,4.26-3.31,7.61-7.86,9.1-12.53.7-1.7,2.03-2.27,3.97-1.82,1.86.87,2.44,2.19,1.82,3.97-.74,2.56-2.19,5.33-4.3,8.35-1.57,2.19-3.1,4.01-4.59,5.46-3.02,2.89-7.11,5-13.44,6.37-1.9.37-3.1-.54-3.64-2.65-.29-2.19.62-3.43,2.65-3.8Z"/><path class="cls-2" d="m125.72,238.49c2.36-2.11,4.3-5.33,5.75-9.72.58-2.07,2.03-2.89,4.3-2.48,1.9.54,2.52,1.9,1.86,4.05h7.32c4.92,0,6.99,2.69,6.2,8.02-.79,5.13-3.39,11.12-6.82,14.56-3.35,3.31-6.91,5.29-11.7,7.11-1.94.74-3.39.21-4.3-1.65-.58-2.11,0-3.51,1.78-4.22,1.86-.5,3.85-1.49,5.95-2.94,4.22-2.94,7.73-7.44,8.35-12.53.21-1.45-.46-2.19-1.9-2.19h-7.4c-1.61,2.61-3.18,4.63-4.8,6.16-1.61,1.53-3.18,1.78-4.63.66-1.36-1.82-1.32-3.43.04-4.84Zm18.32-15.59c0-.95.45-1.41,1.41-1.41s1.45.46,1.45,1.41v3.14c0,.95-.45,1.41-1.41,1.41s-1.45-.46-1.45-1.41v-3.14Zm4.47,0c0-.95.46-1.41,1.41-1.41s1.45.46,1.45,1.41v3.14c0,.95-.45,1.41-1.41,1.41s-1.45-.46-1.45-1.41v-3.14Z"/><path class="cls-2" d="m156.94,253.91c.99-.33,2.03-.91,3.06-1.74,2.32-1.82,3.97-5.25,4.01-10.67v-.7c0-2.07,1.03-3.1,3.1-3.1s3.14,1.03,3.14,3.1v.95c-.04,3.35-.62,6.2-1.65,8.52-2.03,4.63-4.67,7.28-8.85,9.43-2.11.79-3.47.25-4.13-1.65-.58-2.11-.12-3.47,1.32-4.13Zm-1.16-23.41c0-2.11,1.03-3.14,3.14-3.14h18.69c4.47.08,6.78,3.64,5.46,8.68-1.32,4.3-4.18,8.39-6.95,10.26-1.94,1.28-3.43,1.12-4.47-.5-.91-1.86-.7-3.31.66-4.3,1.99-1.28,3.97-4.05,4.14-5.67.21-1.49-.41-2.19-1.78-2.15h-15.75c-2.11,0-3.14-1.03-3.14-3.14v-.04Z"/><path class="cls-2" d="m191.34,227.9h15.05c-.58-.79-.87-1.65-.87-2.65,0-1.24.46-2.32,1.37-3.27.87-.87,1.94-1.32,3.23-1.32,2.52,0,4.59,2.07,4.59,4.59,0,1.98-1.28,3.64-3.02,4.26,1.16,1.2,1.74,3.02,1.7,5.46-.33,6.62-2.77,12.82-6.24,16.67-3.47,3.93-6.58,5.75-13.52,7.57-1.86.41-3.06-.46-3.64-2.65-.21-2.19.7-3.43,2.65-3.8,3.51-.83,6.29-2.07,8.23-3.68,3.64-3.1,5.67-7.86,6.04-12.36.17-1.53-.58-2.23-2.19-2.19h-13.36c-2.19,0-3.31-1.12-3.31-3.31s1.12-3.31,3.31-3.31Zm17.78-.87c1.32.66,3.06-.12,3.06-1.78,0-.87-.33-1.45-1.03-1.82-1.36-.66-3.06.04-3.06,1.82,0,.87.33,1.45,1.03,1.78Z"/><path class="cls-2" d="m220.17,229.72c0-2.11,1.08-3.18,3.18-3.18s3.23,1.08,3.23,3.18v13.03c0,2.11-1.08,3.18-3.18,3.18s-3.22-1.08-3.22-3.18v-13.03Zm7.82,24.36c2.19-.87,3.76-1.82,4.75-2.85,2.36-2.52,3.56-5.71,3.6-9.55v-11.95c0-2.11,1.08-3.18,3.18-3.18s3.22,1.08,3.22,3.18v11.95c-.04,3.43-.58,6.37-1.65,8.77-2.11,4.76-5.38,7.48-10.96,9.76-2.19.66-3.6,0-4.3-1.98-.41-2.19.29-3.6,2.15-4.14Z"/></g><g><path class="cls-1" d="m111.65,8.69h-3.72v-2.84h4.17v-1.6l-2.75.35-1.24-3.01c1.42-.06,3.04-.24,4.88-.53,1.83-.3,3.22-.62,4.17-.98l1.6,2.84c-.41.24-1.6.53-3.55.89v2.04h3.46v2.84h-3.28c.83,1.12,1.92,2.22,3.28,3.28l-1.24,3.28c-.77-.53-1.51-1.21-2.22-2.04v7.62h-3.1v-6.92c-.24.47-.68,1.15-1.33,2.04-.65.89-1.21,1.54-1.68,1.95l-1.42-3.46c.71-.65,1.51-1.62,2.39-2.93.83-1.3,1.36-2.25,1.6-2.84Zm7.54,7.36V1.86h3.19v14.19h-3.19Zm5.32.71V.71h3.19v18c0,.59-.21,1.09-.62,1.51-.41.41-.95.62-1.6.62h-3.9l-.98-3.28h3.01c.59.06.89-.21.89-.8Z"/><path class="cls-1" d="m144.46,20.75l-.8-2.93h1.95c.53.12.8-.18.8-.89v-2.84h-3.9v6.21h-3.28v-6.21h-3.9c-.24,3.07-.95,5.35-2.13,6.83l-2.66-2.57c1.12-1.6,1.68-3.78,1.68-6.56V1.24h17.47v17.29c0,1.48-.65,2.22-1.95,2.22h-3.28Zm-8.96-14.36h3.72v-2.31h-3.72v2.31Zm0,4.88h3.72v-2.04h-3.72v2.04Zm7-4.88h3.9v-2.31h-3.9v2.31Zm0,4.88h3.9v-2.04h-3.9v2.04Z"/><path class="cls-1" d="m161.39,9.66l-2.84-1.86-1.51,1.68c-.18-.35-.65-.83-1.42-1.42-.71-.59-1.36-1-1.95-1.24l2.3-2.04c.77.3,1.71,1.01,2.84,2.13l1.15-1.6.71.53.98-1.33h-8.16V1.6h8.69V0h3.1v1.6h8.51v2.93h-2.31l1.77,1.95c-.35.35-.89.8-1.6,1.33-.77.59-1.39.92-1.86.98l-1.77-2.31c1.36-.41,2.39-1.06,3.1-1.95h-6.03l-1.95,2.75.36.27,2.04-2.31,2.13,1.6-3.55,3.9,1.42-.18-.18-.44,2.39-.89.71,1.51,1.15-1.86c.59.12,1.39.44,2.39.98.94.47,1.54.86,1.77,1.15l-1.6,2.57c-.35-.35-.92-.77-1.68-1.24-.77-.47-1.36-.77-1.77-.89l.62,1.33-2.57.89-.18-.71-1.33.18v.89h8.69v2.84h-8.69v4.08h-3.19v-4.08h-8.78v-2.84h8.78v-.62l-3.1.27-.18-1.42c-.24.18-.8.41-1.68.71-.95.3-1.68.47-2.22.53l-.98-2.93c.83-.06,1.77-.24,2.84-.53,1.06-.3,1.83-.59,2.31-.89l.62,1.68h.62l1.06-1.15Z"/></g></g></g></svg>